<?xml version="1.0" standalone="no"?>
<!DOCTYPE svg PUBLIC "-//W3C//DTD SVG 1.1//EN" "http://www.w3.org/Graphics/SVG/1.1/DTD/svg11.dtd" >
<svg>
<metadata>
Created by FontForge 20090914 at Thu Sep  1 15:15:44 2022
 By www-data
Copyright &#194;&#169; 2022 by MCHCRAFTER. All rights reserved.
</metadata>
<defs>
<font id="Audaciti-Regular" horiz-adv-x="503" >
  <font-face 
    font-family="Audaciti"
    font-weight="400"
    font-stretch="normal"
    units-per-em="1000"
    panose-1="0 0 0 0 0 0 0 0 0 0"
    ascent="800"
    descent="-200"
    x-height="471"
    cap-height="681"
    bbox="-678.999 -436.001 3329.01 959.998"
    underline-thickness="0"
    underline-position="0"
    unicode-range="U+000A-U+F07F"
  />
<missing-glyph horiz-adv-x="527" 
d="M50 700v-700h427v700h-427zM78 680h371l-186 -309zM251 350l-180 -301v601zM264 329l185 -308h-370zM276 350l181 302v-605z" />
    <glyph glyph-name="uniF043.liga" unicode="La" horiz-adv-x="890" 
d="M467 125c0 -43.333 14.1689 -76.333 42.502 -99s62.833 -34 103.5 -34c29.333 0 56.666 6.16699 81.999 18.5s46.333 30.5 63 54.5c-0.666992 -5.33301 -1 -10.833 -1 -16.5v-16.5c0 -32 2.83301 -64.833 8.5 -98.5s15.5 -65.334 29.5 -95.001s32.5 -56 55.5 -79
s51.833 -39.833 86.5 -50.5c-16.667 18 -29.834 38.167 -39.501 60.5s-16.834 45.666 -21.501 69.999s-7.5 49 -8.5 74s-1.5 49.167 -1.5 72.5v325c0 26 -2.33301 48.5 -7 67.5s-12.334 35.167 -23.001 48.5s-24.667 24.5 -42 33.5s-38.666 15.833 -63.999 20.5
c-9.33301 2 -18.166 3.33301 -26.499 4s-17.166 1 -26.499 1c-16 0 -34.667 -1.66699 -56 -5s-41.5 -9.16602 -60.5 -17.499s-35.167 -19.5 -48.5 -33.5s-20 -31.333 -20 -52c0 -18.667 6.5 -35.334 19.5 -50.001s29.167 -22 48.5 -22c11.333 0 23.333 2.83301 36 8.5
s19 15.834 19 30.501c0 9.33301 -1.16699 16.666 -3.5 21.999s-5 9.66602 -8 12.999s-5.66699 6.5 -8 9.5s-3.5 6.83301 -3.5 11.5c0 23.333 7.5 40 22.5 50s33.167 15 54.5 15c10 0 20 -1 30 -3s19.167 -5.5 27.5 -10.5s15.166 -11.5 20.499 -19.5s8 -18 8 -30
c0 -19.333 -6.66699 -36.666 -20 -51.999s-29.5 -28.833 -48.5 -40.5s-38.667 -21.667 -59 -30s-37.833 -15.166 -52.5 -20.499c-32 -11.333 -58 -27.666 -78 -48.999s-30 -50 -30 -86zM755.002 318l-0.00292969 -121c0 -16.667 -1.5 -34.5 -4.5 -53.5
s-8.16699 -36.667 -15.5 -53s-17.666 -29.833 -30.999 -40.5s-30.666 -16 -51.999 -16c-12 0 -22.667 3 -32 9s-17 13.833 -23 23.5s-10.667 20.167 -14 31.5s-5 22.333 -5 33c0 31.333 6 55.333 18 72s27 30.5 45 41.5s37.333 21.5 58 31.5s39.334 24 56.001 42zM1065 -66
c-20.667 0 -38.833 -6.99805 -54.5 -20.998s-23.5 -31.667 -23.5 -53c0 -12.667 2 -23.334 6 -32.001s8.33301 -16.334 13 -23.001l13 -19c4 -6 6 -12.667 6 -20c0 -25.333 -9.5 -44 -28.5 -56s-40.167 -18 -63.5 -18c-24 0 -48 7.83301 -72 23.5s-49 35.5 -75 59.5l-83 79
c-29.333 28.667 -61.5 55.667 -96.5 81s-73.667 47.333 -116 66s-89.166 30 -140.499 34v541c0 26 6.66699 50 20 72s34.666 33 63.999 33h-289c-18.667 0 -36.834 -3.33301 -54.501 -10s-33.167 -15.834 -46.5 -27.501s-24.166 -25.667 -32.499 -42
s-12.5 -34.5 -12.5 -54.5c0 -23.333 7.16699 -43.333 21.5 -60s33.5 -25 57.5 -25c17.333 0 33 5 47 15s21 24.667 21 44c0 10.667 -2.66699 19.167 -8 25.5s-11 12 -17 17l-17 14.5c-5.33301 4.66699 -8 10.667 -8 18c0 17.333 7.33301 32.166 22 44.499
s29.667 18.5 45 18.5c25.333 0 42.833 -8.33301 52.5 -25s14.5 -36 14.5 -58l1 -473c0 -26.667 -7 -50.334 -21 -71.001s-35.667 -31.334 -65 -32.001c17.333 0 33.333 -0.166992 48 -0.5s28.834 -1.16602 42.501 -2.49902s27.5 -3.83301 41.5 -7.5s29 -8.5 45 -14.5
c46 -17.333 89.667 -39.166 131 -65.499s81.666 -54.166 120.999 -83.499l84 -60c30 -20.667 61 -39.5 93 -56.5s64.833 -31 98.5 -42s67.5 -16.5 101.5 -16.5c23.333 0 48.333 4 75 12s51.334 19.5 74.001 34.5s41.5 33.333 56.5 55s22.5 45.834 22.5 72.501
c0 32 -11.333 58.167 -34 78.5s-49.334 30.5 -80.001 30.5z" />
    <glyph glyph-name="uniF044.liga" unicode="Ei" horiz-adv-x="932" 
d="M831 560c19.333 0 35 6.5 47 19.5s18 28.833 18 47.5c0 16 -6.16699 31 -18.5 45s-26.833 21 -43.5 21c-19.333 0 -35.833 -6 -49.5 -18s-20.5 -28 -20.5 -48c0 -19.333 6.33301 -35.333 19 -48s28.667 -19 48 -19zM775 214
c0 -23.333 -0.171875 -52.002 -0.504883 -86.002s0.666992 -69.5 3 -106.5s6.83301 -74 13.5 -111s16.834 -70.167 30.501 -99.5s31.834 -53.166 54.501 -71.499s51 -27.5 85 -27.5h7c-19.333 6 -34.166 16.167 -44.499 30.5s-18 30.5 -23 48.5s-8.16699 36.667 -9.5 56
s-2.66602 37.333 -3.99902 54c-2 32.667 -3 65.667 -3 99c0 80.667 0.666992 160.834 2 240.501l4 240.5l-179 -26c2.66699 0.666992 6.33398 1 11.001 1c10.667 0 19.5 -2.66699 26.5 -8s12.5 -12.166 16.5 -20.499s6.83301 -17.333 8.5 -27s2.5 -18.834 2.5 -27.501
c0.666992 -26.667 0.666992 -53.167 0 -79.5s-1 -52.833 -1 -79.5zM1065 -66.002c-25.333 0 -44.666 -7.83203 -57.999 -23.499s-20 -35.5 -20 -59.5c0 -9.33301 2 -17.5 6 -24.5s8.33301 -13.833 13 -20.5s9 -13.5 13 -20.5s6 -14.833 6 -23.5
c0 -12 -2.83301 -22.5 -8.5 -31.5s-13 -16.333 -22 -22s-19 -9.83398 -30 -12.501s-21.833 -4 -32.5 -4c-24 0 -48 7.83301 -72 23.5s-48.833 35.667 -74.5 60l-82.5 79c-29.333 28.333 -61.666 55.333 -96.999 81s-74 47.667 -116 66s-89 29.5 -141 33.5v321h87
c34 0 59 -9 75 -27s24 -43.667 24 -77v227c0 -30 -5.5 -52.167 -16.5 -66.5s-25.333 -24.166 -43 -29.499s-37.5 -7.66602 -59.5 -6.99902s-44.333 1 -67 1v283h171c23.333 0 45.666 -2.5 66.999 -7.5s40.166 -13.167 56.499 -24.5s29.5 -26 39.5 -44s16 -40 18 -66l-11 163
h-545c-18.667 0 -36.834 -3.33301 -54.501 -10s-33.167 -15.834 -46.5 -27.501s-24.166 -25.667 -32.499 -42s-12.5 -34.5 -12.5 -54.5c0 -23.333 7.16699 -43.333 21.5 -60s33.5 -25 57.5 -25c17.333 0 33 5 47 15s21 24.667 21 44c0 10.667 -2.66699 19.167 -8 25.5
s-11 12 -17 17s-11.667 10 -17 15s-8 11.167 -8 18.5c0 16.667 7.33301 31.167 22 43.5s29.667 18.5 45 18.5c25.333 0 42.833 -8.33301 52.5 -25s14.5 -36 14.5 -58v-472c0 -26.667 -6.66699 -50.5 -20 -71.5s-35 -31.833 -65 -32.5c17.333 0 33.333 -0.166992 48 -0.5
s28.667 -1.16602 42 -2.49902s27 -3.83301 41 -7.5s29 -8.5 45 -14.5c22.667 -8.66699 44.667 -18.334 66 -29.001s42.333 -22.334 63 -35.001c37.333 -23.333 75.833 -49.833 115.5 -79.5s80.167 -58 121.5 -85s84 -49.667 128 -68s89.333 -27.5 136 -27.5
c22.667 0 47.167 4 73.5 12s50.833 19.333 73.5 34s41.667 32.5 57 53.5s23 44.5 23 70.5c0 32.667 -10.5 59.667 -31.5 81s-48.167 32 -81.5 32z" />
    <glyph glyph-name="uniF045.liga" unicode="El" horiz-adv-x="932" 
d="M961 -288l7.00098 0.000976562c-19.333 6 -34.333 16.167 -45 30.5s-18.5 30.5 -23.5 48.5s-8 36.667 -9 56s-2.16699 37.333 -3.5 54c-2 36 -3 72 -3 108c0 114.667 0.666992 228.667 2 342s2.33301 227.333 3 342l-181 -27c2 0.666992 5.66699 1 11 1
c12 0 21.5 -2.66699 28.5 -8s12.5 -12.333 16.5 -21s6.83301 -18 8.5 -28s2.5 -19.667 2.5 -29c2.66699 -86.667 3.16699 -172.834 1.5 -258.501s-1.83398 -172.167 -0.500977 -259.5c0 -30 2.16699 -65 6.5 -105s13 -78.333 26 -115s31.667 -67.667 56 -93
s56.5 -38 96.5 -38zM1064 -65.999c-25.333 0 -44.501 -7.99609 -57.501 -23.9961s-19.5 -35.667 -19.5 -59c0 -9.33301 2 -17.5 6 -24.5s8.33301 -13.833 13 -20.5s9 -13.5 13 -20.5s6 -14.833 6 -23.5c0 -12 -2.83301 -22.5 -8.5 -31.5s-13 -16.333 -22 -22
s-19 -9.83398 -30 -12.501s-21.833 -4 -32.5 -4c-24 0 -48 7.83301 -72 23.5s-49 35.667 -75 60l-83 79c-29.333 28.333 -61.5 55.333 -96.5 81s-73.667 47.667 -116 66s-89.166 29.5 -140.499 33.5v321h87c34 0 59 -9 75 -27s24 -43.667 24 -77v227
c0 -30 -5.5 -52.167 -16.5 -66.5s-25.333 -24.166 -43 -29.499s-37.5 -7.66602 -59.5 -6.99902s-44.333 1 -67 1v283h171c23.333 0 45.666 -2.5 66.999 -7.5s40 -13.167 56 -24.5s29.167 -26 39.5 -44s16.166 -40 17.499 -66l-10 163h-545
c-18.667 0 -36.834 -3.33301 -54.501 -10s-33.167 -15.834 -46.5 -27.501s-24.166 -25.667 -32.499 -42s-12.5 -34.5 -12.5 -54.5c0 -23.333 7.16699 -43.333 21.5 -60s33.5 -25 57.5 -25c17.333 0 33 5 47 15s21 24.667 21 44c0 10 -2.66699 18.333 -8 25
s-11 12.5 -17 17.5l-17 14.5c-5.33301 4.66699 -8 10.667 -8 18c0 17.333 7.33301 32.166 22 44.499s29.667 18.5 45 18.5c25.333 0 42.833 -8.33301 52.5 -25s14.5 -36 14.5 -58v-473c0 -26.667 -6.83301 -50.334 -20.5 -71.001s-35.167 -31.334 -64.5 -32.001
c17.333 0 33.333 -0.166992 48 -0.5s28.667 -1.16602 42 -2.49902s27 -3.83301 41 -7.5s29 -8.5 45 -14.5c22.667 -8.66699 44.667 -18.334 66 -29.001s42.333 -22.334 63 -35.001c37.333 -23.333 75.833 -49.833 115.5 -79.5s80.334 -58 122.001 -85
s84.5 -49.667 128.5 -68s89 -27.5 135 -27.5c22.667 0 47.167 4 73.5 12s50.833 19.333 73.5 34s41.667 32.5 57 53.5s23 44.5 23 70.5c0 34 -10.667 61.333 -32 82s-48.666 31 -81.999 31z" />
    <glyph glyph-name="uniF046.liga" unicode="Ki" horiz-adv-x="1022" 
d="M921 560c19.333 0 35 6.50195 47 19.502s18 28.833 18 47.5c0 17.333 -6.5 32.666 -19.5 45.999s-28.167 20 -45.5 20c-18.667 0 -34.5 -6.33301 -47.5 -19s-19.5 -28.334 -19.5 -47.001s6.5 -34.5 19.5 -47.5s28.833 -19.5 47.5 -19.5zM865 251.002
l-0.000976562 -98.502c0 -34.333 1.5 -68.666 4.5 -102.999s8.33301 -67.833 16 -100.5s18.834 -63 33.501 -91c11.333 -21.333 26.5 -40.166 45.5 -56.499s41.167 -24.5 66.5 -24.5c5.33301 0 10.166 0.333008 14.499 1s8.83301 1.66699 13.5 3
c-20 3.33301 -35.333 11.833 -46 25.5s-18.5 29.5 -23.5 47.5s-8.16699 36.833 -9.5 56.5s-2.33301 37.167 -3 52.5s-1.16699 30.333 -1.5 45s-0.5 29.667 -0.5 45c0 71.333 0.666992 142.5 2 213.5s2.33301 142.5 3 214.5l-179 -26c2.66699 0.666992 6.33398 1 11.001 1
c10.667 0 19.5 -2.66699 26.5 -8s12.5 -12.166 16.5 -20.499s6.83301 -17.333 8.5 -27s2.5 -18.834 2.5 -27.501c0 -20.667 -0.166992 -41 -0.5 -61s-0.5 -40.333 -0.5 -61zM1150 -35c-23.333 0 -42.165 -7.33008 -56.498 -21.9971s-21.5 -33.334 -21.5 -56.001
c0 -9.33301 1.5 -17.333 4.5 -24s6.16699 -12.834 9.5 -18.501l9.5 -15.5c3 -4.66699 4.5 -9.66699 4.5 -15c0 -9.33301 -2.66699 -17.166 -8 -23.499s-12 -11.5 -20 -15.5s-16.5 -7 -25.5 -9s-17.167 -3 -24.5 -3c-16.667 0 -33.334 4.5 -50.001 13.5s-32.5 20 -47.5 33
s-28.833 27.167 -41.5 42.5s-23.667 29.666 -33 42.999l-374 542l126 138c10 11.333 21.5 23 34.5 35s26.833 23 41.5 33s29.834 18.5 45.501 25.5s31.5 11.167 47.5 12.5h-205c11.333 0 21.5 -2.5 30.5 -7.5s13.5 -14.167 13.5 -27.5s-4.16699 -26.166 -12.5 -38.499
s-16.833 -23.166 -25.5 -32.499l-223 -245v246c0 26 6.66699 50 20 72s34.666 33 63.999 33h-288c-18.667 0 -36.834 -3.33301 -54.501 -10s-33.167 -15.834 -46.5 -27.501s-24.166 -25.667 -32.499 -42s-12.5 -34.5 -12.5 -54.5c0 -23.333 7.16699 -43.333 21.5 -60
s33.5 -25 57.5 -25c17.333 0 33 5 47 15s21 24.667 21 44c0 10 -2.66699 18.333 -8 25s-11 12.5 -17 17.5l-17 14.5c-5.33301 4.66699 -8 10.667 -8 18c0 17.333 7.33301 32.166 22 44.499s29.667 18.5 45 18.5c25.333 0 42.833 -8.33301 52.5 -25s14.5 -36 14.5 -58v-472
c0 -26.667 -7 -50.667 -21 -72s-35.667 -32 -65 -32h289c-30 0 -51.5 10.667 -64.5 32s-19.5 45.333 -19.5 72v197l39 41l324 -448c40 -54.667 90.333 -98.5 151 -131.5s125.334 -49.5 194.001 -49.5c20.667 0 42.5 2.66699 65.5 8s44.333 13.666 64 24.999
s36 25.833 49 43.5s19.5 38.834 19.5 63.501c0 14 -2.66699 27.833 -8 41.5s-12.833 25.667 -22.5 36s-20.834 18.666 -33.501 24.999s-26.334 9.5 -41.001 9.5z" />
    <glyph glyph-name="uniF047.liga" unicode="ST" horiz-adv-x="1125" 
d="M130 558c0 22 4.99805 40.6641 14.998 55.9971s22.667 27.833 38 37.5s32.666 16.667 51.999 21s38.333 6.5 57 6.5c26 0 51 -4 75 -12c-36.667 17.333 -75.334 26 -116.001 26c-28 0 -55.167 -4.16699 -81.5 -12.5s-49.666 -20.5 -69.999 -36.5
s-36.833 -35.667 -49.5 -59s-19 -50 -19 -80c0 -22 4 -42.167 12 -60.5s18.667 -35 32 -50s28.666 -28.5 45.999 -40.5s35 -22.667 53 -32c20 -10 43.333 -19.667 70 -29s52 -20.5 76 -33.5s44.333 -28.5 61 -46.5s25 -41 25 -69c0 -20.667 -4 -39 -12 -55
s-18.833 -29.5 -32.5 -40.5s-29.5 -19.167 -47.5 -24.5s-36.667 -8 -56 -8c-12 0 -24.167 1.16699 -36.5 3.5s-23.5 6.33301 -33.5 12s-18.167 13.334 -24.5 23.001s-9.5 21.834 -9.5 36.501c0 6 1.33301 11.167 4 15.5s5.83398 9 9.50098 14s6.83398 10.667 9.50098 17
s4 14.166 4 23.499c0 17.333 -6.33301 31 -19 41s-27.334 15 -44.001 15c-28.667 0 -52.167 -9.66699 -70.5 -29s-27.5 -43 -27.5 -71c0 -26 7.5 -47.5 22.5 -64.5s33.5 -30.5 55.5 -40.5s45.667 -16.833 71 -20.5s48.333 -5.5 69 -5.5c34.667 0 67.834 4.66699 99.501 14
s59.5 23.5 83.5 42.5s43.167 42.5 57.5 70.5s21.5 61 21.5 99c0 41.333 -9.16699 74.666 -27.5 99.999s-41.166 46 -68.499 62s-57 29.333 -89 40s-61.667 21.834 -89 33.501s-50.166 25.834 -68.499 42.501s-27.5 39.334 -27.5 68.001zM1122 945.997
c-24 0 -43.6621 -6.33203 -58.9951 -18.999s-23 -31.667 -23 -57c0 -12.667 3.16699 -23.167 9.5 -31.5s13.333 -16.166 21 -23.499s14.667 -15 21 -23s9.5 -17.667 9.5 -29c0 -20 -5.16699 -35.833 -15.5 -47.5s-23.166 -20.667 -38.499 -27s-31.833 -10.5 -49.5 -12.5
s-34.167 -3 -49.5 -3c-32 0 -63.833 2.16699 -95.5 6.5s-63.334 9 -95.001 14s-63.334 9.5 -95.001 13.5s-63.5 6 -95.5 6c-28 0 -57 -3.83301 -87 -11.5s-57.333 -19.5 -82 -35.5s-44.834 -36 -60.501 -60s-23.5 -52.333 -23.5 -85c0 -37.333 12.5 -68.166 37.5 -92.499
s56.167 -36.5 93.5 -36.5c25.333 0 46.333 4.66699 63 14s25 28.333 25 57c0 16 -4.66699 28.167 -14 36.5s-19.5 16.166 -30.5 23.499s-21.167 15.666 -30.5 24.999s-14 22.333 -14 39c0 18 3.83301 32.667 11.5 44s17.667 20 30 26s26 10 41 12s29.833 3 44.5 3
c24 0 48.333 -1.83301 73 -5.5s48.667 -7.83398 72 -12.501v-551c0 -26.667 -6.66699 -50.5 -20 -71.5s-35 -31.5 -65 -31.5h290c-30 0 -51.833 10.5 -65.5 31.5s-20.5 44.833 -20.5 71.5v540c21.333 -3.33301 42.166 -5.5 62.499 -6.5s41.166 -1.5 62.499 -1.5
c12 0 24.167 0.166992 36.5 0.5s24.166 1.5 35.499 3.5c23.333 4 47.166 11.5 71.499 22.5s46.333 24.833 66 41.5s35.834 36 48.501 58s19 46 19 72c0 32 -11.333 58.833 -34 80.5s-49.667 32.5 -81 32.5z" />
    <glyph glyph-name="uniF048.liga" unicode="SF" horiz-adv-x="1123" 
d="M130 558c0 22 4.99805 40.6641 14.998 55.9971s22.667 27.833 38 37.5s32.666 16.667 51.999 21s38.333 6.5 57 6.5c26 0 51 -4 75 -12c-36.667 17.333 -75.334 26 -116.001 26c-28 0 -55.167 -4.16699 -81.5 -12.5s-49.666 -20.5 -69.999 -36.5
s-36.833 -35.667 -49.5 -59s-19 -50 -19 -80c0 -22 4 -42.167 12 -60.5s18.667 -35 32 -50s28.666 -28.5 45.999 -40.5s35 -22.667 53 -32c20 -10 43.333 -19.667 70 -29s52 -20.5 76 -33.5s44.333 -28.5 61 -46.5s25 -41 25 -69c0 -20.667 -4 -39 -12 -55
s-18.833 -29.5 -32.5 -40.5s-29.5 -19.167 -47.5 -24.5s-36.667 -8 -56 -8c-12 0 -24.167 1.16699 -36.5 3.5s-23.5 6.33301 -33.5 12s-18.167 13.334 -24.5 23.001s-9.5 21.834 -9.5 36.501c0 6 1.33301 11.167 4 15.5s5.83398 9 9.50098 14s6.83398 10.667 9.50098 17
s4 14.166 4 23.499c0 17.333 -6.33301 31 -19 41s-27.334 15 -44.001 15c-28.667 0 -52.167 -9.66699 -70.5 -29s-27.5 -43 -27.5 -71c0 -26 7.5 -47.5 22.5 -64.5s33.5 -30.5 55.5 -40.5s45.667 -16.833 71 -20.5s48.333 -5.5 69 -5.5c34.667 0 67.834 4.66699 99.501 14
s59.5 23.5 83.5 42.5s43.167 42.5 57.5 70.5s21.5 61 21.5 99c0 41.333 -9.16699 74.666 -27.5 99.999s-41.166 46 -68.499 62s-57 29.333 -89 40s-61.667 21.834 -89 33.501s-50.166 25.834 -68.499 42.501s-27.5 39.334 -27.5 68.001zM1122 950.997
c-24.667 0 -44.4951 -6.33105 -59.4951 -18.998s-22.5 -31.667 -22.5 -57c0 -12.667 3.16699 -23.167 9.5 -31.5s13.333 -16.166 21 -23.499s14.667 -15 21 -23s9.5 -17.667 9.5 -29c0 -19.333 -5.16699 -35 -15.5 -47s-23 -21.167 -38 -27.5s-31.333 -10.5 -49 -12.5
s-34.167 -3 -49.5 -3c-32 0 -63.5 2.16699 -94.5 6.5s-62 9 -93 14s-62 9.66699 -93 14s-62.5 6.5 -94.5 6.5c-28.667 0 -58.334 -3.83301 -89.001 -11.5s-58.667 -19.334 -84 -35.001s-46.166 -35.667 -62.499 -60s-24.5 -53.5 -24.5 -87.5
c0 -36.667 12.5 -67.167 37.5 -91.5s55.833 -36.5 92.5 -36.5c25.333 0 46.5 5.16699 63.5 15.5s25.5 29.833 25.5 58.5c0 16 -4.66699 28 -14 36s-19.5 15.5 -30.5 22.5s-21.167 14.833 -30.5 23.5s-14 21.334 -14 38.001s3.5 30.5 10.5 41.5s16.167 20 27.5 27
s24.166 12 38.499 15s28.5 4.5 42.5 4.5c28 0 56.5 -2.33301 85.5 -7s57.5 -9 85.5 -13v-556c0 -12.667 -1.66699 -25.167 -5 -37.5s-8.33301 -23.333 -15 -33s-15.334 -17.5 -26.001 -23.5s-23 -9 -37 -9h280c-28 1.33301 -48 12.666 -60 33.999s-18 44.333 -18 69v253h86
c19.333 0 35.5 -3.5 48.5 -10.5s23.167 -16.333 30.5 -28s12.666 -25.167 15.999 -40.5s5 -31.333 5 -48v272c-0.666992 -34 -5.33398 -59.667 -14.001 -77s-21 -29.5 -37 -36.5s-35.333 -10.667 -58 -11s-48.334 -0.5 -77.001 -0.5v271
c18.667 -3.33301 37.167 -5.33301 55.5 -6s36.833 -1 55.5 -1c11.333 0 22.5 0.333008 33.5 1s22.167 1.66699 33.5 3c23.333 3.33301 47.166 10.666 71.499 21.999s46.5 25.5 66.5 42.5s36.333 36.667 49 59s19 46.166 19 71.499c0 15.333 -3.16699 29.833 -9.5 43.5
s-14.666 25.5 -24.999 35.5s-22.5 18 -36.5 24s-28.667 9 -44 9z" />
    <glyph glyph-name="uniF049.liga" unicode="OF" horiz-adv-x="1229" 
d="M594 371v-16.0049c0 -19.333 -2.33301 -41.166 -7 -65.499s-11.5 -49.166 -20.5 -74.499s-19.833 -50.166 -32.5 -74.499s-27.334 -45.833 -44.001 -64.5s-35.167 -33.834 -55.5 -45.501s-42.166 -17.5 -65.499 -17.5c-38.667 0 -71.834 10.667 -99.501 32
s-50.334 48 -68.001 80s-30.5 66.667 -38.5 104s-12 72 -12 104c0 34 4 70.5 12 109.5s21 75 39 108s41.5 60.5 70.5 82.5s64.167 33 105.5 33c24 0 47 -4 69 -12c10 10.667 21.667 19.667 35 27c-31.333 7.33301 -61.666 11 -90.999 11
c-53.333 0 -102.833 -8.5 -148.5 -25.5s-85.334 -41.167 -119.001 -72.5s-60 -69.166 -79 -113.499s-28.5 -93.833 -28.5 -148.5c0 -49.333 9.16699 -95.166 27.5 -137.499s43.333 -78.833 75 -109.5s69 -54.667 112 -72s88.833 -26 137.5 -26
c50 0 96.833 9.16699 140.5 27.5s81.834 43.666 114.501 75.999s58.5 70.333 77.5 114s28.5 90.5 28.5 140.5c0 30 -3.16699 59.5 -9.5 88.5s-16.166 56.833 -29.499 83.5c0.666992 -3.33301 1.16699 -6.66602 1.5 -9.99902s0.5 -6.66602 0.5 -9.99902
c0 -29.333 -9.33301 -55.833 -28 -79.5s-42 -39.167 -70 -46.5zM1229 950.995c-23.333 0 -43.0029 -6.16504 -59.0029 -18.498s-24 -31.166 -24 -56.499c0 -12.667 3.16699 -23.334 9.5 -32.001s13.333 -16.667 21 -24s14.667 -15 21 -23s9.5 -17.667 9.5 -29
c0 -19.333 -5 -35 -15 -47s-22.5 -21.167 -37.5 -27.5s-31.333 -10.666 -49 -12.999s-34.167 -3.5 -49.5 -3.5c-31.333 0 -62.666 2.16699 -93.999 6.5s-62.5 9.16602 -93.5 14.499s-62 10.166 -93 14.499s-62.5 6.5 -94.5 6.5c-28 0 -57.167 -3.66699 -87.5 -11
s-58.333 -18.833 -84 -34.5s-46.834 -35.334 -63.501 -59.001s-25 -51.834 -25 -84.501c0 -42 12.5 -74.833 37.5 -98.5s58.167 -35.5 99.5 -35.5c22 0 41.167 5.83301 57.5 17.5s24.5 29.167 24.5 52.5c0 18.667 -4.66699 32.334 -14 41.001s-19.666 16.334 -30.999 23.001
s-21.666 14.334 -30.999 23.001s-14 22.667 -14 42c0 16 3.83301 29.333 11.5 40s17.334 19.167 29.001 25.5s24.667 10.833 39 13.5s27.833 4 40.5 4c28.667 0 57.334 -2.16699 86.001 -6.5l85 -12.5v-556c0 -12.667 -1.66699 -25.167 -5 -37.5s-8.33301 -23.333 -15 -33
s-15.334 -17.5 -26.001 -23.5s-23 -9 -37 -9h280c-28 1.33301 -48.167 12.5 -60.5 33.5s-18.5 44.167 -18.5 69.5v253h87c19.333 0 35.333 -3.5 48 -10.5s22.834 -16.333 30.501 -28s13.167 -25.167 16.5 -40.5s5 -31.333 5 -48v272
c-0.666992 -34 -5.33398 -59.667 -14.001 -77s-21.167 -29.5 -37.5 -36.5s-35.833 -10.667 -58.5 -11s-48.334 -0.5 -77.001 -0.5v271c19.333 -3.33301 38.333 -5.33301 57 -6s37.667 -1 57 -1c11.333 0 22.333 0.333008 33 1s21.334 1.66699 32.001 3
c23.333 3.33301 47.166 10.5 71.499 21.5s46.5 25.167 66.5 42.5s36.333 37.166 49 59.499s19 46.166 19 71.499c0 15.333 -3.16699 29.833 -9.5 43.5s-14.666 25.5 -24.999 35.5s-22.5 18 -36.5 24s-28.667 9 -44 9z" />
    <glyph glyph-name="uniF04A.liga" unicode="OT" horiz-adv-x="1231" 
d="M1229 946c-23.333 0 -43.001 -6.16797 -59.001 -18.501s-24 -31.166 -24 -56.499c0 -12.667 3.16699 -23.334 9.5 -32.001s13.5 -16.834 21.5 -24.501s15.167 -15.667 21.5 -24s9.5 -18.833 9.5 -31.5c0 -18 -5.33301 -32.667 -16 -44s-23.834 -20.166 -39.501 -26.499
s-32.334 -10.666 -50.001 -12.999s-33.5 -3.5 -47.5 -3.5c-32 0 -63.833 2.16699 -95.5 6.5s-63.334 9 -95.001 14s-63.334 9.66699 -95.001 14s-63.5 6.5 -95.5 6.5c-26.667 0 -55 -3.83301 -85 -11.5s-57.333 -19.167 -82 -34.5s-45.167 -34.666 -61.5 -57.999
s-24.5 -51 -24.5 -83c0 -41.333 12.5 -74.166 37.5 -98.499s58.167 -36.5 99.5 -36.5c22 0 41.167 5.33301 57.5 16s24.5 28 24.5 52c0 18.667 -4.66699 32.334 -14 41.001s-19.666 16.5 -30.999 23.5s-21.666 15 -30.999 24s-14 23.5 -14 43.5
c0 15.333 3.66699 28.166 11 38.499s16.833 18.666 28.5 24.999s24.334 10.833 38.001 13.5s26.834 4 39.501 4c26 0 52 -2 78 -6l78 -12v-551c0 -26.667 -6.83301 -50.5 -20.5 -71.5s-35.5 -31.5 -65.5 -31.5h290c-30 0 -51.667 10.5 -65 31.5s-20 44.833 -20 71.5v540
c18.667 -2.66699 37.334 -4.83398 56.001 -6.50098s37.334 -2.5 56.001 -2.5c14 0 28 0.333008 42 1s28 2 42 4c23.333 3.33301 47.166 10.333 71.499 21s46.5 24.5 66.5 41.5s36.333 36.667 49 59s19 46.5 19 72.5c0 15.333 -3 29.833 -9 43.5s-14.333 25.667 -25 36
s-23 18.5 -37 24.5s-28.667 9 -44 9zM593.999 370.999v-16.0049c0 -19.333 -2.33301 -41.166 -7 -65.499s-11.5 -49.166 -20.5 -74.499s-19.833 -50.166 -32.5 -74.499s-27.334 -45.833 -44.001 -64.5s-35.167 -33.834 -55.5 -45.501s-42.166 -17.5 -65.499 -17.5
c-38.667 0 -71.834 10.667 -99.501 32s-50.334 48 -68.001 80s-30.5 66.667 -38.5 104s-12 72 -12 104c0 34 4 70.5 12 109.5s21 75 39 108s41.5 60.5 70.5 82.5s64.167 33 105.5 33c24 0 47 -4 69 -12c10 10.667 21.667 19.667 35 27
c-31.333 7.33301 -61.666 11 -90.999 11c-53.333 0 -102.833 -8.5 -148.5 -25.5s-85.334 -41.167 -119.001 -72.5s-60 -69.166 -79 -113.499s-28.5 -93.833 -28.5 -148.5c0 -49.333 9.16699 -95.166 27.5 -137.499s43.333 -78.833 75 -109.5s69 -54.667 112 -72
s88.833 -26 137.5 -26c50 0 96.833 9.16699 140.5 27.5s81.834 43.666 114.501 75.999s58.5 70.333 77.5 114s28.5 90.5 28.5 140.5c0 30 -3.16699 59.5 -9.5 88.5s-16.166 56.833 -29.499 83.5c0.666992 -3.33301 1.16699 -6.66602 1.5 -9.99902s0.5 -6.66602 0.5 -9.99902
c0 -29.333 -9.33301 -55.833 -28 -79.5s-42 -39.167 -70 -46.5z" />
    <glyph glyph-name="uniF04B.liga" unicode="Th" horiz-adv-x="1160" 
d="M1344 -45c-18 0 -34.8291 -5.83496 -50.4961 -17.502s-23.5 -27.167 -23.5 -46.5c0 -14 3.66699 -24.167 11 -30.5s15.166 -11.666 23.499 -15.999s16.166 -8.66602 23.499 -12.999s11 -10.833 11 -19.5c0 -22 -7.16699 -40.333 -21.5 -55s-32.5 -22 -54.5 -22
c-24 0 -43.833 7 -59.5 21s-28.167 32 -37.5 54s-16.333 46.833 -21 74.5s-7.66699 55.167 -9 82.5s-1.83301 53.333 -1.5 78s0.5 44.667 0.5 60v216c0 48 -12.5 86.833 -37.5 116.5s-62.5 44.5 -112.5 44.5c-28 0 -54.5 -5.16699 -79.5 -15.5s-46.5 -26.5 -64.5 -48.5v232
c-38 -17.333 -76.333 -29 -115 -35c0.666992 -2 1 -5.33301 1 -10v-489c0 -10.667 -0.833008 -22.667 -2.5 -36s-5 -25.833 -10 -37.5s-11.833 -21.667 -20.5 -30s-20 -12.5 -34 -12.5h246c-14 0 -25.167 4.16699 -33.5 12.5s-14.833 18.5 -19.5 30.5
s-7.83398 24.667 -9.50098 38s-2.5 25 -2.5 35v227c0 12 2.33301 24 7 36s11 22.833 19 32.5s17.5 17.334 28.5 23.001s22.833 8.5 35.5 8.5c14 0 26.667 -3 38 -9s21.166 -13.833 29.499 -23.5s14.666 -20.834 18.999 -33.501s6.5 -25.667 6.5 -39
c0 -51.333 -0.166992 -102.333 -0.5 -153s-0.5 -101.667 -0.5 -153c0 -36.667 3.83301 -73.667 11.5 -111s20.5 -71 38.5 -101s41.833 -54.333 71.5 -73s66.167 -28 109.5 -28c22 0 43.333 2.83301 64 8.5s38.834 14.5 54.501 26.5s28.167 27 37.5 45s14 39.333 14 64
c0 23.333 -7.16699 44.5 -21.5 63.5s-33.833 28.5 -58.5 28.5zM925.004 832.998c0 15.333 -3.00098 29.8311 -9.00098 43.498s-14.333 25.667 -25 36s-23 18.5 -37 24.5s-28.667 9 -44 9c-21.333 0 -40.5 -6 -57.5 -18s-25.5 -29.667 -25.5 -53
c0 -14.667 3.16699 -26.5 9.5 -35.5s13.5 -17.333 21.5 -25s15.167 -15.5 21.5 -23.5s9.5 -18.667 9.5 -32c0 -18 -5.33301 -32.667 -16 -44s-23.834 -20.166 -39.501 -26.499s-32.334 -10.666 -50.001 -12.999s-33.5 -3.5 -47.5 -3.5c-32 0 -63.833 2.16699 -95.5 6.5
s-63.334 9 -95.001 14s-63.334 9.66699 -95.001 14s-63.5 6.5 -95.5 6.5c-26.667 0 -55 -3.83301 -85 -11.5s-57.333 -19.167 -82 -34.5s-45.167 -34.666 -61.5 -57.999s-24.5 -51 -24.5 -83c0 -41.333 12.667 -74.166 38 -98.499s58.333 -36.5 99 -36.5
c22 0 41.167 5.33301 57.5 16s24.5 28 24.5 52c0 18.667 -4.66699 32.334 -14 41.001s-19.666 16.5 -30.999 23.5s-21.666 15 -30.999 24s-14 23.5 -14 43.5c0 15.333 3.83301 28.166 11.5 38.499s17.167 18.666 28.5 24.999s23.833 10.833 37.5 13.5s26.834 4 39.501 4
c26 0 52.167 -2 78.5 -6l77.5 -12v-551c0 -26.667 -6.83301 -50.5 -20.5 -71.5s-35.5 -31.5 -65.5 -31.5h290c-30 0 -51.667 10.5 -65 31.5s-20 44.833 -20 71.5v540c18.667 -2.66699 37.334 -4.83398 56.001 -6.50098s37.334 -2.5 56.001 -2.5c14 0 28.167 0.333008 42.5 1
s28.5 2 42.5 4c23.333 3.33301 47.166 10.5 71.499 21.5s46.333 25 66 42s35.834 36.5 48.501 58.5s19 46 19 72z" />
    <glyph glyph-name="uniF04C.liga" unicode="th" horiz-adv-x="827" 
d="M1000 -45c-18 0 -34.834 -5.83594 -50.501 -17.5029s-23.5 -27.167 -23.5 -46.5c0 -13.333 3.66699 -23.333 11 -30s15.166 -12.167 23.499 -16.5l23.5 -12.5c7.33301 -4 11 -10.333 11 -19c0 -22.667 -7 -41.334 -21 -56.001s-32.333 -22 -55 -22
c-24 0 -43.833 7 -59.5 21s-28.334 32.167 -38.001 54.5s-16.667 47.333 -21 75s-7.16602 55.167 -8.49902 82.5s-1.83301 53.166 -1.5 77.499s0.5 44.166 0.5 59.499v216c0 50 -13.167 89.333 -39.5 118s-65.166 43 -116.499 43c-26.667 0 -52.167 -5.66699 -76.5 -17
s-45.166 -27 -62.499 -47v123c0 24.667 -4.5 48 -13.5 70s-21.5 41.333 -37.5 58s-34.833 29.834 -56.5 39.501s-44.834 14.5 -69.501 14.5c-13.333 0 -27.666 -1.66699 -42.999 -5c-30 -6.66699 -53 -16.667 -69 -30s-29.167 -28.666 -39.5 -45.999
s-19.666 -35.666 -27.999 -54.999s-20.166 -38.666 -35.499 -57.999c-14 -17.333 -30 -32.666 -48 -45.999s-37.333 -24.666 -58 -33.999h66v-348c0 -32.667 9 -60.334 27 -83.001s44.333 -34 79 -34c25.333 0 49.833 6.33301 73.5 19s41.5 30.334 53.5 53.001
c-18.667 -13.333 -39.334 -20 -62.001 -20c-12.667 0 -22.667 2.66699 -30 8s-13 12 -17 20s-6.5 17.167 -7.5 27.5s-1.5 20.5 -1.5 30.5v327l96 12l-96 10v103c0 16 3 31 9 45s14.167 26.5 24.5 37.5s22.5 19.667 36.5 26s29 9.5 45 9.5c27.333 0 49 -9.66699 65 -29
s24 -42 24 -68v-479c0 -10.667 -0.833008 -22.667 -2.5 -36s-5 -25.833 -10 -37.5s-11.833 -21.667 -20.5 -30s-20 -12.5 -34 -12.5h246c-14 0 -25.167 4.16699 -33.5 12.5s-15 18.333 -20 30s-8.33301 24.167 -10 37.5s-2.5 25.333 -2.5 36v222
c0 12.667 2.16699 25.334 6.5 38.001s10.5 24 18.5 34s17.5 18 28.5 24s23.5 9 37.5 9s26.667 -3 38 -9s21.166 -13.833 29.499 -23.5s14.666 -20.834 18.999 -33.501s6.5 -25.667 6.5 -39c0 -51.333 -0.166992 -102.333 -0.5 -153s-0.5 -101.667 -0.5 -153
c0 -36.667 3.83301 -73.667 11.5 -111s20.5 -71 38.5 -101s41.667 -54.333 71 -73s66 -28 110 -28c22 0 43.333 2.83301 64 8.5s38.834 14.5 54.501 26.5s28.167 27 37.5 45s14 39.333 14 64c0 23.333 -7.16699 44.5 -21.5 63.5s-33.833 28.5 -58.5 28.5z" />
    <glyph glyph-name="uniF04D.liga" unicode="ti" horiz-adv-x="516" 
d="M448 457l-172.001 -23.999c12 0 21.667 -2.5 29 -7.5s13.333 -11.5 18 -19.5s7.83398 -17 9.50098 -27s2.5 -20 2.5 -30v-237c0 -10.667 -0.833008 -22.334 -2.5 -35.001s-5 -24.667 -10 -36s-11.833 -20.833 -20.5 -28.5s-19.667 -11.834 -33 -12.501h244
c-12.667 1.33301 -23.167 5.83301 -31.5 13.5s-15 17 -20 28s-8.5 22.833 -10.5 35.5s-3 24.334 -3 35.001v345zM297.999 56.001c-19.333 -13.333 -42 -20.002 -68 -20.002c-11.333 0 -20.333 2.83301 -27 8.5s-11.834 12.834 -15.501 21.501s-6.16699 18 -7.5 28
s-2 19.333 -2 28c0 56 0.166992 111.667 0.5 167s0.5 111 0.5 167c11.333 -0.666992 22.5 -1.16699 33.5 -1.5s22.167 -0.5 33.5 -0.5c15.333 0 34.333 1.16699 57 3.5s44.5 7 65.5 14s39 17 54 30s22.5 30.167 22.5 51.5c0 18.667 -5.66699 35 -17 49
s-26.666 21 -45.999 21c-11.333 0 -22.833 -3.33301 -34.5 -10s-17.5 -16.667 -17.5 -30c0 -10 1.5 -17.833 4.5 -23.5s6.5 -10.167 10.5 -13.5s7.5 -6.5 10.5 -9.5s4.5 -6.83301 4.5 -11.5c0 -8.66699 -3.16699 -16.5 -9.5 -23.5s-14 -13 -23 -18s-18.5 -8.66699 -28.5 -11
s-18.667 -3.5 -26 -3.5h-94v175h-15c-13.333 -41.333 -34.833 -79.166 -64.5 -113.499s-63.5 -61.5 -101.5 -81.5h66v-346c0 -32.667 9 -60.5 27 -83.5s44.333 -34.5 79 -34.5c26 0 50.5 6.16699 73.5 18.5s41.167 29.833 54.5 52.5z" />
    <glyph glyph-name="uniF04E.liga" unicode="tj" horiz-adv-x="488" 
d="M276 433c12 0 21.666 -2.5 28.999 -7.5s13.333 -11.5 18 -19.5s7.83398 -17 9.50098 -27s2.5 -20 2.5 -30v-472c0 -24 -6 -44.333 -18 -61s-31 -25 -57 -25c-12.667 0 -22.334 4.83301 -29.001 14.5s-12.667 20.167 -18 31.5s-11.666 21.833 -18.999 31.5
s-18 14.5 -32 14.5c-12 0 -22 -3.5 -30 -10.5s-12 -16.833 -12 -29.5c0 -14.667 5 -27 15 -37s22 -18 36 -24s28.833 -10.167 44.5 -12.5s29.167 -3.5 40.5 -3.5c28.667 0 54.667 4.66699 78 14s43.333 22.5 60 39.5s29.5 37.333 38.5 61s13.5 49.5 13.5 77.5l2 499z
M297.999 56c-19.333 -13.333 -42 -20.002 -68 -20.002c-11.333 0 -20.333 2.83301 -27 8.5s-11.834 12.834 -15.501 21.501s-6 18 -7 28s-1.5 19.333 -1.5 28v334c11.333 -0.666992 22.5 -1.16699 33.5 -1.5s22.167 -0.5 33.5 -0.5c15.333 0 34.333 1.16699 57 3.5
s44.5 7 65.5 14s39 17 54 30s22.5 30.167 22.5 51.5c0 18.667 -5.66699 35 -17 49s-26.666 21 -45.999 21c-11.333 0 -22.833 -3.33301 -34.5 -10s-17.5 -16.667 -17.5 -30c0 -10 1.5 -17.833 4.5 -23.5s6.5 -10.167 10.5 -13.5s7.5 -6.5 10.5 -9.5s4.5 -6.83301 4.5 -11.5
c0 -8.66699 -3.16699 -16.5 -9.5 -23.5s-14 -13 -23 -18s-18.5 -8.66699 -28.5 -11s-18.667 -3.5 -26 -3.5h-94v175h-15c-13.333 -41.333 -34.833 -79.166 -64.5 -113.499s-63.5 -61.5 -101.5 -81.5h66v-346c0 -32.667 9 -60.5 27 -83.5s44.333 -34.5 79 -34.5
c26 0 50.5 6.16699 73.5 18.5s41.167 29.833 54.5 52.5z" />
    <glyph glyph-name="uniF04F.liga" unicode="ft" horiz-adv-x="642" 
d="M523 455c15.333 0 33.8379 1.16602 55.5049 3.49902s42.5 7.16602 62.5 14.499s37 17.5 51 30.5s21 29.833 21 50.5c0 18.667 -5.83301 34.667 -17.5 48s-27.167 20 -46.5 20c-34 0 -51 -15.667 -51 -47c0 -6.66699 1.5 -12.334 4.5 -17.001s6.5 -8.83398 10.5 -12.501
s7.5 -7.16699 10.5 -10.5s4.5 -7 4.5 -11c0 -10.667 -4 -19.667 -12 -27s-17.5 -13.166 -28.5 -17.499s-22.5 -7.33301 -34.5 -9s-22 -2.5 -30 -2.5v176h-15c-6.66699 -26.667 -18.167 -50.667 -34.5 -72s-35.5 -39.666 -57.5 -54.999s-46 -27.166 -72 -35.499
s-52 -12.5 -78 -12.5c-13.333 0 -26.333 0.166992 -39 0.5s-25.667 0.833008 -39 1.5v175c0 18.667 4.33301 35.667 13 51s23.667 23 45 23c11.333 0 20.666 -2.5 27.999 -7.5s13.166 -11.333 17.499 -19s7.33301 -16.334 9 -26.001s2.5 -19.167 2.5 -28.5
c0 -18 5.33301 -31.667 16 -41s24.667 -14 42 -14c19.333 0 35.666 6.33301 48.999 19s20 28.667 20 48c0 20 -5.5 36.5 -16.5 49.5s-24.5 23.333 -40.5 31s-33.333 13 -52 16s-35.667 4.5 -51 4.5c-28.667 0 -54.834 -4.5 -78.501 -13.5s-44 -21.667 -61 -38
s-30.333 -36.333 -40 -60s-14.5 -50.167 -14.5 -79.5v-90l-78 -25h78v-332c0 -10 -0.833008 -21.5 -2.5 -34.5s-4.83398 -25.5 -9.50098 -37.5s-11.167 -22 -19.5 -30s-19.166 -12 -32.499 -12h240c-13.333 0 -24.166 4 -32.499 12s-14.833 18 -19.5 30
s-7.83398 24.5 -9.50098 37.5s-2.5 24.5 -2.5 34.5v332c37.333 0.666992 74.166 1.5 110.499 2.5s73.166 1.16699 110.499 0.5c0 -58.667 -0.166992 -117 -0.5 -175s-0.5 -116.333 -0.5 -175c0 -32 9.33301 -59.167 28 -81.5s44.667 -33.5 78 -33.5c26 0 50.667 6.5 74 19.5
s41.666 30.5 54.999 52.5c-9.33301 -7.33301 -20.166 -12.666 -32.499 -15.999s-24.166 -5 -35.499 -5s-20.5 2.83301 -27.5 8.5s-12.333 12.834 -16 21.501s-6 18.167 -7 28.5s-1.5 19.833 -1.5 28.5v333z" />
    <glyph glyph-name="uniF050.liga" unicode="fj" horiz-adv-x="470" 
d="M365 574c16.667 0 32.001 6.99902 46.001 20.999s21 29.333 21 46c0 22 -5.16699 40 -15.5 54s-23.5 25.333 -39.5 34s-33.5 14.667 -52.5 18s-37.167 5 -54.5 5c-28 0 -53.833 -4.33301 -77.5 -13s-44.167 -21.167 -61.5 -37.5s-30.833 -36 -40.5 -59
s-14.5 -48.833 -14.5 -77.5v-94l-78 -25h78v-332c0 -10 -0.833008 -21.5 -2.5 -34.5s-4.83398 -25.5 -9.50098 -37.5s-11.167 -22 -19.5 -30s-19.166 -12 -32.499 -12h240c-13.333 0 -24.166 4 -32.499 12s-14.833 18 -19.5 30s-7.83398 24.5 -9.50098 37.5
s-2.5 24.5 -2.5 34.5v332c13.333 3.33301 25 5 35 5c10.667 0 21.667 -1.83301 33 -5.5s21.5 -9 30.5 -16s16.333 -15.167 22 -24.5s8.5 -20 8.5 -32v-496c0 -24 -5.66699 -44.333 -17 -61s-30.333 -25 -57 -25c-12.667 0 -22.334 4.83301 -29.001 14.5
s-12.834 20.167 -18.501 31.5s-11.834 21.833 -18.501 31.5s-16.667 14.5 -30 14.5c-12.667 0 -23.167 -3.5 -31.5 -10.5s-12.5 -17.167 -12.5 -30.5c0 -14.667 5 -26.834 15 -36.501s22.167 -17.5 36.5 -23.5s29.333 -10.167 45 -12.5s28.834 -3.5 39.501 -3.5
c28 0 53.667 4.66699 77 14s43.333 22.5 60 39.5s29.667 37.333 39 61s14 49.5 14 77.5l1 535c-26.667 -8.66699 -53.5 -15.5 -80.5 -20.5s-54.5 -7.5 -82.5 -7.5c-26.667 0 -53 2 -79 6v175c0 18.667 4.33301 35.667 13 51s23.667 23 45 23c16.667 0 30 -6.33301 40 -19
s15 -26.667 15 -42c0 -3.33301 -0.333008 -6.16602 -1 -8.49902s-1 -5.16602 -1 -8.49902c0 -18 6.33301 -33.833 19 -47.5s28.334 -20.5 47.001 -20.5z" />
    <glyph glyph-name="uniF051.liga" unicode="fh" horiz-adv-x="792" 
d="M188 114l0.00292969 332.002l140 25h-140v175c0 18.667 4.33301 35.667 13 51s23.667 23 45 23c11.333 0 20.666 -2.5 27.999 -7.5s13.166 -11.333 17.499 -19s7.33301 -16.334 9 -26.001s2.5 -19.167 2.5 -28.5c0 -18 5.33301 -31.667 16 -41s24.667 -14 42 -14
c20.667 0 37.334 6.66699 50.001 20s19 30 19 50c0 19.333 -5.5 35.166 -16.5 47.499s-24.667 22.333 -41 30s-33.833 13 -52.5 16s-35.334 4.5 -50.001 4.5c-28.667 0 -54.834 -4.5 -78.501 -13.5s-44 -21.667 -61 -38s-30.333 -36.333 -40 -60s-14.5 -50.167 -14.5 -79.5
v-90l-78 -25h78v-332c0 -10 -0.833008 -21.5 -2.5 -34.5s-4.83398 -25.5 -9.50098 -37.5s-11.167 -22 -19.5 -30s-19.166 -12 -32.499 -12h240c-13.333 0 -24.166 4 -32.499 12s-14.833 18 -19.5 30s-7.83398 24.5 -9.50098 37.5s-2.5 24.5 -2.5 34.5zM964.003 -44.998
c-18.667 0 -35.5049 -6 -50.5049 -18s-22.5 -27.667 -22.5 -47c0 -13.333 3.66699 -23.333 11 -30s15.166 -12 23.499 -16s16.166 -8.16699 23.499 -12.5s11 -10.833 11 -19.5c0 -22 -7.33301 -40.333 -22 -55s-33 -22 -55 -22c-24 0 -43.833 7 -59.5 21
s-28.167 32 -37.5 54s-16.166 46.833 -20.499 74.5s-7.16602 55.167 -8.49902 82.5s-1.83301 53.166 -1.5 77.499s0.5 44.5 0.5 60.5v216c0 50 -13.167 89.333 -39.5 118s-65.166 43 -116.499 43c-26.667 0 -52.167 -5.5 -76.5 -16.5s-45.166 -26.833 -62.499 -47.5v290
l-36 -5c14 -16 21 -34 21 -54c0 -26 -9.83301 -47.667 -29.5 -65s-42.5 -24 -68.5 -20v-448c0 -10.667 -0.833008 -22.667 -2.5 -36s-5 -25.833 -10 -37.5s-11.833 -21.667 -20.5 -30s-20 -12.5 -34 -12.5h246c-14 0 -25.167 4.16699 -33.5 12.5s-15 18.333 -20 30
s-8.33301 24.167 -10 37.5s-2.5 25.333 -2.5 36v222c0 12.667 2.16699 25.334 6.5 38.001s10.5 24 18.5 34s17.5 18 28.5 24s23.5 9 37.5 9c28.667 0 51.167 -10.833 67.5 -32.5s24.5 -45.834 24.5 -72.501v-297c0 -37.333 3.5 -75.166 10.5 -113.499s19.333 -73 37 -104
s41.334 -56.167 71.001 -75.5s66.834 -29 111.501 -29c22 0 43.333 2.83301 64 8.5s39 14.5 55 26.5s28.667 27 38 45s14 39.333 14 64c0 23.333 -7.16699 44.5 -21.5 63.5s-34.166 28.5 -59.499 28.5z" />
    <glyph glyph-name="uniF052.liga" unicode="vj" horiz-adv-x="723" 
d="M571 327l0.000976562 -450c0 -24 -5.66699 -44.333 -17 -61s-30.333 -25 -57 -25c-12.667 0 -22.334 4.83301 -29.001 14.5s-12.834 20.167 -18.501 31.5s-12.167 21.833 -19.5 31.5s-18 14.5 -32 14.5c-12.667 0 -22.667 -3.5 -30 -10.5s-11 -17.167 -11 -30.5
c0 -14.667 5 -26.834 15 -36.501s22 -17.5 36 -23.5s28.833 -10.167 44.5 -12.5s29.167 -3.5 40.5 -3.5c28 0 53.667 4.66699 77 14s43.333 22.5 60 39.5s29.667 37.333 39 61s14 49.5 14 77.5v478l-175 -25c24.667 0 41.334 -8.66699 50.001 -26s13 -36.666 13 -57.999z
M621.001 514c19.333 0 35.667 6.99902 49 20.999s20 30.667 20 50c0 8.66699 -2.33301 16.834 -7 24.501s-10.834 14.167 -18.501 19.5s-15.834 9.66602 -24.501 12.999s-17 5 -25 5c-15.333 0 -29.833 -3.33301 -43.5 -10s-26.167 -15.167 -37.5 -25.5s-21.333 -22 -30 -35
s-16 -25.833 -22 -38.5c-30.667 -68 -62.5 -134.833 -95.5 -200.5l-96.5 -199.5l-90 216c-4.66699 10.667 -8.5 22 -11.5 34s-4.5 23.667 -4.5 35c0 12.667 2.83301 23.834 8.5 33.501s15.834 14.5 30.501 14.5h-240c10 0 19.5 -4.66699 28.5 -14s17.5 -20.5 25.5 -33.5
s15 -26 21 -39l14 -30.5l157 -354h22l236 488c6.66699 13.333 16.167 24 28.5 32s25.833 12 40.5 12c12.667 0 23.834 -3 33.501 -9s20.167 -9 31.5 -9z" />
    <glyph glyph-name="uniF053.liga" unicode="wj" horiz-adv-x="1004" 
d="M852 327l0.000976562 -450c0 -24.667 -5.83301 -45.167 -17.5 -61.5s-30.834 -24.5 -57.501 -24.5c-12.667 0 -22.167 4.83301 -28.5 14.5s-12.333 20.167 -18 31.5s-12.167 21.833 -19.5 31.5s-18 14.5 -32 14.5c-12.667 0 -22.834 -3.66699 -30.501 -11
s-11.5 -17.333 -11.5 -30c0 -14.667 5 -26.834 15 -36.501s22.167 -17.5 36.5 -23.5s29.333 -10.167 45 -12.5s29.167 -3.5 40.5 -3.5c28 0 53.667 4.66699 77 14s43.333 22.5 60 39.5s29.667 37.333 39 61s14 49.5 14 77.5v478l-175 -25
c24.667 0 41.334 -8.66699 50.001 -26s13 -36.666 13 -57.999zM853.001 530c6 0 12.6699 -2.5 20.0029 -7.5s17.333 -7.5 30 -7.5c19.333 0 35.5 6.83301 48.5 20.5s19.5 30.167 19.5 49.5c0 8.66699 -2.33301 16.667 -7 24s-10.834 13.833 -18.501 19.5
s-15.834 10 -24.501 13s-17 4.5 -25 4.5c-14.667 0 -28.834 -3.16699 -42.501 -9.5s-26.334 -14.666 -38.001 -24.999s-22 -22 -31 -35s-16.5 -25.833 -22.5 -38.5c-30.667 -64.667 -59.834 -129.667 -87.501 -195l-84.5 -197l-81 210
c-3.33301 9.33301 -6.33301 18.833 -9 28.5s-4 19.5 -4 29.5c0 17.333 4.66699 31.166 14 41.499s22.666 15.5 39.999 15.5h-239c17.333 0 30.666 -5 39.999 -15s14 -23.667 14 -41c0 -10.667 -1.33301 -20.834 -4 -30.501s-6 -19.167 -10 -28.5l-86 -210l-80 210
c-3.33301 9.33301 -6.16602 18.833 -8.49902 28.5s-3.5 19.834 -3.5 30.501c0 15.333 3.83301 28.5 11.5 39.5s20.167 16.5 37.5 16.5h-240c10 0 19.333 -4.5 28 -13.5s16.5 -19.833 23.5 -32.5s13.167 -25.334 18.5 -38.001s9.33301 -23 12 -31l134 -356h28l151 366
l144 -366h29l97.5 222.5l99.5 220.5c4 8.66699 9.83301 18.167 17.5 28.5s16.334 19.833 26.001 28.5s19.834 15.834 30.501 21.501s21.334 8.5 32.001 8.5z" />
    <glyph glyph-name="uniF054.liga" unicode="ra" horiz-adv-x="760" 
d="M268 436c12 0 21.166 -1.83398 27.499 -5.50098s11 -8.5 14 -14.5s4.66699 -13 5 -21s0.5 -16.333 0.5 -25c0 -13.333 4.66699 -24.166 14 -32.499s20.666 -12.5 33.999 -12.5c17.333 0 32.5 8 45.5 24s19.5 32.333 19.5 49c0 14.667 -4 27 -12 37s-18 18.167 -30 24.5
s-25 10.833 -39 13.5s-27 4 -39 4c-25.333 0 -49.5 -5.16699 -72.5 -15.5s-41.833 -25.833 -56.5 -46.5c0 9.33301 -0.5 20.833 -1.5 34.5s-4.5 24.5 -10.5 32.5l-163 -27h8c11.333 0 20.5 -2.83301 27.5 -8.5s12.5 -12.667 16.5 -21s6.83301 -17.5 8.5 -27.5
s2.5 -19.667 2.5 -29v-253c0 -10 -0.833008 -21.5 -2.5 -34.5s-4.66699 -25.5 -9 -37.5s-10.666 -22.167 -18.999 -30.5s-19.166 -12.833 -32.499 -13.5h239c-13.333 0 -24.166 4.16699 -32.499 12.5s-14.833 18.5 -19.5 30.5s-7.83398 24.667 -9.50098 38s-2.5 25 -2.5 35
v189c0 14 1.5 28.667 4.5 44s8 29.5 15 42.5s16.167 23.667 27.5 32s25.333 12.5 42 12.5zM493.999 488.999c-33.333 0 -66.002 -8.00684 -98.002 -24.0068c18 4 36.333 6 55 6c11.333 0 23.5 -1 36.5 -3s25.333 -5.5 37 -10.5s21.334 -12 29.001 -21
s11.5 -20.833 11.5 -35.5c0 -19.333 -6.66699 -36.666 -20 -51.999s-29.5 -29 -48.5 -41s-38.667 -22.167 -59 -30.5s-37.833 -15.166 -52.5 -20.499c-32 -11.333 -58 -27.5 -78 -48.5s-30 -49.5 -30 -85.5c0 -42.667 14.333 -75.667 43 -99s63.334 -35 104.001 -35
c29.333 0 56.5 6.16699 81.5 18.5s45.833 30.5 62.5 54.5c2.66699 -27.333 14 -45.666 34 -54.999s42 -14 66 -14c16 0 33.5 5 52.5 15s33.167 21.333 42.5 34c-8 -5.33301 -16.667 -10 -26 -14s-19 -6 -29 -6c-14 0 -22.833 5.83301 -26.5 17.5s-5.5 23.167 -5.5 34.5v235
c0 16.667 -1.33301 33.834 -4 51.501s-7.66699 34.167 -15 49.5c-6 12.667 -15.333 23.834 -28 33.501s-27 17.834 -43 24.501s-32.167 11.834 -48.5 15.501s-30.833 5.5 -43.5 5.5zM462.997 30.9922c-13.333 0 -24.668 3.33301 -34.001 10s-17 15 -23 25s-10.333 21 -13 33
s-4 23.667 -4 35c0 30 6.16699 53 18.5 69s27.5 29.5 45.5 40.5s37.167 21.5 57.5 31.5s38.5 23.667 54.5 41v-121c0 -16.667 -1.5 -34.5 -4.5 -53.5s-8.16699 -36.667 -15.5 -53s-17.666 -30 -30.999 -41s-30.333 -16.5 -51 -16.5z" />
    <glyph glyph-name="uniF055.liga" unicode="rj" horiz-adv-x="491" 
d="M6 0l239.001 -0.00195312c-13.333 0 -24.166 4.16699 -32.499 12.5s-14.833 18.5 -19.5 30.5s-7.83398 24.667 -9.50098 38s-2.5 25 -2.5 35v189c0 12 3.33301 29.667 10 53s15.667 46.333 27 69s24.166 42.5 38.499 59.5s28.833 25.5 43.5 25.5c4 0 8 -3 12 -9
s8.83301 -12.833 14.5 -20.5s12.834 -14.5 21.501 -20.5s19.667 -9 33 -9c15.333 0 27.666 5.66699 36.999 17s14 24.333 14 39c0 19.333 -7.16699 34.833 -21.5 46.5s-30.5 17.5 -48.5 17.5c-22.667 0 -43.667 -4.5 -63 -13.5s-36.5 -21 -51.5 -36
s-28.167 -31.833 -39.5 -50.5s-20.333 -38 -27 -58c0 9.33301 -0.5 20.833 -1.5 34.5s-4.5 24.5 -10.5 32.5l-163 -26h6c11.333 0 20.666 -2.83301 27.999 -8.5s13.166 -12.667 17.499 -21s7.33301 -17.666 9 -27.999s2.5 -20.166 2.5 -29.499v-253
c0 -10 -0.833008 -21.5 -2.5 -34.5s-4.66699 -25.5 -9 -37.5s-10.666 -22.167 -18.999 -30.5s-19.166 -12.833 -32.499 -13.5zM276.001 410.998c24.667 0 41.335 -8.66699 50.002 -26s13 -36.666 13 -57.999v-450c0 -24 -5.66699 -44.333 -17 -61s-30.333 -25 -57 -25
c-12.667 0 -22.334 4.83301 -29.001 14.5s-12.834 20.167 -18.501 31.5s-12.167 21.833 -19.5 31.5s-18 14.5 -32 14.5c-12.667 0 -22.667 -3.83301 -30 -11.5s-11 -17.5 -11 -29.5c0 -14.667 5 -26.834 15 -36.501s22 -17.5 36 -23.5s28.833 -10.167 44.5 -12.5
s29.167 -3.5 40.5 -3.5c28 0 53.667 4.66699 77 14s43.333 22.5 60 39.5s29.667 37.333 39 61s14 49.5 14 77.5v478z" />
    <glyph glyph-name="uniF056.liga" unicode="cl" horiz-adv-x="699" 
d="M867 -45c-16 0 -32.3252 -5.50293 -48.9922 -16.5029s-25 -25.5 -25 -43.5c0 -15.333 3.66699 -26.5 11 -33.5s15.166 -12.5 23.499 -16.5s16.166 -8 23.499 -12s11 -10.667 11 -20c0 -22 -7 -40.5 -21 -55.5s-32.333 -22.5 -55 -22.5
c-31.333 0 -55.666 11.333 -72.999 34s-30 49.834 -38 81.501s-12.833 64.334 -14.5 98.001s-2.5 61.167 -2.5 82.5v559c0 18 -3.33301 35.667 -10 53s-15.834 32.833 -27.501 46.5s-25.5 24.5 -41.5 32.5s-33.667 12 -53 12c-24 0 -46 -5.5 -66 -16.5
s-37.5 -25.5 -52.5 -43.5s-26.667 -38.167 -35 -60.5s-12.5 -44.5 -12.5 -66.5c0 -11.333 1.5 -26 4.5 -44s8.16699 -31.667 15.5 -41c-17.333 8.66699 -35.166 14.834 -53.499 18.501s-37.166 5.5 -56.499 5.5c-38.667 0 -73.334 -6.16699 -104.001 -18.5
s-56.834 -29.666 -78.501 -51.999s-38.334 -49.166 -50.001 -80.499s-17.5 -66.333 -17.5 -105c0 -32.667 5.83301 -63.667 17.5 -93s27.667 -55 48 -77s44.666 -39.333 72.999 -52s59.166 -19 92.499 -19c29.333 0 55.666 5.33301 78.999 16s43.5 25 60.5 43
s30.833 39 41.5 63s18 49.667 22 77c-4.66699 -20 -11.834 -39.333 -21.501 -58s-21.334 -35 -35.001 -49s-29.5 -25.167 -47.5 -33.5s-38.333 -12.5 -61 -12.5c-24.667 0 -46.5 6.16699 -65.5 18.5s-34.833 28 -47.5 47s-22.167 40.167 -28.5 63.5s-9.5 45.666 -9.5 66.999
c0 19.333 2.16699 42.166 6.5 68.499s11.5 51.5 21.5 75.5s23.333 44.333 40 61s37.667 25 63 25c16 0 29.833 -4.5 41.5 -13.5s17.5 -22.167 17.5 -39.5c0 -8.66699 -2.5 -16.5 -7.5 -23.5s-7.5 -14.833 -7.5 -23.5c0 -11.333 4.33301 -22 13 -32s19 -15 31 -15
c20.667 0 38.167 6.5 52.5 19.5s21.5 30.167 21.5 51.5c0 13.333 -2.5 24.5 -7.5 33.5l-16.5 29c-6 10.333 -11.5 22.833 -16.5 37.5s-7.5 34.334 -7.5 59.001c0 14 1.83301 28.833 5.5 44.5s9.33398 30 17.001 43s17.667 23.833 30 32.5s26.833 13 43.5 13
c20.667 0 36.667 -9 48 -27s17 -36 17 -54v-533c0 -41.333 2.83301 -82.333 8.5 -123s19.167 -79 40.5 -115c20.667 -34 46.5 -60.167 77.5 -78.5s66.5 -27.5 106.5 -27.5c21.333 0 42.166 2.83301 62.499 8.5s38.5 14.167 54.5 25.5s28.833 25.666 38.5 42.999
s14.5 38 14.5 62c0 24.667 -6.5 47 -19.5 67s-33.167 30 -60.5 30z" />
    <glyph glyph-name="uniF057.liga" unicode="ay" horiz-adv-x="921" 
d="M503 42c-8 -5.33301 -16.499 -10 -25.499 -14s-18.167 -6 -27.5 -6c-15.333 0 -24.833 5.66699 -28.5 17s-5.5 23 -5.5 35c0 43.333 0.166992 86.333 0.5 129s0.5 85.667 0.5 129c0 42 -13.5 77 -40.5 105s-61.5 42 -103.5 42c-18 0 -36.333 -3.33301 -55 -10
c10 0 20.167 -1.33301 30.5 -4s19.666 -6.83398 27.999 -12.501s15.166 -12.834 20.499 -21.501s8 -18.667 8 -30c0 -19.333 -6.5 -36.666 -19.5 -51.999s-28.833 -28.833 -47.5 -40.5s-38.167 -21.667 -58.5 -30s-38.166 -15.166 -53.499 -20.499
c-32 -11.333 -58.167 -27.5 -78.5 -48.5s-30.5 -49.833 -30.5 -86.5c0 -40.667 13.5 -73.167 40.5 -97.5s60.5 -36.5 100.5 -36.5c29.333 0 57.666 5.83301 84.999 17.5s49.333 30.167 66 55.5c2.66699 -28 13.834 -46.667 33.501 -56s41.834 -14 66.501 -14
c15.333 0 32.666 5.16699 51.999 15.5s33.333 21.833 42 34.5zM305.001 194c0 -15.333 -1.33496 -32.501 -4.00195 -51.501s-7.66699 -36.667 -15 -53s-17.166 -30.166 -29.499 -41.499s-28.5 -17 -48.5 -17c-13.333 0 -25 2.83301 -35 8.5s-18.167 13.167 -24.5 22.5
s-11.166 19.666 -14.499 30.999s-5 23 -5 35c0 32 6 56.333 18 73s27 30.5 45 41.5s37.167 21.333 57.5 31s38.833 23.834 55.5 42.501v-122zM783.999 470.999c15.333 0 26.666 -4.50195 33.999 -13.502s11 -20.833 11 -35.5c0 -10.667 -1.5 -21.167 -4.5 -31.5
s-6.5 -20.166 -10.5 -29.499l-94 -216l-33.5 85c-13 32 -27.333 63.833 -43 95.5s-32.667 61.334 -51 89.001s-37.166 48.834 -56.499 63.501c-29.333 22 -62.5 38.167 -99.5 48.5s-73.5 15.5 -109.5 15.5c-21.333 0 -47.5 -3.16699 -78.5 -9.5s-60.833 -16 -89.5 -29
s-53.167 -29.5 -73.5 -49.5s-30.5 -43.667 -30.5 -71c0 -24.667 9 -45.5 27 -62.5s39.333 -25.5 64 -25.5c17.333 0 32.333 5.33301 45 16s19 25 19 43c0 8 -1.83301 15.333 -5.5 22s-7.5 13.167 -11.5 19.5s-7.83301 12.833 -11.5 19.5s-5.5 14.334 -5.5 23.001
c0 15.333 4.5 27.666 13.5 36.999s20 16.833 33 22.5s27 9.5 42 11.5s28.167 3 39.5 3c52 0 95.167 -15.167 129.5 -45.5s61.166 -68.5 80.499 -114.5l73 -175.5l72 -176.5l-28 -65c-4 -8.66699 -8.66699 -19.834 -14 -33.501s-11.666 -27 -18.999 -40s-16 -24.333 -26 -34
s-21.333 -14.5 -34 -14.5c-11.333 0 -20.333 2.66699 -27 8s-12.834 11 -18.501 17s-11.667 11.667 -18 17s-14.5 8 -24.5 8c-14 0 -24.667 -4.33301 -32 -13s-11 -19.667 -11 -33c0 -21.333 8.33301 -36.5 25 -45.5s34.334 -13.5 53.001 -13.5
c37.333 0 67.333 11.5 90 34.5s40.667 50.167 54 81.5l207 483c4.66699 10.667 10.334 22.5 17.001 35.5s14.5 25.333 23.5 37s19.167 21.5 30.5 29.5s23.666 12 36.999 12h-160z" />
    <glyph glyph-name="uniF058.liga" unicode="at" horiz-adv-x="806" 
d="M846 690c-14.667 0 -29.1699 -4.33008 -43.5029 -12.9971s-21.5 -21.334 -21.5 -38.001c0 -12 2.16699 -21.5 6.5 -28.5s9 -13 14 -18l13.5 -13.5c4 -4 6 -9.33301 6 -16c0 -11.333 -5.33301 -21.833 -16 -31.5s-23.334 -18.334 -38.001 -26.001
s-29.5 -14.334 -44.5 -20.001l-35.5 -13.5v172h-16c-6 -19.333 -14.5 -38.833 -25.5 -58.5s-23.833 -38.167 -38.5 -55.5s-30.667 -33 -48 -47s-35 -25.333 -53 -34h66v-22l-158 -62c-2.66699 22 -10 40.5 -22 55.5s-26.667 27.333 -44 37s-36.166 16.5 -56.499 20.5
s-40.166 6 -59.499 6c-17.333 0 -36.833 -1.66699 -58.5 -5s-42 -9.33301 -61 -18s-34.833 -20.334 -47.5 -35.001s-19 -33 -19 -55c0 -17.333 6.83301 -33 20.5 -47s29.167 -21 46.5 -21c36.667 0 55 16.667 55 50c0 7.33301 -2.16699 13.833 -6.5 19.5
s-8.83301 10.834 -13.5 15.501c-2 5.33301 -3 10.333 -3 15c0 21.333 8.16699 36.833 24.5 46.5s33.833 14.5 52.5 14.5c23.333 0 41 -3.33301 53 -10s20.5 -15.667 25.5 -27s7.83301 -25 8.5 -41s1 -33 1 -51l-91 -38.5l-90 -39.5
c-16 -6.66699 -30.667 -13.834 -44 -21.501s-24.833 -16.667 -34.5 -27s-17.167 -22.333 -22.5 -36s-8 -30.167 -8 -49.5c0 -42.667 14.333 -75.667 43 -99s63.334 -35 104.001 -35c28 0 55.167 6.16699 81.5 18.5s47.166 30.5 62.499 54.5
c2.66699 -27.333 14 -45.666 34 -54.999s42 -14 66 -14c16 0 33.5 5 52.5 15s33.167 21.333 42.5 34c-8 -5.33301 -16.667 -10 -26 -14s-19 -6 -29 -6c-14 0 -22.833 5.83301 -26.5 17.5s-5.5 23.167 -5.5 34.5v235v1h-1v3l-55.5 -22
c-18.333 -7.33301 -36.5 -15.333 -54.5 -24v-67.5c0 -27 -2.83301 -53 -8.5 -78s-15.667 -46.333 -30 -64s-35.5 -26.5 -63.5 -26.5c-13.333 0 -24.666 3.33301 -33.999 10s-17 15 -23 25s-10.333 21 -13 33s-4 23.667 -4 35c0 28 7.33301 52.5 22 73.5
s34.334 37.167 59.001 48.5c32 14.667 64.5 28.167 97.5 40.5l98.5 37.5l165.5 63.5l166.5 62.5l57 20.5c22 7.66699 42.667 17 62 28s35.833 24.333 49.5 40s20.5 34.167 20.5 55.5c0 24 -8 44.333 -24 61s-36 25 -60 25zM686.997 413.003l-115.001 -41v-271
c0 -32.667 9 -60.334 27 -83.001s44.333 -34 79 -34c25.333 0 49.833 6.33301 73.5 19s41.834 30.334 54.501 53.001c-19.333 -13.333 -40.333 -20 -63 -20c-12.667 0 -22.667 2.66699 -30 8s-13 12 -17 20s-6.5 17.167 -7.5 27.5s-1.5 20.5 -1.5 30.5v291z" />
    <glyph glyph-name="uniF059.liga" unicode="a&#x7a;" horiz-adv-x="916" 
d="M742 22l-90.001 0.00195312l213 427v23c-13.333 -1.33301 -26.666 -2.33301 -39.999 -3s-26.666 -1 -39.999 -1c-50.667 0 -99.334 5 -146.001 15l-144 30l-105.5 21.5c-35.667 7 -71.167 10.5 -106.5 10.5c-24 0 -50.167 -2.66699 -78.5 -8s-55 -14 -80 -26
s-45.833 -27.833 -62.5 -47.5s-25 -44.167 -25 -73.5c0 -26 7.33301 -47.333 22 -64s35.667 -25 63 -25c15.333 0 28.5 4.83301 39.5 14.5s16.5 22.5 16.5 38.5c0 9.33301 -2.16699 18.166 -6.5 26.499s-6.5 17.166 -6.5 26.499c0 17.333 7 32.5 21 45.5s30.833 24 50.5 33
s40 15.667 61 20s38.167 6.5 51.5 6.5c24 0 48 -2.5 72 -7.5l71 -14.5c42 -8 83.167 -16.5 123.5 -25.5s82.5 -14.167 126.5 -15.5l-206 -428v-21h350l14 186c-3.33301 -22 -8.83301 -42.833 -16.5 -62.5s-18 -37 -31 -52s-28.667 -27 -47 -36s-39.5 -13.5 -63.5 -13.5z
M627.999 -44.998c-18.667 0 -35.1641 -5.99512 -49.4971 -17.9951s-21.5 -27.667 -21.5 -47c0 -14 3.66699 -24.167 11 -30.5s15.166 -11.5 23.499 -15.5s16.166 -8 23.499 -12s11 -10.333 11 -19c0 -22.667 -7.16699 -41.334 -21.5 -56.001s-32.833 -22 -55.5 -22
c-27.333 0 -49.333 9.16699 -66 27.5s-29.5 40.666 -38.5 66.999s-15 53.666 -18 81.999s-4.5 52.5 -4.5 72.5v325c0 20 -2.33301 40.167 -7 60.5s-12 38.666 -22 54.999s-23.333 29.666 -40 39.999s-37 15.5 -61 15.5c-19.333 0 -36.666 -3.33301 -51.999 -10
c18.667 0 35.334 -4.83301 50.001 -14.5s22 -24.834 22 -45.501c0 -19.333 -6.66699 -37.166 -20 -53.499s-29.333 -30.833 -48 -43.5s-38.334 -23.667 -59.001 -33s-38.334 -16.666 -53.001 -21.999c-32.667 -11.333 -59 -27.5 -79 -48.5s-30 -49.833 -30 -86.5
c0 -22 4 -41.333 12 -58s18.833 -30.5 32.5 -41.5s29.667 -19.333 48 -25s37.833 -8.5 58.5 -8.5c26.667 0 53 6.33301 79 19s46.333 30.667 61 54c-0.666992 -5.33301 -1 -10.833 -1 -16.5v-16.5c0 -36.667 3.5 -73.5 10.5 -110.5s19.167 -70.333 36.5 -100
s40.666 -53.834 69.999 -72.501s66 -28 110 -28c22 0 43.333 2.83301 64 8.5s39 14.5 55 26.5s28.667 27 38 45s14 39.333 14 64c0 24 -7.5 45.333 -22.5 64s-35.167 28 -60.5 28zM209.002 32.0068c-13.333 0 -24.667 3.33203 -34 9.99902s-17 15 -23 25s-10.333 21 -13 33
s-4 23.667 -4 35c0 30 6.33301 53.167 19 69.5s28.167 29.833 46.5 40.5s37.666 20.834 57.999 30.501s37.833 23.167 52.5 40.5v-121c0 -16.667 -1.5 -34.5 -4.5 -53.5s-8.16699 -36.667 -15.5 -53s-17.666 -29.833 -30.999 -40.5s-30.333 -16 -51 -16z" />
    <glyph glyph-name="uniF05A.liga" unicode="lg" horiz-adv-x="764" 
d="M620 496c10 0 18.667 -3.00781 26 -9.00781s14.5 -12.833 21.5 -20.5s14.667 -14.5 23 -20.5s18.5 -9 30.5 -9c11.333 0 20.833 3.33301 28.5 10s11.5 16 11.5 28c0 11.333 -3 20.833 -9 28.5s-13.5 13.834 -22.5 18.501s-18.833 7.83398 -29.5 9.50098
s-20.667 2.5 -30 2.5c-24.667 0 -46.834 -5.16699 -66.501 -15.5s-37.834 -24.166 -54.501 -41.499c-18 4 -36 6 -54 6c-25.333 0 -50.666 -3.5 -75.999 -10.5s-48.333 -17.667 -69 -32s-37.334 -32.166 -50.001 -53.499s-19 -46.333 -19 -75c0 -31.333 9 -58.5 27 -81.5
s39.667 -42.167 65 -57.5h1c-12 -4.66699 -26.833 -10 -44.5 -16s-34.667 -13.5 -51 -22.5s-30.333 -19.5 -42 -31.5s-17.5 -26 -17.5 -42c0 -21.333 9.5 -37.333 28.5 -48s42.5 -18.834 70.5 -24.501s58.667 -9.83398 92 -12.501s64 -6.5 92 -11.5s51.5 -12.667 70.5 -23
s28.5 -25.5 28.5 -45.5c0 -18 -5.83301 -33.667 -17.5 -47s-25.834 -24.666 -42.501 -33.999s-34.334 -16.666 -53.001 -21.999s-35 -8.66602 -49 -9.99902c26 1.33301 56.333 5.5 91 12.5s67.667 17.5 99 31.5s57.833 32.5 79.5 55.5s32.5 51.167 32.5 84.5
c0 24.667 -9.33301 44.167 -28 58.5s-42 25.5 -70 33.5s-58.5 13.833 -91.5 17.5s-63.5 7.33398 -91.5 11.001s-51.333 8.5 -70 14.5s-28 15.333 -28 28c0 8 2.83301 14.833 8.5 20.5s11.834 10.5 18.501 14.5c16 -6 32.333 -10.333 49 -13s33.667 -4 51 -4
c24.667 0 49.834 3.5 75.501 10.5s48.834 17.5 69.501 31.5s37.5 31.667 50.5 53s19.5 46 19.5 74c0 42.667 -11.333 76.334 -34 101.001s-54 42.667 -94 54c5.33301 6.66699 11.833 12.334 19.5 17.001s15.834 7 24.501 7zM588 316.992
c0 -14 -1.83301 -29.6738 -5.5 -47.0068s-9.33398 -33.666 -17.001 -48.999s-17.5 -28.333 -29.5 -39s-26.667 -16 -44 -16c-18 0 -33.167 4.83301 -45.5 14.5s-22.166 21.834 -29.499 36.501s-12.666 30.334 -15.999 47.001s-5 32.334 -5 47.001s1.5 30.834 4.5 48.501
s8.33301 34.334 16 50.001s17.667 28.834 30 39.501s27.5 16 45.5 16c19.333 0 35.166 -4.83301 47.499 -14.5s22 -21.834 29 -36.501s12 -30.667 15 -48s4.5 -33.666 4.5 -48.999zM363 -45.0146c-16 0 -32.3311 -5.5 -48.998 -16.5s-25 -25.5 -25 -43.5
c0 -16 3.66699 -27.5 11 -34.5s15.166 -12.5 23.499 -16.5s16.166 -8 23.499 -12s11 -10.667 11 -20c0 -22 -7.16699 -40.333 -21.5 -55s-32.5 -22 -54.5 -22c-31.333 0 -55.666 11.333 -72.999 34s-30 49.834 -38 81.501s-12.833 64.167 -14.5 97.5s-2.5 61 -2.5 83v677
l-181 -27c2 0.666992 5.33301 1 10 1c12 0 21.667 -2.66699 29 -8s13 -12.333 17 -21s6.83301 -18 8.5 -28s2.5 -19.667 2.5 -29v-533c0 -41.333 2.83301 -82.333 8.5 -123s19.167 -79 40.5 -115c20 -34 45.667 -60.167 77 -78.5s67 -27.5 107 -27.5
c21.333 0 42.166 2.83301 62.499 8.5s38.5 14.167 54.5 25.5s28.833 25.666 38.5 42.999s14.5 38 14.5 62c0 24.667 -6.5 47 -19.5 67s-33.167 30 -60.5 30z" />
    <glyph glyph-name="uniF05B.liga" unicode="gh" horiz-adv-x="1058" 
d="M1230 -45c-18.667 0 -35.4941 -6.00293 -50.4941 -18.0029s-22.5 -27.667 -22.5 -47c0 -14 3.66699 -24 11 -30s15.166 -11 23.499 -15s16.166 -8.5 23.499 -13.5s11 -13.167 11 -24.5c0 -20.667 -8 -37.834 -24 -51.501s-33.667 -20.5 -53 -20.5
c-24 0 -43.833 7 -59.5 21s-28.167 32.167 -37.5 54.5s-16.166 47.333 -20.499 75s-7.16602 55.167 -8.49902 82.5s-1.83301 53.166 -1.5 77.499s0.5 44.166 0.5 59.499v216c0 50 -13.167 89.333 -39.5 118s-65.166 43 -116.499 43c-26.667 0 -52.167 -5.5 -76.5 -16.5
s-45.166 -26.833 -62.499 -47.5v123c0 24.667 -4.5 48 -13.5 70s-21.5 41.333 -37.5 58s-34.833 29.834 -56.5 39.501s-44.834 14.5 -69.501 14.5c-30.667 0 -59.334 -7.66699 -86.001 -23s-50.5 -35 -71.5 -59s-38.833 -50.5 -53.5 -79.5s-25.334 -57.167 -32.001 -84.5
c-18 4 -36 6 -54 6c-25.333 0 -50.666 -3.5 -75.999 -10.5s-48.333 -17.667 -69 -32s-37.334 -32.166 -50.001 -53.499s-19 -46.333 -19 -75c0 -27.333 7.66699 -52.5 23 -75.5s34.333 -41.5 57 -55.5c-11.333 -6 -23 -13 -35 -21s-22.833 -17.167 -32.5 -27.5
s-17.5 -21.666 -23.5 -33.999s-9 -25.5 -9 -39.5c0 -13.333 2.83301 -26.333 8.5 -39s13.167 -23.667 22.5 -33c-12.667 -11.333 -22.834 -25.5 -30.501 -42.5s-11.5 -34.167 -11.5 -51.5c0 -30 7 -54.5 21 -73.5s31.833 -33.833 53.5 -44.5s45.5 -18 71.5 -22
s51.333 -6 76 -6c28 0 59.833 3 95.5 9s69.167 16.167 100.5 30.5s57.666 33.5 78.999 57.5s32 54 32 90c0 30.667 -6.16699 55.334 -18.5 74.001s-28.5 32.667 -48.5 42s-42.5 15.5 -67.5 18.5s-49.833 4.5 -74.5 4.5c-21.333 0 -42.833 -0.5 -64.5 -1.5
s-43.167 -1.5 -64.5 -1.5c-8 0 -17.833 0.166992 -29.5 0.5s-23 2 -34 5s-20.333 7.5 -28 13.5s-11.5 15 -11.5 27c0 11.333 3.66699 22.5 11 33.5s15.666 19.167 24.999 24.5v-1c16.667 -8.66699 34.167 -15 52.5 -19s36.833 -6 55.5 -6c25.333 0 51.166 3.33301 77.499 10
s50.166 16.834 71.499 30.501s38.833 31.167 52.5 52.5s20.5 46.666 20.5 75.999c0 65.333 -29.333 112 -88 140c-2 11.333 -3 22 -3 32c0 19.333 3.83301 40.833 11.5 64.5s18.167 45.834 31.5 66.501s29.333 37.834 48 51.501s39.334 20.5 62.001 20.5
c27.333 0 49.166 -9.5 65.499 -28.5s24.5 -41.833 24.5 -68.5v-479c0 -10.667 -0.833008 -22.667 -2.5 -36s-5 -25.833 -10 -37.5s-11.833 -21.667 -20.5 -30s-20 -12.5 -34 -12.5h246c-14 0 -25.167 4.16699 -33.5 12.5s-15 18.333 -20 30s-8.33301 24.167 -10 37.5
s-2.5 25.333 -2.5 36v222c0 12.667 2.16699 25.334 6.5 38.001s10.5 24 18.5 34s17.5 18 28.5 24s23.5 9 37.5 9s26.667 -3 38 -9s21.166 -13.833 29.499 -23.5s14.666 -20.834 18.999 -33.501s6.5 -25.667 6.5 -39c0 -51.333 -0.166992 -102.333 -0.5 -153
s-0.5 -101.667 -0.5 -153c0 -36.667 3.83301 -73.667 11.5 -111s20.334 -71 38.001 -101s41.167 -54.333 70.5 -73s66 -28 110 -28c22 0 43.333 2.83301 64 8.5s39 14.5 55 26.5s28.667 27 38 45s14 39.333 14 64c0 23.333 -7.16699 44.5 -21.5 63.5
s-34.166 28.5 -59.499 28.5zM473.006 -104.003c0 -23.333 -9.66504 -42.834 -28.998 -58.501s-42.333 -28.167 -69 -37.5s-54 -16 -82 -20s-50.667 -6 -68 -6c-19.333 0 -40.333 1.33301 -63 4s-43.834 8.33398 -63.501 17.001s-36.167 20.5 -49.5 35.5s-20 35.167 -20 60.5
c0 33.333 11.333 62.333 34 87c17.333 -11.333 33.666 -18.833 48.999 -22.5s33.333 -5.5 54 -5.5h230c18 0 35.333 -3.5 52 -10.5s25 -21.5 25 -43.5zM250.008 165.996c-18 0 -33.167 4.82715 -45.5 14.4941s-22.166 21.834 -29.499 36.501s-12.666 30.334 -15.999 47.001
s-5 32.334 -5 47.001s1.5 30.834 4.5 48.501s8.33301 34.334 16 50.001s17.667 28.834 30 39.501s27.5 16 45.5 16c19.333 0 35.166 -4.83301 47.499 -14.5s22 -21.834 29 -36.501s12 -30.667 15 -48s4.5 -33.666 4.5 -48.999c0 -14 -1.83301 -29.667 -5.5 -47
s-9.33398 -33.833 -17.001 -49.5s-17.5 -28.667 -29.5 -39s-26.667 -15.5 -44 -15.5z" />
    <glyph glyph-name="uniF05C.liga" unicode="tt" horiz-adv-x="555" 
d="M436 449l0.00390625 7.00195h15c14.667 0 32 1.5 52 4.5s39.167 8.16699 57.5 15.5s33.833 17.166 46.5 29.499s19 28.166 19 47.499c0 18.667 -5.83301 35 -17.5 49s-27.167 21 -46.5 21c-13.333 0 -25.166 -3.83301 -35.499 -11.5s-15.5 -18.834 -15.5 -33.501
c0 -8 1.5 -14.5 4.5 -19.5s6.5 -9.33301 10.5 -13l10.5 -10c3 -3 4.5 -6.5 4.5 -10.5c0 -9.33301 -3.33301 -17.666 -10 -24.999s-14.834 -13.333 -24.501 -18s-19.834 -8.16699 -30.501 -10.5s-20 -3.5 -28 -3.5c-2 0 -4 0.166992 -6 0.5s-4 0.5 -6 0.5v175h-15
c-6.66699 -21.333 -15.834 -42.333 -27.501 -63s-25.5 -39 -41.5 -55s-34.167 -29 -54.5 -39s-42.5 -15 -66.5 -15h-52v172h-16c-6 -19.333 -14.5 -38.833 -25.5 -58.5s-23.833 -38.167 -38.5 -55.5s-30.667 -33 -48 -47s-35 -25.333 -53 -34h66v-348
c0 -20 4.66699 -37.333 14 -52s21.333 -26.667 36 -36s31 -16.166 49 -20.499s35.667 -6.5 53 -6.5c10 0 20 0.666992 30 2s20 3 30 5c-28.667 9.33301 -52 25.5 -70 48.5s-27 49.833 -27 80.5v327h143c0 -58.667 -0.166992 -117 -0.5 -175s-0.5 -116.333 -0.5 -175
c0 -32 9.33301 -59 28 -81s45 -33 79 -33c25.333 0 49.666 6.33301 72.999 19s41.666 30 54.999 52c-19.333 -13.333 -42 -20 -68 -20c-11.333 0 -20.5 2.83301 -27.5 8.5s-12.333 12.667 -16 21s-6 17.666 -7 27.999s-1.5 19.833 -1.5 28.5v328v-1z" />
    <glyph glyph-name="uniF05D.liga" unicode="tr" horiz-adv-x="738" 
d="M618 482c-50.667 0 -90.665 -22.332 -119.998 -66.999c0 5.33301 -0.5 12.166 -1.5 20.499s-2.33301 16.833 -4 25.5s-3.66699 16.834 -6 24.501s-5.16602 13.5 -8.49902 17.5c-30 -14.667 -61.333 -24.334 -94 -29.001s-65.334 -7 -98.001 -7
c-18 0 -35.833 0.5 -53.5 1.5s-35.5 2.16699 -53.5 3.5v172h-16c-6 -19.333 -14.5 -38.833 -25.5 -58.5s-23.833 -38.167 -38.5 -55.5s-30.667 -33 -48 -47s-35 -25.333 -53 -34h66v-348c0 -32.667 9 -60.334 27 -83.001s44.333 -34 79 -34c25.333 0 49.833 6.33301 73.5 19
s41.5 30.334 53.5 53.001c-18.667 -13.333 -39.334 -20 -62.001 -20c-12.667 0 -22.667 2.66699 -30 8s-13 12 -17 20s-6.5 17.167 -7.5 27.5s-1.5 20.5 -1.5 30.5v327c12 0.666992 24 1.16699 36 1.5s24 0.5 36 0.5h23c9.33301 0 19 -0.166992 29 -0.5
s19.333 -1.33301 28 -3s15.334 -4.5 20.001 -8.5c10 -7.33301 18.333 -17.666 25 -30.999s10 -26.333 10 -39v-252c0 -10 -0.833008 -21.5 -2.5 -34.5s-4.83398 -25.5 -9.50098 -37.5s-11 -22.333 -19 -31s-18.667 -13.334 -32 -14.001h239c-14 -0 -25.167 4.33301 -33.5 13
s-14.666 19 -18.999 31s-7.33301 24.667 -9 38s-2.5 25 -2.5 35v188c0 12 2 26.667 6 44s9.83301 33.833 17.5 49.5s17.167 29 28.5 40s24.666 16.5 39.999 16.5s26.5 -4.5 33.5 -13.5s13.5 -18.667 19.5 -29s12.833 -20 20.5 -29s19.167 -13.5 34.5 -13.5
c11.333 0 20.666 4.16699 27.999 12.5s11 17.833 11 28.5c0 13.333 -4.33301 24.5 -13 33.5s-19.167 16.167 -31.5 21.5s-25.333 9.33301 -39 12s-25.5 4 -35.5 4z" />
    <glyph glyph-name="uniF05E.liga" unicode="hg" horiz-adv-x="1075" 
d="M674 -45c-18 0 -34.8311 -5.83496 -50.498 -17.502s-23.5 -27.167 -23.5 -46.5c0 -14 3.66699 -24.167 11 -30.5s15.166 -11.666 23.499 -15.999s16.166 -8.66602 23.499 -12.999s11 -10.833 11 -19.5c0 -22 -7.16699 -40.333 -21.5 -55s-32.5 -22 -54.5 -22
c-24 0 -43.833 7 -59.5 21s-28.167 32 -37.5 54s-16.333 46.833 -21 74.5s-7.66699 55.167 -9 82.5s-1.83301 53.333 -1.5 78s0.5 44.667 0.5 60v216c0 50 -13.167 89.333 -39.5 118s-65.166 43 -116.499 43c-26.667 0 -52 -5.5 -76 -16.5s-44.667 -26.833 -62 -47.5v290
l-181 -27h7c11.333 0 20.833 -2.66699 28.5 -8s13.834 -12 18.501 -20s8 -17 10 -27s3 -20 3 -30v-480c0 -10.667 -0.833008 -22.667 -2.5 -36s-5 -25.833 -10 -37.5s-11.833 -21.667 -20.5 -30s-20 -12.5 -34 -12.5h246c-14 0 -25.167 4.16699 -33.5 12.5
s-14.833 18.5 -19.5 30.5s-7.83398 24.667 -9.50098 38s-2.5 25 -2.5 35v226c0 12.667 2.16699 25 6.5 37s10.5 22.833 18.5 32.5s17.5 17.334 28.5 23.001s23.167 8.5 36.5 8.5c14 0 26.667 -3 38 -9s21.166 -13.833 29.499 -23.5s14.666 -20.834 18.999 -33.501
s6.5 -25.667 6.5 -39c0 -51.333 -0.166992 -102.333 -0.5 -153s-0.5 -101.667 -0.5 -153c0 -37.333 3.83301 -74.5 11.5 -111.5s20.5 -70.5 38.5 -100.5s41.667 -54.333 71 -73s66 -28 110 -28c22 0 43.333 2.83301 64 8.5s38.834 14.5 54.501 26.5s28.167 27 37.5 45
s14 39.333 14 64c0 23.333 -7.16699 44.5 -21.5 63.5s-33.833 28.5 -58.5 28.5zM930.002 495.998c10.667 0 19.666 -3.00781 26.999 -9.00781s14.5 -12.833 21.5 -20.5s14.5 -14.5 22.5 -20.5s18 -9 30 -9c11.333 0 21 3.33301 29 10s12 16 12 28
c0 11.333 -3 20.833 -9 28.5s-13.5 13.834 -22.5 18.501s-18.833 7.83398 -29.5 9.50098s-20.667 2.5 -30 2.5c-24.667 0 -47 -5.16699 -67 -15.5s-38.333 -24.166 -55 -41.499c-16.667 4 -34.334 6 -53.001 6c-25.333 0 -50.666 -3.5 -75.999 -10.5
s-48.333 -17.667 -69 -32s-37.334 -32.166 -50.001 -53.499s-19 -46.333 -19 -75c0 -31.333 9 -58.5 27 -81.5s39.667 -42.167 65 -57.5l-42 -16c-17.333 -6.66699 -34.333 -14.334 -51 -23.001s-31.167 -18.5 -43.5 -29.5s-18.5 -23.5 -18.5 -37.5
c0 -22.667 9.5 -39.834 28.5 -51.501s42.5 -20.5 70.5 -26.5s58.667 -10.333 92 -13s64 -6.5 92 -11.5s51.5 -12.5 70.5 -22.5s28.5 -25.333 28.5 -46c0 -18 -5.66699 -33.667 -17 -47s-25.333 -24.666 -42 -33.999s-34.334 -16.666 -53.001 -21.999
s-35 -8.66602 -49 -9.99902c26 1.33301 56.333 5.5 91 12.5s67.5 17.5 98.5 31.5s57.333 32.5 79 55.5s32.5 51.167 32.5 84.5c0 25.333 -9.33301 45 -28 59s-42 25 -70 33s-58.333 13.833 -91 17.5s-63 7.33398 -91 11.001s-51.333 8.5 -70 14.5s-28 15.333 -28 28
c0 8.66699 2.83301 15.667 8.5 21s11.834 10 18.501 14c16 -6 32.333 -10.333 49 -13s33.667 -4 51 -4c24.667 0 49.834 3.5 75.501 10.5s48.834 17.5 69.501 31.5s37.5 31.667 50.5 53s19.5 46 19.5 74c0 42.667 -11.333 76.334 -34 101.001s-54 42.667 -94 54
c4.66699 6.66699 11 12.334 19 17.001s16 7 24 7zM899.001 316.99c0 -14 -1.83301 -29.6738 -5.5 -47.0068s-9.33398 -33.666 -17.001 -48.999s-17.5 -28.333 -29.5 -39s-26.667 -16 -44 -16c-18 0 -33.167 4.83301 -45.5 14.5s-22.166 21.834 -29.499 36.501
s-12.666 30.334 -15.999 47.001s-5 32.334 -5 47.001s1.5 30.834 4.5 48.501s8.33301 34.334 16 50.001s17.667 28.834 30 39.501s27.5 16 45.5 16c19.333 0 35.166 -4.83301 47.499 -14.5s22 -21.834 29 -36.501s12 -30.667 15 -48s4.5 -33.666 4.5 -48.999z" />
    <glyph glyph-name="uniF05F.liga" unicode="dg" horiz-adv-x="1094" 
d="M685 -45c-19.333 0 -36.3359 -6.00098 -51.0029 -18.001s-22 -28 -22 -48c0 -13.333 3.66699 -23.166 11 -29.499s15.166 -11.5 23.499 -15.5s16.166 -8 23.499 -12s11 -10.667 11 -20c0 -22 -7.16699 -40.333 -21.5 -55s-32.833 -22 -55.5 -22
c-30 0 -53.5 10.667 -70.5 32s-29.667 46.833 -38 76.5s-13.5 60.334 -15.5 92.001s-3 58.167 -3 79.5v693c-28.667 -0.666992 -56.834 -5.5 -84.501 -14.5s-55 -18.667 -82 -29s-54.167 -19.666 -81.5 -27.999s-55.666 -12.5 -84.999 -12.5
c-8.66699 0 -18 0.833008 -28 2.5s-19.167 4.5 -27.5 8.5s-15.166 9.66699 -20.499 17s-8 16.333 -8 27c0 8 1.66699 14.667 5 20s7 10.5 11 15.5s7.66699 10 11 15s5 10.833 5 17.5c0 16.667 -4.66699 30.167 -14 40.5s-22.666 15.5 -39.999 15.5
c-23.333 0 -43 -7.83301 -59 -23.5s-24 -35.167 -24 -58.5c0 -19.333 5.16699 -36.833 15.5 -52.5s23.5 -29 39.5 -40s33.5 -19.5 52.5 -25.5s36.833 -9 53.5 -9c17.333 0 34.333 1.66699 51 5s33.167 7.16602 49.5 11.499s32.833 8.16602 49.5 11.499s33.334 5 50.001 5
c13.333 0 24.833 -3 34.5 -9s14.5 -16.667 14.5 -32v-151c-20 15.333 -42.333 27 -67 35s-49.667 12 -75 12c-33.333 0 -62.666 -7.66699 -87.999 -23s-46.333 -35 -63 -59s-29.167 -51 -37.5 -81s-12.5 -59.667 -12.5 -89c0 -30.667 3.83301 -60.334 11.5 -89.001
s19.334 -54.167 35.001 -76.5s35.834 -40.333 60.501 -54s54 -20.5 88 -20.5c58 0 108.333 19 151 57c0 -38 2.33301 -76.167 7 -114.5s16.667 -74.166 36 -107.499c20 -34 45.667 -60.167 77 -78.5s67 -27.5 107 -27.5c21.333 0 42.166 2.83301 62.499 8.5
s38.5 14.167 54.5 25.5s28.833 25.833 38.5 43.5s14.5 38.5 14.5 62.5s-6.5 46 -19.5 66s-33.167 30 -60.5 30zM364.997 139.999c0 -14 -2.49707 -27.999 -7.49707 -41.999s-12.167 -26.5 -21.5 -37.5s-20.333 -20 -33 -27s-26.667 -10.5 -42 -10.5
c-24.667 0 -45.167 7.83301 -61.5 23.5s-29.333 34.667 -39 57s-16.5 46 -20.5 71s-6 46.833 -6 65.5c0 20 1.66699 42.167 5 66.5s9.66602 47 18.999 68s22.333 38.667 39 53s38 21.5 64 21.5c19.333 0 38.666 -5.33301 57.999 -16s34.666 -23.334 45.999 -38.001v-255z
M950 496c10.667 0 19.6689 -3.00586 27.002 -9.00586s14.5 -12.833 21.5 -20.5s14.5 -14.5 22.5 -20.5s18 -9 30 -9c11.333 0 21 3.33301 29 10s12 16 12 28c0 11.333 -3.16699 20.833 -9.5 28.5s-14 13.834 -23 18.501s-18.833 7.83398 -29.5 9.50098s-20.667 2.5 -30 2.5
c-24 0 -46.167 -5.16699 -66.5 -15.5s-38.5 -24.166 -54.5 -41.499c-18 4 -36 6 -54 6c-25.333 0 -50.666 -3.5 -75.999 -10.5s-48.333 -17.667 -69 -32s-37.334 -32.166 -50.001 -53.499s-19 -46.333 -19 -75c0 -30 9.16699 -57.333 27.5 -82s40.166 -43.667 65.499 -57
l-42 -15.5c-17.333 -6.33301 -34.333 -13.833 -51 -22.5s-31.167 -18.667 -43.5 -30s-18.5 -24 -18.5 -38c0 -23.333 9.5 -40.833 28.5 -52.5s42.5 -20.334 70.5 -26.001s58.667 -9.83398 92 -12.501s64 -6.33398 92 -11.001s51.5 -12.167 70.5 -22.5
s28.5 -25.833 28.5 -46.5c0 -18 -5.66699 -33.667 -17 -47s-25.333 -24.666 -42 -33.999s-34.334 -16.666 -53.001 -21.999s-35 -8.66602 -49 -9.99902c23.333 1.33301 52 5.33301 86 12s67 16.834 99 30.501s59.333 31.167 82 52.5s34 47 34 77
c0 28.667 -9.33301 51 -28 67s-42 28.333 -70 37s-58.333 14.667 -91 18s-63 6.66602 -91 9.99902s-51.333 7.83301 -70 13.5s-28 15.5 -28 29.5c0 9.33301 2.66699 16.5 8 21.5s11.666 9.5 18.999 13.5c16 -6 32.333 -10.333 49 -13s33.667 -4 51 -4
c24.667 0 49.667 3.5 75 10.5s48.333 17.5 69 31.5s37.5 31.667 50.5 53s19.5 46 19.5 74c0 42.667 -11.333 76.334 -34 101.001s-54 42.667 -94 54c5.33301 6.66699 11.833 12.334 19.5 17.001s15.834 7 24.501 7zM919.002 316.994
c0 -14 -1.8291 -29.6709 -5.49609 -47.0039s-9.33398 -33.833 -17.001 -49.5s-17.667 -28.667 -30 -39s-27.166 -15.5 -44.499 -15.5c-18 0 -33 4.83301 -45 14.5s-21.833 21.834 -29.5 36.501s-13.167 30.334 -16.5 47.001s-5 32.334 -5 47.001c0 14 1.66699 30 5 48
s8.66602 34.833 15.999 50.5s17.166 28.834 29.499 39.501s27.5 16 45.5 16c19.333 0 35.166 -4.83301 47.499 -14.5s22.166 -21.834 29.499 -36.501s12.5 -30.667 15.5 -48s4.5 -33.666 4.5 -48.999z" />
    <glyph glyph-name="uniF060.liga" unicode="ig" horiz-adv-x="787" 
d="M643 496c10.667 0 19.668 -3.17676 27.001 -9.50977s14.5 -13.166 21.5 -20.499s14.5 -14.166 22.5 -20.499s18 -9.5 30 -9.5c11.333 0 21 3.5 29 10.5s12 16.5 12 28.5c0 11.333 -3.16699 20.833 -9.5 28.5s-14 13.834 -23 18.501s-18.833 7.83398 -29.5 9.50098
s-20.667 2.5 -30 2.5c-24 0 -46.167 -5.16699 -66.5 -15.5s-38.5 -24.166 -54.5 -41.499c-18 4 -36 6 -54 6c-25.333 0 -50.666 -3.5 -75.999 -10.5s-48.333 -17.667 -69 -32s-37.334 -32.166 -50.001 -53.499s-19 -46.333 -19 -75c0 -30 9.16699 -57.333 27.5 -82
s40.166 -43.667 65.499 -57l-42 -15.5c-17.333 -6.33301 -34.333 -13.833 -51 -22.5s-31.167 -18.667 -43.5 -30s-18.5 -24 -18.5 -38c0 -23.333 9.5 -40.833 28.5 -52.5s42.5 -20.334 70.5 -26.001s58.667 -9.83398 92 -12.501s64 -6.5 92 -11.5s51.5 -12.5 70.5 -22.5
s28.5 -25.333 28.5 -46c0 -18 -5.83301 -33.667 -17.5 -47s-25.834 -24.666 -42.501 -33.999s-34.334 -16.666 -53.001 -21.999s-35 -8.66602 -49 -9.99902c26.667 1.33301 57.334 5.33301 92.001 12s67.5 17 98.5 31s57.333 32.5 79 55.5s32.5 51.5 32.5 85.5
c0 24.667 -9.33301 44.167 -28 58.5s-42 25.333 -70 33s-58.333 13.334 -91 17.001s-63 7.5 -91 11.5s-51.333 9 -70 15s-28 15 -28 27c0 9.33301 2.66699 16.5 8 21.5s11.666 9.83301 18.999 14.5c30 -11.333 63 -17 99 -17c24.667 0 49.834 3.5 75.501 10.5
s48.834 17.5 69.501 31.5s37.5 31.667 50.5 53s19.5 46 19.5 74c0 42.667 -11.333 76.334 -34 101.001s-54 42.334 -94 53.001c4.66699 7.33301 11 13.333 19 18s16.333 7 25 7zM612.001 316.99c0 -14 -1.83301 -29.6729 -5.5 -47.0059s-9.33398 -33.833 -17.001 -49.5
s-17.667 -28.667 -30 -39s-27.166 -15.5 -44.499 -15.5c-18 0 -33.167 4.83301 -45.5 14.5s-22.166 21.834 -29.499 36.501s-12.666 30.334 -15.999 47.001s-5 32.334 -5 47.001s1.5 30.834 4.5 48.501s8.33301 34.334 16 50.001s17.667 28.834 30 39.501s27.5 16 45.5 16
c19.333 0 35.166 -4.83301 47.499 -14.5s22.166 -21.834 29.499 -36.501s12.5 -30.667 15.5 -48s4.5 -33.666 4.5 -48.999zM118.001 559.984l3 0.000976562c18.667 0 33.667 6.83301 45 20.5s17 29.167 17 46.5c0 18 -6.33301 33.5 -19 46.5s-28 19.5 -46 19.5
c-18.667 0 -34.5 -6.33301 -47.5 -19s-19.5 -28.334 -19.5 -47.001c0 -19.333 6.33301 -35.333 19 -48s28.667 -19 48 -19zM384.001 -46.0146c-18 0 -34.501 -5.83301 -49.501 -17.5s-22.5 -27.167 -22.5 -46.5c0 -14 3.66699 -24.167 11 -30.5s15.166 -11.5 23.499 -15.5
s16.166 -8.16699 23.499 -12.5s11 -10.833 11 -19.5c0 -22.667 -7.16699 -41.334 -21.5 -56.001s-32.5 -22 -54.5 -22c-31.333 0 -55.666 11.333 -72.999 34s-30 49.834 -38 81.501s-12.833 64.167 -14.5 97.5s-2.5 61 -2.5 83v451l-179 -26
c2.66699 0.666992 6.33398 1 11.001 1c10.667 0 19.5 -2.66699 26.5 -8s12.5 -12.166 16.5 -20.499s6.83301 -17.333 8.5 -27s2.5 -18.834 2.5 -27.501v-311c0 -28 1.33301 -57.167 4 -87.5s8.33398 -59.5 17.001 -87.5s21 -54.167 37 -78.5s37.333 -44.5 64 -60.5
c16.667 -10 34.5 -17.5 53.5 -22.5s38.167 -7.5 57.5 -7.5c22 0 43.167 2.83301 63.5 8.5s38.5 14.5 54.5 26.5s28.667 27 38 45s14 39.333 14 64c0 23.333 -7.33301 44.5 -22 63.5s-34.667 28.5 -60 28.5z" />
    <glyph glyph-name="uniF061.liga" unicode="mg" horiz-adv-x="1347" 
d="M1203 496c10 0 18.833 -3.17578 26.5 -9.50879s15 -13.166 22 -20.499s14.5 -14.166 22.5 -20.499s18 -9.5 30 -9.5c11.333 0 21 3.5 29 10.5s12 16.5 12 28.5c0 11.333 -3.16699 20.833 -9.5 28.5s-14 13.834 -23 18.501s-18.833 7.83398 -29.5 9.50098
s-20.667 2.5 -30 2.5c-24 0 -46.167 -5.16699 -66.5 -15.5s-38.5 -24.166 -54.5 -41.499c-18 4 -36 6 -54 6c-25.333 0 -50.666 -3.5 -75.999 -10.5s-48.333 -17.667 -69 -32s-37.334 -32.166 -50.001 -53.499s-19 -46.333 -19 -75c0 -32 9 -59.333 27 -82
s39.667 -41.667 65 -57h1l-44.5 -16.5c-17.667 -6.33301 -34.667 -14 -51 -23s-30.333 -19.333 -42 -31s-17.5 -25.5 -17.5 -41.5c0 -21.333 9.5 -37.333 28.5 -48s42.5 -18.834 70.5 -24.501s58.667 -9.83398 92 -12.501s64 -6.5 92 -11.5s51.5 -12.667 70.5 -23
s28.5 -25.5 28.5 -45.5c0 -18 -5.83301 -33.667 -17.5 -47s-25.834 -24.666 -42.501 -33.999s-34.334 -16.666 -53.001 -21.999s-35 -8.66602 -49 -9.99902c26.667 1.33301 57.334 5.33301 92.001 12s67.5 17 98.5 31s57.333 32.5 79 55.5s32.5 51.5 32.5 85.5
c0 24.667 -9.33301 44.167 -28 58.5s-42 25.333 -70 33s-58.333 13.334 -91 17.001s-63 7.5 -91 11.5s-51.333 9 -70 15s-28 15 -28 27c0 9.33301 2.66699 16.666 8 21.999s11.666 10 18.999 14c30 -11.333 63 -17 99 -17c24.667 0 49.834 3.5 75.501 10.5
s48.834 17.5 69.501 31.5s37.5 31.667 50.5 53s19.5 46 19.5 74c0 42.667 -11.333 76.334 -34 101.001s-54 42.334 -94 53.001c4.66699 7.33301 11 13.333 19 18s16.333 7 25 7zM1172 316.991c0 -14 -1.83301 -29.6729 -5.5 -47.0059s-9.33398 -33.833 -17.001 -49.5
s-17.667 -28.667 -30 -39s-27.166 -15.5 -44.499 -15.5c-18 0 -33.167 4.83301 -45.5 14.5s-22.166 21.834 -29.499 36.501s-12.666 30.334 -15.999 47.001s-5 32.334 -5 47.001s1.5 30.834 4.5 48.501s8.33301 34.334 16 50.001s17.667 28.834 30 39.501s27.5 16 45.5 16
c19.333 0 35.166 -4.83301 47.499 -14.5s22.166 -21.834 29.499 -36.501s12.5 -30.667 15.5 -48s4.5 -33.666 4.5 -48.999zM947 -46.0146c-18 0 -34.4893 -5.83594 -49.4893 -17.5029s-22.5 -27.167 -22.5 -46.5c0 -14 3.66699 -24.167 11 -30.5s15.166 -11.5 23.499 -15.5
s16.166 -8.16699 23.499 -12.5s11 -10.833 11 -19.5c0 -22 -6.83301 -40.5 -20.5 -55.5s-32.167 -22.5 -55.5 -22.5c-31.333 0 -55.666 11.333 -72.999 34s-30 49.834 -38 81.501s-12.833 64.334 -14.5 98.001s-2.5 61.167 -2.5 82.5v292c0 48 -12.5 86.5 -37.5 115.5
s-62.5 43.5 -112.5 43.5c-62.667 0 -110.334 -27 -143.001 -81c-12 30 -31.167 51 -57.5 63s-54.5 18 -84.5 18c-24.667 0 -48 -5.66699 -70 -17s-40.333 -26.666 -55 -45.999c-0.666992 7.33301 -1.83398 18.333 -3.50098 33s-5.16699 24.667 -10.5 30l-165 -26
c1.33301 0 2.83301 0.166992 4.5 0.5s3.16699 0.5 4.5 0.5c11.333 0 20.666 -2.83301 27.999 -8.5s13 -12.834 17 -21.501s6.83301 -18 8.5 -28s2.5 -19.667 2.5 -29v-254c0 -10 -0.833008 -21.667 -2.5 -35s-4.83398 -26 -9.50098 -38s-11.334 -22.167 -20.001 -30.5
s-19.667 -12.5 -33 -12.5h245c-14 0 -25.167 4.16699 -33.5 12.5s-15 18.333 -20 30s-8.33301 24.167 -10 37.5s-2.5 25.333 -2.5 36v226c0 11.333 2 22.833 6 34.5s9.66699 22.334 17 32.001s16.166 17.667 26.499 24s21.5 9.5 33.5 9.5c13.333 0 25.166 -3 35.499 -9
s19.166 -13.667 26.499 -23s13 -20 17 -32s6 -24 6 -36v-226c0 -10.667 -0.833008 -22.667 -2.5 -36s-5 -25.833 -10 -37.5s-11.667 -21.667 -20 -30s-19.5 -12.5 -33.5 -12.5h243c-14 0 -25.167 4.16699 -33.5 12.5s-14.833 18.333 -19.5 30s-7.83398 24.167 -9.50098 37.5
s-2.5 25.333 -2.5 36v226c0 11.333 2 23 6 35s9.66699 22.833 17 32.5s16 17.5 26 23.5s21.333 9 34 9c14 0 26.167 -3.16699 36.5 -9.5s19 -14.5 26 -24.5s12.167 -21.167 15.5 -33.5s5 -24.5 5 -36.5v-275c0 -41.333 2.83301 -82.166 8.5 -122.499
s19.167 -78.5 40.5 -114.5c20.667 -34.667 46.5 -61.167 77.5 -79.5s66.5 -27.5 106.5 -27.5c21.333 0 42.166 2.83301 62.499 8.5s38.5 14.167 54.5 25.5s28.833 25.666 38.5 42.999s14.5 38 14.5 62c0 24.667 -6.66699 47 -20 67s-34 30 -62 30z" />
    <glyph glyph-name="uniF062.liga" unicode="ng" horiz-adv-x="1081" 
d="M936 496c10.667 0 19.666 -3.17578 26.999 -9.50879s14.5 -13.166 21.5 -20.499s14.5 -14.166 22.5 -20.499s18 -9.5 30 -9.5c11.333 0 21 3.5 29 10.5s12 16.5 12 28.5c0 11.333 -3 20.833 -9 28.5s-13.5 13.834 -22.5 18.501s-18.833 7.83398 -29.5 9.50098
s-20.667 2.5 -30 2.5c-24.667 0 -47 -5.16699 -67 -15.5s-38.333 -24.166 -55 -41.499c-16.667 4 -34.334 6 -53.001 6c-25.333 0 -50.666 -3.5 -75.999 -10.5s-48.333 -17.667 -69 -32s-37.334 -32.166 -50.001 -53.499s-19 -46.333 -19 -75c0 -30.667 9 -57.667 27 -81
s39.667 -42.666 65 -57.999l-42 -16c-17.333 -6.66699 -34.333 -14.334 -51 -23.001s-31.167 -18.5 -43.5 -29.5s-18.5 -23.5 -18.5 -37.5c0 -23.333 9.5 -40.833 28.5 -52.5s42.5 -20.334 70.5 -26.001s58.667 -9.83398 92 -12.501s64 -6.5 92 -11.5s51.5 -12.5 70.5 -22.5
s28.5 -25.333 28.5 -46c0 -18 -5.66699 -33.667 -17 -47s-25.333 -24.666 -42 -33.999s-34.334 -16.666 -53.001 -21.999s-35 -8.66602 -49 -9.99902c23.333 1.33301 52.166 5.33301 86.499 12s67.333 16.667 99 30s58.834 30.666 81.501 51.999s34 47.333 34 78
c0 31.333 -9.5 54.5 -28.5 69.5s-42.167 26.5 -69.5 34.5c-20.667 6 -41.667 10.333 -63 13s-42.666 5 -63.999 7s-42.5 4.5 -63.5 7.5s-41.5 7.83301 -61.5 14.5c-6.66699 2.66699 -13 6 -19 10s-9 10 -9 18c0 8.66699 2.66699 15.834 8 21.501s11.666 10.5 18.999 14.5
c16 -6 32.333 -10.333 49 -13s33.667 -4 51 -4c24.667 0 49.834 3.5 75.501 10.5s48.834 17.5 69.501 31.5s37.5 31.667 50.5 53s19.5 46 19.5 74c0 42.667 -11.5 76.334 -34.5 101.001s-54.5 42.334 -94.5 53.001c5.33301 6.66699 11.833 12.5 19.5 17.5
s15.834 7.5 24.501 7.5zM904.999 316.991c0 -14 -1.83301 -29.6729 -5.5 -47.0059s-9.33398 -33.833 -17.001 -49.5s-17.5 -28.667 -29.5 -39s-26.667 -15.5 -44 -15.5c-18 0 -33.167 4.83301 -45.5 14.5s-22.166 21.834 -29.499 36.501s-12.666 30.334 -15.999 47.001
s-5 32.334 -5 47.001s1.5 30.834 4.5 48.501s8.33301 34.334 16 50.001s17.667 28.834 30 39.501s27.5 16 45.5 16c19.333 0 35.166 -4.83301 47.499 -14.5s22 -21.834 29 -36.501s12 -30.667 15 -48s4.5 -33.666 4.5 -48.999zM683.999 -46.0146
c-16 0 -32.1641 -5.5 -48.4971 -16.5s-24.5 -25.5 -24.5 -43.5c0 -16 3.66699 -27.333 11 -34s15.166 -12 23.499 -16s16.166 -8 23.499 -12s11 -10.667 11 -20c0 -22 -6.83301 -40.5 -20.5 -55.5s-32.167 -22.5 -55.5 -22.5c-31.333 0 -55.833 11.333 -73.5 34
s-30.667 49.834 -39 81.501s-13.5 64.334 -15.5 98.001s-3 61.167 -3 82.5v291c0 48 -12.5 86.667 -37.5 116s-62.5 44 -112.5 44c-28.667 0 -55.167 -4.83301 -79.5 -14.5s-45.833 -25.834 -64.5 -48.501c0 8 -0.833008 19 -2.5 33s-5.5 24 -11.5 30l-165 -26h6
c12 0 21.833 -2.66699 29.5 -8s13.667 -12.166 18 -20.499s7.5 -17.5 9.5 -27.5s3 -19.667 3 -29v-255c0 -10.667 -0.833008 -22.667 -2.5 -36s-5 -25.833 -10 -37.5s-11.667 -21.667 -20 -30s-19.5 -12.5 -33.5 -12.5h245c-14 0 -25.167 4.16699 -33.5 12.5
s-15 18.333 -20 30s-8.33301 24.167 -10 37.5s-2.5 25.333 -2.5 36v222c0 28.667 8.5 53.167 25.5 73.5s40.5 30.5 70.5 30.5c14 0 26.333 -3 37 -9s19.667 -14 27 -24s13 -21.167 17 -33.5s6 -24.833 6 -37.5v-275c0 -41.333 2.83301 -82.333 8.5 -123
s19.167 -79 40.5 -115c20 -34 45.667 -60.167 77 -78.5s67 -27.5 107 -27.5c21.333 0 42.166 2.83301 62.499 8.5s38.5 14.167 54.5 25.5s28.833 25.666 38.5 42.999s14.5 37.666 14.5 60.999c0 25.333 -6.5 48 -19.5 68s-33.5 30 -61.5 30z" />
    <glyph glyph-name="uniF063.liga" unicode="gj" horiz-adv-x="754" 
d="M504 -106c17.333 21.333 25.9932 45.9932 25.9932 73.9932c0 25.333 -9.33301 45.166 -28 59.499s-42 25.333 -70 33s-58.5 13.5 -91.5 17.5l-91.5 11.5c-28 3.66699 -51.333 8.33398 -70 14.001s-28 14.834 -28 27.501c0 8.66699 2.83301 15.667 8.5 21
s11.834 10 18.501 14c14 -7.33301 30.333 -12.166 49 -14.499s35.667 -3.5 51 -3.5c24.667 0 49.834 3.5 75.501 10.5s48.834 17.5 69.501 31.5s37.5 31.667 50.5 53s19.5 46 19.5 74c0 48.667 -14 85 -42 109s-64 40.667 -108 50c15.333 36 39.333 66.167 72 90.5
s69 36.5 109 36.5c20 0 33.5 -3.83301 40.5 -11.5s12.833 -16.167 17.5 -25.5s10.5 -17.833 17.5 -25.5s20.167 -11.5 39.5 -11.5c20.667 0 37 5.16699 49 15.5s18 26.166 18 47.499c0 16 -3.66699 29.333 -11 40s-16.833 19.334 -28.5 26.001s-24.5 11.5 -38.5 14.5
s-27.667 4.5 -41 4.5c-28.667 0 -57.5 -4.83301 -86.5 -14.5s-55.833 -23.167 -80.5 -40.5s-46.167 -38 -64.5 -62s-31.166 -50.333 -38.499 -79c-5.33301 0.666992 -10.833 1.16699 -16.5 1.5s-11.167 0.5 -16.5 0.5c-25.333 0 -50.666 -3.5 -75.999 -10.5
s-48.333 -17.667 -69 -32s-37.334 -32.166 -50.001 -53.499s-19 -46.333 -19 -75c0 -13.333 2.5 -27.166 7.5 -41.499s11.667 -27.666 20 -39.999s18 -23.5 29 -33.5s22.5 -17.667 34.5 -23l-44 -16.5c-17.333 -6.33301 -34.166 -13.666 -50.499 -21.999
s-30.333 -18.333 -42 -30s-17.5 -25.167 -17.5 -40.5c0 -24 11.833 -41.667 35.5 -53s53.5 -19.666 89.5 -24.999s75.167 -8.83301 117.5 -10.5s81.833 -5 118.5 -10s67.834 -12.667 93.501 -23s39.834 -26.833 42.501 -49.5zM280.993 464.993
c19.333 0 35.166 -4.83887 47.499 -14.5059s22 -21.834 29 -36.501s12 -30.667 15 -48s4.5 -33.666 4.5 -48.999c0 -14 -1.83301 -29.667 -5.5 -47s-9.33398 -33.833 -17.001 -49.5s-17.5 -28.667 -29.5 -39s-26.667 -15.5 -44 -15.5c-18 0 -33.167 4.83301 -45.5 14.5
s-22.166 21.834 -29.499 36.501s-12.666 30.334 -15.999 47.001s-5 32.334 -5 47.001s1.5 30.834 4.5 48.501s8.33301 34.334 16 50.001s17.667 28.834 30 39.501s27.5 16 45.5 16zM712.993 471.987l-180.998 -27.001c2.66699 0.666992 6.66699 1 12 1
c11.333 0 20.5 -2.66699 27.5 -8s12.833 -12 17.5 -20s7.83398 -16.833 9.50098 -26.5s2.5 -19.167 2.5 -28.5v-328c0 -25.333 -0.166992 -55.5 -0.5 -90.5s-4.16602 -68.5 -11.499 -100.5s-20.333 -59.333 -39 -82s-46.334 -34 -83.001 -34
c-22.667 0 -40.334 6.83301 -53.001 20.5s-19 31.5 -19 53.5c0 10 3.66699 16.833 11 20.5s15.166 7.33398 23.499 11.001s16.166 9 23.499 16s11 18.5 11 34.5c0 18 -8.16699 32.5 -24.5 43.5s-32.5 16.5 -48.5 16.5c-28 0 -48.5 -10 -61.5 -30s-19.5 -42.333 -19.5 -67
c0 -24 5 -44.667 15 -62s23 -31.666 39 -42.999s34.167 -19.833 54.5 -25.5s40.833 -8.5 61.5 -8.5c43.333 0 79.833 9.66699 109.5 29s53.667 44.166 72 74.499s31.5 64.5 39.5 102.5s12 75.667 12 113v445z" />
    <glyph glyph-name="uniF064.liga" unicode="ch" horiz-adv-x="989" 
d="M545 270c16.667 29.333 34.665 57.499 53.998 84.499l59 80.5v136.5c0 45 0.333008 90.5 1 136.5l-181 -28h8c11.333 0 20.833 -2.66699 28.5 -8s13.834 -12.166 18.501 -20.499s7.83398 -17.5 9.50098 -27.5s2.5 -19.667 2.5 -29v-325zM1162 -45.001
c-19.333 0 -36.4951 -6.00098 -51.4951 -18.001s-22.5 -28 -22.5 -48c0 -13.333 3.66699 -23.166 11 -29.499s15.166 -11.5 23.499 -15.5s16.166 -8.16699 23.499 -12.5s11 -10.833 11 -19.5c0 -22.667 -7 -41.167 -21 -55.5s-32.333 -21.5 -55 -21.5
c-24 0 -43.833 7 -59.5 21s-28.334 32 -38.001 54s-16.667 46.833 -21 74.5s-7.16602 55.167 -8.49902 82.5s-1.83301 53.166 -1.5 77.499s0.5 44.166 0.5 59.499v217c0 103.333 -51.333 155 -154 155c-30.667 0 -57.5 -7.16699 -80.5 -21.5s-42.5 -34.166 -58.5 -59.499
c-18 -28.667 -37.167 -56.5 -57.5 -83.5l-59.5 -82.5l-51.5 -69.5c-17.667 -23 -36.834 -43.5 -57.501 -61.5s-43.334 -32.667 -68.001 -44s-52.334 -17 -83.001 -17c-24 0 -45 6.16699 -63 18.5s-33 28 -45 47s-21.167 39.833 -27.5 62.5s-9.5 44.334 -9.5 65.001
c0 20 2 43.167 6 69.5s11.167 51.5 21.5 75.5s24 44.333 41 61s38.5 25 64.5 25c14 0 27 -4.16699 39 -12.5s18 -20.166 18 -35.499c0 -11.333 -2.33301 -21 -7 -29s-7 -17.667 -7 -29c0 -12.667 5.33301 -22.834 16 -30.501s21.667 -11.5 33 -11.5
c20.667 0 37.167 7.83301 49.5 23.5s18.5 33.167 18.5 52.5s-5.66699 35.166 -17 47.499s-25.333 22 -42 29s-34.334 12 -53.001 15s-35.334 4.5 -50.001 4.5c-38 0 -72.5 -6.16699 -103.5 -18.5s-57.167 -29.666 -78.5 -51.999s-37.833 -49.166 -49.5 -80.499
s-17.5 -66 -17.5 -104c0 -31.333 5.5 -61.5 16.5 -90.5s26.5 -54.667 46.5 -77s43.833 -40.166 71.5 -53.499s57.834 -20 90.501 -20c31.333 0 61.333 6.83301 90 20.5s55.667 31 81 52s48.833 44.167 70.5 69.5s41.167 50 58.5 74v-89
c0 -10.667 -0.833008 -22.667 -2.5 -36s-5 -25.833 -10 -37.5s-11.833 -21.667 -20.5 -30s-20 -12.5 -34 -12.5h246c-14 0 -25.167 4.16699 -33.5 12.5s-15 18.333 -20 30s-8.33301 24.167 -10 37.5s-2.5 25.333 -2.5 36v222c0 11.333 3.16699 22.666 9.5 33.999
s14.5 21.666 24.5 30.999s20.833 17 32.5 23s22.834 9 33.501 9c27.333 0 48.166 -9.83301 62.499 -29.5s21.5 -42.167 21.5 -67.5c0 -51.333 -0.166992 -102.333 -0.5 -153s-0.5 -101.667 -0.5 -153c0 -37.333 3.83301 -74.5 11.5 -111.5s20.5 -70.5 38.5 -100.5
s41.667 -54.333 71 -73s66 -28 110 -28c22 0 43.333 2.83301 64 8.5s38.834 14.5 54.501 26.5s28.167 27 37.5 45s14 39.333 14 64c0 23.333 -7.16699 44.5 -21.5 63.5s-33.833 28.5 -58.5 28.5z" />
    <glyph glyph-name="uniF065.liga" unicode="cm" horiz-adv-x="1255" 
d="M545 270c16.667 29.333 34.668 57.501 54.001 84.501l59 80.5v1c0 6 -1 14 -3 24s-5.66699 17 -11 21l-164 -25c1.33301 0 2.83301 0.166992 4.5 0.5s3.16699 0.5 4.5 0.5c11.333 0 20.666 -2.83301 27.999 -8.5s13 -12.834 17 -21.501s6.83301 -18 8.5 -28
s2.5 -19.667 2.5 -29v-100zM1428 -44.999c-18.667 0 -35.6553 -6.00391 -50.9883 -18.0039s-23 -27.667 -23 -47c0 -14 3.66699 -24.167 11 -30.5s15.166 -11.5 23.499 -15.5s16.166 -8 23.499 -12s11 -10.333 11 -19c0 -22.667 -6.83301 -41.334 -20.5 -56.001
s-32.167 -22 -55.5 -22c-31.333 0 -55.666 11.333 -72.999 34s-30 49.834 -38 81.501s-12.833 64.334 -14.5 98.001s-2.5 61.167 -2.5 82.5v291c0 48.667 -12.5 87.334 -37.5 116.001s-62.5 43 -112.5 43c-62.667 0 -110.334 -27 -143.001 -81
c-3.33301 13.333 -9.5 24.666 -18.5 33.999s-19.333 17.166 -31 23.499s-24.167 11 -37.5 14s-26 4.5 -38 4.5c-32.667 0 -60 -6.83301 -82 -20.5s-41.667 -33.834 -59 -60.501c-18.667 -28.667 -38 -56.5 -58 -83.5l-59 -82.5l-50.5 -68.5
c-17.667 -23 -36.834 -43.667 -57.501 -62s-43.5 -33.166 -68.5 -44.499s-52.833 -17 -83.5 -17c-24 0 -45 6.16699 -63 18.5s-33 28 -45 47s-21.167 39.833 -27.5 62.5s-9.5 44.334 -9.5 65.001c0 20 2 43.167 6 69.5s11.167 51.5 21.5 75.5s24 44.333 41 61
s38.5 25 64.5 25c16 0 29.5 -4.66699 40.5 -14s16.5 -22.333 16.5 -39c0 -8.66699 -2.5 -16.667 -7.5 -24s-7.5 -15.333 -7.5 -24c0 -14 5 -25.333 15 -34s21.667 -13 35 -13c19.333 0 35.5 7.33301 48.5 22s19.5 31.334 19.5 50.001c0 20 -5.5 36.5 -16.5 49.5
s-24.667 23.167 -41 30.5s-33.833 12.5 -52.5 15.5s-36 4.5 -52 4.5c-38.667 0 -73.334 -6.16699 -104.001 -18.5s-56.667 -29.666 -78 -51.999s-37.833 -49.166 -49.5 -80.499s-17.5 -66 -17.5 -104c0 -31.333 5.5 -61.5 16.5 -90.5s26.5 -54.667 46.5 -77
s43.833 -40.166 71.5 -53.499s57.834 -20 90.501 -20c25.333 0 49 4 71 12s42.667 18.5 62 31.5s37.666 28 54.999 45s34 34.5 50 52.5l32 36.5c10.667 12.333 20.667 25.166 30 38.499v-89c0 -10.667 -0.833008 -22.667 -2.5 -36s-5 -25.833 -10 -37.5
s-11.833 -21.667 -20.5 -30s-20 -12.5 -34 -12.5h246c-14 0 -25.167 4.16699 -33.5 12.5s-15 18.333 -20 30s-8.33301 24.167 -10 37.5s-2.5 25.333 -2.5 36v222c0 10 3.16699 20.667 9.5 32s14.333 22 24 32s20.167 18.167 31.5 24.5s22 9.5 32 9.5
c12 0 22.5 -3.16699 31.5 -9.5s16.5 -14.333 22.5 -24s10.5 -20.334 13.5 -32.001s4.5 -22.834 4.5 -33.501v-221c0 -10.667 -0.833008 -22.667 -2.5 -36s-4.83398 -25.833 -9.50098 -37.5s-11.334 -21.667 -20.001 -30s-20 -12.5 -34 -12.5h243
c-14 0 -25.167 4.16699 -33.5 12.5s-14.833 18.333 -19.5 30s-7.83398 24.167 -9.50098 37.5s-2.5 25.333 -2.5 36v221c0 12 1.83301 24.167 5.5 36.5s9 23.5 16 33.5s15.667 18.333 26 25s22.166 10 35.499 10s25.166 -3.16699 35.499 -9.5s19 -14.666 26 -24.999
s12.333 -21.666 16 -33.999s5.5 -24.5 5.5 -36.5v-274c0 -39.333 3.16699 -79.5 9.5 -120.5s18.166 -78 35.499 -111s41.166 -60 71.499 -81s69.166 -31.5 116.499 -31.5c22.667 0 44.167 2.83301 64.5 8.5s38.333 14.5 54 26.5s28.167 27 37.5 45s14 39.333 14 64
c0 23.333 -7.16699 44.5 -21.5 63.5s-33.833 28.5 -58.5 28.5z" />
    <glyph glyph-name="uniF066.liga" unicode="cn" horiz-adv-x="976" 
d="M545 270c16.667 29.333 34.668 57.501 54.001 84.501l59 80.5v1c0 6 -1 14 -3 24s-5.66699 17 -11 21l-164 -25c1.33301 0 2.83301 0.166992 4.5 0.5s3.16699 0.5 4.5 0.5c11.333 0 20.666 -2.83301 27.999 -8.5s13 -12.834 17 -21.501s6.83301 -18 8.5 -28
s2.5 -19.667 2.5 -29v-100zM1148 -44.999c-18.667 0 -35.6631 -6.00488 -50.9961 -18.0049s-23 -27.667 -23 -47c0 -14 3.66699 -24.167 11 -30.5s15.166 -11.5 23.499 -15.5s16.166 -8 23.499 -12s11 -10.333 11 -19c0 -22.667 -6.83301 -41.334 -20.5 -56.001
s-31.834 -22 -54.501 -22c-31.333 0 -55.666 11.333 -72.999 34s-30.166 49.834 -38.499 81.501s-13.333 64.334 -15 98.001s-2.5 61.167 -2.5 82.5v306c0 42 -12.5 75.5 -37.5 100.5s-58.5 37.5 -100.5 37.5c-34 0 -61.667 -6.5 -83 -19.5s-40.666 -33.167 -57.999 -60.5
c-18 -28.667 -37.167 -56.5 -57.5 -83.5l-59.5 -82.5l-51.5 -69.5c-17.667 -23 -36.834 -43.5 -57.501 -61.5s-43.334 -32.667 -68.001 -44s-52.334 -17 -83.001 -17c-24 0 -45 6.16699 -63 18.5s-33 28 -45 47s-21.167 39.833 -27.5 62.5s-9.5 44.334 -9.5 65.001
c0 20 2 43.167 6 69.5s11.167 51.5 21.5 75.5s24 44.333 41 61s38.5 25 64.5 25c16 0 29.5 -4.5 40.5 -13.5s16.5 -22.167 16.5 -39.5c0 -8.66699 -2.5 -16.667 -7.5 -24s-7.5 -15.333 -7.5 -24c0 -14 5 -25.333 15 -34s21.667 -13 35 -13c19.333 0 35.5 7.33301 48.5 22
s19.5 31.334 19.5 50.001c0 20 -5.5 36.5 -16.5 49.5s-24.667 23.167 -41 30.5s-33.833 12.5 -52.5 15.5s-36 4.5 -52 4.5c-38.667 0 -73.334 -6.16699 -104.001 -18.5s-56.667 -29.666 -78 -51.999s-37.833 -49.166 -49.5 -80.499s-17.5 -66 -17.5 -104
c0 -31.333 5.5 -61.5 16.5 -90.5s26.5 -54.667 46.5 -77s43.833 -40.166 71.5 -53.499s57.834 -20 90.501 -20c25.333 0 49 4 71 12s42.667 18.5 62 31.5s37.666 28 54.999 45s34 34.5 50 52.5l32 36.5c10.667 12.333 20.667 25.166 30 38.499v-89
c0 -10.667 -0.833008 -22.667 -2.5 -36s-5 -25.833 -10 -37.5s-11.833 -21.667 -20.5 -30s-20 -12.5 -34 -12.5h246c-14 0 -25.167 4.16699 -33.5 12.5s-15 18.333 -20 30s-8.33301 24.167 -10 37.5s-2.5 25.333 -2.5 36v222c0 10 3.16699 20.667 9.5 32s14.333 22 24 32
s20.167 18.167 31.5 24.5s22 9.5 32 9.5c12 0 22.5 -3.16699 31.5 -9.5s16.5 -14.333 22.5 -24s10.5 -20.334 13.5 -32.001s4.5 -22.834 4.5 -33.501l1 -297c0 -37.333 4.16699 -75.166 12.5 -113.499s22 -73 41 -104s43.833 -56.333 74.5 -76s68 -29.5 112 -29.5
c21.333 0 41.666 3.33301 60.999 10s36.333 16.334 51 29.001s26.334 28 35.001 46s13 38.333 13 61c0 23.333 -7.16699 44.5 -21.5 63.5s-33.833 28.5 -58.5 28.5z" />
    <glyph glyph-name="uniF067.liga" unicode="eh" horiz-adv-x="989" 
d="M545 270c16.667 29.333 34.665 57.499 53.998 84.499l59 80.5v273l-180 -28h8c11.333 0 20.833 -2.66699 28.5 -8s13.834 -12.166 18.501 -20.499s7.83398 -17.5 9.50098 -27.5s2.5 -19.667 2.5 -29v-325zM1162 -45.001c-18.667 0 -35.6689 -5.99707 -51.002 -17.9971
s-23 -27.667 -23 -47c0 -14 3.66699 -24.167 11 -30.5s15.166 -11.5 23.499 -15.5s16.166 -8.33301 23.499 -13s11 -12.667 11 -24c0 -21.333 -7.5 -38.666 -22.5 -51.999s-32.833 -20 -53.5 -20c-24 0 -43.833 7 -59.5 21s-28.334 32 -38.001 54s-16.667 46.833 -21 74.5
s-7.16602 55.167 -8.49902 82.5s-1.83301 53.166 -1.5 77.499s0.5 44.166 0.5 59.499v217c0 103.333 -51.333 155 -154 155c-30.667 0 -57.5 -7.16699 -80.5 -21.5s-42.5 -34.166 -58.5 -59.499c-18 -28.667 -37.167 -56.5 -57.5 -83.5l-59.5 -82.5l-46 -61.5
c-17.333 -22.333 -36.166 -43.166 -56.499 -62.499s-42.166 -35.333 -65.499 -48s-48 -19 -74 -19c-24.667 0 -47 6.16699 -67 18.5s-37.167 28.333 -51.5 48s-25.333 41.167 -33 64.5s-11.5 46 -11.5 68v9.5c0 3 0.333008 6.16699 1 9.5h338
c-1.33301 34 -7.16602 65 -17.499 93s-25 52 -44 72s-42 35.5 -69 46.5s-58.167 16.5 -93.5 16.5c-36 0 -68.333 -6.66699 -97 -20s-53 -31.333 -73 -54s-35.5 -49.334 -46.5 -80.001s-16.5 -63 -16.5 -97c0 -35.333 5.16699 -67.833 15.5 -97.5s25.333 -55.334 45 -77.001
s43.834 -38.5 72.501 -50.5s61 -18 97 -18c31.333 0 61 7 89 21s54.333 31.5 79 52.5s47.667 44.167 69 69.5s40.666 49.333 57.999 72v-90c0 -10.667 -0.833008 -22.667 -2.5 -36s-5 -25.833 -10 -37.5s-11.833 -21.5 -20.5 -29.5s-20 -12 -34 -12h246
c-14 0 -25.167 4.16699 -33.5 12.5s-15 18.333 -20 30s-8.33301 24 -10 37s-2.5 24.833 -2.5 35.5v223c0 11.333 3.16699 22.666 9.5 33.999s14.5 21.666 24.5 30.999s20.833 17 32.5 23s22.834 9 33.501 9c27.333 0 48.166 -9.83301 62.499 -29.5s21.5 -42.167 21.5 -67.5
c0 -51.333 -0.166992 -102.333 -0.5 -153s-0.5 -101.667 -0.5 -153c0 -37.333 3.83301 -74.5 11.5 -111.5s20.5 -70.5 38.5 -100.5s41.667 -54.333 71 -73s66 -28 110 -28c22 0 43.333 2.83301 64 8.5s38.834 14.5 54.501 26.5s28.167 27 37.5 45s14 39.333 14 64
c0 22.667 -7.16699 43.667 -21.5 63s-33.833 29 -58.5 29zM253.996 464.002c20 0 36.5 -6.83301 49.5 -20.5s23.333 -30.167 31 -49.5s13.167 -39.5 16.5 -60.5s5 -39.167 5 -54.5h-215c0.666992 16 3 34.667 7 56s10.5 41.5 19.5 60.5s20.5 35.167 34.5 48.5
s31.333 20 52 20z" />
    <glyph glyph-name="uniF068.liga" unicode="em" horiz-adv-x="1255" 
d="M545 270c16.667 29.333 34.668 57.501 54.001 84.501l59 80.5v1c0 5.33301 -1.16699 13.333 -3.5 24s-5.83301 17.667 -10.5 21l-164 -25c1.33301 0 2.83301 0.166992 4.5 0.5s3.16699 0.5 4.5 0.5c11.333 0 20.666 -2.83301 27.999 -8.5s13 -12.834 17 -21.501
s6.83301 -18 8.5 -28s2.5 -19.667 2.5 -29v-100zM1428 -44.999c-18.667 0 -35.6602 -5.99805 -50.9932 -17.998s-23 -27.667 -23 -47c0 -14 3.66699 -24.167 11 -30.5s15.166 -11.5 23.499 -15.5s16.166 -8.33301 23.499 -13s11 -12.667 11 -24
c0 -21.333 -7.5 -38.666 -22.5 -51.999s-32.833 -20 -53.5 -20c-31.333 0 -55.666 11.333 -72.999 34s-30 49.834 -38 81.501s-12.833 64.167 -14.5 97.5s-2.5 61 -2.5 83v291c0 48.667 -12.5 87.334 -37.5 116.001s-62.5 43 -112.5 43c-62.667 0 -110.334 -27 -143.001 -81
c-4 13.333 -10.333 24.666 -19 33.999s-18.834 17.166 -30.501 23.499s-24.167 11 -37.5 14s-26 4.5 -38 4.5c-32.667 0 -60 -6.83301 -82 -20.5s-41.667 -33.834 -59 -60.501c-18.667 -28.667 -38 -56.5 -58 -83.5l-59 -82.5c-14 -20 -29.667 -41.167 -47 -63.5
s-36.166 -43 -56.499 -62s-42.5 -34.833 -66.5 -47.5s-49.667 -19 -77 -19c-24 0 -45.667 6.5 -65 19.5s-35.833 29.333 -49.5 49s-24.334 41.334 -32.001 65.001s-11.5 45.834 -11.5 66.501v9.5c0 3 0.333008 6.16699 1 9.5h338c-1.33301 34 -7.16602 65 -17.499 93
s-25 52 -44 72s-42 35.5 -69 46.5s-58.167 16.5 -93.5 16.5c-36 0 -68.333 -6.66699 -97 -20s-53 -31.333 -73 -54s-35.5 -49.334 -46.5 -80.001s-16.5 -63 -16.5 -97s5 -65.833 15 -95.5s24.5 -55.334 43.5 -77.001s42.5 -38.834 70.5 -51.501s59.667 -19 95 -19
c14 0 28.5 1.16699 43.5 3.5s29.167 6.16602 42.5 11.499c19.333 7.33301 39 18.833 59 34.5s39.5 33 58.5 52s36.833 38.667 53.5 59l44 54.5v-89c0 -10.667 -0.833008 -22.667 -2.5 -36s-5 -25.833 -10 -37.5s-11.833 -21.667 -20.5 -30s-20 -12.5 -34 -12.5h246
c-14 0 -25.167 4.16699 -33.5 12.5s-15 18.333 -20 30s-8.33301 24.167 -10 37.5s-2.5 25.333 -2.5 36v222c0 10 3.16699 20.667 9.5 32s14.333 22 24 32s20.167 18.167 31.5 24.5s22 9.5 32 9.5c12 0 22.5 -3.16699 31.5 -9.5s16.5 -14.333 22.5 -24
s10.5 -20.334 13.5 -32.001s4.5 -22.834 4.5 -33.501v-221c0 -10.667 -0.833008 -22.667 -2.5 -36s-4.83398 -25.833 -9.50098 -37.5s-11.334 -21.667 -20.001 -30s-20 -12.5 -34 -12.5h243c-14 0 -25.167 4.16699 -33.5 12.5s-14.833 18.333 -19.5 30
s-7.83398 24.167 -9.50098 37.5s-2.5 25.333 -2.5 36v221c0 12 1.83301 24.167 5.5 36.5s9 23.5 16 33.5s15.667 18.333 26 25s22.166 10 35.499 10s25.166 -3.16699 35.499 -9.5s19 -14.666 26 -24.999s12.333 -21.666 16 -33.999s5.5 -24.5 5.5 -36.5v-274
c0 -40 3.16699 -80.333 9.5 -121s18.166 -77.5 35.499 -110.5s41 -60 71 -81s69 -31.5 117 -31.5c22 0 43.333 2.83301 64 8.5s38.834 14.5 54.501 26.5s28.167 27 37.5 45s14 39.333 14 64c0 22.667 -7.16699 43.667 -21.5 63s-33.833 29 -58.5 29zM254.008 464.003
c20 0 36.5 -6.83301 49.5 -20.5s23.333 -30.167 31 -49.5s13.167 -39.5 16.5 -60.5s5 -39.167 5 -54.5h-215c0.666992 16 3 34.667 7 56s10.5 41.5 19.5 60.5s20.5 35.167 34.5 48.5s31.333 20 52 20z" />
    <glyph glyph-name="uniF069.liga" unicode="en" horiz-adv-x="976" 
d="M545 270c16.667 29.333 34.668 57.501 54.001 84.501l59 80.5v1c0 6 -1 14 -3 24s-5.66699 17 -11 21l-164 -25c1.33301 0 2.83301 0.166992 4.5 0.5s3.16699 0.5 4.5 0.5c11.333 0 20.666 -2.83301 27.999 -8.5s13 -12.834 17 -21.501s6.83301 -18 8.5 -28
s2.5 -19.667 2.5 -29v-100zM1148 -44.999c-18.667 0 -35.665 -5.99902 -50.998 -17.999s-23 -27.667 -23 -47c0 -14.667 3.66699 -25 11 -31s15.166 -10.833 23.499 -14.5s16.166 -7.83398 23.499 -12.501s11 -13 11 -25c0 -21.333 -7.5 -38.666 -22.5 -51.999
s-32.5 -20 -52.5 -20c-31.333 0 -55.666 11.333 -72.999 34s-30.166 49.834 -38.499 81.501s-13.333 64.334 -15 98.001s-2.5 61.167 -2.5 82.5v306c0 42 -12.5 75.5 -37.5 100.5s-58.5 37.5 -100.5 37.5c-33.333 0 -60.833 -6.5 -82.5 -19.5s-41.167 -33.167 -58.5 -60.5
c-18 -28.667 -37.167 -56.5 -57.5 -83.5l-59.5 -82.5c-13.333 -19.333 -28.5 -40.166 -45.5 -62.499s-35.833 -43 -56.5 -62s-42.667 -34.833 -66 -47.5s-48.333 -19 -75 -19c-24 0 -45.833 6.33301 -65.5 19s-36.667 28.667 -51 48s-25.5 40.666 -33.5 63.999
s-12 46 -12 68v10c0 3.33301 0.333008 6.66602 1 9.99902h338c-1.33301 33.333 -7.33301 64 -18 92s-25.5 52 -44.5 72s-42 35.5 -69 46.5s-57.833 16.5 -92.5 16.5c-36 0 -68.333 -6.66699 -97 -20s-53 -31.333 -73 -54s-35.5 -49.334 -46.5 -80.001s-16.5 -63 -16.5 -97
c0 -36 5.33301 -68.833 16 -98.5s26 -55.334 46 -77.001s44.5 -38.334 73.5 -50.001s61.833 -17.5 98.5 -17.5c7.33301 0 14.666 0.333008 21.999 1s14.666 1.66699 21.999 3c21.333 4.66699 44.333 14.5 69 29.5s48.5 32.667 71.5 53s44 41.833 63 64.5
s33.167 43.334 42.5 62.001l1 2v-89c0 -10.667 -0.833008 -22.667 -2.5 -36s-5 -25.833 -10 -37.5s-11.833 -21.667 -20.5 -30s-20 -12.5 -34 -12.5h246c-14 0 -25.167 4.16699 -33.5 12.5s-15 18.333 -20 30s-8.33301 24.167 -10 37.5s-2.5 25.333 -2.5 36v222
c0 10 3.16699 20.667 9.5 32s14.333 22 24 32s20.167 18.167 31.5 24.5s22 9.5 32 9.5c12 0 22.5 -3.16699 31.5 -9.5s16.5 -14.333 22.5 -24s10.5 -20.334 13.5 -32.001s4.5 -22.834 4.5 -33.501l1 -297c0 -37.333 4.16699 -75.166 12.5 -113.499s22 -73 41 -104
s43.833 -56.333 74.5 -76s68 -29.5 112 -29.5c21.333 0 41.666 3.33301 60.999 10s36.333 16.334 51 29.001s26.334 28 35.001 46s13 38.333 13 61c0 23.333 -7.16699 44.5 -21.5 63.5s-33.833 28.5 -58.5 28.5zM254.003 464.002c20 0 36.5 -6.83301 49.5 -20.5
s23.333 -30.167 31 -49.5s13.167 -39.5 16.5 -60.5s5 -39.167 5 -54.5h-215c0.666992 16 3 34.667 7 56s10.5 41.5 19.5 60.5s20.5 35.167 34.5 48.5s31.333 20 52 20z" />
    <glyph glyph-name="uniF06A.liga" unicode="jt" horiz-adv-x="543" 
d="M60 373l-0.000976562 -495.998c0 -24 -6 -44.333 -18 -61s-31 -25 -57 -25c-12.667 0 -22.334 4.83301 -29.001 14.5s-12.667 20.167 -18 31.5s-11.666 21.833 -18.999 31.5s-18 14.5 -32 14.5c-12 0 -22 -3.66699 -30 -11s-12 -17.333 -12 -30
c0 -14.667 5 -26.834 15 -36.501s22 -17.5 36 -23.5s28.833 -10.167 44.5 -12.5s29.167 -3.5 40.5 -3.5c28.667 0 54.667 4.66699 78 14s43.333 22.5 60 39.5s29.667 37.333 39 61s14 49.5 14 77.5v524l-175 -25c24.667 0 41.334 -8.83301 50.001 -26.5
s13 -36.834 13 -57.501zM421.999 122.002l0.00488281 327.003l97 12l-97 10v110c0 26 -4.83301 50.667 -14.5 74s-22.834 43.833 -39.501 61.5s-36.5 31.667 -59.5 42s-47.5 15.5 -73.5 15.5c-18.667 0 -39 -3.83301 -61 -11.5s-42.333 -18 -61 -31
s-34.334 -28.5 -47.001 -46.5s-19 -37.667 -19 -59c0 -18 6.5 -33.5 19.5 -46.5s28.5 -19.5 46.5 -19.5c14.667 0 26.167 2.83301 34.5 8.5s14.666 13 18.999 22s7 19 8 30s1.83301 21.833 2.5 32.5c1.33301 26 10.833 46.333 28.5 61s39.167 22 64.5 22
c33.333 0 58.833 -11 76.5 -33s26.5 -49 26.5 -81c0 -20 -3.66699 -38.667 -11 -56s-17.166 -33.166 -29.499 -47.499s-26.333 -27.333 -42 -39s-31.834 -21.834 -48.501 -30.501h66v-348c0 -32.667 9 -60.334 27 -83.001s44.333 -34 79 -34
c25.333 0 49.833 6.16699 73.5 18.5s41.5 30.166 53.5 53.499c-18.667 -13.333 -39.334 -20 -62.001 -20c-12.667 0 -22.834 2.5 -30.501 7.5s-13.5 11.667 -17.5 20s-6.5 17.666 -7.5 27.999s-1.5 20.5 -1.5 30.5z" />
    <glyph glyph-name="uniF06B.liga" unicode="it" horiz-adv-x="540" 
d="M420 122l0.00195312 326.998l96 12l-96 10v110c0 26 -4.83301 50.667 -14.5 74s-23 43.833 -40 61.5s-36.833 31.667 -59.5 42s-47 15.5 -73 15.5c-18.667 0 -39.167 -3.83301 -61.5 -11.5s-42.833 -18.167 -61.5 -31.5s-34.334 -29 -47.001 -47s-19 -37.667 -19 -59
c0 -17.333 6.66699 -32.5 20 -45.5s28.666 -19.5 45.999 -19.5c14 0 25.333 2.83301 34 8.5s15.167 12.834 19.5 21.501s7.16602 18.667 8.49902 30s2 22.333 2 33c0 25.333 9.66699 45.5 29 60.5s41 22.5 65 22.5c34 0 59.5 -11.333 76.5 -34s25.5 -50 25.5 -82
c0 -20 -3.66699 -38.5 -11 -55.5s-17.166 -32.667 -29.499 -47s-26.333 -27.166 -42 -38.499s-31.834 -21.333 -48.501 -30h66v-348c0 -32.667 9 -60.334 27 -83.001s44.333 -34 79 -34c25.333 0 49.833 6.33301 73.5 19s41.834 30.334 54.501 53.001
c-19.333 -13.333 -40.333 -20 -63 -20c-12.667 0 -22.667 2.66699 -30 8s-13 12 -17 20s-6.5 17.167 -7.5 27.5s-1.5 20.5 -1.5 30.5zM376.002 -45.002c-18 0 -34.5 -5.83398 -49.5 -17.501s-22.5 -27.167 -22.5 -46.5c0 -14 3.66699 -24.167 11 -30.5
s15.166 -11.5 23.499 -15.5s16.166 -8.16699 23.499 -12.5s11 -10.833 11 -19.5c0 -22.667 -7 -41.167 -21 -55.5s-32.333 -21.5 -55 -21.5c-31.333 0 -55.666 11.333 -72.999 34s-30 49.667 -38 81s-12.833 63.666 -14.5 96.999s-2.5 61 -2.5 83v451l-179 -26
c2.66699 0.666992 6.33398 1 11.001 1c10.667 0 19.5 -2.66699 26.5 -8s12.5 -12.166 16.5 -20.499s6.83301 -17.333 8.5 -27s2.5 -18.834 2.5 -27.501v-310c0 -28 1.33301 -57.167 4 -87.5s8.33398 -59.666 17.001 -87.999s21 -54.666 37 -78.999s37.333 -44.5 64 -60.5
c16.667 -10 34.667 -17.5 54 -22.5s38.666 -7.5 57.999 -7.5c22 0 43.167 3 63.5 9s38.333 15 54 27s28.167 27 37.5 45s14 39 14 63c0 23.333 -7.33301 44.5 -22 63.5s-34.667 28.5 -60 28.5z" />
    <glyph glyph-name="uniF06C.liga" unicode="gi" horiz-adv-x="781" 
d="M328 73c-21.333 0 -42.8291 -0.499023 -64.4961 -1.49902s-43.167 -1.5 -64.5 -1.5c-8 0 -17.833 0.166992 -29.5 0.5s-23 2 -34 5s-20.333 7.5 -28 13.5s-11.5 15 -11.5 27c0 11.333 3.66699 22.5 11 33.5s15.666 19.167 24.999 24.5v-1
c16.667 -8.66699 34.167 -15 52.5 -19s36.833 -6 55.5 -6c25.333 0 51.166 3.33301 77.499 10s50.166 16.834 71.499 30.501s38.833 31.167 52.5 52.5s20.5 46.666 20.5 75.999c0 41.333 -10.833 74.166 -32.5 98.499s-51.5 42.166 -89.5 53.499
c16 38 39.833 69.833 71.5 95.5s68.834 38.5 111.501 38.5c20 0 33.667 -3.83301 41 -11.5s13.333 -16.167 18 -25.5s10.5 -17.833 17.5 -25.5s20.167 -11.5 39.5 -11.5c44.667 0 67 22.333 67 67c0 14.667 -4 27.167 -12 37.5s-17.833 18.666 -29.5 24.999
s-24.5 11 -38.5 14s-27 4.5 -39 4.5c-30.667 0 -60.5 -4.83301 -89.5 -14.5s-55.667 -23.5 -80 -41.5s-45.5 -39.333 -63.5 -64s-31 -52 -39 -82c-21.333 5.33301 -42 8 -62 8c-25.333 0 -50.666 -3.5 -75.999 -10.5s-48.333 -17.667 -69 -32
s-37.334 -32.166 -50.001 -53.499s-19 -46.333 -19 -75c0 -28 7.66699 -53.333 23 -76s34.333 -41 57 -55c-11.333 -6 -23 -13 -35 -21s-22.833 -17.167 -32.5 -27.5s-17.5 -21.666 -23.5 -33.999s-9 -25.5 -9 -39.5c0 -13.333 2.83301 -26.333 8.5 -39
s13.167 -23.667 22.5 -33c-12.667 -12 -22.834 -26.333 -30.501 -43s-11.5 -33.667 -11.5 -51c0 -30.667 7 -55.5 21 -74.5s31.833 -33.833 53.5 -44.5s45.5 -17.834 71.5 -21.501s51.333 -5.5 76 -5.5c28 0 59.833 3 95.5 9s69.167 16.167 100.5 30.5
s57.666 33.5 78.999 57.5s32 54 32 90c0 30.667 -6.16699 55.334 -18.5 74.001s-28.5 32.667 -48.5 42s-42.5 15.5 -67.5 18.5s-49.833 4.5 -74.5 4.5zM250.004 465.001c19.333 0 35.166 -4.83887 47.499 -14.5059s22 -21.834 29 -36.501s12 -30.667 15 -48
s4.5 -33.666 4.5 -48.999c0 -14 -1.83301 -29.667 -5.5 -47s-9.33398 -33.833 -17.001 -49.5s-17.5 -28.667 -29.5 -39s-26.667 -15.5 -44 -15.5c-18 0 -33.167 4.83301 -45.5 14.5s-22.166 21.834 -29.499 36.501s-12.666 30.334 -15.999 47.001s-5 32.334 -5 47.001
s1.5 30.834 4.5 48.501s8.33301 34.334 16 50.001s17.667 28.834 30 39.501s27.5 16 45.5 16zM225.004 -226.005c-19.333 0 -40.3311 1.33301 -62.998 4s-43.834 8.33398 -63.501 17.001s-36.167 20.5 -49.5 35.5s-20 35.167 -20 60.5c0 33.333 11.333 62 34 86
c17.333 -10.667 33.666 -17.834 48.999 -21.501s33.333 -5.5 54 -5.5h230c18 0 35.333 -3.5 52 -10.5s25 -21.5 25 -43.5c0 -23.333 -9.66699 -42.833 -29 -58.5s-42.333 -28.167 -69 -37.5s-54 -16 -82 -20s-50.667 -6 -68 -6zM601.006 362.995
c0 -42 -0.164062 -83.832 -0.49707 -125.499s-0.5 -83.5 -0.5 -125.5c0 -10.667 -0.833008 -22.334 -2.5 -35.001s-4.83398 -24.667 -9.50098 -36s-11.334 -20.833 -20.001 -28.5s-19.667 -11.834 -33 -12.501h244c-12.667 1.33301 -23.334 5.83301 -32.001 13.5
s-15.334 17 -20.001 28s-8 22.833 -10 35.5s-3 24.334 -3 35.001l-2 360l-180 -27c2.66699 0.666992 6.66699 1 12 1c11.333 0 20.5 -2.66699 27.5 -8s12.833 -12 17.5 -20s7.83398 -16.833 9.50098 -26.5s2.5 -19.167 2.5 -28.5z" />
    <glyph glyph-name="uniF06D.liga" unicode="va" horiz-adv-x="965" 
d="M657 363c23.333 0 40.8369 9.33301 52.5039 28s17.5 38.334 17.5 59.001c0 32 -10.5 55.667 -31.5 71s-46.5 23 -76.5 23c-26 0 -51 -7.16699 -75 -21.5s-46.5 -33.166 -67.5 -56.499s-40.833 -49.666 -59.5 -78.999s-35.834 -59 -51.501 -89s-29.667 -59 -42 -87
l-32.5 -73l-89 217c-4.66699 11.333 -8.66699 22.666 -12 33.999s-5 23 -5 35c0 11.333 2.5 21.666 7.5 30.999s14.167 14.333 27.5 15h-236c10 0 19.5 -4.5 28.5 -13.5s17.333 -19.833 25 -32.5s14.5 -25.334 20.5 -38.001s10.667 -23 14 -31l159 -355h21l61.5 120
l60.5 120c21.333 42.667 48.166 78.667 80.499 108s73.833 44 124.5 44c7.33301 0 14.166 -1.5 20.499 -4.5s12.5 -6.33301 18.5 -10s12.167 -7 18.5 -10s13.166 -4.5 20.499 -4.5zM1137 -45c-18.667 0 -35.499 -6 -50.499 -18s-22.5 -27.667 -22.5 -47
c0 -14 3.66699 -24.167 11 -30.5s15.166 -11.5 23.499 -15.5s16.166 -8 23.499 -12s11 -10.667 11 -20c0 -22 -7.33301 -40.333 -22 -55s-33 -22 -55 -22c-27.333 0 -49.333 9.16699 -66 27.5s-29.5 40.666 -38.5 66.999s-15 53.666 -18 81.999s-4.5 52.5 -4.5 72.5v325
c0 26.667 -3.5 51.5 -10.5 74.5s-17.667 43.167 -32 60.5s-32.166 31 -53.499 41s-46.333 15 -75 15h-10c-3.33301 0 -6.66602 -0.333008 -9.99902 -1c20.667 -6 39.167 -17 55.5 -33s24.5 -35.333 24.5 -58v-7c-2 -18 -9.66699 -34.667 -23 -50
s-29.166 -29.166 -47.499 -41.499s-37.5 -22.833 -57.5 -31.5s-37 -15.667 -51 -21c-32 -11.333 -58.167 -27.5 -78.5 -48.5s-30.5 -49.5 -30.5 -85.5c0 -42.667 14.333 -75.667 43 -99s63.334 -35 104.001 -35c28 0 55.167 6.16699 81.5 18.5s47.166 30.5 62.499 54.5
c-0.666992 -5.33301 -1 -10.666 -1 -15.999v-16c0 -37.333 3.5 -74.5 10.5 -111.5s19.167 -70.167 36.5 -99.5s40.666 -53.333 69.999 -72s66 -28 110 -28c22 0 43.333 2.83301 64 8.5s39 14.5 55 26.5s28.667 27 38 45s14 39.333 14 64c0 23.333 -7.33301 44.5 -22 63.5
s-34.334 28.5 -59.001 28.5zM716.005 31c-13.333 0 -24.665 3.33203 -33.998 9.99902s-17 15 -23 25s-10.333 21 -13 33s-4 23.333 -4 34c0 30.667 6.33301 54.167 19 70.5s28 29.833 46 40.5s37.167 20.834 57.5 30.501s38.166 23.5 53.499 41.5v-121
c0 -16.667 -1.33301 -34.5 -4 -53.5s-7.83398 -36.667 -15.501 -53s-18 -30 -31 -41s-30.167 -16.5 -51.5 -16.5z" />
    <glyph glyph-name="uniF06E.liga" unicode="wa" horiz-adv-x="1248" 
d="M950 363c23.333 0 40.5 9.33301 51.5 28s16.5 38.334 16.5 59.001c0 32 -10.5 55.667 -31.5 71s-46.167 23 -75.5 23c-38 0 -73.667 -14.833 -107 -44.5s-63.833 -65.334 -91.5 -107.001s-51.834 -84.834 -72.501 -129.501l-51 -112l-78 204
c-3.33301 9.33301 -6.33301 18.833 -9 28.5s-4 19.5 -4 29.5c0 17.333 4.5 31.333 13.5 42s22.5 16 40.5 16h-239c17.333 0 30.666 -5.16699 39.999 -15.5s14 -24.166 14 -41.499c0 -10.667 -1.33301 -20.834 -4 -30.501s-6 -19.167 -10 -28.5l-86 -210l-80 210
c-3.33301 9.33301 -6.16602 18.833 -8.49902 28.5s-3.5 19.834 -3.5 30.501c0 15.333 3.83301 28.666 11.5 39.999s20.167 17 37.5 17h-240c10 0 19.333 -4.66699 28 -14s16.5 -20.166 23.5 -32.499s13.167 -25 18.5 -38s9.33301 -23.5 12 -31.5l134 -356h28l151 367
l144 -367h29l56 120l58 120c10 20 21.5 39.167 34.5 57.5s27.5 34.5 43.5 48.5s33.833 25.167 53.5 33.5s41.834 12.5 66.501 12.5c10 0 18.667 -1.5 26 -4.5s14 -6.16699 20 -9.5s12 -6.5 18 -9.5s13.333 -4.5 22 -4.5zM1420 -45
c-18.667 0 -35.499 -6.00098 -50.499 -18.001s-22.5 -27.667 -22.5 -47c0 -14 3.66699 -24.167 11 -30.5s15.166 -11.5 23.499 -15.5s16.166 -8 23.499 -12s11 -10.667 11 -20c0 -22 -7.33301 -40.333 -22 -55s-33 -22 -55 -22c-27.333 0 -49.333 9.16699 -66 27.5
s-29.5 40.666 -38.5 66.999s-15 53.666 -18 81.999s-4.5 52.5 -4.5 72.5v325c0 26.667 -3.66699 51.5 -11 74.5s-18.166 43.167 -32.499 60.5s-32.166 31 -53.499 41s-46 15 -74 15h-10c-3.33301 0 -6.66602 -0.333008 -9.99902 -1c21.333 -6 40 -17.167 56 -33.5
s24 -36.166 24 -59.499v-5c-2 -18 -9.66699 -34.667 -23 -50s-29.333 -29.166 -48 -41.499s-38 -22.833 -58 -31.5s-37 -15.667 -51 -21c-32 -11.333 -58 -27.5 -78 -48.5s-30 -49.5 -30 -85.5c0 -42.667 14.333 -75.667 43 -99s63.334 -35 104.001 -35
c28 0 55.167 6.16699 81.5 18.5s47.166 30.5 62.499 54.5c-0.666992 -5.33301 -1 -10.666 -1 -15.999v-16c0 -37.333 3.5 -74.5 10.5 -111.5s19.167 -70.167 36.5 -99.5s40.666 -53.333 69.999 -72s66 -28 110 -28c22 0 43.333 2.83301 64 8.5s39 14.5 55 26.5
s28.667 27 38 45s14 39.333 14 64c0 23.333 -7.33301 44.5 -22 63.5s-34.334 28.5 -59.001 28.5zM999.001 30.999c-13.333 0 -24.667 3.33203 -34 9.99902s-17 15 -23 25s-10.333 21 -13 33s-4 23.667 -4 35c0 30 6.33301 53.167 19 69.5s28.167 29.833 46.5 40.5
s37.666 20.834 57.999 30.501s37.833 23.5 52.5 41.5v-121c0 -16.667 -1.5 -34.5 -4.5 -53.5s-8.16699 -36.667 -15.5 -53s-17.666 -30 -30.999 -41s-30.333 -16.5 -51 -16.5z" />
    <glyph glyph-name="uniF06F.liga" unicode="ya" horiz-adv-x="941" 
d="M643 363c23.333 0 40.666 9.33301 51.999 28s17 38.334 17 59.001c0 31.333 -10.667 54.833 -32 70.5s-46.666 23.5 -75.999 23.5c-25.333 0 -49.666 -7 -72.999 -21s-45.5 -32.167 -66.5 -54.5s-40.667 -47.666 -59 -75.999s-35.166 -57 -50.499 -86
s-29 -57.167 -41 -84.5l-31 -71l-85 207c-5.33301 11.333 -9.66602 22.833 -12.999 34.5s-5 24.167 -5 37.5c0 9.33301 2.33301 18.5 7 27.5s12.667 13.5 24 13.5h-235c12.667 0 24.167 -4 34.5 -12s19.666 -17.833 27.999 -29.5s15.666 -24 21.999 -37
s11.5 -24.5 15.5 -34.5l148 -358l-51 -118c-6 -14 -14.833 -29 -26.5 -45s-26.167 -24 -43.5 -24c-10.667 0 -19.5 2.66699 -26.5 8s-13.5 11.166 -19.5 17.499s-12.167 12.166 -18.5 17.499s-14.5 8 -24.5 8c-13.333 0 -23.666 -4.5 -30.999 -13.5s-11 -19.833 -11 -32.5
c0 -22 8 -37.5 24 -46.5s33.667 -13.5 53 -13.5c38.667 0 69 11.333 91 34s40.333 50 55 82l80.5 184c26.333 62.667 54.166 123 83.499 181c10 20 21.333 39.167 34 57.5s27.167 34.5 43.5 48.5s34.5 25.167 54.5 33.5s42.333 12.5 67 12.5c9.33301 0 17.5 -1.5 24.5 -4.5
s13.667 -6.16699 20 -9.5s12.666 -6.5 18.999 -9.5s13.5 -4.5 21.5 -4.5zM1114 -45c-18 0 -34.8369 -5.83203 -50.5039 -17.499s-23.5 -27.167 -23.5 -46.5c0 -14 3.66699 -24.333 11 -31s15.166 -12 23.499 -16s16.166 -8.16699 23.499 -12.5s11 -10.833 11 -19.5
c0 -22 -7.16699 -40.333 -21.5 -55s-32.5 -22 -54.5 -22c-27.333 0 -49.333 9.16699 -66 27.5s-29.667 40.666 -39 66.999s-15.5 53.666 -18.5 81.999s-4.5 52.5 -4.5 72.5v335c0 25.333 -4 49 -12 71s-19.333 41.167 -34 57.5s-32.667 29.166 -54 38.499s-45 14 -71 14h-10
c-3.33301 0 -6.66602 -0.333008 -9.99902 -1c20 -5.33301 38.5 -16 55.5 -32s25.5 -35 25.5 -57c0 -19.333 -6.5 -37.166 -19.5 -53.499s-29 -31 -48 -44s-38.667 -24.167 -59 -33.5s-38.166 -16.666 -53.499 -21.999c-32 -11.333 -58.167 -27.5 -78.5 -48.5
s-30.5 -49.5 -30.5 -85.5c0 -42.667 14.333 -75.667 43 -99s63.334 -35 104.001 -35c28.667 0 55.834 6.16699 81.501 18.5s46.834 30.5 63.501 54.5c-0.666992 -6.66699 -1 -13 -1 -19v-19c0 -36.667 3.66699 -73.167 11 -109.5s19.833 -69 37.5 -98s41 -52.5 70 -70.5
s65.167 -27 108.5 -27c22 0 43.333 2.83301 64 8.5s38.834 14.5 54.501 26.5s28.167 27 37.5 45s14 39.333 14 64c0 22.667 -7.16699 43.667 -21.5 63s-33.833 29 -58.5 29zM691.996 31.001c-12.667 0 -23.668 3.33105 -33.001 9.99805s-17 15 -23 25s-10.5 21 -13.5 33
s-4.5 23.333 -4.5 34c0 30.667 6.33301 54.167 19 70.5s28 29.833 46 40.5s37.167 20.834 57.5 30.501s38.166 23.5 53.499 41.5v-121c0 -16.667 -1.33301 -34.667 -4 -54s-7.66699 -37.166 -15 -53.499s-17.666 -29.833 -30.999 -40.5s-30.666 -16 -51.999 -16z" />
    <glyph glyph-name="uniF070.liga" unicode="yi" horiz-adv-x="805" 
d="M559 0l244.002 0.000976562c-12.667 1.33301 -23.167 5.83301 -31.5 13.5s-15 17 -20 28s-8.5 22.833 -10.5 35.5s-3 24.334 -3 35.001v300c-55.333 -21.333 -112.666 -31.333 -171.999 -30c12 0 21.667 -2.66699 29 -8s13.166 -12 17.499 -20s7.33301 -17 9 -27
s2.5 -19.667 2.5 -29v-186c0 -10.667 -0.833008 -22.334 -2.5 -35.001s-4.83398 -24.667 -9.50098 -36s-11.334 -20.833 -20.001 -28.5s-19.667 -11.834 -33 -12.501zM676.002 437.001c23.333 0 40.5 9.33398 51.5 28.001s16.5 38.334 16.5 59.001
c0 31.333 -10.667 54.833 -32 70.5s-46.666 23.5 -75.999 23.5c-28 0 -54.833 -8.5 -80.5 -25.5s-50 -39.167 -73 -66.5s-44.667 -58 -65 -92s-38.833 -68.333 -55.5 -103s-31.667 -67.834 -45 -99.501l-34 -80.5l-85 207c-5.33301 11.333 -9.66602 22.833 -12.999 34.5
s-5 24.167 -5 37.5c0 9.33301 2.33301 18.5 7 27.5s12.667 13.5 24 13.5h-235c12.667 0 24.167 -4 34.5 -12s19.666 -17.833 27.999 -29.5s15.666 -24 21.999 -37s11.5 -24.5 15.5 -34.5l148 -358l-51 -118c-6 -14 -14.833 -29 -26.5 -45s-26.167 -24 -43.5 -24
c-10.667 0 -19.5 2.66699 -26.5 8s-13.5 11.166 -19.5 17.499s-12.167 12.166 -18.5 17.499s-14.5 8 -24.5 8c-13.333 0 -23.666 -4.5 -30.999 -13.5s-11 -19.833 -11 -32.5c0 -22 8 -37.5 24 -46.5s33.667 -13.5 53 -13.5c38.667 0 69 11.333 91 34s40.333 50 55 82l67 150
l67 150l31 70c10 23.333 20.667 46.333 32 69c10.667 21.333 22.5 41.333 35.5 60s27.833 34.834 44.5 48.501s35.167 24.5 55.5 32.5s43.166 12 68.499 12c8 0 15 -1.5 21 -4.5s12 -6.33301 18 -10s12.167 -7 18.5 -10s13.833 -4.5 22.5 -4.5z" />
    <glyph glyph-name="uniF071.liga" unicode="yj" horiz-adv-x="777" 
d="M566 382c12 0 21.668 -2.66602 29.001 -7.99902s13.166 -12 17.499 -20s7.33301 -17 9 -27s2.5 -19.667 2.5 -29v-421c0 -24.667 -5.83301 -45.167 -17.5 -61.5s-30.834 -24.5 -57.501 -24.5c-12.667 0 -22.167 4.83301 -28.5 14.5s-12.333 20.167 -18 31.5
s-12.167 21.833 -19.5 31.5s-18 14.5 -32 14.5c-12 0 -22 -3.66699 -30 -11s-12 -17.333 -12 -30c0 -14.667 5 -26.834 15 -36.501s22.167 -17.5 36.5 -23.5s29.333 -10.167 45 -12.5s29.167 -3.5 40.5 -3.5c28 0 53.667 4.66699 77 14s43.333 22.5 60 39.5
s29.667 37.333 39 61s14 49.5 14 77.5c0 76 0.333008 151.667 1 227s1 151 1 227c-55.333 -21.333 -112.666 -31.333 -171.999 -30zM596.001 466.001c8 0 15 -1.49902 21 -4.49902s12 -6.33301 18 -10s12.333 -7 19 -10s14 -4.5 22 -4.5c23.333 0 40.5 9.33301 51.5 28
s16.5 38.334 16.5 59.001c0 31.333 -10.667 54.833 -32 70.5s-46.666 23.5 -75.999 23.5c-28 0 -54.833 -8.5 -80.5 -25.5s-50 -39.167 -73 -66.5s-44.667 -58 -65 -92s-38.833 -68.333 -55.5 -103s-31.667 -67.834 -45 -99.501l-34 -80.5l-85 207
c-5.33301 11.333 -9.66602 22.833 -12.999 34.5s-5 24.167 -5 37.5c0 9.33301 2.33301 18.5 7 27.5s12.667 13.5 24 13.5h-235c12.667 0 24.167 -4 34.5 -12s19.666 -17.833 27.999 -29.5s15.666 -24 21.999 -37s11.5 -24.5 15.5 -34.5l148 -358l-51 -118
c-6 -14 -14.833 -29 -26.5 -45s-26.167 -24 -43.5 -24c-10.667 0 -19.5 2.66699 -26.5 8s-13.5 11.166 -19.5 17.499s-12.167 12.166 -18.5 17.499s-14.5 8 -24.5 8c-13.333 0 -23.666 -4.5 -30.999 -13.5s-11 -19.833 -11 -32.5c0 -22 8 -37.5 24 -46.5
s33.667 -13.5 53 -13.5c38.667 0 69 11.333 91 34s40.333 50 55 82l67 150l67 150l31 70c10 23.333 20.667 46.333 32 69c10.667 21.333 22.5 41.333 35.5 60s27.833 34.834 44.5 48.501s35.167 24.5 55.5 32.5s43.166 12 68.499 12z" />
    <glyph glyph-name="uniF07F.liga" unicode="Audaciti" horiz-adv-x="3374" 
d="M915 -27c-18.667 0 -35.834 -6.66992 -51.501 -20.0029s-23.5 -29.666 -23.5 -48.999c0 -3.33301 0.333008 -6.5 1 -9.5s1.66699 -6.16699 3 -9.5c5.33301 -16.667 13.5 -26.167 24.5 -28.5s22 -3.66602 33 -3.99902s20.667 -2.66602 29 -6.99902
s12.5 -16.833 12.5 -37.5c0 -23.333 -8.83301 -41.5 -26.5 -54.5s-37.167 -19.5 -58.5 -19.5c-4 0 -10 0.666992 -18 2c-10.667 2 -21 7.16699 -31 15.5s-19.167 18.166 -27.5 29.499s-15.833 23 -22.5 35s-12.667 22.333 -18 31c-10 16.667 -19 34 -27 52l-24 53l-32 69.5
c-10.667 23 -20.667 46.167 -30 69.5l-233 561l-2 2v1c-12 30 -29.667 55.5 -53 76.5s-52.333 31.5 -87 31.5c-12.667 0 -25.667 -2 -39 -6s-25.333 -10 -36 -18s-19.5 -17.667 -26.5 -29s-10.5 -24.333 -10.5 -39c0 -18.667 6.83301 -35.667 20.5 -51s30.167 -23 49.5 -23
c7.33301 0 13.666 1.33301 18.999 4c15.333 8 24.166 17.667 26.499 29s3.66602 22.333 3.99902 33s3 19.834 8 27.501s18.167 11.5 39.5 11.5c11.333 0 22.666 -3 33.999 -9s17 -15.667 17 -29c0 -2 -0.666992 -5.66699 -2 -11l-214 -562c-4 -10 -9 -20.5 -15 -31.5
s-13.167 -21 -21.5 -30s-17.666 -16.167 -27.999 -21.5s-21.5 -8 -33.5 -8h168c-17.333 0 -31.166 4.66699 -41.499 14s-15.5 22.666 -15.5 39.999c0 9.33301 2.33301 21.666 7 36.999s10.334 31.333 17.001 48l19.5 47c6.33301 14.667 10.833 26 13.5 34h234l70 -174
l39 -94c13.333 -31.333 28 -61.666 44 -90.999c12 -21.333 24.833 -41.5 38.5 -60.5s29 -35.667 46 -50s36.167 -25.666 57.5 -33.999s45 -12.5 71 -12.5c22 0 44.333 3.5 67 10.5s43.334 17.333 62.001 31s33.834 30.167 45.501 49.5s17.5 41.333 17.5 66
c0 12.667 -2 25.667 -6 39s-9.83301 25.333 -17.5 36s-17.167 19.5 -28.5 26.5s-24 10.5 -38 10.5zM221 238.997c19.333 46 37.5 92.333 54.5 139l51.5 139l54.5 -139.5c17.667 -47 37.167 -93.167 58.5 -138.5h-219zM1089 457.997l-172.994 -0.000976562
c13.333 0 24.166 -4.16699 32.499 -12.5s14.666 -18.166 18.999 -29.499s7.33301 -23.5 9 -36.5s2.5 -24.5 2.5 -34.5v-221c0 -28 -9 -50.833 -27 -68.5s-40.333 -26.5 -67 -26.5c-12.667 0 -24.334 3.16699 -35.001 9.5s-19.5 14.333 -26.5 24s-12.5 20.5 -16.5 32.5
s-6 23.667 -6 35v328h-171c13.333 0 24.166 -4 32.499 -12s14.666 -17.833 18.999 -29.5s7.33301 -23.834 9 -36.501s2.5 -24 2.5 -34v-201c0 -46.667 12.333 -84.167 37 -112.5s61 -42.5 109 -42.5c28 0 53.833 4.66699 77.5 14s44.5 25 62.5 47
c0 -8 0.833008 -18.667 2.5 -32s5.5 -23 11.5 -29l161 28c-2.66699 -0.666992 -6.33398 -1 -11.001 -1c-10.667 0 -19.5 2.83301 -26.5 8.5s-12.5 12.834 -16.5 21.501s-6.83301 18 -8.5 28s-2.5 19.333 -2.5 28v355zM1577.01 108.996l0.00488281 459.001
c17.333 -5.33301 35 -10.166 53 -14.499s36 -6.5 54 -6.5c14 0 28.5 1.16699 43.5 3.5s28.667 6.5 41 12.5s22.5 14.5 30.5 25.5s12 25.167 12 42.5c0 21.333 -5.83301 39.666 -17.5 54.999s-26.334 28 -44.001 38s-36.834 17.333 -57.501 22s-40 7 -58 7
c-35.333 0 -69.5 -5.16699 -102.5 -15.5s-65.333 -23.5 -97 -39.5s-63.167 -33 -94.5 -51s-63.166 -35 -95.499 -51s-65.333 -29.167 -99 -39.5s-68.834 -15.5 -105.501 -15.5h-13.5c-4.33301 0 -8.83301 0.333008 -13.5 1c-22 2.66699 -43.5 10.167 -64.5 22.5
s-39.833 27.666 -56.5 45.999s-30.167 38.5 -40.5 60.5s-15.5 44 -15.5 66c0 11.333 2.16699 22.5 6.5 33.5s10.333 21 18 30s16.667 16.167 27 21.5s21.5 8 33.5 8c24.667 0 44.667 -9.16699 60 -27.5s25.333 -38.5 30 -60.5c1.33301 4.66699 2 9.16699 2 13.5v13.5
c0 38.667 -12.167 70.167 -36.5 94.5s-55.5 36.5 -93.5 36.5c-43.333 0 -77.166 -14 -101.499 -42s-36.5 -63 -36.5 -105c0 -40 7.16699 -75 21.5 -105s33.833 -55 58.5 -75s53.667 -35.167 87 -45.5s68.666 -15.5 105.999 -15.5c42 0 81.167 5.66699 117.5 17
s71.166 25.333 104.499 42s65.666 35 96.999 55s62.833 38.333 94.5 55s64.167 30.667 97.5 42s68.333 17 105 17c16 0 33.667 -2 53 -6s37.5 -10.5 54.5 -19.5s31.167 -20.5 42.5 -34.5s17 -31 17 -51c0 -14.667 -4 -26.5 -12 -35.5s-17.833 -16 -29.5 -21
s-24.334 -8.5 -38.001 -10.5s-26.167 -3 -37.5 -3c-18.667 0 -38.5 2.66699 -59.5 8s-41.167 13 -60.5 23s-37.333 21.667 -54 35s-30.334 28 -41.001 44v-246c-39.333 30 -83.666 45 -132.999 45c-34 0 -63.5 -7.16699 -88.5 -21.5s-45.833 -33 -62.5 -56
s-29.167 -49.167 -37.5 -78.5s-12.5 -59 -12.5 -89c0 -30.667 3.83301 -60.167 11.5 -88.5s19.5 -53.166 35.5 -74.499s36.333 -38.333 61 -51s54 -19 88 -19c26 0 50.667 4.83301 74 14.5s44.666 22.834 63.999 39.501c0.666992 -8.66699 2 -18.334 4 -29.001
s6.33301 -19.334 13 -26.001l157 38c-2 -0.666992 -5.33301 -1 -10 -1c-10.667 0 -19.667 2.66699 -27 8s-13.166 12.166 -17.499 20.499s-7.33301 17.333 -9 27s-2.5 18.834 -2.5 27.501zM1367.01 21.9971c-24 0 -43.8311 7.66797 -59.498 23.001s-28.334 34 -38.001 56
s-16.334 45.167 -20.001 69.5s-5.5 45.5 -5.5 63.5c0 20 1.66699 41.667 5 65s9.5 45.166 18.5 65.499s21.667 37.333 38 51s37.166 20.5 62.499 20.5c19.333 0 37.833 -5 55.5 -15s32.834 -22.333 45.501 -37v-250c0 -13.333 -2.66699 -26.666 -8 -39.999
s-12.5 -25.333 -21.5 -36s-19.667 -19.334 -32 -26.001s-25.833 -10 -40.5 -10zM2053.01 309.998c0 58.667 -16.832 99.9961 -50.499 123.996s-77.834 36 -132.501 36c-17.333 0 -36.333 -1.66699 -57 -5s-40 -9.16602 -58 -17.499s-33.167 -19.5 -45.5 -33.5
s-18.5 -32 -18.5 -54c0 -19.333 7 -35 21 -47s30.333 -18 49 -18c11.333 0 22.333 3.16699 33 9.5s16 16.166 16 29.499c0 8.66699 -1.16699 15.5 -3.5 20.5s-5 9.33301 -8 13s-5.66699 7.16699 -8 10.5s-3.5 8 -3.5 14c0 21.333 8 36.5 24 45.5s33 13.5 51 13.5
c9.33301 0 19 -1 29 -3s19 -5.5 27 -10.5s14.667 -11.333 20 -19s8 -17.167 8 -28.5c0 -18.667 -6.5 -35.5 -19.5 -50.5s-28.667 -28.333 -47 -40s-37.5 -21.5 -57.5 -29.5l-51 -20c-32 -11.333 -57.5 -27.166 -76.5 -47.499s-28.5 -48.166 -28.5 -83.499
c0 -43.333 14.5 -75.666 43.5 -96.999s63.5 -32 103.5 -32c26.667 0 52.334 6.16699 77.001 18.5s44.334 29.5 59.001 51.5c2.66699 -27.333 13.667 -45.333 33 -54s40.666 -13 63.999 -13c15.333 0 32.166 4.83301 50.5 14.5c18.333 9.66699 32.166 20.834 41.499 33.501
c-7.33301 -5.33301 -15.333 -9.83301 -24 -13.5s-17.667 -5.5 -27 -5.5c-14.667 0 -24 5.33301 -28 16s-6 22 -6 34v238zM1946.01 188.994c0 -16.667 -1.33301 -34.3291 -4 -52.9961s-7.66699 -35.834 -15 -51.501s-17.5 -28.667 -30.5 -39s-29.833 -15.5 -50.5 -15.5
c-12 0 -22.5 3 -31.5 9s-16.5 13.833 -22.5 23.5s-10.5 20 -13.5 31s-4.5 21.5 -4.5 31.5c0 31.333 6 55.166 18 71.499s26.667 29.666 44 39.999s36 20.166 56 29.499s38 23 54 41v-118zM2392.01 33.999c-23.333 0 -44.166 6.00098 -62.5 18.001
c-18.333 12 -33.666 27.333 -46 46c-12.333 18.667 -21.666 39.167 -28 61.5c-6.33301 22.333 -9.5 43.833 -9.5 64.5c0 18.667 2 40.834 6 66.501s11 50.167 21 73.5s23.167 43.166 39.5 59.499s36.833 24.5 61.5 24.5c15.333 0 28.666 -4.33301 40 -13
c11.333 -8.66699 17 -21.334 17 -38.001c0 -9.33301 -2.33301 -17.666 -7 -24.999s-7 -16.333 -7 -27c0 -10 4.66699 -19.167 14 -27.5s18.666 -12.5 28 -12.5c20 0 37 6.33301 51 19s21 29.334 21 50.001c0 19.333 -5.33301 35.333 -16 48s-23.834 22.667 -39.5 30
c-15.667 7.33301 -32.667 12.5 -51 15.5s-35.166 4.5 -50.5 4.5c-37.333 0 -71 -6 -101 -18s-55.5 -28.833 -76.5 -50.5s-37.167 -47.834 -48.5 -78.501s-17 -64.667 -17 -102c0 -32 5.5 -62.167 16.5 -90.5s26.5 -53.166 46.5 -74.499s43.667 -38.166 71 -50.499
s57.333 -18.5 90 -18.5c29.333 0 55.166 5.16699 77.5 15.5c22.333 10.333 41.833 24.166 58.5 41.499s30.167 37.666 40.5 60.999s17.833 48.333 22.5 75c-5.33301 -20 -12.666 -38.833 -22 -56.5c-9.33301 -17.667 -20.666 -33.334 -34 -47.001
c-13.333 -13.667 -28.833 -24.5 -46.5 -32.5s-37.5 -12 -59.5 -12zM2928.01 -44c-8 0 -16.167 -1.33203 -24.5 -3.99902s-16 -6.5 -23 -11.5s-12.667 -11.167 -17 -18.5s-6.5 -15.333 -6.5 -24c0 -15.333 3.5 -26.333 10.5 -33s14.833 -12 23.5 -16
s16.5 -7.83301 23.5 -11.5s10.5 -10.167 10.5 -19.5c0 -21.333 -7 -39.166 -21 -53.499s-31.667 -21.5 -53 -21.5c-30 0 -53.5 11 -70.5 33s-29.5 48.333 -37.5 79s-12.833 62.167 -14.5 94.5s-2.5 59.166 -2.5 80.499v439l-174 -26c2.66699 0.666992 6.33398 1 11 1
c10.667 0 19.334 -2.5 26 -7.5c6.66699 -5 12 -11.5 16 -19.5s6.66699 -16.667 8 -26s2 -18.333 2 -27v-302c0 -40.667 2.66699 -80.334 8 -119.001s18.666 -76 40 -112c19.333 -33.333 44.166 -59 74.5 -77c30.333 -18 65.166 -27 104.5 -27c21.333 0 42 2.83301 62 8.5
s37.667 14.167 53 25.5s27.5 25.833 36.5 43.5s13.5 38.5 13.5 62.5c0 23.333 -6.83301 44 -20.5 62s-33.167 27 -58.5 27zM2970.01 119.001v316.998l94 12l-94 10v107c0 25.333 -4.83301 49.333 -14.5 72s-22.667 42.5 -39 59.5s-35.666 30.5 -58 40.5
c-22.333 10 -46.5 15 -72.5 15c-18 0 -37.667 -3.83301 -59 -11.5s-41 -18 -59 -31s-33 -28.333 -45 -46s-18 -36.5 -18 -56.5c0 -15.333 6.16699 -29.666 18.5 -42.999s26.166 -20 41.5 -20c15.333 0 27.333 2.5 36 7.5s15.167 11.833 19.5 20.5s7.16602 18.334 8.5 29.001
c1.33301 10.667 2 22 2 34c0 24.667 9.16699 44.167 27.5 58.5s39.166 21.5 62.5 21.5c33.333 0 58.5 -10.833 75.5 -32.5s25.5 -48.167 25.5 -79.5c0 -19.333 -3.66699 -37.333 -11 -54s-17 -32 -29 -46s-25.667 -26.667 -41 -38s-31 -21 -47 -29h65v-338
c0 -32 8.66699 -58.833 26 -80.5s43 -32.5 77 -32.5c25.333 0 49.333 6 72 18s40 29.333 52 52c-18.667 -13.333 -39 -20 -61 -20c-12.667 0 -22.667 2.5 -30 7.5s-12.833 11.5 -16.5 19.5s-6 17 -7 27s-1.5 20 -1.5 30zM3208.01 544.999h3c18 0 32.667 6.5 44 19.5
s17 28.167 17 45.5c0 16 -5.83301 30.667 -17.5 44s-26.167 20 -43.5 20c-19.333 0 -35.333 -5.83301 -48 -17.5s-19 -27.167 -19 -46.5c0 -18.667 5.83301 -34.167 17.5 -46.5s27.167 -18.5 46.5 -18.5zM3092.01 -0.000976562h237
c-12.667 0.666992 -23.167 4.83398 -31.5 12.501s-14.833 17 -19.5 28s-7.83398 22.667 -9.5 35c-1.66699 12.333 -2.5 23.5 -2.5 33.5v359l-174 -25c2 0.666992 5.33301 1 10 1c10.667 0 19.334 -2.66699 26 -8c6.66699 -5.33301 12 -12 16 -20s6.83301 -16.667 8.5 -26
s2.5 -18.333 2.5 -27v-254c0 -10 -0.833008 -21.167 -2.5 -33.5s-4.83398 -24 -9.5 -35c-4.66699 -11 -11 -20.333 -19 -28s-18.667 -11.834 -32 -12.501z" />
    <glyph glyph-name=".notdef" horiz-adv-x="527" 
d="M50 700v-700h427v700h-427zM78 680h371l-186 -309zM251 350l-180 -301v601zM264 329l185 -308h-370zM276 350l181 302v-605z" />
    <glyph glyph-name=".null" horiz-adv-x="0" 
 />
    <glyph glyph-name=".null" horiz-adv-x="0" 
 />
    <glyph glyph-name="uni000A" unicode="&#xa;" horiz-adv-x="0" 
 />
    <glyph glyph-name="uni000D" unicode="&#xd;" horiz-adv-x="0" 
 />
    <glyph glyph-name="space" unicode=" " horiz-adv-x="291" 
 />
    <glyph glyph-name="exclam" unicode="!" horiz-adv-x="224" 
d="M38 616c0 -6 0.332031 -10.335 0.999023 -13.002l62 -432h21l63 432c0.666992 2.66699 1 6 1 10c0 20.667 -7.16699 38.834 -21.5 54.501s-32.166 23.5 -53.499 23.5c-19.333 0 -36.333 -7.66699 -51 -23s-22 -32.666 -22 -51.999zM46.999 52.998
c0 -18.667 6.5 -34.333 19.5 -47s28.833 -19 47.5 -19c18 0 33.333 6.5 46 19.5s19 28.5 19 46.5c0 17.333 -6.33301 33 -19 47s-28 21 -46 21c-19.333 0 -35.333 -6.5 -48 -19.5s-19 -29.167 -19 -48.5z" />
    <glyph glyph-name="quotedbl" unicode="&#x22;" horiz-adv-x="262" 
d="M30 659c0 -30 3 -60.168 9 -90.501s11.333 -60.166 16 -89.499h24c3.33301 30 8.16602 60 14.499 90s9.5 60 9.5 90c0 10 -3.66699 17.667 -11 23s-15.666 8 -24.999 8s-17.833 -2.66699 -25.5 -8s-11.5 -13 -11.5 -23zM157 659.999c0 -30 3.33301 -60.167 10 -90.5
s12.334 -60.5 17.001 -90.5h22c1.33301 10 3.5 23.333 6.5 40s5.83301 34 8.5 52s5 35 7 51s3 28.333 3 37c0 9.33301 -3.83301 16.833 -11.5 22.5s-15.834 8.5 -24.501 8.5s-17.167 -2.5 -25.5 -7.5s-12.5 -12.5 -12.5 -22.5z" />
    <glyph glyph-name="numbersign" unicode="#" horiz-adv-x="529" 
d="M25 386h173l-15 -91h-158v-26h155l-41 -268h27l42 268h90l-41 -268h29l40 268h177v26h-173l15 91h158v25h-155l43 270h-30l-40 -270h-92l41 270h-26l-43 -270h-176v-25zM225 386h93l-15 -91h-91z" />
    <glyph glyph-name="dollar" unicode="$" horiz-adv-x="560" 
d="M258 -8l0.00195312 -75h28v74c30 0.666992 59.333 5.16699 88 13.5s54 20.833 76 37.5s39.667 37.334 53 62.001s20 54 20 88c0 28 -4 52.167 -12 72.5s-19.167 38.333 -33.5 54s-31.166 29.5 -50.499 41.5s-40 24 -62 36c-27.333 14.667 -53.666 27.667 -78.999 39v231
c11.333 0 23.5 -1.33301 36.5 -4s25 -6.66699 36 -12s20 -12.833 27 -22.5s10.5 -21.5 10.5 -35.5c0 -9.33301 -2 -17.833 -6 -25.5s-6 -16.167 -6 -25.5c0 -15.333 4.66699 -27.833 14 -37.5s21.666 -14.5 36.999 -14.5c17.333 0 30.833 4.66699 40.5 14
s14.5 22.666 14.5 39.999c0 24 -6.83301 45 -20.5 63s-30.834 32.833 -51.501 44.5s-42.834 20.5 -66.501 26.5s-45.5 9.33301 -65.5 10v75h-28v-75c-28.667 -0.666992 -55.667 -4.66699 -81 -12s-47.333 -18.333 -66 -33s-33.5 -33.334 -44.5 -56.001
s-16.5 -49.667 -16.5 -81c0 -28.667 6.83301 -53.5 20.5 -74.5s30.667 -39.667 51 -56s42.666 -30.666 66.999 -42.999l69.5 -34.5v-279c-9.33301 0 -21.333 1 -36 3s-29 5.33301 -43 10s-26 11.167 -36 19.5s-15 18.833 -15 31.5c0 12 2.66699 23.333 8 34s8 22 8 34
c0 16 -5.33301 27.833 -16 35.5s-23.667 11.5 -39 11.5c-14.667 0 -27 -5 -37 -15s-15 -22.333 -15 -37c0 -26.667 7.33301 -49.667 22 -69s33 -35.166 55 -47.499s46 -21.333 72 -27s50 -8.83398 72 -9.50098zM258.002 665v-219.003c-14 6 -28 12.667 -42 20
s-26.5 15.666 -37.5 24.999s-20 20.333 -27 33s-10.5 28 -10.5 46c0 16.667 3.33301 30.834 10 42.501s15.5 21.334 26.5 29.001s23.5 13.334 37.5 17.001s28.333 5.83398 43 6.50098zM286.002 283.997c16.667 -7.33301 33.332 -15.335 49.999 -24.002
s31.834 -18.667 45.501 -30s24.667 -24.666 33 -39.999s12.5 -33.666 12.5 -54.999c0 -20 -4 -37.167 -12 -51.5s-18.667 -26.166 -32 -35.499s-28.5 -16.333 -45.5 -21s-34.167 -7.33398 -51.5 -8.00098v265z" />
    <glyph glyph-name="percent" unicode="%" horiz-adv-x="765" 
d="M30 419c0 -22 3.83594 -43.168 11.5029 -63.501s18.167 -38.166 31.5 -53.499s29.666 -27.5 48.999 -36.5s40.333 -13.5 63 -13.5c23.333 0 44.666 4.83301 63.999 14.5s36 22.667 50 39s24.833 35 32.5 56s11.5 42.5 11.5 64.5c0 48 -13 87.667 -39 119s-64 47 -114 47
c-24.667 0 -46.834 -4.5 -66.501 -13.5s-36.5 -21.333 -50.5 -37s-24.667 -34 -32 -55s-11 -43.5 -11 -67.5zM110.003 -87.001l560 754l-17 13l-560 -755zM187.003 266.999c-14.667 0 -26.667 5.83301 -36 17.5s-16.666 25.667 -21.999 42s-9 33.166 -11 50.499
s-3 31.333 -3 42c0 11.333 1 25.833 3 43.5s5.66699 34.834 11 51.501s12.666 31.167 21.999 43.5s21.666 18.5 36.999 18.5c16 0 28.667 -5.66699 38 -17s16.5 -25 21.5 -41s8.33301 -32.667 10 -50s2.5 -31.666 2.5 -42.999c0 -10.667 -1.16699 -24.834 -3.5 -42.501
s-6.16602 -35 -11.499 -52s-12.833 -31.833 -22.5 -44.5s-21.5 -19 -35.5 -19zM574.003 -1.00098c24 0 45.834 4.83301 65.501 14.5s36.5 22.5 50.5 38.5s24.833 34.5 32.5 55.5s11.5 42.833 11.5 65.5c0 48 -13.167 87.667 -39.5 119s-64.5 47 -114.5 47
c-24.667 0 -46.834 -4.66699 -66.501 -14s-36.5 -21.833 -50.5 -37.5s-24.667 -34 -32 -55s-11 -43.167 -11 -66.5c0 -22 3.66699 -43 11 -63s17.833 -37.833 31.5 -53.5s30 -28 49 -37s39.833 -13.5 62.5 -13.5zM579.004 322.999c16 0 28.667 -5.83301 38 -17.5
s16.5 -25.5 21.5 -41.5s8.16699 -32.5 9.5 -49.5s2 -31.167 2 -42.5s-1 -25.833 -3 -43.5s-5.83301 -35 -11.5 -52s-13.334 -31.5 -23.001 -43.5s-22.167 -18 -37.5 -18c-14.667 0 -26.667 5.83301 -36 17.5s-16.666 25.667 -21.999 42s-9 33 -11 50s-3 30.833 -3 41.5
c0 11.333 1 26 3 44s5.83301 35.333 11.5 52s13.5 31 23.5 43s22.667 18 38 18z" />
    <glyph glyph-name="ampersand" unicode="&#x26;" horiz-adv-x="779" 
d="M258 -7c40 0 79.1709 7.17188 117.504 21.5049s73.166 34.166 104.499 59.499c23.333 -24.667 50.166 -44.334 80.499 -59.001s62.5 -22 96.5 -22c32.667 0 66 5.33301 100 16l-2 19c-22.667 5.33301 -41.834 11.666 -57.501 18.999s-29.834 15.666 -42.501 24.999
s-25 20.333 -37 33l-41 43c7.33301 5.33301 16.166 10.5 26.499 15.5s20.166 7.5 29.499 7.5c13.333 0 22.666 -3.5 27.999 -10.5s10 -14.833 14 -23.5s8.5 -16.5 13.5 -23.5s13.833 -10.5 26.5 -10.5c10.667 0 19.5 3.5 26.5 10.5s10.5 15.833 10.5 26.5
c0 10 -2.83301 18.667 -8.5 26s-12.667 13.666 -21 18.999s-17.333 9.33301 -27 12s-18.5 4 -26.5 4c-19.333 0 -37.666 -3.66699 -54.999 -11s-33.333 -17 -48 -29l-234 265c18 6 37.333 13.667 58 23s39.834 20.833 57.501 34.5s32.334 29.334 44.001 47.001
s17.5 37.5 17.5 59.5c0 35.333 -11.167 60.833 -33.5 76.5s-49.5 23.5 -81.5 23.5c-27.333 0 -55.166 -4 -83.499 -12s-54 -20 -77 -36s-41.833 -35.833 -56.5 -59.5s-22 -51.167 -22 -82.5c0 -23.333 4.16699 -43.333 12.5 -60s19.833 -33.667 34.5 -51
c-23.333 -8 -45.333 -18.5 -66 -31.5s-38.834 -28.333 -54.501 -46s-28.167 -37.5 -37.5 -59.5s-14 -46 -14 -72c0 -32.667 6.33301 -60.834 19 -84.501s29.5 -43.167 50.5 -58.5s45.333 -26.5 73 -33.5s56.167 -10.5 85.5 -10.5zM220.004 369.005l245.001 -281
c-17.333 -15.333 -38.333 -25.666 -63 -30.999s-48 -8 -70 -8c-26.667 0 -51.667 4 -75 12s-43.333 19.667 -60 35s-29.834 34 -39.501 56s-14.5 47 -14.5 75c0 28.667 6.83301 55.667 20.5 81s32.5 45.666 56.5 60.999zM239.005 583.005
c0 13.333 2.83301 24.665 8.5 33.998s13 16.833 22 22.5s19.167 9.83398 30.5 12.501s22.666 4 33.999 4s22.166 -2.5 32.499 -7.5s19.5 -11.5 27.5 -19.5s14.333 -17.167 19 -27.5s7 -21.166 7 -32.499c0 -34 -9.16699 -61.167 -27.5 -81.5s-42.5 -36.5 -72.5 -48.5
c-8 8.66699 -16.667 18.667 -26 30s-18.166 23.333 -26.499 36s-15.166 25.667 -20.499 39s-8 26.333 -8 39z" />
    <glyph glyph-name="quotesingle" unicode="'" horiz-adv-x="133" 
d="M30 659c0 -30 3 -60.168 9 -90.501s11.333 -60.166 16 -89.499h24c3.33301 30 8.16602 60 14.499 90s9.5 60 9.5 90c0 10 -3.66699 17.667 -11 23s-15.666 8 -24.999 8s-17.833 -2.66699 -25.5 -8s-11.5 -13 -11.5 -23z" />
    <glyph glyph-name="parenleft" unicode="(" horiz-adv-x="269" 
d="M240 -151l18.001 8.00098c-24.667 27.333 -45 57 -61 89s-28.667 65.5 -38 100.5s-15.833 70.667 -19.5 107s-5.5 72.166 -5.5 107.499c0 36.667 2 73.667 6 111s10.667 73.833 20 109.5s21.833 70.334 37.5 104.001s35.5 65.167 59.5 94.5
c-6.66699 -0.666992 -12.334 1.66602 -17.001 6.99902c-72.667 -52 -124.5 -114 -155.5 -186s-46.5 -151.667 -46.5 -239c0 -84.667 15.5 -162.667 46.5 -234s82.833 -131 155.5 -179z" />
    <glyph glyph-name="parenright" unicode=")" horiz-adv-x="270" 
d="M135 262c0 -35.333 -1.83496 -71.167 -5.50195 -107.5s-10.167 -72 -19.5 -107s-22 -68.667 -38 -101s-36 -62.166 -60 -89.499l17 -8c72.667 48 124.667 107.5 156 178.5s47 149.167 47 234.5c0 87.333 -15.833 167 -47.5 239s-83.5 134 -155.5 186
c-1.33301 -3.33301 -3.66602 -5.33301 -6.99902 -6s-6.66602 -1 -9.99902 -1c23.333 -29.333 43 -60.833 59 -94.5s28.667 -68.334 38 -104.001s16 -72 20 -109s6 -73.833 6 -110.5z" />
    <glyph glyph-name="asterisk" unicode="*" horiz-adv-x="388" 
d="M174 519c0 -3.33301 -5.00195 -9.16504 -15.002 -17.498l-32.5 -27.5c-11.667 -10 -22.5 -20 -32.5 -30s-15 -18.667 -15 -26c0 -9.33301 3.33301 -17.5 10 -24.5s14.667 -10.5 24 -10.5c11.333 0 20.333 4.66699 27 14c4 6 8 13.5 12 22.5s7.83301 18.5 11.5 28.5
l11.5 30c4 10 8 18.667 12 26l6 3c3.33301 0 7.66602 -5 12.999 -15s10.833 -21.333 16.5 -34l16 -36.5c5 -11.667 8.5 -19.5 10.5 -23.5c6 -10 14.667 -15 26 -15c10.667 0 19.167 4 25.5 12s9.5 17 9.5 27c0 5.33301 -5 12.666 -15 21.999s-21.167 19 -33.5 29l-33.5 28
c-10 8.66699 -15 15 -15 19c0 2 1 3.66699 3 5s3.66699 2.33301 5 3c8.66699 3.33301 20.834 5.16602 36.501 5.49902s31 1.16602 46 2.49902s28 4.33301 39 9s16.5 12.667 16.5 24c0 9.33301 -3.16699 18 -9.5 26s-14.5 12 -24.5 12c-4 0 -11.833 -3.33301 -23.5 -10
l-36.5 -21.5l-35.5 -21.5c-11 -6.66699 -18.167 -10 -21.5 -10c-1.33301 0 -2.66602 1 -3.99902 3s-2 3.66699 -2 5c0 20.667 4.33301 40.667 13 60s13 39.333 13 60c0 8 -3.83301 14.833 -11.5 20.5s-15.167 8.5 -22.5 8.5s-15 -3 -23 -9s-12 -12.667 -12 -20
c0 -2.66699 1.16699 -9.83398 3.5 -21.501s5 -24.167 8 -37.5l9 -38.5c3 -12.333 4.83301 -20.166 5.5 -23.499l-4 -7l-7 -1l-22.5 14.5l-34.5 21l-33.5 19c-10.333 5.66699 -17.166 8.5 -20.499 8.5c-9.33301 0 -17.333 -3.5 -24 -10.5s-10 -15.167 -10 -24.5
c0 -7.33301 2 -14 6 -20s9.66699 -9.66699 17 -11c4.66699 -0.666992 13.667 -1.5 27 -2.5s27 -2.16699 41 -3.5s26.5 -3.16602 37.5 -5.49902s16.5 -5.5 16.5 -9.5z" />
    <glyph glyph-name="plus" unicode="+" horiz-adv-x="513" 
d="M243 329v-217h26v217h225v25h-225v215h-26v-215h-225v-25h225z" />
    <glyph glyph-name="comma" unicode="," horiz-adv-x="212" 
d="M90 -13c7.33301 0 15.001 1.49805 23.001 4.49805s15.333 6.16699 22 9.5c2 -1.33301 3.16699 -3.33301 3.5 -6s0.5 -5 0.5 -7c0 -31.333 -10.667 -60.5 -32 -87.5s-46.333 -45.833 -75 -56.5v-32c45.333 10.667 82.333 33 111 67s43 74.667 43 122
c0 14 -1.66699 28.167 -5 42.5s-8.83301 27.333 -16.5 39s-17.334 21.334 -29.001 29.001s-25.5 11.5 -41.5 11.5c-19.333 0 -35.5 -6.66699 -48.5 -20s-19.5 -29.666 -19.5 -48.999c0 -17.333 6.33301 -32.833 19 -46.5s27.667 -20.5 45 -20.5z" />
    <glyph glyph-name="hyphen" unicode="-" horiz-adv-x="285" 
d="M23 329v-74h238v74h-238z" />
    <glyph glyph-name="period" unicode="." horiz-adv-x="185" 
d="M26 53c0 -18.667 6.5 -34.334 19.5 -47.001s28.833 -19 47.5 -19c16.667 0 31.667 6 45 18s20 26.667 20 44c0 18.667 -6 35.334 -18 50.001s-27.667 22 -47 22s-35.333 -6.5 -48 -19.5s-19 -29.167 -19 -48.5z" />
    <glyph glyph-name="slash" unicode="/" horiz-adv-x="265" 
d="M-3 -91l26 -8l218 767l-27 8z" />
    <glyph glyph-name="zero" unicode="0" horiz-adv-x="570" 
d="M36 291c0 -35.333 5.33398 -70.6641 16.001 -105.997s26.5 -67 47.5 -95s46.667 -50.667 77 -68s65.166 -26 104.499 -26c40 0 75.667 9.16699 107 27.5s57.833 42 79.5 71s38.167 61.667 49.5 98s17 72.5 17 108.5c0 38.667 -4.66699 75.667 -14 111
s-23.666 66.666 -42.999 93.999s-44.333 49.166 -75 65.499s-67.667 24.5 -111 24.5c-41.333 0 -77.833 -8.83301 -109.5 -26.5s-58.334 -40.834 -80.001 -69.501s-38 -61.167 -49 -97.5s-16.5 -73.5 -16.5 -111.5zM155.001 291.002c0 20 1.83398 45.667 5.50098 77
s10.334 61.833 20.001 91.5s23.167 55.167 40.5 76.5s39.666 32 66.999 32c28 0 50.333 -10.167 67 -30.5s29.5 -44.833 38.5 -73.5s14.833 -58.167 17.5 -88.5s4 -55.5 4 -75.5c0 -19.333 -2 -44.5 -6 -75.5s-11 -61.333 -21 -91s-23.5 -55.334 -40.5 -77.001
s-38.5 -32.5 -64.5 -32.5s-47.167 10.333 -63.5 31s-29.333 45.334 -39 74.001s-16.334 58.167 -20.001 88.5s-5.5 54.833 -5.5 73.5z" />
    <glyph glyph-name="one" unicode="1" horiz-adv-x="303" 
d="M299 0c-29.333 0 -50.667 10.833 -64 32.5s-20 45.5 -20 71.5v488h-37c-45.333 -30 -95.333 -48.667 -150 -56v-24h85v-408c0 -26 -6.83301 -49.833 -20.5 -71.5s-35.167 -32.5 -64.5 -32.5h271z" />
    <glyph glyph-name="two" unicode="2" horiz-adv-x="520" 
d="M35 81c0 -13.333 0.841797 -27.335 2.50879 -42.002s6.16699 -27.667 13.5 -39h14c8 16.667 18.167 30.334 30.5 41.001s28.166 16 47.499 16c20 0 39.167 -3 57.5 -9s36.666 -12.5 54.999 -19.5s37 -13.5 56 -19.5s38.5 -9 58.5 -9c40 0 69 12.167 87 36.5
s27 55.166 27 92.499c0 5.33301 -0.166992 10.166 -0.5 14.499s-0.833008 9.16602 -1.5 14.499c-6.66699 -15.333 -16.334 -28.333 -29.001 -39s-27.667 -16 -45 -16c-20.667 0 -40.334 3 -59.001 9s-37.334 12.667 -56.001 20s-37.334 14 -56.001 20s-38 9 -58 9
c-39.333 0 -69 -10 -89 -30s-32.667 -49 -38 -87c-0.666992 3.33301 -1 8.66602 -1 15.999c0 48 10.167 84.833 30.5 110.5s45.666 45.834 75.999 60.501s63.166 26.334 98.499 35.001s68.166 19.334 98.499 32.001s55.666 30.167 75.999 52.5s30.5 54.833 30.5 97.5
c0 29.333 -6.5 53.5 -19.5 72.5s-29.833 34 -50.5 45s-43.5 18.667 -68.5 23s-49.5 6.5 -73.5 6.5c-18 0 -38.167 -2.16699 -60.5 -6.5s-43.166 -11.5 -62.499 -21.5s-35.5 -22.833 -48.5 -38.5s-19.5 -34.834 -19.5 -57.501c0 -16 4.83301 -29.5 14.5 -40.5
s22.834 -16.5 39.501 -16.5c15.333 0 27.5 5.33301 36.5 16s13.5 23 13.5 37c0 6 -0.5 11.833 -1.5 17.5s-1.5 11.5 -1.5 17.5c0 22.667 9.33301 40.334 28 53.001s38.334 19 59.001 19c19.333 0 35.166 -3.5 47.499 -10.5s22.333 -16.5 30 -28.5s13 -25.667 16 -41
s4.5 -31 4.5 -47c0 -40 -7.5 -73.333 -22.5 -100s-42.167 -46.667 -81.5 -60c-26.667 -9.33301 -52.334 -19.166 -77.001 -29.499s-46.5 -23.166 -65.5 -38.499s-34.167 -34 -45.5 -56s-17 -49.333 -17 -82z" />
    <glyph glyph-name="three" unicode="3" horiz-adv-x="510" 
d="M33 116c0 -22 6.66699 -40.6689 20 -56.002s29.666 -27.666 48.999 -36.999s40 -16.166 62 -20.499s42 -6.5 60 -6.5c30 0 59.833 3.66699 89.5 11s56.5 18.666 80.5 33.999s43.333 35.166 58 59.499s22 53.833 22 88.5c0 21.333 -4.83301 40.333 -14.5 57
s-22.167 31.334 -37.5 44.001s-32.5 23.167 -51.5 31.5s-37.833 14.5 -56.5 18.5c14 4 28.333 9.66699 43 17s27.834 16 39.501 26s21.334 21.667 29.001 35s11.5 28.333 11.5 45c0 24 -6 44.5 -18 61.5s-27.167 30.667 -45.5 41s-38.5 18 -60.5 23s-43 7.5 -63 7.5
c-18 0 -36.5 -1.5 -55.5 -4.5s-36.667 -8.16699 -53 -15.5s-31 -17.5 -44 -30.5s-22.833 -29.167 -29.5 -48.5c-3.33301 -10 -5 -19.333 -5 -28c0 -13.333 4.16699 -25.833 12.5 -37.5s19.833 -17.5 34.5 -17.5c15.333 0 27.333 5.33301 36 16s13 23 13 37
c0 5.33301 -0.5 10.333 -1.5 15s-1.5 9.66699 -1.5 15c0 22.667 7.66699 40.834 23 54.501s34 20.5 56 20.5c32.667 0 56.5 -10.833 71.5 -32.5s22.5 -47.5 22.5 -77.5c0 -36 -9.83301 -65 -29.5 -87s-47.834 -33 -84.501 -33l3 -18c43.333 -2 75.5 -15.167 96.5 -39.5
s31.5 -57.5 31.5 -99.5c0 -22 -2.16699 -43 -6.5 -63s-11.5 -37.5 -21.5 -52.5s-23.333 -26.833 -40 -35.5s-37.667 -13 -63 -13c-16 0 -32 3 -48 9s-27.333 17.333 -34 34c-3.33301 8.66699 -4.83301 17.334 -4.5 26.001s0.5 17.667 0.5 27
c0 13.333 -3.66699 25.666 -11 36.999s-18.333 17 -33 17c-16 0 -28.667 -5.33301 -38 -16s-14 -23.667 -14 -39z" />
    <glyph glyph-name="four" unicode="4" horiz-adv-x="533" 
d="M17 177l0.000976562 -16.9971h261v-57c0 -26 -6.5 -49.667 -19.5 -71s-34.167 -32 -63.5 -32h271c-20 0 -35.833 4.16699 -47.5 12.5s-20.334 19.166 -26.001 32.499s-9.16699 28.166 -10.5 44.499s-2 32.166 -2 47.499v23h24c30 0 53.167 -9.83301 69.5 -29.5
s24.5 -43.834 24.5 -72.501v228c0 -39.333 -10.667 -66.166 -32 -80.499s-50 -21.5 -86 -21.5v408h-40zM47.001 184.003l231 296v-296h-231z" />
    <glyph glyph-name="five" unicode="5" horiz-adv-x="510" 
d="M224 -4c28.667 0 57.832 3.66211 87.499 10.9951s56.5 18.666 80.5 33.999s43.667 34.833 59 58.5s23 52.167 23 85.5c0 30 -7.5 55.667 -22.5 77s-34.167 39 -57.5 53s-48.833 24.167 -76.5 30.5s-54.167 9.5 -79.5 9.5c-21.333 0 -42.5 -2.16699 -63.5 -6.5
s-41.167 -10.166 -60.5 -17.499v172c10 3.33301 19.667 5 29 5c17.333 0 34.5 -1.66699 51.5 -5s33.833 -7 50.5 -11s33.334 -7.66699 50.001 -11s33.667 -5 51 -5c35.333 0 63.166 9.83301 83.499 29.5s32.166 46.834 35.499 81.501c-8.66699 -8.66699 -19 -15.667 -31 -21
s-24 -8 -36 -8c-14 0 -27.667 1.66699 -41 5l-40.5 10.5c-13.667 3.66699 -27.667 7.16699 -42 10.5s-29.166 5 -44.499 5c-55.333 0 -94 -24 -116 -72v60h-21v-277c42.667 22 87 33 133 33c22 0 40.5 -3.66699 55.5 -11s27.333 -17.333 37 -30s16.667 -27.5 21 -44.5
s6.5 -35.5 6.5 -55.5c0 -21.333 -2 -42.166 -6 -62.499s-11 -38.5 -21 -54.5s-23.167 -28.833 -39.5 -38.5s-37.166 -14.5 -62.499 -14.5c-10.667 0 -21.167 1.16699 -31.5 3.5s-19.833 6 -28.5 11s-15.667 11.833 -21 20.5s-8 19 -8 31c0 5.33301 0.333008 10.5 1 15.5
s1 10.167 1 15.5c0 12.667 -3.83301 24.834 -11.5 36.501s-18.5 17.5 -32.5 17.5c-17.333 0 -30.5 -5.5 -39.5 -16.5s-13.5 -24.5 -13.5 -40.5c0 -22 6.66699 -40.667 20 -56s29.833 -27.666 49.5 -36.999s40.5 -16.166 62.5 -20.499s41.667 -6.5 59 -6.5z" />
    <glyph glyph-name="six" unicode="6" horiz-adv-x="516" 
d="M245 -4c71.333 0 127.828 19.999 169.495 59.999s62.5 96 62.5 168c0 56 -17 100.833 -51 134.5s-79 50.5 -135 50.5c-23.333 0 -47 -3.16699 -71 -9.5s-44.667 -17.166 -62 -32.499c2.66699 20.667 6.66699 43 12 67s13.5 46.167 24.5 66.5s25.167 37.166 42.5 50.499
s39 20 65 20c17.333 0 33.833 -6.16699 49.5 -18.5s23.5 -27.833 23.5 -46.5s2.83301 -35.167 8.5 -49.5s19.834 -21.5 42.501 -21.5c14.667 0 26.334 6.16699 35.001 18.5s13 25.166 13 38.499c0 18 -5.5 33.5 -16.5 46.5s-24.667 23.833 -41 32.5s-33.666 15 -51.999 19
s-34.833 6 -49.5 6c-46 0 -86.333 -10 -121 -30s-63.667 -46 -87 -78s-41 -68.167 -53 -108.5s-18 -81.166 -18 -122.499c0 -32.667 4 -64.667 12 -96s20.333 -59.166 37 -83.499s38.334 -44 65.001 -59s58.334 -22.5 95.001 -22.5zM149.995 252.999
c0 32 2.33008 61.999 6.99707 89.999c26.667 25.333 59 38 97 38c20.667 0 37.5 -5.5 50.5 -16.5s23.333 -24.5 31 -40.5s12.834 -33.5 15.501 -52.5s4 -36.5 4 -52.5s-1.5 -35.5 -4.5 -58.5s-8.33301 -45.167 -16 -66.5s-18.167 -39.5 -31.5 -54.5
s-30.666 -22.5 -51.999 -22.5c-23.333 0 -41.666 9.16699 -54.999 27.5s-23.5 40.333 -30.5 66s-11.333 51.834 -13 78.501s-2.5 48 -2.5 64z" />
    <glyph glyph-name="seven" unicode="7" horiz-adv-x="491" 
d="M114 498c2.66699 0 6.6709 -0.666016 12.0039 -1.99902c17.333 -4.66699 34.833 -7.83398 52.5 -9.50098s35.5 -2.5 53.5 -2.5c36 0 71.833 7.16699 107.5 21.5s68.834 30.833 99.501 49.5c-34.667 -21.333 -71 -47.333 -109 -78s-72.833 -64.334 -104.5 -101.001
s-57.834 -75.834 -78.501 -117.501s-31 -84.5 -31 -128.5c0 -22.667 2.33301 -45.167 7 -67.5s13.334 -43.166 26.001 -62.499h227c-42.667 20.667 -76.834 46.834 -102.501 78.501s-38.5 72.5 -38.5 122.5c0 33.333 7.5 68 22.5 104s34.167 70.667 57.5 104
s49.333 63.666 78 90.999s57 48.666 85 63.999l-6 13c-22.667 -8.66699 -44.334 -13 -65.001 -13c-16.667 0 -33.334 1.83301 -50.001 5.5s-33.167 7.83398 -49.5 12.501s-32.833 8.83398 -49.5 12.501s-33.667 5.5 -51 5.5c-30 0 -56.333 -8 -79 -24
s-42.334 -35.333 -59.001 -58l3 71l-44 -188c3.33301 9.33301 7.5 19.5 12.5 30.5s11 21.5 18 31.5s15.167 18.333 24.5 25s19.666 10 30.999 10z" />
    <glyph glyph-name="eight" unicode="8" horiz-adv-x="551" 
d="M268 -2c30 0 59.834 3.66992 89.501 11.0029s56.167 18.666 79.5 33.999s42.333 35.166 57 59.499s22 53.833 22 88.5c0 42.667 -12.833 77.667 -38.5 105s-56.834 49 -93.501 65c23.333 7.33301 42.833 21.166 58.5 41.499s23.5 42.833 23.5 67.5c0 24 -6 44 -18 60
s-27 28.833 -45 38.5s-37.833 16.334 -59.5 20.001s-42.167 5.5 -61.5 5.5c-24.667 0 -49.5 -3.5 -74.5 -10.5s-47.5 -17.5 -67.5 -31.5s-36.333 -31.333 -49 -52s-19 -45 -19 -73c0 -23.333 5.83301 -45.333 17.5 -66s27.167 -37.667 46.5 -51
c-13.333 -5.33301 -26 -13 -38 -23s-22.667 -21.333 -32 -34s-16.833 -26.167 -22.5 -40.5s-8.5 -28.833 -8.5 -43.5c0 -31.333 7.16699 -57.833 21.5 -79.5s32.833 -39.334 55.5 -53.001s47.667 -23.5 75 -29.5s54.333 -9 81 -9zM88.001 170.003
c0 25.333 7.83203 49.333 23.499 72s34.834 39.667 57.501 51c12 -6.66699 25.333 -11.5 40 -14.5s28.667 -6.16699 42 -9.5c16.667 -4 34.167 -9.66699 52.5 -17s35.333 -16.333 51 -27s28.5 -23.667 38.5 -39s15 -33 15 -53s-4.5 -36.667 -13.5 -50
s-20.5 -24.333 -34.5 -33s-29.667 -14.834 -47 -18.501s-34.333 -5.5 -51 -5.5c-22.667 0 -44.5 2.83301 -65.5 8.5s-39.5 14.334 -55.5 26.001s-28.833 26.667 -38.5 45s-14.5 39.833 -14.5 64.5zM163 489.003c0 15.333 3.83203 28.1689 11.499 38.502
s17.334 18.666 29.001 24.999s24.5 11 38.5 14s27.333 4.5 40 4.5c16.667 0 33 -2 49 -6s30.167 -10.333 42.5 -19s22.333 -19.834 30 -33.501s11.5 -29.834 11.5 -48.501c0 -22 -6 -40.333 -18 -55s-27.333 -27 -46 -37c-16.667 4 -35.834 8 -57.501 12
s-42.167 9.83301 -61.5 17.5s-35.666 18.334 -48.999 32.001s-20 32.167 -20 55.5z" />
    <glyph glyph-name="nine" unicode="9" horiz-adv-x="516" 
d="M38 383c0 -30 4.66699 -57.3311 14 -81.998s22.666 -45.834 39.999 -63.501s38.333 -31.334 63 -41.001s52 -14.5 82 -14.5c20 0 41.167 2.66699 63.5 8s41.166 14.666 56.499 27.999c-2 -20 -5.66699 -41.5 -11 -64.5s-13.166 -44.333 -23.499 -64
s-23.666 -36.167 -39.999 -49.5s-37.166 -20 -62.499 -20c-20 0 -35.167 3.5 -45.5 10.5s-17.833 15.833 -22.5 26.5s-7.83398 22.167 -9.50098 34.5s-4 23.833 -7 34.5s-7.66699 19.5 -14 26.5s-16.833 10.5 -31.5 10.5s-26.5 -5.66699 -35.5 -17
s-13.5 -23.666 -13.5 -36.999c0 -19.333 6 -36.166 18 -50.499s27 -26.166 45 -35.499s37 -16.333 57 -21s38 -7 54 -7c44 0 82.5 9.66699 115.5 29s60.5 44.666 82.5 75.999s38.5 66.5 49.5 105.5s16.5 78.167 16.5 117.5c0 38 -4.5 73.667 -13.5 107
s-23.167 62.166 -42.5 86.499s-44 43.5 -74 57.5s-65.667 21 -107 21c-30.667 0 -58.5 -5.33301 -83.5 -16s-46.5 -25.5 -64.5 -44.5s-31.833 -41.5 -41.5 -67.5s-14.5 -54 -14.5 -84zM161 377.002c0 15.333 1.33301 34.166 4 56.499s7.83398 43.833 15.501 64.5
s17.834 38.5 30.501 53.5s29 22.5 49 22.5c23.333 0 42.166 -9 56.499 -27s25.166 -39.5 32.499 -64.5s12.166 -50.667 14.499 -77s3.5 -48.166 3.5 -65.499c0 -16.667 -0.5 -33.167 -1.5 -49.5s-3.16699 -32.833 -6.5 -49.5c-25.333 -22 -54.333 -33 -87 -33
c-22.667 0 -41.167 5.5 -55.5 16.5s-25.666 24.667 -33.999 41s-14 34.5 -17 54.5s-4.5 39 -4.5 57z" />
    <glyph glyph-name="colon" unicode=":" horiz-adv-x="197" 
d="M32 416c0 -16.667 6.33203 -31.332 18.999 -43.999s27.334 -19 44.001 -19c18 0 34 5.66699 48 17s21 26.666 21 45.999c0 18.667 -6 35 -18 49s-27.667 21 -47 21c-20 0 -36.167 -6.83301 -48.5 -20.5s-18.5 -30.167 -18.5 -49.5zM31.999 56.002
c0 -18.667 6.50195 -34.5 19.502 -47.5s28.833 -19.5 47.5 -19.5s34.167 6.66699 46.5 20s18.5 29 18.5 47c0 19.333 -6.83301 35.166 -20.5 47.499s-29.834 18.5 -48.501 18.5s-33.834 -6.66699 -45.501 -20s-17.5 -28.666 -17.5 -45.999z" />
    <glyph glyph-name="semicolon" unicode=";" horiz-adv-x="223" 
d="M32 416c0 -16.667 6.33203 -31.332 18.999 -43.999s27.334 -19 44.001 -19c18 0 34 5.66699 48 17s21 26.666 21 45.999c0 18.667 -6 35 -18 49s-27.667 21 -47 21c-20 0 -36.167 -6.83301 -48.5 -20.5s-18.5 -30.167 -18.5 -49.5zM31.999 54.002
c0 -17.333 6.49707 -32.835 19.4971 -46.502s28.167 -20.5 45.5 -20.5c7.33301 0 15 1.33301 23 4s15 6 21 10c2.66699 -0.666992 4.16699 -2.5 4.5 -5.5s0.5 -5.5 0.5 -7.5c0 -15.333 -3 -30.5 -9 -45.5s-13.833 -28.833 -23.5 -41.5s-21 -24 -34 -34
s-26.5 -17.667 -40.5 -23v-32c22 4.66699 42.333 12.834 61 24.501s34.834 25.834 48.501 42.501s24.334 35.167 32.001 55.5s11.5 41.833 11.5 64.5c0 14 -1.66699 28.333 -5 43s-8.66602 28 -15.999 40s-16.833 21.833 -28.5 29.5s-25.5 11.5 -41.5 11.5
c-20 0 -36.5 -6.5 -49.5 -19.5s-19.5 -29.5 -19.5 -49.5z" />
    <glyph glyph-name="less" unicode="&#x3c;" horiz-adv-x="399" 
d="M20 328l348 -180v52l-266 135l266 139v34z" />
    <glyph glyph-name="equal" unicode="=" horiz-adv-x="518" 
d="M20 412v-26h477v26h-477zM497 270v25h-477v-25h477z" />
    <glyph glyph-name="greater" unicode="&#x3e;" horiz-adv-x="399" 
d="M30 182v-34l348 181l-348 179v-52l267 -135z" />
    <glyph glyph-name="question" unicode="?" horiz-adv-x="488" 
d="M31 569c0 -13.333 3.66309 -24.668 10.9961 -34.001s18 -14 32 -14c12 0 20.667 3.33301 26 10s9 14.834 11 24.501s2.66699 19.667 2 30s-1 19.5 -1 27.5c0 10 2.5 18.5 7.5 25.5s11.333 12.667 19 17s16 7.33301 25 9s17.833 2.5 26.5 2.5c29.333 0 54 -8.33301 74 -25
s36 -37.334 48 -62.001s20.667 -51.167 26 -79.5s8 -54.166 8 -77.499c0 -14.667 -1.5 -31.667 -4.5 -51s-8.16699 -37.833 -15.5 -55.5s-17.166 -32.667 -29.499 -45s-28.166 -18.5 -47.499 -18.5c-28 0 -51.167 9.66699 -69.5 29s-30.166 41.666 -35.499 66.999h-25v-179
h25v108c32 -37.333 72 -56 120 -56c28 0 53.833 5.66699 77.5 17s43.834 26.666 60.501 45.999s29.667 41.5 39 66.5s14 50.833 14 77.5c0 36 -6 69.833 -18 101.5s-29 59.334 -51 83.001s-48.333 42.334 -79 56.001s-64.334 20.5 -101.001 20.5
c-18 0 -37.167 -2.33301 -57.5 -7s-39.166 -11.834 -56.499 -21.501s-31.833 -22.167 -43.5 -37.5s-17.5 -33.666 -17.5 -54.999zM63.9961 51.998c0 -18 6.33301 -33.666 19 -46.999s28.334 -20 47.001 -20c17.333 0 32.5 6 45.5 18s19.5 26.667 19.5 44
c0 19.333 -5.66699 36.166 -17 50.499s-27.333 21.5 -48 21.5c-18.667 0 -34.334 -6.83301 -47.001 -20.5s-19 -29.5 -19 -47.5v1z" />
    <glyph glyph-name="at" unicode="@" horiz-adv-x="1014" 
d="M35 195c0 -64 12.6719 -121.497 38.0049 -172.497s59.166 -94.167 101.499 -129.5s91.333 -62.333 147 -81s113.5 -28 173.5 -28c60.667 0 119.167 10 175.5 30s107.833 48.667 154.5 86l-25 24c-42 -34.667 -88.667 -61.5 -140 -80.5s-104.333 -28.5 -159 -28.5
c-56 0 -108.333 9.5 -157 28.5s-91.334 45.5 -128.001 79.5s-65.5 74.833 -86.5 122.5s-31.5 99.834 -31.5 156.501c0 64 12.167 122.5 36.5 175.5s57.166 98.5 98.499 136.5s89.666 67.667 144.999 89s114 32 176 32c48.667 0 95.834 -6 141.501 -18s86 -30.667 121 -56
s63 -57.5 84 -96.5s31.5 -85.833 31.5 -140.5c0 -34.667 -5 -69.667 -15 -105s-25 -67 -45 -95s-44.833 -50.833 -74.5 -68.5s-64.167 -26.5 -103.5 -26.5c-12 0 -23.5 2 -34.5 6s-16.5 13.667 -16.5 29c0 10 1.33301 19 4 27l114 388h-18
c-7.33301 -14.667 -17.333 -28.834 -30 -42.501s-27.667 -20.5 -45 -20.5c-10.667 0 -20.334 3.33301 -29.001 10s-17.667 14.167 -27 22.5s-20.333 15.833 -33 22.5s-29 10 -49 10c-40.667 0 -78.334 -11.333 -113.001 -34s-64.5 -51.334 -89.5 -86.001
s-44.5 -72.667 -58.5 -114s-21 -80.333 -21 -117c0 -42 11.333 -75.667 34 -101s55.334 -38 98.001 -38c36.667 0 69.167 8.66699 97.5 26s50.166 42.666 65.499 75.999c0 -39.333 11.5 -66.333 34.5 -81s52.5 -22 88.5 -22c49.333 0 93.333 8.66699 132 26
s71.5 41.166 98.5 71.499s47.5 66 61.5 107s21 85.167 21 132.5c0 60 -12.667 111.5 -38 154.5s-58.5 78.333 -99.5 106s-87.167 48.167 -138.5 61.5s-103.333 20 -156 20c-69.333 0 -135 -11.167 -197 -33.5s-116.333 -54 -163 -95s-83.667 -90.833 -111 -149.5
s-41 -124 -41 -196zM353.005 121.003c0 23.333 4.66699 53.666 14 90.999s22.666 73.5 39.999 108.5s38 65.167 62 90.5s50.333 38 79 38c19.333 0 34 -8.16699 44 -24.5s15 -33.166 15 -50.499c0 -7.33301 -0.666992 -14.833 -2 -22.5s-3 -15.167 -5 -22.5l-63 -197
c-3.33301 -10.667 -9.33301 -22.5 -18 -35.5s-18.667 -25 -30 -36s-23.5 -20.333 -36.5 -28s-25.5 -11.5 -37.5 -11.5c-12.667 0 -23.167 3.33301 -31.5 10s-14.666 15 -18.999 25s-7.33301 20.833 -9 32.5s-2.5 22.5 -2.5 32.5z" />
    <glyph glyph-name="A" unicode="A" horiz-adv-x="625" 
d="M385 0l273.999 -0.00195312c-12 0 -23.167 3.16699 -33.5 9.5s-19.5 14 -27.5 23s-15.167 19 -21.5 30s-11.5 21.5 -15.5 31.5l-243 587h-32l-224 -587c-4 -10.667 -8.83301 -21.5 -14.5 -32.5s-12.5 -21 -20.5 -30s-17.167 -16.5 -27.5 -22.5s-21.833 -9 -34.5 -9h170
c-17.333 0 -31.333 4.83301 -42 14.5s-16 23.5 -16 41.5c0 10 2.33301 22.5 7 37.5s10.167 30.667 16.5 47l19 47.5l15.5 38h241c4 -10 9.5 -22.667 16.5 -38s13.833 -31.166 20.5 -47.499s12.334 -32.166 17.001 -47.499s7 -28 7 -38c0 -16 -4.5 -29 -13.5 -39
s-21.833 -15.333 -38.5 -16zM142.999 245.998l110 286l56.5 -143.5c18.333 -47.667 37.833 -95.167 58.5 -142.5h-225z" />
    <glyph glyph-name="B" unicode="B" horiz-adv-x="615" 
d="M416 0c24.667 0 48.168 4.66602 70.501 13.999s41.833 22 58.5 38s30 35 40 57s15 45.667 15 71s-5 49 -15 71s-23.333 41.167 -40 57.5s-36.167 29.333 -58.5 39s-45.833 14.5 -70.5 14.5h-36c22 1.33301 43.333 6 64 14s39 18.833 55 32.5s28.833 30 38.5 49
s14.5 40.167 14.5 63.5c0 24.667 -5 46.834 -15 66.501s-23.5 36.5 -40.5 50.5s-36.333 24.667 -58 32s-44.167 11 -67.5 11h-377c29.333 -0.666992 51 -11.5 65 -32.5s21 -44.833 21 -71.5v-474c0 -12.667 -1.66699 -25.167 -5 -37.5s-8.33301 -23.333 -15 -33
s-15.334 -17.5 -26.001 -23.5s-23 -9 -37 -9h419zM198.001 367.999l-0.00195312 291h96c42.667 0 75.834 -13.833 99.501 -41.5s35.5 -62.167 35.5 -103.5c0 -42 -11.667 -76.833 -35 -104.5s-56.666 -41.5 -99.999 -41.5h-96zM293.999 17.999c-12 0 -23.667 1.33301 -35 4
s-21.5 7 -30.5 13s-16.333 13.833 -22 23.5s-8.5 21.167 -8.5 34.5v255h144c23.333 0 43.333 -4.66699 60 -14s30.5 -21.666 41.5 -36.999s19.167 -32.833 24.5 -52.5s8 -39.834 8 -60.501c0 -25.333 -5 -48.166 -15 -68.499s-23.333 -37.833 -40 -52.5
s-36 -25.834 -58 -33.501s-45 -11.5 -69 -11.5z" />
    <glyph glyph-name="C" unicode="C" horiz-adv-x="655" 
d="M388 -11c58.667 0 110.323 11.8359 154.99 35.5029s79.334 63.5 104.001 119.5l-18 5c-23.333 -48 -55.166 -82.333 -95.499 -103s-86.5 -31 -138.5 -31c-48 0 -87.667 8.83301 -119 26.5s-56.166 41.167 -74.499 70.5s-31.166 63.166 -38.499 101.499
s-11 78.166 -11 119.499c0 34 4.33301 70.5 13 109.5s22.334 75 41.001 108s42.667 60.333 72 82s64.333 32.5 105 32.5c62.667 0 112.334 -16 149.001 -48s62.334 -77.667 77.001 -137l7 201c-1.33301 -11.333 -6.66602 -18.833 -15.999 -22.5s-18.666 -5.5 -27.999 -5.5
c-12 0 -25.167 2 -39.5 6l-44.5 12.5c-15.333 4.33301 -31.666 8.5 -48.999 12.5s-35 6 -53 6c-52 0 -100.667 -8.66699 -146 -26s-84.5 -41.666 -117.5 -72.999s-59 -68.833 -78 -112.5s-28.5 -92.167 -28.5 -145.5c0 -52.667 9.83301 -100.334 29.5 -143.001
s46.5 -78.834 80.5 -108.501s73.5 -52.5 118.5 -68.5s92.833 -24 143.5 -24z" />
    <glyph glyph-name="D" unicode="D" horiz-adv-x="730" 
d="M-7 681c29.333 -0.666992 50.999 -11.666 64.999 -32.999s21 -45 21 -71v-474c0 -26 -7 -49.5 -21 -70.5s-35.667 -31.833 -65 -32.5h398c46 0 88.667 8.83301 128 26.5s73.5 41.5 102.5 71.5s51.667 65.167 68 105.5s24.5 83.166 24.5 128.499
c0 50 -9.66699 96.333 -29 139s-45.666 79.5 -78.999 110.5s-71.833 55.333 -115.5 73s-90.167 26.5 -139.5 26.5h-358zM196.999 660.001l83.002 0.000976562c46.667 0 89 -8.66699 127 -26s70.5 -41 97.5 -71s48 -64.833 63 -104.5s22.5 -82.167 22.5 -127.5
c0 -40.667 -5.16699 -79.834 -15.5 -117.501s-26.333 -70.667 -48 -99s-48.834 -51 -81.501 -68s-71.667 -25.5 -117 -25.5c-18.667 0 -36 2 -52 6s-29.833 10.333 -41.5 19s-20.834 20 -27.501 34s-10 31.333 -10 52v528z" />
    <glyph glyph-name="E" unicode="E" horiz-adv-x="609" 
d="M-2 0l587.001 -0.00292969l12 190c-2.66699 -32.667 -11.334 -60.167 -26.001 -82.5s-33.167 -40 -55.5 -53s-47.333 -22.333 -75 -28s-55.834 -8.5 -84.501 -8.5c-19.333 0 -38.166 1.66699 -56.499 5s-34.833 9.33301 -49.5 18s-26.334 20.334 -35.001 35.001
s-13 33.334 -13 56.001v224h87c34 0 59.167 -9 75.5 -27s24.5 -43.667 24.5 -77v226c0 -68 -33.333 -102 -100 -102h-87v284h171c23.333 0 45.5 -2.66699 66.5 -8s39.667 -13.666 56 -24.999s29.666 -26 39.999 -44s16.5 -39.667 18.5 -65l-11 162h-542
c14.667 0 27.334 -3 38.001 -9s19.334 -14 26.001 -24s11.5 -21.167 14.5 -33.5s4.5 -24.833 4.5 -37.5v-473c0 -26 -7.16699 -49.5 -21.5 -70.5s-35.833 -31.833 -64.5 -32.5z" />
    <glyph glyph-name="F" unicode="F" horiz-adv-x="530" 
d="M-3 680c29.333 0 51.002 -10.667 65.002 -32s21 -45.333 21 -72v-473c0 -12.667 -1.66699 -25.167 -5 -37.5s-8.33301 -23.333 -15 -33s-15.334 -17.5 -26.001 -23.5s-23 -9 -37 -9h280c-28 1.33301 -48.167 12.5 -60.5 33.5s-18.5 44.167 -18.5 69.5v253h87
c19.333 0 35.333 -3.5 48 -10.5s22.834 -16.333 30.501 -28s13.167 -25.167 16.5 -40.5s5 -31.333 5 -48v272c0 -16.667 -1.66699 -32.5 -5 -47.5s-8.83301 -28.333 -16.5 -40s-17.834 -20.834 -30.501 -27.501s-28.667 -10 -48 -10h-87v284h151
c23.333 0 45.333 -2.66699 66 -8s39.167 -13.666 55.5 -24.999s29.666 -25.833 39.999 -43.5s16.5 -39.167 18.5 -64.5l-10 162z" />
    <glyph glyph-name="G" unicode="G" horiz-adv-x="723" 
d="M16 333c0 -50 8.83105 -96 26.498 -138s42 -78.167 73 -108.5s67.833 -54.166 110.5 -71.499s88.667 -26 138 -26c51.333 0 100.5 8 147.5 24s90.167 41 129.5 75c0 9.33301 -0.166992 18.833 -0.5 28.5s-0.5 19.167 -0.5 28.5c0 36 5.66699 65 17 87s36.333 37 75 45
h-307c38.667 -8.66699 64 -23.5 76 -44.5s18 -50.167 18 -87.5c0 -42.667 -13.833 -75 -41.5 -97s-61.5 -33 -101.5 -33c-44 0 -80.333 9.83301 -109 29.5s-51.334 44.834 -68.001 75.501s-28.334 64.834 -35.001 102.501s-10 74.5 -10 110.5c0 34 4.16699 70.5 12.5 109.5
s21.833 75 40.5 108s42.5 60.333 71.5 82s64.167 32.5 105.5 32.5c62.667 0 112.5 -15.833 149.5 -47.5s63.167 -77.5 78.5 -137.5l7 201c-1.33301 -11.333 -6.66602 -19 -15.999 -23s-18.666 -6 -27.999 -6c-12 0 -25.167 2 -39.5 6l-46 13.5
c-16.333 5 -33.166 9.5 -50.499 13.5s-34.666 6 -51.999 6c-51.333 0 -99.5 -8.83301 -144.5 -26.5s-84.333 -42.334 -118 -74.001s-60.167 -69.334 -79.5 -113.001s-29 -91.834 -29 -144.501z" />
    <glyph glyph-name="H" unicode="H" horiz-adv-x="735" 
d="M-4 681c29.333 0 50.833 -11.0039 64.5 -33.0039s20.5 -46 20.5 -72v-472c0 -25.333 -6 -48.666 -18 -69.999s-32.333 -32.666 -61 -33.999h280c-14.667 0 -27.167 3.16699 -37.5 9.5s-18.833 14.333 -25.5 24s-11.5 20.667 -14.5 33s-4.5 24.833 -4.5 37.5v241h335v-241
c0 -25.333 -6 -48.666 -18 -69.999s-32.333 -32.666 -61 -33.999h279c-14.667 0 -27 3.16699 -37 9.5s-18.333 14.333 -25 24s-11.5 20.667 -14.5 33s-4.5 24.833 -4.5 37.5v472c0 12.667 1.5 25.167 4.5 37.5s7.83301 23.5 14.5 33.5s15 18 25 24s22.333 9 37 9h-285
c29.333 0 50.833 -10.833 64.5 -32.5s20.5 -45.5 20.5 -71.5v-210h-335v210c0 12.667 1.5 25.167 4.5 37.5s7.83301 23.5 14.5 33.5s15.167 18.167 25.5 24.5s22.833 9.5 37.5 9.5h-286z" />
    <glyph glyph-name="I" unicode="I" horiz-adv-x="287" 
d="M80 576v-472.001c0 -12.667 -1.33301 -25.167 -4 -37.5s-7.16699 -23.5 -13.5 -33.5s-14.5 -18 -24.5 -24s-22.333 -9 -37 -9h289c-29.333 0 -51.833 10.5 -67.5 31.5s-23.5 45.167 -23.5 72.5v472c0 26.667 6.83301 50.834 20.5 72.501s35.167 32.5 64.5 32.5h-289
c29.333 0 50.833 -11 64.5 -33s20.5 -46 20.5 -72z" />
    <glyph glyph-name="J" unicode="J" horiz-adv-x="270" 
d="M-7 -191c28.667 0 55.335 4.50195 80.002 13.502s46 21.667 64 38s32.167 36.333 42.5 60s15.5 50.5 15.5 80.5v575c0 26 6.66699 50 20 72s34.666 33 63.999 33h-287c14.667 0 27.167 -3 37.5 -9s18.833 -14 25.5 -24s11.667 -21.333 15 -34s5 -25.334 5 -38.001v-655
c0 -26 -6 -46.833 -18 -62.5s-32 -23.5 -60 -23.5c-14 0 -24.833 4.5 -32.5 13.5s-14.5 19 -20.5 30s-12.833 21.167 -20.5 30.5s-18.834 14 -33.501 14c-12 0 -22.667 -3.33301 -32 -10s-14 -16.667 -14 -30c0 -14 5.66699 -25.833 17 -35.5s25 -17.334 41 -23.001
s32.5 -9.66699 49.5 -12s30.833 -3.5 41.5 -3.5z" />
    <glyph glyph-name="K" unicode="K" horiz-adv-x="654" 
d="M79 576l0.000976562 -472.003c0 -26.667 -7 -50.667 -21 -72s-36 -32 -66 -32h290c-30 0 -51.667 10.5 -65 31.5s-20 45.167 -20 72.5v197l39 41l161 -222c13.333 -18 24.666 -36.667 33.999 -56s13.333 -40.666 12 -63.999h244c-13.333 0 -26.833 4.33301 -40.5 13
s-26.667 19.167 -39 31.5s-23.666 25.5 -33.999 39.5l-26.5 36l-223 317l127 138c10.667 11.333 22.334 23 35.001 35s26.167 23 40.5 33s29.333 18.5 45 25.5s31.5 11.167 47.5 12.5h-205c11.333 0 21.666 -2.5 30.999 -7.5s14 -14.167 14 -27.5
s-4.16699 -26.166 -12.5 -38.499s-16.833 -23.166 -25.5 -32.499l-224 -245v246c0 26.667 6.83301 50.834 20.5 72.501s35.167 32.5 64.5 32.5h-290c29.333 0 51.166 -10.833 65.499 -32.5s21.5 -45.834 21.5 -72.501z" />
    <glyph glyph-name="L" unicode="L" horiz-adv-x="599" 
d="M-2 0l587.998 -0.000976562l12 194c-15.333 -53.333 -40.5 -96.166 -75.5 -128.499s-81.5 -48.5 -139.5 -48.5c-20.667 0 -41.667 1 -63 3s-40.666 6.83301 -57.999 14.5s-31.666 19.167 -42.999 34.5s-17 36.333 -17 63v444c0 26.667 6.66699 50.667 20 72s35 32 65 32
h-289c29.333 0 50.833 -10.833 64.5 -32.5s20.5 -45.5 20.5 -71.5v-473c0 -26 -6.83301 -49.667 -20.5 -71s-35.167 -32 -64.5 -32z" />
    <glyph glyph-name="M" unicode="M" horiz-adv-x="857" 
d="M185 0c-30.667 0.666992 -52.5 11.168 -65.5 31.501s-19.5 44.5 -19.5 72.5v503l273 -606h34l249 606v-503c0 -26.667 -7 -50.667 -21 -72s-35.667 -32 -65 -32h288c-29.333 0 -50.833 10.667 -64.5 32s-20.5 45.333 -20.5 72v472c0 26 6.83301 49.833 20.5 71.5
s35.167 32.5 64.5 32.5h-194l-219 -536l-218 491c-6 13.333 -9.66699 28.666 -11 45.999h-223c29.333 0 51 -10.667 65 -32s21 -45.333 21 -72v-473c0 -27.333 -6.83301 -51.333 -20.5 -72s-35.5 -31 -65.5 -31v-1h192z" />
    <glyph glyph-name="N" unicode="N" horiz-adv-x="661" 
d="M-7 0h191c-29.333 0 -50.833 10.667 -64.5 32s-20.5 45.333 -20.5 72v502l451 -606h36v577c0 12.667 1.66699 25.167 5 37.5s8.33301 23.333 15 33s15.167 17.667 25.5 24s22.5 9.5 36.5 9.5h-189c29.333 0 51 -10.667 65 -32s21 -45.333 21 -72v-368l-154.5 214
c-49.667 72 -101.5 143 -155.5 213l-15 21c-4.66699 6.66699 -7.66699 14.667 -9 24h-238c14.667 0 27.167 -3 37.5 -9s19 -14 26 -24s12.167 -21.167 15.5 -33.5s5 -24.833 5 -37.5v-473c0 -12.667 -1.66699 -25.167 -5 -37.5s-8.5 -23.5 -15.5 -33.5s-15.667 -18 -26 -24
s-22.833 -9 -37.5 -9z" />
    <glyph glyph-name="O" unicode="O" horiz-adv-x="746" 
d="M16 333c0 -49.333 9.16699 -95.168 27.5 -137.501s43.333 -79 75 -110s69 -55.167 112 -72.5s88.833 -26 137.5 -26c50 0 97 9.16699 141 27.5s82.333 43.5 115 75.5s58.334 69.833 77.001 113.5s28 90.834 28 141.501c0 53.333 -8.16699 101.5 -24.5 144.5
s-39.5 79.5 -69.5 109.5s-66.5 53 -109.5 69s-91.167 24 -144.5 24c-52 0 -100.167 -8.83301 -144.5 -26.5s-82.833 -42.5 -115.5 -74.5s-58.334 -70 -77.001 -114s-28 -92 -28 -144zM378 665.998c42 0 77.002 -10.333 105.002 -31s50.167 -46.667 66.5 -78
s27.833 -66 34.5 -104s10 -74 10 -108c0 -32.667 -4.33301 -68.334 -13 -107.001s-22 -74.667 -40 -108s-41.167 -61.166 -69.5 -83.499s-62.5 -33.5 -102.5 -33.5c-38.667 0 -71.834 10.667 -99.501 32s-50.334 48 -68.001 80s-30.5 66.667 -38.5 104s-12 72 -12 104
c0 34 4 70.5 12 109.5s21 75 39 108s41.5 60.5 70.5 82.5s64.167 33 105.5 33z" />
    <glyph glyph-name="P" unicode="P" horiz-adv-x="566" 
d="M-9 0l289 0.000976562c-30 0 -51.667 10.667 -65 32s-20 45.333 -20 72v189h165c27.333 0 53 4.83301 77 14.5s45.167 23.167 63.5 40.5s32.833 37.833 43.5 61.5s16 49.167 16 76.5s-5.33301 53 -16 77s-25.167 44.667 -43.5 62s-39.5 31 -63.5 41s-49.667 15 -77 15
h-363c28 -1.33301 48.167 -12.833 60.5 -34.5s18.5 -44.834 18.5 -69.501v-473c0 -26 -6.83301 -49.833 -20.5 -71.5s-35.167 -32.5 -64.5 -32.5zM195 658.001l79 -0.000976562c24 0 45.833 -4.66699 65.5 -14s36.5 -21.666 50.5 -36.999s25 -33.333 33 -54
s12 -42.667 12 -66c0 -22.667 -4 -44.5 -12 -65.5s-19 -39.5 -33 -55.5s-30.833 -28.833 -50.5 -38.5s-41.5 -14.5 -65.5 -14.5h-79v345z" />
    <glyph glyph-name="Q" unicode="Q" horiz-adv-x="750" 
d="M406 -8c18 -17.333 39.9971 -33.8301 65.9971 -49.4971s52 -23.5 78 -23.5c34 0 62.667 9.33301 86 28s43 42 59 70c-8 -8 -17.833 -14.5 -29.5 -19.5s-23.167 -7.5 -34.5 -7.5c-18 0 -34.167 4.5 -48.5 13.5s-28.166 18.833 -41.499 29.5
c58.667 31.333 104.834 75 138.501 131s50.5 117.333 50.5 184c0 53.333 -8.16699 101.166 -24.5 143.499s-39.666 78.5 -69.999 108.5s-67 53 -110 69s-90.833 24 -143.5 24c-52 0 -100.167 -8.83301 -144.5 -26.5s-83 -42.334 -116 -74.001
s-58.833 -69.334 -77.5 -113.001s-28 -91.834 -28 -144.501c0 -54 10.5 -103.167 31.5 -147.5s49.333 -81.666 85 -111.999s77 -52.833 124 -67.5s96.833 -20 149.5 -16zM150.997 335.003c0 34 4.16895 70.335 12.502 109.002s21.666 74.667 39.999 108s42 61 71 83
s63.833 33 104.5 33c42 0 76.833 -10.333 104.5 -31s49.667 -46.667 66 -78s27.833 -66 34.5 -104s10 -74 10 -108c0 -50 -8 -99.667 -24 -149s-42 -92.333 -78 -129c-16.667 13.333 -35.667 24.166 -57 32.499s-42.666 12.5 -63.999 12.5c-24 0 -42.667 -7.16699 -56 -21.5
s-26.666 -29.833 -39.999 -46.5c9.33301 7.33301 20 11 32 11c14 0 27.167 -4.33301 39.5 -13s23.166 -18 32.499 -28h-9c-38 0 -70.833 10.667 -98.5 32s-50.334 48 -68.001 80s-30.834 66.667 -39.501 104s-13 71.666 -13 102.999z" />
    <glyph glyph-name="R" unicode="R" horiz-adv-x="654" 
d="M-2 0h289.997c-30 -0 -51.667 10.333 -65 31s-20 44.667 -20 72v227h19c26 0 50 -6.16699 72 -18.5s38.667 -30.5 50 -54.5c10.667 -22.667 20.667 -45 30 -67l29 -67c8 -18.667 15.833 -38.667 23.5 -60s11.167 -42.333 10.5 -63h233
c-16.667 -0 -32.167 4.83301 -46.5 14.5s-27.333 21.667 -39 36s-22.167 29.666 -31.5 45.999s-17 30.833 -23 43.5l-63 128c-8.66699 17.333 -20.5 32.166 -35.5 44.499s-32.833 18.833 -53.5 19.5c22 3.33301 43.333 9.83301 64 19.5s38.834 21.834 54.501 36.501
s28.334 31.834 38.001 51.501s14.5 41.5 14.5 65.5c0 27.333 -6 51.833 -18 73.5s-27.833 40 -47.5 55s-41.667 26.5 -66 34.5s-49.166 12 -74.499 12h-345c29.333 0 50.833 -10.667 64.5 -32s20.5 -45.333 20.5 -72v-473c0 -26 -6.83301 -49.667 -20.5 -71
s-35.167 -32 -64.5 -32zM202.997 350v308.999h44c22.667 0 44.667 -3.33301 66 -10s40.333 -16.5 57 -29.5s30 -29.167 40 -48.5s15 -41.333 15 -66s-4.83301 -46.667 -14.5 -66s-22.834 -35.666 -39.501 -48.999s-35.667 -23.333 -57 -30s-43.666 -10 -66.999 -10h-44z" />
    <glyph glyph-name="S" unicode="S" horiz-adv-x="521" 
d="M71 47c10 0 22.4971 -3.00098 37.4971 -9.00098l49 -20c17.667 -7.33301 36.167 -14 55.5 -20s38.666 -9 57.999 -9c32 0 62.167 5.5 90.5 16.5s53 26.167 74 45.5s37.667 42.833 50 70.5s18.5 57.834 18.5 90.501c0 41.333 -9.16699 74.666 -27.5 99.999
s-41.166 46 -68.499 62s-56.833 29.333 -88.5 40s-61.167 21.834 -88.5 33.501s-50.166 26 -68.499 43s-27.5 39.833 -27.5 68.5c0 19.333 3.66699 35.666 11 48.999s17 24.5 29 33.5s26 15.5 42 19.5s32.333 6 49 6c26 0 48.833 -5 68.5 -15s36.334 -23.333 50.001 -40
s25 -35.667 34 -57s16.167 -43.333 21.5 -66l3 192c-0.666992 -10 -4.66699 -16.833 -12 -20.5s-15.333 -5.5 -24 -5.5c-12.667 0 -25 1.83301 -37 5.5s-24.333 7.66699 -37 12s-25.5 8.33301 -38.5 12s-26.5 5.5 -40.5 5.5c-28 0 -55.167 -3.83301 -81.5 -11.5
s-49.666 -19.167 -69.999 -34.5s-36.666 -34.5 -48.999 -57.5s-18.5 -50.167 -18.5 -81.5c0 -22 4.16699 -42.167 12.5 -60.5s19.166 -35 32.499 -50s28.666 -28.5 45.999 -40.5s35 -22.667 53 -32c19.333 -10 42.333 -19.667 69 -29s52 -20.333 76 -33
s44.333 -28.167 61 -46.5s25 -41.5 25 -69.5c0 -22 -4 -41 -12 -57s-18.667 -29.167 -32 -39.5s-29 -18 -47 -23s-37 -7.5 -57 -7.5c-62.667 0 -112.167 17.333 -148.5 52s-61.166 81.334 -74.499 140.001l-17 -209c3.33301 11.333 9 22 17 32s18.667 15 32 15z" />
    <glyph glyph-name="T" unicode="T" horiz-adv-x="672" 
d="M167 660h109v-557c0 -26.667 -6.83301 -50.5 -20.5 -71.5s-35.5 -31.5 -65.5 -31.5h290c-29.333 0 -50.833 10.667 -64.5 32s-20.5 45 -20.5 71v557h109c46 0 85 -11.667 117 -35s49.667 -59.333 53 -108l-11 164h-654l-11 -163c3.33301 48.667 20.833 84.5 52.5 107.5
s70.5 34.5 116.5 34.5z" />
    <glyph glyph-name="U" unicode="U" horiz-adv-x="659" 
d="M-20 680c29.333 0 50.834 -10.834 64.501 -32.501s20.5 -45.5 20.5 -71.5v-366c0 -40.667 6.83301 -75 20.5 -103s32.5 -50.667 56.5 -68s52 -30 84 -38s66.333 -12 103 -12c35.333 0 69 4.16699 101 12.5s60.333 21.333 85 39s44.167 40.5 58.5 68.5
s21.5 61.667 21.5 101v366c0 12.667 1.66699 25.167 5 37.5s8.5 23.5 15.5 33.5s15.667 18 26 24s22.833 9 37.5 9h-191c29.333 0 50.833 -10.833 64.5 -32.5s20.5 -45.5 20.5 -71.5v-366c0 -62 -17.333 -107 -52 -135s-81.334 -42 -140.001 -42
c-57.333 0 -104.333 14.333 -141 43s-55 73.334 -55 134.001v366c0 26 6.83301 49.833 20.5 71.5s35.167 32.5 64.5 32.5h-290z" />
    <glyph glyph-name="V" unicode="V" horiz-adv-x="630" 
d="M312 0h30.999l218 576c4 10.667 9.16699 22 15.5 34s13.833 23.167 22.5 33.5s18.5 19 29.5 26s22.833 10.5 35.5 10.5h-172c17.333 0 31 -5.16699 41 -15.5s15 -24.166 15 -41.499c0 -16 -3 -31.667 -9 -47l-164 -427l-180 427c-3.33301 7.33301 -6 14.666 -8 21.999
s-3 15 -3 23c0 20 6.33301 34.833 19 44.5s28.334 14.5 47.001 14.5h-282c12 0 23 -3.66699 33 -11s19 -16.333 27 -27s15 -22 21 -34s11 -22.667 15 -32z" />
    <glyph glyph-name="W" unicode="W" horiz-adv-x="1055" 
d="M308 0l39.998 0.00195312l178 552l220 -552h41l190 577c4 11.333 8.83301 23.166 14.5 35.499s12.667 23.5 21 33.5s18 18.333 29 25s23.167 10 36.5 10h-173c18.667 0 32.834 -6 42.501 -18s14.5 -26.667 14.5 -44c0 -13.333 -2.66699 -27.333 -8 -42l-144 -427
l-170 427c-5.33301 12.667 -8 25.334 -8 38.001c0 23.333 7.83301 40.166 23.5 50.499s34.167 15.5 55.5 15.5h-281c22 -0.666992 42.167 -6.33398 60.5 -17.001s27.5 -28.667 27.5 -54c0 -4.66699 -0.666992 -10 -2 -16s-2.66602 -11.333 -3.99902 -16l-140 -428l-170 427
c-6 14 -9 28 -9 42c0 20.667 6.5 36.167 19.5 46.5s29.167 15.5 48.5 15.5h-282c12 0 23 -3.66699 33 -11s19 -16.333 27 -27s14.833 -22 20.5 -34s10.5 -22.667 14.5 -32z" />
    <glyph glyph-name="X" unicode="X" horiz-adv-x="630" 
d="M142 0c-12 0 -22.501 3 -31.501 9s-13.5 15.667 -13.5 29c0 12 3 23.333 9 34s12.667 20.667 20 30l151 201l125 -197c5.33301 -9.33301 10.5 -19.833 15.5 -31.5s7.5 -22.834 7.5 -33.501c0 -13.333 -4.16699 -23.5 -12.5 -30.5s-18.833 -10.5 -31.5 -10.5h281
c-12.667 0 -24.834 3.66699 -36.501 11s-22.5 16.333 -32.5 27s-19 22 -27 34l-21 32l-193 303l120 170l24.5 33c9 12 19 23.167 30 33.5s22.833 19.166 35.5 26.499s25.667 11 39 11h-173c12 0 22.333 -3.16699 31 -9.5s13 -16.166 13 -29.499
c0 -11.333 -2.83301 -22.833 -8.5 -34.5s-11.834 -22.167 -18.501 -31.5l-106 -148l-93 148c-6 9.33301 -11.167 19.5 -15.5 30.5s-6.5 22.167 -6.5 33.5c0 27.333 14 41 42 41h-279c12 0 23.667 -3.66699 35 -11s22 -16.166 32 -26.499s19 -21.5 27 -33.5l21 -32l163 -255
l-166 -221l-25 -32.5c-9.33301 -11.667 -19.666 -22.667 -30.999 -33s-23.166 -19 -35.499 -26s-25.166 -10.5 -38.499 -10.5h173z" />
    <glyph glyph-name="Y" unicode="Y" horiz-adv-x="627" 
d="M255 222l0.000976562 -118.997c0 -26.667 -6.66699 -50.5 -20 -71.5s-35 -31.5 -65 -31.5h289c-29.333 0 -51 10.667 -65 32s-21 45 -21 71v223c0 5.33301 0.166992 10.666 0.5 15.999s1.16602 10.333 2.49902 15c2 6.66699 9.66699 20.167 23 40.5l44.5 66l47 67.5
l30.5 44c6.66699 10 14.667 21.167 24 33.5s19.5 23.833 30.5 34.5s22.833 19.667 35.5 27s25.667 11 39 11h-171c12.667 0 23 -3.16699 31 -9.5s12 -16.166 12 -29.499c0 -12.667 -2.5 -24.334 -7.5 -35.001s-11.167 -21 -18.5 -31l-140 -200l-126 199
c-6 9.33301 -11.333 19 -16 29s-7 20.667 -7 32c0 15.333 5.16699 26.666 15.5 33.999s22.5 11 36.5 11h-281c12 0 23.5 -3.83301 34.5 -11.5s21.167 -17 30.5 -28s17.833 -22.5 25.5 -34.5l19.5 -31l125 -206c10 -16 17.667 -29.167 23 -39.5s9.5 -20.333 12.5 -30
s4.83301 -20.334 5.5 -32.001s1 -27.167 1 -46.5z" />
    <glyph glyph-name="Z" unicode="Z" horiz-adv-x="572" 
d="M550 0l11.999 193.001c-2 -30.667 -9 -56.834 -21 -78.501s-27.5 -39.5 -46.5 -53.5s-41.167 -24.333 -66.5 -31s-52 -10 -80 -10h-205l391 639v22h-490l-10 -162c2 25.333 8 46.833 18 64.5s23.167 32 39.5 43s34.833 19.167 55.5 24.5s42.334 8 65.001 8h179l-386 -639
v-20h545z" />
    <glyph glyph-name="bracketleft" unicode="[" horiz-adv-x="246" 
d="M45 680v-827h173v24h-68l1 780h66v23h-172z" />
    <glyph glyph-name="backslash" unicode="\" horiz-adv-x="265" 
d="M50 676l-27 -8l217 -767l27 8z" />
    <glyph glyph-name="bracketright" unicode="]" horiz-adv-x="248" 
d="M202 -147v827h-173v-23h67v-780h-67v-24h173z" />
    <glyph glyph-name="asciicircum" unicode="^" horiz-adv-x="401" 
d="M20 399h55l135 210l135 -210h36l-181 280z" />
    <glyph glyph-name="underscore" unicode="_" horiz-adv-x="567" 
d="M45 -50v-49h476v49h-476z" />
    <glyph glyph-name="grave" unicode="`" horiz-adv-x="235" 
d="M193 525l19 14l-92 141h-100z" />
    <glyph glyph-name="a" unicode="a" 
d="M232 484c-17.333 0 -36.833 -1.66992 -58.5 -5.00293s-42 -9.33301 -61 -18s-34.833 -20.334 -47.5 -35.001s-19 -33 -19 -55c0 -17.333 6.83301 -33 20.5 -47s29.167 -21 46.5 -21c36.667 0 55 16.667 55 50c0 7.33301 -2.16699 13.833 -6.5 19.5
s-8.83301 10.834 -13.5 15.501c-2 5.33301 -3 10.333 -3 15c0 21.333 8.16699 36.833 24.5 46.5s33.833 14.5 52.5 14.5c20 0 39.333 -4.66699 58 -14s28 -25.666 28 -48.999c0 -19.333 -6.66699 -36.666 -20 -51.999s-29.333 -29 -48 -41s-38.167 -22.167 -58.5 -30.5
s-37.833 -15.166 -52.5 -20.499c-32 -11.333 -58.167 -27.333 -78.5 -48s-30.5 -49.334 -30.5 -86.001c0 -42.667 14.333 -75.667 43 -99s63.334 -35 104.001 -35c28 0 55.167 6.16699 81.5 18.5s47.166 30.5 62.499 54.5c2.66699 -27.333 14 -45.666 34 -54.999
s42 -14 66 -14c16 0 33.5 5 52.5 15s33.167 21.333 42.5 34c-8 -5.33301 -16.667 -10 -26 -14s-19 -6 -29 -6c-14 0 -22.833 5.83301 -26.5 17.5s-5.5 23.167 -5.5 34.5v235c0 52 -9.83301 90.667 -29.5 116s-55.167 43.333 -106.5 54c-18.667 3.33301 -35.667 5 -51 5z
M206 30.9971c-13.333 0 -24.665 3.33203 -33.998 9.99902s-17 15 -23 25s-10.333 21 -13 33s-4 23.333 -4 34c0 30.667 6.33301 54.167 19 70.5s28 29.833 46 40.5s37.167 20.834 57.5 30.501s38.166 23.5 53.499 41.5v-121c0 -16.667 -1.33301 -34.5 -4 -53.5
s-7.83398 -36.667 -15.501 -53s-18 -30 -31 -41s-30.167 -16.5 -51.5 -16.5z" />
    <glyph glyph-name="b" unicode="b" horiz-adv-x="520" 
d="M287 482c-25.333 0 -49.665 -4.99609 -72.998 -14.9961s-44 -23.667 -62 -41v282l-177 -28c2.66699 0.666992 6.66699 1 12 1c10.667 0 19.5 -2.83301 26.5 -8.5s12.5 -12.834 16.5 -21.501s6.66699 -18 8 -28s2 -19 2 -27v-613c2 7.33301 5.5 15 10.5 23
s11.167 15.333 18.5 22s15.166 12 23.499 16s16.5 6 24.5 6c8.66699 0 18 -3.16699 28 -9.5l34.5 -21.5c13 -8 27.833 -15.167 44.5 -21.5s35.667 -9.5 57 -9.5c35.333 0 66.333 7.16699 93 21.5s49.167 33.166 67.5 56.499s32.166 50.166 41.499 80.499s14 61.5 14 93.5
c0 33.333 -4.16699 64.666 -12.5 93.999s-21 55 -38 77s-38.833 39.333 -65.5 52s-58 19 -94 19zM256.001 20.0039c-14.667 0 -28.332 3.33105 -40.999 9.99805s-23.667 15.5 -33 26.5s-16.666 23.167 -21.999 36.5s-8 27 -8 41v258
c11.333 14.667 26.666 27.334 45.999 38.001s38.666 16 57.999 16c26 0 47.167 -7 63.5 -21s29.333 -31.5 39 -52.5s16.167 -43.667 19.5 -68s5 -46.5 5 -66.5c0 -18.667 -2 -40.667 -6 -66s-10.833 -49.166 -20.5 -71.499s-22.667 -41.333 -39 -57
s-36.833 -23.5 -61.5 -23.5z" />
    <glyph glyph-name="c" unicode="c" horiz-adv-x="469" 
d="M289 35c-24.667 0 -46.498 6.16699 -65.498 18.5s-34.833 28 -47.5 47s-22.167 40.167 -28.5 63.5s-9.5 45.666 -9.5 66.999c0 20 2 43.167 6 69.5s11.167 51.333 21.5 75s24 43.834 41 60.501s38.5 25 64.5 25c16 0 29.5 -4.66699 40.5 -14s16.5 -22.333 16.5 -39
c0 -8 -2.33301 -15.333 -7 -22s-7 -13.667 -7 -21c0 -34 16.333 -51 49 -51c20.667 0 37.167 7.66699 49.5 23s18.5 32.666 18.5 51.999s-5.66699 35.166 -17 47.499s-25.333 22 -42 29s-34.334 12 -53.001 15s-35.334 4.5 -50.001 4.5c-38 0 -72.5 -6.16699 -103.5 -18.5
s-57.167 -29.666 -78.5 -51.999s-37.833 -49.166 -49.5 -80.499s-17.5 -66 -17.5 -104c0 -32.667 5.66699 -63.667 17 -93s27.333 -55 48 -77s45 -39.333 73 -52s59 -19 93 -19c29.333 0 55.666 5.33301 78.999 16s43.5 25 60.5 43s30.833 39 41.5 63s18 49.667 22 77
c-5.33301 -20.667 -12.666 -40.167 -21.999 -58.5s-20.833 -34.5 -34.5 -48.5s-29.5 -25.167 -47.5 -33.5s-38.333 -12.5 -61 -12.5z" />
    <glyph glyph-name="d" unicode="d" horiz-adv-x="548" 
d="M477 709l-176.003 -28.998c2.66699 0.666992 6.66699 1 12 1c10.667 0 19.334 -3 26.001 -9s12 -13.333 16 -22s6.66699 -18 8 -28s2 -19 2 -27v-160c-19.333 14.667 -40.833 26.167 -64.5 34.5s-47.5 12.5 -71.5 12.5c-34.667 0 -64.834 -7.33301 -90.501 -22
s-47.167 -33.834 -64.5 -57.501s-30.333 -50.5 -39 -80.5s-13 -60.667 -13 -92c0 -32 3.83301 -62.5 11.5 -91.5s19.667 -54.5 36 -76.5s37.333 -39.5 63 -52.5s56.167 -19.5 91.5 -19.5c26.667 0 51.834 4.83301 75.501 14.5s45.5 23.167 65.5 40.5
c0.666992 -8.66699 2 -18.5 4 -29.5s6.66699 -19.833 14 -26.5l161 39c-2 -0.666992 -5.33301 -1 -10 -1c-11.333 0 -20.666 2.83301 -27.999 8.5s-13.166 12.667 -17.499 21s-7.33301 17.666 -9 27.999s-2.5 19.833 -2.5 28.5v596zM364.997 140.002
c0 -12.667 -2.49805 -25.999 -7.49805 -39.999s-11.833 -26.667 -20.5 -38s-19.167 -20.833 -31.5 -28.5s-25.5 -11.5 -39.5 -11.5c-26 0 -47.5 7.66699 -64.5 23s-30.5 34 -40.5 56s-17 45.667 -21 71s-6 48 -6 68s1.66699 42.167 5 66.5s9.83301 47 19.5 68
s22.667 38.667 39 53s37.5 21.5 63.5 21.5c19.333 0 38.666 -5.33301 57.999 -16s34.666 -23.334 45.999 -38.001v-255z" />
    <glyph glyph-name="e" unicode="e" horiz-adv-x="497" 
d="M291 40c-24.667 0 -46.499 6.16895 -65.499 18.502s-35 28 -48 47s-22.667 40 -29 63s-9.5 45.167 -9.5 66.5c0 3.33301 0.166992 6.83301 0.5 10.5s0.5 7.16699 0.5 10.5h338c-1.33301 33.333 -7.33301 64 -18 92s-25.5 52.167 -44.5 72.5s-42 36.166 -69 47.499
s-57.833 17 -92.5 17c-34 0 -65.333 -6.5 -94 -19.5s-53.334 -30.833 -74.001 -53.5s-36.667 -48.834 -48 -78.501s-17 -61.167 -17 -94.5c0 -36.667 4.83301 -70.167 14.5 -100.5s24.334 -56.5 44.001 -78.5s44 -39 73 -51s62.5 -18 100.5 -18c28.667 0 55.667 5 81 15
s47.666 24 66.999 42s35.333 39.167 48 63.5s20.334 50.833 23.001 79.5c-4.66699 -20 -12.834 -39 -24.501 -57s-25.5 -34 -41.5 -48s-33.833 -25.167 -53.5 -33.5s-40.167 -12.5 -61.5 -12.5zM256.001 463.002c18.667 0 34.499 -6.33301 47.499 -19s23.5 -28 31.5 -46
s13.833 -37 17.5 -57s5.5 -37.333 5.5 -52v-10h-217c2 16.667 4.83301 35.667 8.5 57s9.83398 41.333 18.501 60s20 34.5 34 47.5s32 19.5 54 19.5z" />
    <glyph glyph-name="f" unicode="f" horiz-adv-x="304" 
d="M258 752c-27.333 0 -52.167 -5.00098 -74.5 -15.001s-41.5 -23.667 -57.5 -41s-28.333 -37.5 -37 -60.5s-13 -47.833 -13 -74.5v-90l-78 -25h78v-332c0 -10 -0.833008 -21.5 -2.5 -34.5s-4.83398 -25.5 -9.50098 -37.5s-11.167 -22 -19.5 -30s-19.166 -12 -32.499 -12
h240c-13.333 0 -24.166 4 -32.499 12s-14.833 18 -19.5 30s-7.83398 24.5 -9.50098 37.5s-2.5 24.5 -2.5 34.5v332l140 25h-140v170c0 24.667 5.5 45.334 16.5 62.001s30.167 25 57.5 25c12.667 0 22.334 -4.66699 29.001 -14s13 -19.5 19 -30.5s12.667 -21.167 20 -30.5
s18 -14 32 -14c9.33301 0 18.666 3.33301 27.999 10s14 15 14 25c0 16 -5.33301 29.167 -16 39.5s-23.667 18.333 -39 24s-31.333 9.5 -48 11.5s-31 3 -43 3z" />
    <glyph glyph-name="g" unicode="g" horiz-adv-x="526" 
d="M95 115c0 11.333 3.66504 22.5 10.998 33.5s15.666 19.5 24.999 25.5v-1c34.667 -17.333 71.334 -26 110.001 -26c26 0 52.167 3.5 78.5 10.5s50 17.667 71 32s38.167 32.333 51.5 54s20 47.5 20 77.5c0 40.667 -12 73.5 -36 98.5s-54.667 42.167 -92 51.5l-1 1
c4.66699 10.667 13.334 20 26.001 28s24.667 12 36 12c14 0 22.333 -3.66699 25 -11s4.5 -15.333 5.5 -24s3.66699 -16.667 8 -24s15.166 -11 32.499 -11c14.667 0 26.834 6.33301 36.501 19s14.5 25.667 14.5 39c0 11.333 -2.5 21 -7.5 29s-11.5 14.667 -19.5 20
s-17 9.16602 -27 11.499s-19.667 3.5 -29 3.5c-26.667 0 -51.167 -8.66699 -73.5 -26s-38.166 -38 -47.499 -62c-10 1.33301 -19.833 2.83301 -29.5 4.5s-19.834 2.5 -30.501 2.5c-25.333 0 -50.833 -3.5 -76.5 -10.5s-48.667 -17.667 -69 -32
s-36.833 -32.166 -49.5 -53.499s-19 -46.333 -19 -75c0 -26.667 7.83301 -51.834 23.5 -75.501s34.5 -42.167 56.5 -55.5c-11.333 -6 -22.833 -13 -34.5 -21s-22.334 -17 -32.001 -27s-17.667 -21.167 -24 -33.5s-9.5 -25.5 -9.5 -39.5c0 -13.333 2.66699 -26.333 8 -39
s13 -23.667 23 -33c-15.333 -13.333 -26.166 -28.5 -32.499 -45.5s-9.5 -35.5 -9.5 -55.5c0 -29.333 7.66699 -53.166 23 -71.499s34.5 -32.5 57.5 -42.5s47.833 -16.833 74.5 -20.5s51.334 -5.5 74.001 -5.5c28 0 59.333 3.16699 94 9.5s67.167 16.666 97.5 30.999
s56 33.5 77 57.5s31.5 53.667 31.5 89c0 42 -10.833 72.833 -32.5 92.5s-49 32.834 -82 39.501s-68.5 9.16699 -106.5 7.5s-73.5 -2.66699 -106.5 -3s-60.333 2 -82 7s-32.5 17.5 -32.5 37.5zM255.998 464c18 0 32.667 -5.00195 44 -15.002s20.5 -22.5 27.5 -37.5
s11.833 -31 14.5 -48s4 -32.5 4 -46.5s-1.83301 -29.667 -5.5 -47s-9.33398 -33.666 -17.001 -48.999s-17.5 -28.333 -29.5 -39s-26.667 -16 -44 -16c-18.667 0 -34.167 5.16699 -46.5 15.5s-22.166 23 -29.499 38s-12.5 31.333 -15.5 49s-4.5 33.834 -4.5 48.501
c0 16 1.83301 32.5 5.5 49.5s9.5 32.833 17.5 47.5s18.5 26.667 31.5 36s28.833 14 47.5 14zM225.998 -226.002c-18.667 0 -39.499 1.33301 -62.499 4s-44.333 8.16699 -64 16.5s-36.167 20 -49.5 35s-20 35.167 -20 60.5c0 17.333 2.5 33.166 7.5 47.499
s13.833 27.833 26.5 40.5c16 -11.333 32.167 -18.666 48.5 -21.999s34.166 -5 53.499 -5h230c8.66699 0 17.5 -0.833008 26.5 -2.5s17.333 -4.5 25 -8.5s13.834 -9.5 18.501 -16.5s7 -15.833 7 -26.5c0 -24 -9.66699 -43.833 -29 -59.5s-42.333 -28.167 -69 -37.5
s-53.834 -16 -81.501 -20s-50.167 -6 -67.5 -6z" />
    <glyph glyph-name="h" unicode="h" horiz-adv-x="542" 
d="M298 0l244.999 -0.000976562c-14 0 -25.333 4.16699 -34 12.5s-15.5 18.333 -20.5 30s-8.33301 24 -10 37s-2.5 24.833 -2.5 35.5v206c0 50 -13.333 89.333 -40 118s-65.334 43 -116.001 43c-26.667 0 -52 -5.5 -76 -16.5s-44.667 -26.833 -62 -47.5v290l-181 -28h8
c11.333 0 20.833 -2.66699 28.5 -8s13.834 -12.166 18.501 -20.499s7.83398 -17.5 9.50098 -27.5s2.5 -19.667 2.5 -29v-479c0 -10.667 -0.833008 -22.667 -2.5 -36s-5 -25.833 -10 -37.5s-11.833 -21.667 -20.5 -30s-20 -12.5 -34 -12.5h246
c-14 0 -25.167 4.16699 -33.5 12.5s-14.833 18.333 -19.5 30s-7.83398 24.167 -9.50098 37.5s-2.5 25.333 -2.5 36v229c0 12 2.33301 23.833 7 35.5s11 22 19 31s17.5 16.333 28.5 22s22.833 8.5 35.5 8.5c28.667 0 51.334 -10.5 68.001 -31.5s25 -45.167 25 -72.5v-222
c0 -10.667 -0.833008 -22.667 -2.5 -36s-5 -25.833 -10 -37.5s-11.833 -21.667 -20.5 -30s-20 -12.5 -34 -12.5z" />
    <glyph glyph-name="i" unicode="i" horiz-adv-x="252" 
d="M5 0l244 0.00195312c-13.333 0.666992 -24.166 4.83398 -32.499 12.501s-15 17.167 -20 28.5s-8.33301 23.5 -10 36.5s-2.5 24.5 -2.5 34.5v370l-179 -27c2.66699 0.666992 6.33398 1 11.001 1c10.667 0 19.5 -2.66699 26.5 -8s12.5 -12 16.5 -20
s6.83301 -16.833 8.5 -26.5s2.5 -18.834 2.5 -27.501v-262c0 -10.667 -0.833008 -22.334 -2.5 -35.001s-4.83398 -24.667 -9.50098 -36s-11.334 -20.833 -20.001 -28.5s-19.667 -11.834 -33 -12.501zM125 560.002c19.333 0 35 6.5 47 19.5s18 28.833 18 47.5
c0 18 -6.33301 33.667 -19 47s-28 20 -46 20c-18.667 0 -34.5 -6.5 -47.5 -19.5s-19.5 -28.833 -19.5 -47.5s6.5 -34.5 19.5 -47.5s28.833 -19.5 47.5 -19.5z" />
    <glyph glyph-name="j" unicode="j" horiz-adv-x="220" 
d="M68 374l-0.000976562 -496.003c0 -25.333 -5.66699 -46.166 -17 -62.499s-30.666 -24.5 -57.999 -24.5c-12.667 0 -22.167 4.83301 -28.5 14.5s-12.333 20.167 -18 31.5s-12.334 21.833 -20.001 31.5s-19.5 14.5 -35.5 14.5c-9.33301 0 -18 -3.66699 -26 -11
s-12 -16 -12 -26c0 -14 4.5 -26.167 13.5 -36.5s20 -18.666 33 -24.999s26.833 -11 41.5 -14s28 -4.5 40 -4.5c58.667 0 106.5 16.833 143.5 50.5s55.5 80.834 55.5 141.501v525l-181 -28c2.66699 0.666992 6.66699 1 12 1c11.333 0 20.5 -2.5 27.5 -7.5
s12.833 -11.5 17.5 -19.5s7.83398 -16.833 9.50098 -26.5s2.5 -19.167 2.5 -28.5zM120.999 559.997c17.333 0 32.5 6.33301 45.5 19s19.5 27.667 19.5 45c0 18 -6 34.167 -18 48.5s-27.667 21.5 -47 21.5c-18.667 0 -34.5 -6.5 -47.5 -19.5s-19.5 -28.833 -19.5 -47.5
s6.5 -34.5 19.5 -47.5s28.833 -19.5 47.5 -19.5z" />
    <glyph glyph-name="k" unicode="k" horiz-adv-x="567" 
d="M318 0l255.002 -0.000976562c-11.333 0.666992 -22 4.16699 -32 10.5s-19.333 13.833 -28 22.5s-16.334 18.167 -23.001 28.5l-18 28.5l-146 238l48.5 49.5c16.333 17 33.5 32.333 51.5 46s37.333 25 58 34s43.334 13.5 68.001 13.5h-211
c16.667 -11.333 25 -26.666 25 -45.999c0 -15.333 -4.16699 -27.333 -12.5 -36l-26.5 -27l-145 -144v490l-180 -28c2 0.666992 5.33301 1 10 1c11.333 0 20.666 -2.83301 27.999 -8.5s13.166 -12.667 17.499 -21s7.33301 -17.5 9 -27.5s2.5 -19.667 2.5 -29v-480
c0 -10.667 -0.833008 -22.667 -2.5 -36s-5 -25.833 -10 -37.5s-11.833 -21.5 -20.5 -29.5s-20 -12 -34 -12h247c-14 0 -25.333 4.16699 -34 12.5s-15.5 18.333 -20.5 30s-8.33301 24 -10 37s-2.5 24.833 -2.5 35.5v73l62 60l27 -40.5l36 -55c12 -19 22.5 -37.333 31.5 -55
s13.5 -31.5 13.5 -41.5c0 -12 -3.16699 -22.833 -9.5 -32.5s-14.5 -17.5 -24.5 -23.5z" />
    <glyph glyph-name="l" unicode="l" horiz-adv-x="250" 
d="M184 708l-181.001 -28.001c2.66699 0.666992 6.33398 1 11.001 1c12 0 21.667 -2.66699 29 -8s13 -12.166 17 -20.499s6.83301 -17.666 8.5 -27.999s2.5 -20.166 2.5 -29.499v-479c0 -10.667 -1 -22.834 -3 -36.501s-5.66699 -26.334 -11 -38.001
s-12.5 -21.5 -21.5 -29.5s-20.5 -12 -34.5 -12h246c-14 0 -25 4.16699 -33 12.5s-14.333 18.333 -19 30s-7.66699 24.167 -9 37.5s-2 25 -2 35v593z" />
    <glyph glyph-name="m" unicode="m" horiz-adv-x="797" 
d="M562 0l245.01 0.00292969c-13.333 0 -24.333 4.16699 -33 12.5s-15.334 18.5 -20.001 30.5s-7.83398 24.667 -9.50098 38s-2.5 25 -2.5 35v206c0 48 -12.5 86.667 -37.5 116s-62.5 44 -112.5 44c-62 0 -109.667 -27 -143 -81c-11.333 28 -29.666 48.5 -54.999 61.5
s-52.333 19.5 -81 19.5c-26 0 -50.333 -5.16699 -73 -15.5s-42 -26.166 -58 -47.499c-0.666992 7.33301 -1.83398 18.166 -3.50098 32.499s-5.16699 24.5 -10.5 30.5l-165 -26h8c11.333 0 20.666 -2.66699 27.999 -8s13.166 -12.333 17.499 -21s7.33301 -18 9 -28
s2.5 -19.667 2.5 -29v-254c0 -10 -0.833008 -21.667 -2.5 -35s-4.83398 -26 -9.50098 -38s-11.334 -22.167 -20.001 -30.5s-19.667 -12.5 -33 -12.5h245c-14 0 -25.167 4.16699 -33.5 12.5s-15 18.333 -20 30s-8.33301 24.167 -10 37.5s-2.5 25.333 -2.5 36v228
c0 11.333 2.16699 22.666 6.5 33.999s10.166 21.833 17.499 31.5s16 17.5 26 23.5s21 9 33 9c13.333 0 25.166 -3 35.499 -9s19.166 -13.833 26.499 -23.5s13 -20.334 17 -32.001s6 -23.5 6 -35.5v-226c0 -10.667 -0.833008 -22.667 -2.5 -36s-5 -25.833 -10 -37.5
s-11.667 -21.667 -20 -30s-19.5 -12.5 -33.5 -12.5h243c-14 0 -25.167 4.16699 -33.5 12.5s-14.833 18.333 -19.5 30s-7.83398 24.167 -9.50098 37.5s-2.5 25.333 -2.5 36v226c0 11.333 2 23 6 35s9.66699 22.833 17 32.5s16 17.5 26 23.5s21.333 9 34 9
c13.333 0 25 -3 35 -9s18.667 -13.833 26 -23.5s12.833 -20.334 16.5 -32.001s5.5 -23.5 5.5 -35.5v-226c0 -10.667 -0.833008 -22.667 -2.5 -36s-5 -25.833 -10 -37.5s-11.667 -21.667 -20 -30s-19.5 -12.5 -33.5 -12.5z" />
    <glyph glyph-name="n" unicode="n" horiz-adv-x="542" 
d="M301 0h240.002c-13.333 0 -24.333 4.16699 -33 12.5s-15.334 18.5 -20.001 30.5s-7.83398 24.667 -9.50098 38s-2.5 25 -2.5 35v206c0 48 -12.5 86.667 -37.5 116s-62.5 44 -112.5 44c-28.667 0 -55.167 -4.83301 -79.5 -14.5s-45.833 -25.834 -64.5 -48.501
c0 8 -0.833008 19 -2.5 33s-5.5 24 -11.5 30l-165 -27h8c11.333 0 20.666 -2.66699 27.999 -8s13.333 -12.166 18 -20.499s7.83398 -17.5 9.50098 -27.5s2.5 -19.667 2.5 -29v-254c0 -10.667 -0.833008 -22.667 -2.5 -36s-5 -25.833 -10 -37.5s-11.667 -21.667 -20 -30
s-19.5 -12.5 -33.5 -12.5h245c-14 0 -25.167 4.16699 -33.5 12.5s-15 18.333 -20 30s-8.33301 24.167 -10 37.5s-2.5 25.333 -2.5 36v222c0 26 8.33301 49.833 25 71.5s39 32.5 67 32.5c26 0 47.667 -9.83301 65 -29.5s26 -42.167 26 -67.5v-229
c0 -10 -0.833008 -21.667 -2.5 -35s-4.83398 -26 -9.50098 -38s-11.167 -22.167 -19.5 -30.5s-19.166 -12.5 -32.499 -12.5z" />
    <glyph glyph-name="o" unicode="o" horiz-adv-x="507" 
d="M259 483c-34 0 -65.6689 -6.33203 -95.002 -18.999s-54.666 -29.834 -75.999 -51.501s-38.166 -47.334 -50.499 -77.001s-18.5 -61.5 -18.5 -95.5s5.33301 -66.167 16 -96.5s26 -57 46 -80s44.333 -41.167 73 -54.5s60.667 -20 96 -20c34 0 65.667 6.83301 95 20.5
s54.5 32 75.5 55s37.5 49.667 49.5 80s18 62.166 18 95.499c0 34 -5.33301 65.833 -16 95.5s-26 55.334 -46 77.001s-44 38.834 -72 51.501s-59.667 19 -95 19zM252.998 13.001c-22 0 -39.998 8.33105 -53.998 24.998s-25.167 36.834 -33.5 60.501
s-14.166 47.834 -17.499 72.501s-5 45 -5 61c0 17.333 1.66699 39 5 65s9.33301 51 18 75s20.5 44.667 35.5 62s34.167 26 57.5 26s42.166 -8.33301 56.499 -25s25.333 -36.5 33 -59.5s12.834 -47 15.501 -72s4 -46.167 4 -63.5c0 -16.667 -1.83301 -37.834 -5.5 -63.501
s-9.83398 -50.667 -18.501 -75s-20.334 -45.166 -35.001 -62.499s-33.334 -26 -56.001 -26z" />
    <glyph glyph-name="p" unicode="p" horiz-adv-x="545" 
d="M321 482c-26.667 0 -51.8311 -5.16895 -75.498 -15.502s-45.834 -23.833 -66.501 -40.5c-0.666992 9.33301 -1.83398 19.333 -3.50098 30s-6.16699 19.334 -13.5 26.001l-162 -27h7c24 0 40.167 -9 48.5 -27s12.5 -37 12.5 -57v-511
c0 -10.667 -0.833008 -22.5 -2.5 -35.5s-5 -25.333 -10 -37s-11.667 -21.667 -20 -30s-19.5 -12.5 -33.5 -12.5h242c-13.333 0 -24.333 4 -33 12s-15.334 18 -20.001 30s-7.83398 24.667 -9.50098 38s-2.5 25 -2.5 35v176c20 -14.667 41.667 -26 65 -34s47.333 -12 72 -12
c34.667 0 65 7.33301 91 22s47.5 33.834 64.5 57.501s29.667 50.667 38 81s12.5 60.833 12.5 91.5c0 31.333 -3.83301 61.5 -11.5 90.5s-19.667 54.5 -36 76.5s-37.166 39.667 -62.499 53s-55.666 20 -90.999 20zM283.003 22.998c-20.667 0 -39.835 5.16895 -57.502 15.502
s-33.167 23.166 -46.5 38.499v256c0 14 2.66699 28 8 42s12.833 26.5 22.5 37.5s20.834 19.833 33.501 26.5s26.334 10 41.001 10c24.667 0 45 -7.83301 61 -23.5s28.833 -34.834 38.5 -57.501s16.5 -46.5 20.5 -71.5s6 -46.833 6 -65.5c0 -20 -1.66699 -42.167 -5 -66.5
s-9.83301 -47 -19.5 -68s-22.667 -38.5 -39 -52.5s-37.5 -21 -63.5 -21z" />
    <glyph glyph-name="q" unicode="q" horiz-adv-x="520" 
d="M304 -255l240 -0.00292969c-13.333 0 -24.166 4 -32.499 12s-15 18 -20 30s-8.33301 24.5 -10 37.5s-2.5 24.5 -2.5 34.5v628c-1.33301 -7.33301 -4.33301 -15 -9 -23s-10.167 -15.333 -16.5 -22s-13.5 -12.167 -21.5 -16.5s-16 -6.5 -24 -6.5
c-10 0 -20.333 3.33301 -31 10l-35.5 21.5c-13 7.66699 -28 14.834 -45 21.501s-36.5 10 -58.5 10c-34.667 0 -65.5 -7.16699 -92.5 -21.5s-49.667 -33.166 -68 -56.499s-32.166 -50.166 -41.499 -80.499s-14 -61.5 -14 -93.5c0 -32.667 4.16699 -63.667 12.5 -93
s21.166 -55 38.499 -77s39.166 -39.5 65.499 -52.5s57.5 -19.5 93.5 -19.5c25.333 0 49.833 5 73.5 15s44.5 23.667 62.5 41v-185c0 -10 -0.833008 -21.5 -2.5 -34.5s-4.83398 -25.5 -9.50098 -37.5s-11.167 -22 -19.5 -30s-19.166 -12 -32.499 -12zM368 76.9971
c-13.333 -15.333 -29.002 -28.167 -47.002 -38.5s-37.333 -15.5 -58 -15.5c-26 0 -47.167 7.16699 -63.5 21.5s-29.333 32 -39 53s-16.167 43.5 -19.5 67.5s-5 46 -5 66c0 19.333 2 41.5 6 66.5s10.833 48.667 20.5 71s22.667 41.333 39 57s36.833 23.5 61.5 23.5
c14.667 0 28.334 -3.33301 41.001 -10s23.834 -15.5 33.501 -26.5s17.167 -23.333 22.5 -37s8 -27.5 8 -41.5v-257z" />
    <glyph glyph-name="r" unicode="r" horiz-adv-x="421" 
d="M297 482c-23.333 0 -45.5039 -5.99707 -66.5039 -17.9971s-37.5 -28.333 -49.5 -49c0 9.33301 -0.5 20.833 -1.5 34.5s-4.5 24.5 -10.5 32.5l-163 -27h8c11.333 0 20.5 -2.83301 27.5 -8.5s12.5 -12.667 16.5 -21s6.83301 -17.5 8.5 -27.5s2.5 -19.667 2.5 -29v-253
c0 -10 -0.833008 -21.5 -2.5 -34.5s-4.66699 -25.5 -9 -37.5s-10.666 -22.167 -18.999 -30.5s-19.166 -12.833 -32.499 -13.5h239c-13.333 0 -24.166 4.16699 -32.499 12.5s-14.833 18.5 -19.5 30.5s-7.83398 24.667 -9.50098 38s-2.5 25 -2.5 35v189c0 12 2 26.667 6 44
s9.83301 33.833 17.5 49.5s17.334 29 29.001 40s25.167 16.5 40.5 16.5c14 0 24.833 -4.33301 32.5 -13s14.334 -18.334 20.001 -29.001s12 -20.334 19 -29.001s17.167 -13 30.5 -13s24 3.33301 32 10s12 17 12 31c0 13.333 -4.5 24.5 -13.5 33.5s-19.833 16.167 -32.5 21.5
s-26.167 9.16602 -40.5 11.499s-26.5 3.5 -36.5 3.5z" />
    <glyph glyph-name="s" unicode="s" horiz-adv-x="378" 
d="M96 392c0 20.667 8.33008 36.9951 24.9971 48.9951s34.667 18 54 18c38.667 0 71.5 -11.5 98.5 -34.5s45.5 -52.833 55.5 -89.5l-31 141v-4c0 -4 -1.5 -6.83301 -4.5 -8.5s-6.16699 -2.5 -9.5 -2.5c-11.333 0 -26.666 3.83301 -45.999 11.5s-39.333 11.5 -60 11.5
c-44.667 0 -81.167 -12.333 -109.5 -37s-42.5 -60 -42.5 -106c0 -29.333 6.66699 -53.166 20 -71.499s30 -33.166 50 -44.499s41.667 -20.833 65 -28.5s45 -15.5 65 -23.5s36.667 -17.667 50 -29s20 -27 20 -47c0 -28 -9 -48.333 -27 -61s-39.667 -19 -65 -19
c-14 0 -29 2.16699 -45 6.5s-31.333 10.333 -46 18s-27.834 17 -39.501 28s-20.5 23.167 -26.5 36.5c-3.33301 6.66699 -5.66602 13.834 -6.99902 21.501l-4 22.5l4 -150c0 6 1.33301 11.333 4 16s7.33398 7 14.001 7c9.33301 0 19.333 -1.66699 30 -5l34 -10.5
c12 -3.66699 24.833 -7.16699 38.5 -10.5s28.167 -5 43.5 -5c22 0 42.5 4 61.5 12s35.333 19.167 49 33.5s24.334 31.166 32.001 50.499s11.5 40 11.5 62c0 30.667 -6.5 55.334 -19.5 74.001s-29.167 34 -48.5 46s-40.333 21.833 -63 29.5s-43.667 15.334 -63 23.001
s-35.5 16.834 -48.5 27.501s-19.5 24.667 -19.5 42z" />
    <glyph glyph-name="t" unicode="t" horiz-adv-x="299" 
d="M230 36c-11.333 0 -20.332 2.83105 -26.999 8.49805s-11.834 12.834 -15.501 21.501s-6 18.167 -7 28.5s-1.5 19.833 -1.5 28.5v326l96 12l-96 10v173h-15c-13.333 -41.333 -34.833 -79.166 -64.5 -113.499s-63.5 -61.5 -101.5 -81.5h66v-346c0 -32.667 9 -60.5 27 -83.5
s44.333 -34.5 79 -34.5c26 0 50.5 6.16699 73.5 18.5s41.167 29.833 54.5 52.5c-19.333 -13.333 -42 -20 -68 -20z" />
    <glyph glyph-name="u" unicode="u" horiz-adv-x="524" 
d="M462 471l-178.004 0.000976562c13.333 0 24.333 -4.16699 33 -12.5s15.334 -18.5 20.001 -30.5s7.83398 -24.667 9.50098 -38s2.5 -25 2.5 -35v-225c0 -12.667 -2.33301 -25 -7 -37s-11 -22.667 -19 -32s-17.5 -17 -28.5 -23s-23.167 -9 -36.5 -9
c-28.667 0 -51.334 10.667 -68.001 32s-25 45.666 -25 72.999v337h-175c13.333 0 24.333 -4.16699 33 -12.5s15.334 -18.333 20.001 -30s7.83398 -24.167 9.50098 -37.5s2.5 -25 2.5 -35v-207c0 -50.667 13 -89.834 39 -117.501s64.667 -41.5 116 -41.5
c28 0 53.667 5.16699 77 15.5s44 26.166 62 47.499c0 -8 0.833008 -19 2.5 -33s5.5 -24 11.5 -30l165 28c-2 -0.666992 -5.33301 -1 -10 -1c-11.333 0 -20.666 3 -27.999 9s-13 13.333 -17 22s-6.83301 18.334 -8.5 29.001s-2.5 20.334 -2.5 29.001v365z" />
    <glyph glyph-name="v" unicode="v" horiz-adv-x="508" 
d="M366 471c15.333 0 27.166 -4.33301 35.499 -13s12.5 -20.667 12.5 -36c0 -12 -1.83301 -23.667 -5.5 -35s-8.16699 -22.333 -13.5 -33l-105 -216l-90 216c-4.66699 10.667 -8.5 22 -11.5 34s-4.5 23.667 -4.5 35c0 12.667 2.83301 24 8.5 34s15.834 14.667 30.501 14
h-240c10 0 19.5 -4.66699 28.5 -14s17.5 -20.5 25.5 -33.5s15 -26 21 -39l14 -30.5l157 -354h22l170 354c4.66699 10 10.667 21.667 18 35s15.5 26 24.5 38s19.167 22.333 30.5 31s23.333 13 36 13h-164z" />
    <glyph glyph-name="w" unicode="w" horiz-adv-x="772" 
d="M648 471c15.333 0 26.334 -4.83008 33.001 -14.4971s10 -21.5 10 -35.5c0 -11.333 -1.5 -22.5 -4.5 -33.5s-6.5 -21.833 -10.5 -32.5l-85 -210l-81 210c-3.33301 9.33301 -6.16602 19 -8.49902 29s-3.5 20 -3.5 30c0 17.333 4.16699 31.166 12.5 41.499
s21.5 15.5 39.5 15.5h-239c17.333 0 30.833 -5 40.5 -15s14.5 -23.667 14.5 -41c0 -10.667 -1.33301 -21 -4 -31s-6 -19.667 -10 -29l-86 -210l-80 210c-3.33301 9.33301 -6.33301 19.166 -9 29.499s-4 20.5 -4 30.5c0 16 4 29.333 12 40s20.667 16 38 16h-240
c10 0 19.333 -4.66699 28 -14s16.5 -20.333 23.5 -33s13.167 -25.5 18.5 -38.5s9.33301 -23.167 12 -30.5l134 -355h28l150 366l145 -366h29l146 355c3.33301 8.66699 8.16602 19.667 14.499 33s13.5 26.166 21.5 38.499s17.167 22.833 27.5 31.5s21.166 13 32.499 13h-145z
" />
    <glyph glyph-name="x" unicode="x" horiz-adv-x="509" 
d="M269 0l244 0.00390625c-12 0 -23.5 3.66699 -34.5 11s-21.167 16.166 -30.5 26.499s-17.833 21.333 -25.5 33s-14.167 22.167 -19.5 31.5l-101 180l34 48.5c14.667 21 30.667 42 48 63s35.666 39.167 54.999 54.5s38 23 56 23h-161c11.333 0 20.666 -2.66699 27.999 -8
s11 -13.666 11 -24.999c0 -10.667 -3.16699 -22.334 -9.5 -35.001s-14 -25.334 -23 -38.001s-18.167 -24.5 -27.5 -35.5s-16.666 -20.167 -21.999 -27.5l-19 28.5c-7.33301 11 -14.5 22.5 -21.5 34.5s-12.833 24.167 -17.5 36.5s-7 23.833 -7 34.5c0 23.333 11.667 35 35 35
h-235c12 0 23.5 -3.83301 34.5 -11.5s21.167 -16.834 30.5 -27.501s17.666 -22 24.999 -34l19 -32l80 -139l-88 -125l-25 -33c-9.33301 -12 -19.666 -23 -30.999 -33s-23.333 -18.5 -36 -25.5s-26 -10.5 -40 -10.5h159c-22 0 -33 10.667 -33 32c0 12 4.5 26.5 13.5 43.5
s19.333 34 31 51s23.334 32.833 35.001 47.5s20.167 25.667 25.5 33l20.5 -33.5l27.5 -46c9.33301 -16.333 17.5 -32.333 24.5 -48s10.5 -29.167 10.5 -40.5c0 -12.667 -3.66699 -22.334 -11 -29.001s-17 -10 -29 -10z" />
    <glyph glyph-name="y" unicode="y" horiz-adv-x="485" 
d="M349 471c15.333 0 26.6719 -4.49902 34.0049 -13.499s11 -20.833 11 -35.5c0 -10.667 -1.5 -21.167 -4.5 -31.5s-6.5 -20.166 -10.5 -29.499l-94 -216l-88 212c-4.66699 11.333 -8.66699 23 -12 35s-5 24.333 -5 37c0 10.667 2.16699 20.334 6.5 29.001
s12.833 13 25.5 13h-236c12.667 0 24.167 -4.16699 34.5 -12.5s19.666 -18.5 27.999 -30.5s15.666 -24.5 21.999 -37.5s11.5 -24.167 15.5 -33.5l148 -357l-51 -118c-2.66699 -6.66699 -6.33398 -14 -11.001 -22s-10 -15.5 -16 -22.5s-12.667 -12.833 -20 -17.5
s-15.333 -7 -24 -7c-10.667 0 -19.334 2.66699 -26.001 8s-12.834 11.166 -18.501 17.499s-11.834 12.166 -18.501 17.499s-15 8 -25 8c-14 0 -24.5 -4.5 -31.5 -13.5s-10.5 -20.167 -10.5 -33.5c0 -21.333 8.33301 -36.5 25 -45.5s34.334 -13.5 53.001 -13.5
c37.333 0 67.333 11.5 90 34.5s40.667 50.167 54 81.5l207 483c4.66699 10.667 10.334 22.667 17.001 36s14.5 25.666 23.5 36.999s19.167 21 30.5 29s23.666 12 36.999 12h-160z" />
    <glyph glyph-name="z" unicode="z" horiz-adv-x="394" 
d="M221 22h-90.999l213 427v22h-302l-12 -146c4 39.333 18.167 69.833 42.5 91.5s56.166 32.5 95.499 32.5h54l-206 -428v-21h350l14 185c-3.33301 -21.333 -9 -41.833 -17 -61.5s-18.5 -37 -31.5 -52s-28.5 -27 -46.5 -36s-39 -13.5 -63 -13.5z" />
    <glyph glyph-name="braceleft" unicode="{" horiz-adv-x="335" 
d="M139 -24c0 -34 11.166 -61.6631 33.499 -82.9961s50.5 -32 84.5 -32c19.333 0 37 3.33301 53 10c-17.333 4 -33.333 11.5 -48 22.5s-22.334 26.5 -23.001 46.5c-0.666992 29.333 -0.5 58.5 0.5 87.5s1.5 58.167 1.5 87.5c0 26.667 -4.16699 48.667 -12.5 66
s-19.666 31.5 -33.999 42.5s-31.166 19.667 -50.499 26s-40.333 12.166 -63 17.499c21.333 5.33301 41.666 11.166 60.999 17.499s36.333 15 51 26s26.334 24.833 35.001 41.5s13 38 13 64c0 30 -0.333008 59.667 -1 89s-1 59 -1 89c0 20 7.66699 35.333 23 46
s31.333 18.667 48 24c-16 6 -33 9 -51 9c-40 0 -70 -11.667 -90 -35s-30 -54 -30 -92c0 -28 0.166992 -55.333 0.5 -82s0.5 -54 0.5 -82c0 -16 -3.66699 -30.167 -11 -42.5s-16.833 -22.833 -28.5 -31.5s-24.667 -15.667 -39 -21s-28.5 -9 -42.5 -11v-18
c14.667 -1.33301 29.167 -4.83301 43.5 -10.5s27.333 -13 39 -22s21 -20 28 -33s10.5 -27.833 10.5 -44.5c0 -28.667 -0.166992 -57.334 -0.5 -86.001s-0.5 -57.334 -0.5 -86.001z" />
    <glyph glyph-name="bar" unicode="|" horiz-adv-x="140" 
d="M95 680h-50v-779h50v779z" />
    <glyph glyph-name="braceright" unicode="}" horiz-adv-x="335" 
d="M25 -129c16 -6.66699 33.666 -9.99512 52.999 -9.99512c38.667 0 68 11.667 88 35s30 53.666 30 90.999c0 28 -0.166992 55.667 -0.5 83s-0.5 55 -0.5 83c0 16 3.66699 30.167 11 42.5s16.833 22.833 28.5 31.5s24.667 15.667 39 21s28.5 8.66602 42.5 9.99902v18
c-15.333 2 -30.166 5.83301 -44.499 11.5s-27.166 13 -38.499 22s-20.5 19.833 -27.5 32.5s-10.5 27.667 -10.5 45c0 28 0.166992 56 0.5 84s0.5 56 0.5 84c0 35.333 -11.333 63.833 -34 85.5s-51.334 32.5 -86.001 32.5c-18 0 -35 -3 -51 -9
c16.667 -4 32.667 -11.833 48 -23.5s23 -27.167 23 -46.5c0 -28.667 -0.5 -57.334 -1.5 -86.001s-1.5 -57.334 -1.5 -86.001c0 -26.667 4 -48.834 12 -66.501s19.167 -32.167 33.5 -43.5s31.333 -20.333 51 -27s40.834 -12.667 63.501 -18
c-22.667 -5.33301 -43.834 -11.333 -63.501 -18s-36.667 -15.667 -51 -27s-25.5 -25.666 -33.5 -42.999s-12 -39.666 -12 -66.999c0 -28.667 0.5 -57.334 1.5 -86.001s1.5 -57.334 1.5 -86.001c0 -19.333 -7.5 -34.833 -22.5 -46.5s-31.167 -19.167 -48.5 -22.5z" />
    <glyph glyph-name="asciitilde" unicode="~" horiz-adv-x="598" 
d="M59 569c2.66699 8 5.83008 16.333 9.49707 25s8.16699 16.5 13.5 23.5s11.5 12.833 18.5 17.5s15.5 7 25.5 7c2 0 5.66699 -0.5 11 -1.5s9 -1.83301 11 -2.5l205 -69c15.333 -5.33301 31 -9.83301 47 -13.5s32 -5.5 48 -5.5c23.333 0 42.833 4.33301 58.5 13
s28.334 20.167 38.001 34.5s16.834 31 21.501 50s7.33398 38.5 8.00098 58.5l-31 5c-5.33301 -16 -13.333 -31.5 -24 -46.5s-25.667 -22.5 -45 -22.5c-4 0 -7.66699 0.333008 -11 1s-7 1.66699 -11 3l-217 66c-29.333 9.33301 -58.333 14 -87 14
c-23.333 0 -42.833 -4.16699 -58.5 -12.5s-28.167 -19.5 -37.5 -33.5s-16 -30.167 -20 -48.5s-6 -37.833 -6 -58.5z" />
    <glyph glyph-name="uni00A0" unicode="&#xa0;" horiz-adv-x="291" 
 />
    <glyph glyph-name="exclamdown" unicode="&#xa1;" horiz-adv-x="201" 
d="M99 -213c21.333 0 39.167 7.66699 53.5 23s21.5 33.333 21.5 54c0 5.33301 -0.333008 9.33301 -1 12l-63 431h-21l-62 -431c-0.666992 -3.33301 -1 -8 -1 -14c0 -20 7 -37.5 21 -52.5s31.333 -22.5 52 -22.5zM35.001 415c0 -16.667 6.33203 -31.332 18.999 -43.999
s27.334 -19 44.001 -19c18 0 34 5.66699 48 17s21 26.666 21 45.999c0 18.667 -6 35 -18 49s-27.667 21 -47 21c-20 0 -36.167 -6.83301 -48.5 -20.5s-18.5 -30.167 -18.5 -49.5z" />
    <glyph glyph-name="cent" unicode="&#xa2;" horiz-adv-x="499" 
d="M33 333c0 -32.667 5.6709 -63.667 17.0039 -93s27.333 -55 48 -77s45 -39.333 73 -52s59 -19 93 -19v-92h28v94c26 4 49.167 11.833 69.5 23.5s37.666 26.334 51.999 44.001s26 37.667 35 60s15.5 45.833 19.5 70.5h-15
c-4.66699 -17.333 -10.834 -35.166 -18.501 -53.499s-17.5 -35 -29.5 -50s-26 -27.167 -42 -36.5s-34.333 -14 -55 -14h-8c-2.66699 0 -5.33398 0.333008 -8.00098 1v425c21.333 -0.666992 35.666 -6.83398 42.999 -18.501s13.166 -24 17.499 -37s9.33301 -25 15 -36
s17.5 -16.5 35.5 -16.5c11.333 0 21 3.5 29 10.5s12 16.5 12 28.5c0 15.333 -5.66699 28.5 -17 39.5s-25 20.333 -41 28s-32.667 13.5 -50 17.5s-32 6.33301 -44 7v93h-28v-93c-36.667 -0.666992 -69.5 -7.66699 -98.5 -21s-53.167 -31.333 -72.5 -54
s-34.166 -49.334 -44.499 -80.001s-15.5 -63.667 -15.5 -99zM152.004 345c0 17.333 2 37.832 6 61.499s10.5 46.5 19.5 68.5s20.5 41.5 34.5 58.5s31.333 26.833 52 29.5v-419c-20 6.66699 -37.167 17.334 -51.5 32.001s-26 31.167 -35 49.5s-15.5 38 -19.5 59
s-6 41.167 -6 60.5z" />
    <glyph glyph-name="sterling" unicode="&#xa3;" horiz-adv-x="596" 
d="M106 -10c30 0 56.165 7.33398 78.498 22.001s42.166 33.667 59.499 57c14 -6.66699 28.833 -14.334 44.5 -23.001s31.5 -16.667 47.5 -24s32.333 -13.5 49 -18.5s33 -7.5 49 -7.5c40.667 0 72.667 10.167 96 30.5s35 51.5 35 93.5
c-17.333 -15.333 -36 -25.666 -56 -30.999s-41.333 -8 -64 -8c-31.333 0 -61.666 4.16699 -90.999 12.5s-59 15.833 -89 22.5c13.333 37.333 22.333 76 27 116s7.66699 80 9 120l131 23h-131v218c0 24.667 5.33301 43.667 16 57s29 20 55 20c8 0 17 -1 27 -3
s19.167 -5 27.5 -9s15.5 -9.5 21.5 -16.5s9 -15.5 9 -25.5s-1.5 -20 -4.5 -30s-4.5 -20 -4.5 -30c0 -12.667 4.66699 -22.5 14 -29.5s19.666 -10.5 30.999 -10.5c15.333 0 26.833 5.33301 34.5 16s11.5 23 11.5 37c0 21.333 -5.83301 39.666 -17.5 54.999
s-26.167 28.333 -43.5 39s-36.166 18.5 -56.499 23.5s-39.5 7.5 -57.5 7.5c-24 0 -46.5 -4.16699 -67.5 -12.5s-39.333 -19.833 -55 -34.5s-28.167 -32.167 -37.5 -52.5s-14 -42.5 -14 -66.5c0 -25.333 0.5 -50.833 1.5 -76.5s1.83301 -51.167 2.5 -76.5l-87 -23h88l5 -135
c0.666992 -26.667 -1 -55 -5 -85c-13.333 2.66699 -26.5 4.66699 -39.5 6s-26.167 2 -39.5 2c-12 0 -23.667 -1.5 -35 -4.5s-21.666 -7.66699 -30.999 -14s-16.833 -14.333 -22.5 -24s-8.5 -21.167 -8.5 -34.5c0 -25.333 8.83301 -43.833 26.5 -55.5
s37.834 -17.5 60.501 -17.5zM115.998 112.001c13.333 0 26.001 -2.16699 38.001 -6.5l36 -12.5c-2.66699 -19.333 -10 -37 -22 -53s-29 -24 -51 -24c-15.333 0 -27.333 5 -36 15s-13 22.333 -13 37c0 14 4.66699 24.833 14 32.5s20.666 11.5 33.999 11.5z" />
    <glyph glyph-name="currency" unicode="&#xa4;" horiz-adv-x="498" 
d="M89 491c-17.333 -19.333 -30.334 -41.333 -39.001 -66s-13 -50 -13 -76c0 -24.667 4.33301 -48.5 13 -71.5s21.334 -43.833 38.001 -62.5l-52 -52l22 -22l52 51c40.667 -33.333 87.334 -50 140.001 -50c25.333 0 49.5 4.5 72.5 13.5s44.167 21.5 63.5 37.5l53 -52l23 22
l-53 53c17.333 19.333 30.333 41.333 39 66s13 49.667 13 75s-4.33301 49.666 -13 72.999s-21.334 44.333 -38.001 63l52 51l-23 23l-51 -52c-18.667 16.667 -39.5 29.334 -62.5 38.001s-46.833 13 -71.5 13c-26 0 -51.333 -4.5 -76 -13.5s-47 -21.833 -67 -38.5l-53 53
l-22 -23zM93.999 355c0 22 3.99609 42.333 11.9961 61s19 35 33 49s30.333 24.833 49 32.5s39 11.5 61 11.5c21.333 0 41.5 -4 60.5 -12s35.5 -19 49.5 -33s25 -30.5 33 -49.5s12 -39.167 12 -60.5c0 -20.667 -4 -40.5 -12 -59.5s-18.833 -35.667 -32.5 -50
s-29.667 -25.666 -48 -33.999s-38.166 -12.5 -59.499 -12.5s-41.666 4.16699 -60.999 12.5s-36.166 19.666 -50.499 33.999s-25.666 31 -33.999 50s-12.5 39.167 -12.5 60.5z" />
    <glyph glyph-name="yen" unicode="&#xa5;" horiz-adv-x="674" 
d="M212 412l-99.001 0.00195312v-26h116c8 -14.667 16.5 -29.167 25.5 -43.5s15.5 -29.833 19.5 -46.5h-161v-27h164c0.666992 -8 1.16699 -16 1.5 -24s0.5 -16 0.5 -24v-117c0 -26.667 -6.83301 -50.667 -20.5 -72s-35.167 -32 -64.5 -32h290c-30 0 -52 10.5 -66 31.5
s-21 45.167 -21 72.5v165h166v27h-166v20c0 14 1 26.333 3 37s7.66699 21.667 17 33h146v26h-128l110 163c6.66699 10 14.667 21 24 33s19.666 23.333 30.999 34s23.333 19.667 36 27s25.334 11 38.001 11h-171c12.667 0 23.167 -3 31.5 -9s12.5 -15.667 12.5 -29
c0 -12.667 -2.66699 -24.5 -8 -35.5s-11.666 -21.5 -18.999 -31.5l-140 -199l-126 199c-5.33301 9.33301 -10.333 19.166 -15 29.499s-7 21.166 -7 32.499c0 15.333 4.83301 26.333 14.5 33s21.5 10 35.5 10h-280c12 0 23.5 -3.66699 34.5 -11s21.167 -16.5 30.5 -27.5
s17.833 -22.333 25.5 -34s14.167 -22.167 19.5 -31.5z" />
    <glyph glyph-name="section" unicode="&#xa7;" horiz-adv-x="474" 
d="M35 329c0 -18 4.66699 -35.3389 14 -52.0059c5.33301 -9.33301 18.5 -23.333 39.5 -42l69.5 -59l74 -59l53 -41c28.667 -22 43 -50.667 43 -86c0 -32 -10 -56.667 -30 -74s-45.333 -26 -76 -26c-7.33301 0 -15.666 1 -24.999 3s-18 5 -26 9s-14.833 9.33301 -20.5 16
s-8.5 14.667 -8.5 24c0 10 1.66699 19.5 5 28.5s5 18.5 5 28.5c0 12 -4.33301 22 -13 30s-19 12 -31 12c-15.333 0 -26.666 -5.16699 -33.999 -15.5s-11 -22.5 -11 -36.5c0 -20 5.33301 -37.5 16 -52.5s24 -27.833 40 -38.5s33.667 -18.667 53 -24s37.666 -8 54.999 -8
c22 0 43.667 3.83301 65 11.5s40.333 18.334 57 32.001s30.167 30.167 40.5 49.5s15.5 41 15.5 65c0 38 -12.667 70 -38 96c19.333 10 35.833 24.333 49.5 43s20.5 39.334 20.5 62.001c0 18 -4.66699 35.333 -14 52c-6 10 -19.333 24.333 -40 43s-43.667 38.167 -69 58.5
l-73.5 58l-53.5 42.5c-28.667 23.333 -43 52 -43 86c0 31.333 10.167 55.833 30.5 73.5s45.5 26.5 75.5 26.5c7.33301 0 15.666 -1 24.999 -3s18 -5 26 -9s14.833 -9.33301 20.5 -16s8.5 -14.667 8.5 -24c0 -10 -1.83301 -19.667 -5.5 -29s-5.5 -19 -5.5 -29
c0 -12 4.66699 -21.833 14 -29.5s19.666 -11.5 30.999 -11.5c17.333 0 29 5.83301 35 17.5s9 24.834 9 39.501c0 11.333 -3 22.666 -9 33.999s-12.667 21 -20 29c-19.333 20.667 -41 35 -65 43s-49.667 12 -77 12c-21.333 0 -42.333 -4 -63 -12s-39 -19.167 -55 -33.5
s-28.833 -31.166 -38.5 -50.499s-14.5 -40.333 -14.5 -63c0 -37.333 12.667 -68.666 38 -93.999c-19.333 -11.333 -35.666 -26.166 -48.999 -44.499s-20 -39.166 -20 -62.499zM115 424.994c2 -2 4 -4.16895 6 -6.50195s4 -4.16602 6 -5.49902l195 -156
c12.667 -10 23 -22.5 31 -37.5s12 -30.833 12 -47.5c0 -7.33301 -0.666992 -14.5 -2 -21.5s-3 -14.167 -5 -21.5c-2.66699 2.66699 -5 5.16699 -7 7.5s-4.33301 4.5 -7 6.5l-193 154c-13.333 10.667 -24 23 -32 37s-12 29.667 -12 47c0 14.667 2.66699 29.334 8 44.001z" />
    <glyph glyph-name="dieresis" unicode="&#xa8;" horiz-adv-x="436" 
d="M26 572c0 -18.667 6.33105 -34.5 18.998 -47.5s28.334 -19.5 47.001 -19.5s34.334 6.5 47.001 19.5s19 28.833 19 47.5c0 17.333 -6.5 32.833 -19.5 46.5s-28.167 20.5 -45.5 20.5c-18.667 0 -34.5 -6.5 -47.5 -19.5s-19.5 -28.833 -19.5 -47.5zM337.998 506
c20 0 36.832 5.66797 50.499 17.001s20.5 27.666 20.5 48.999c0 17.333 -6.83301 32.833 -20.5 46.5s-29.167 20.5 -46.5 20.5c-19.333 0 -35.166 -6.33301 -47.499 -19s-18.5 -28.667 -18.5 -48c0 -18 5.5 -33.5 16.5 -46.5s26.167 -19.5 45.5 -19.5z" />
    <glyph glyph-name="copyright" unicode="&#xa9;" horiz-adv-x="559" 
d="M278 -9c33.333 0 65.001 6.33301 95.001 19s56.333 30 79 52s40.5 47.833 53.5 77.5s19.5 61.5 19.5 95.5c0 33.333 -6.33301 65 -19 95s-29.834 56.333 -51.501 79s-47.334 40.5 -77.001 53.5s-61.5 19.5 -95.5 19.5s-66 -6.33301 -96 -19s-56.167 -30.167 -78.5 -52.5
s-40.166 -48.333 -53.499 -78s-20 -61.5 -20 -95.5c0 -33.333 6.33301 -65 19 -95s30 -56.167 52 -78.5s47.833 -40 77.5 -53s61.5 -19.5 95.5 -19.5zM282.001 456c30 0 58.165 -5.66504 84.498 -16.998s49.333 -26.833 69 -46.5s35.334 -42.667 47.001 -69
s17.5 -54.5 17.5 -84.5s-5.66699 -58.167 -17 -84.5s-26.833 -49.5 -46.5 -69.5s-42.667 -35.833 -69 -47.5s-54.5 -17.5 -84.5 -17.5s-58.167 5.66699 -84.5 17s-49.5 26.666 -69.5 45.999s-35.833 42.166 -47.5 68.499s-17.5 54.5 -17.5 84.5s5.66699 58.333 17 85
s26.833 50 46.5 70s42.834 35.833 69.501 47.5s55 17.5 85 17.5zM284.999 75.002c38.667 0 69.1699 12.6641 91.5029 37.9971s36.5 56 42.5 92h-11c-2.66699 -12.667 -6.66699 -25 -12 -37s-12 -22.667 -20 -32s-17.333 -16.833 -28 -22.5s-23.334 -8.5 -38.001 -8.5
c-17.333 0 -32.166 4.33301 -44.499 13s-22.5 19.834 -30.5 33.501s-13.833 28.5 -17.5 44.5s-5.5 31.333 -5.5 46c0 14 1.5 29.333 4.5 46s8 32 15 46s16.5 25.833 28.5 35.5s26.667 14.5 44 14.5c12 0 20.667 -3.66699 26 -11s9.66602 -15.333 12.999 -24
s7.5 -16.667 12.5 -24s13.167 -11 24.5 -11c7.33301 0 13.166 2.83301 17.499 8.5s6.5 11.834 6.5 18.501c0 10.667 -4.33301 19.667 -13 27s-19 13.333 -31 18s-24.333 8 -37 10s-23 3 -31 3c-50 0 -88.833 -15.667 -116.5 -47s-41.5 -71.333 -41.5 -120
c0 -21.333 3.83301 -41.5 11.5 -60.5s18.167 -35.667 31.5 -50s29.166 -25.666 47.499 -33.999s38.5 -12.5 60.5 -12.5z" />
    </font>
</defs>
</svg>
