<?xml version="1.0" standalone="no"?>
<!DOCTYPE svg PUBLIC "-//W3C//DTD SVG 1.1//EN" "http://www.w3.org/Graphics/SVG/1.1/DTD/svg11.dtd" >
<svg>
<metadata>
Created by FontForge 20090914 at Thu Sep  1 13:48:21 2022
 By www-data
&#194;&#169; 2013 Microsoft Corporation. All Rights Reserved.
</metadata>
<defs>
<font id="SitkaSmall-Italic" horiz-adv-x="0" >
  <font-face 
    font-family="Sitka Small"
    font-weight="400"
    font-style="italic"
    font-variant="small-caps"
    font-stretch="normal"
    units-per-em="2200"
    panose-1="2 0 5 5 0 0 0 9 0 4"
    ascent="1665"
    descent="-535"
    x-height="1109"
    cap-height="1451"
    bbox="-1061 -665 3285.01 2509"
    underline-thickness="102"
    underline-position="-103"
    slope="-12"
    unicode-range="U+0020-U+FB04"
  />
<missing-glyph horiz-adv-x="1100" 
d="M0 1575h1100v-1575h-1100v1575zM89 86h922v1403h-922v-1403z" />
    <glyph glyph-name="uniFB00" unicode="ff" horiz-adv-x="1694" 
d="M-172 -501c-12 0 -24.1709 0.670898 -36.5039 2.00391s-25 3.16602 -38 5.49902s-26 4.83301 -39 7.5l-37.5 8v197h44l43 -16c14.667 -5.33301 30.334 -10.5 47.001 -15.5s34.167 -9 52.5 -12s38.5 -4.5 60.5 -4.5c28.667 0 54.667 3.33301 78 10s44 18 62 34
c6 5.33301 14 17.833 24 37.5s20.833 45.667 32.5 78s23.667 70.5 36 114.5s23.833 93.333 34.5 148l164 829h-196v125h226c26.667 98.667 57.5 181.667 92.5 249s74.333 121.666 118 162.999s91.5 71 143.5 89s108.333 27 169 27c12 0 25.333 -0.833008 40 -2.5
s29.667 -3.66699 45 -6s30.666 -5 45.999 -8s29 -5.83301 41 -8.5v-194h-43l-44.5 17.5c-16.333 6.33301 -33.666 12.166 -51.999 17.499s-37.666 9.83301 -57.999 13.5s-41.166 5.5 -62.499 5.5c-28 0 -52 -2 -72 -6s-36.667 -9.33301 -50 -16s-23.666 -14.5 -30.999 -23.5
s-12.666 -18.5 -15.999 -28.5c-4 -12.667 -8.33301 -28.334 -13 -47.001l-15.5 -64.5l-18 -81c-6.33301 -29.667 -12.833 -61.834 -19.5 -96.501h284v-125h-309l-169 -856c-16.667 -83.333 -43.834 -159.666 -81.501 -228.999s-82 -129 -133 -179s-106.5 -89 -166.5 -117
s-120.667 -42 -182 -42zM679.996 -500.996c-12 0 -24.1709 0.670898 -36.5039 2.00391s-25 3.16602 -38 5.49902s-26 4.83301 -39 7.5l-37.5 8v197h44l43 -16c14.667 -5.33301 30.334 -10.5 47.001 -15.5s34.167 -9 52.5 -12s38.5 -4.5 60.5 -4.5
c28.667 0 54.667 3.33301 78 10s44 18 62 34c6 5.33301 14 17.833 24 37.5s20.833 45.667 32.5 78s23.667 70.5 36 114.5s23.833 93.333 34.5 148l164 829h-196v125h226c26.667 98.667 57.5 181.667 92.5 249s74.333 121.666 118 162.999s91.5 71 143.5 89
s108.333 27 169 27c12 0 25.333 -0.833008 40 -2.5s29.667 -3.66699 45 -6s30.666 -5 45.999 -8s29 -5.83301 41 -8.5v-194h-43l-44.5 17.5c-16.333 6.33301 -33.666 12.166 -51.999 17.499s-37.666 9.83301 -57.999 13.5s-41.166 5.5 -62.499 5.5c-28 0 -52 -2 -72 -6
s-36.667 -9.33301 -50 -16s-23.666 -14.5 -30.999 -23.5s-12.666 -18.5 -15.999 -28.5c-4 -12.667 -8.33301 -28.334 -13 -47.001l-15.5 -64.5l-18 -81c-6.33301 -29.667 -12.833 -61.834 -19.5 -96.501h284v-125h-309l-169 -856
c-16.667 -83.333 -43.834 -159.666 -81.501 -228.999s-82 -129 -133 -179s-106.5 -89 -166.5 -117s-120.667 -42 -182 -42z" />
    <glyph glyph-name="uniFB01" unicode="fi" horiz-adv-x="1631" 
d="M-172 -501c-12 0 -24.1719 0.670898 -36.5049 2.00391s-25 3.16602 -38 5.49902s-26 4.83301 -39 7.5l-37.5 8v197h44l43 -16c14.667 -5.33301 30.334 -10.5 47.001 -15.5s34.167 -9 52.5 -12s38.5 -4.5 60.5 -4.5c28.667 0 55.334 3.83301 80.001 11.5
s44.667 18.5 60 32.5c6 5.33301 14 17.833 24 37.5s20.833 45.667 32.5 78s23.667 70.5 36 114.5s23.833 93.333 34.5 148l164 829h-196v125h226c26.667 98.667 57.5 181.667 92.5 249s74.333 121.666 118 162.999s91.5 71 143.5 89s108.333 27 169 27
c12 0 25.333 -0.833008 40 -2.5s29.667 -3.66699 45 -6s30.666 -5 45.999 -8s29 -5.83301 41 -8.5v-194h-43l-44.5 17.5c-16.333 6.33301 -33.666 12.166 -51.999 17.499s-37.666 9.83301 -57.999 13.5s-41.166 5.5 -62.499 5.5c-28 0 -52 -2 -72 -6
s-36.667 -9.33301 -50 -16s-23.666 -14.5 -30.999 -23.5s-12.666 -18.5 -15.999 -28.5c-4 -12.667 -8.33301 -28.334 -13 -47.001l-15.5 -64.5l-18 -81c-6.33301 -29.667 -12.833 -61.834 -19.5 -96.501h284v-125h-309l-169 -856
c-16.667 -83.333 -43.834 -159.666 -81.501 -228.999s-82 -129 -133 -179s-106.5 -89 -166.5 -117s-120.667 -42 -182 -42zM1233 -15.9961c-32 0 -59.001 5.33398 -81.001 16.001s-39.833 23.834 -53.5 39.501s-23.667 32.667 -30 51s-9.5 35.166 -9.5 50.499
c0 17.333 2.5 38.666 7.5 63.999s10.833 53.333 17.5 84l129 588c0.666992 2.66699 1.16699 5.16699 1.5 7.5s0.5 4.16602 0.5 5.49902c0 6.66699 -2.66699 12.834 -8 18.501s-12.333 10.5 -21 14.5l-155 70v82l442 53l-161 -733c-3.33301 -18 -7 -36.167 -11 -54.5
l-11 -51.5c-3.33301 -16 -6 -30.333 -8 -43s-3 -22 -3 -28c0 -10.667 1.5 -21.334 4.5 -32.001s8.33301 -20.167 16 -28.5s18.167 -15.166 31.5 -20.499s30.666 -8 51.999 -8c6.66699 0 14.5 0.666992 23.5 2s18.667 3.16602 29 5.49902s21.333 5.33301 33 9
s23.834 7.83398 36.501 12.501h39v-100c-28.667 -16 -57.667 -28.833 -87 -38.5s-57.666 -17.167 -84.999 -22.5s-52.833 -8.83301 -76.5 -10.5s-44.5 -2.5 -62.5 -2.5zM1407.99 1306c-19.333 0 -37.8311 3.00098 -55.498 9.00098s-33.167 14.5 -46.5 25.5
s-24 24.667 -32 41s-12 35.166 -12 56.499c0 22.667 4 42.5 12 59.5s18.667 31.333 32 43s28.833 20.334 46.5 26.001s36.167 8.5 55.5 8.5c22.667 0 43.334 -2.5 62.001 -7.5s34.667 -12.833 48 -23.5s23.666 -23.834 30.999 -39.501s11 -34.167 11 -55.5
c0 -22.667 -3.83301 -42.834 -11.5 -60.501s-18.334 -32.667 -32.001 -45s-29.834 -21.666 -48.501 -27.999s-38.667 -9.5 -60 -9.5z" />
    <glyph glyph-name="uniFB02" unicode="fl" horiz-adv-x="1626" 
d="M-172 -501c-12 0 -24.1719 0.674805 -36.5049 2.00781s-25 3.16602 -38 5.49902s-26 4.83301 -39 7.5l-37.5 8v197h44l43 -16c14.667 -5.33301 30.334 -10.5 47.001 -15.5s34.167 -9 52.5 -12s38.5 -4.5 60.5 -4.5c28.667 0 54.834 3.5 78.501 10.5
s44.167 18.167 61.5 33.5c6 5.33301 14 17.666 24 36.999s20.833 45.166 32.5 77.499s23.667 70.666 36 114.999s23.833 93.833 34.5 148.5l164 829h-196v125h226c26.667 98.667 57.5 181.667 92.5 249s74.333 121.666 118 162.999s91.5 71 143.5 89s108.333 27 169 27
c12 0 25.333 -0.833008 40 -2.5s29.667 -3.66699 45 -6s30.666 -5 45.999 -8s29 -5.83301 41 -8.5v-194h-43l-44.5 17.5c-16.333 6.33301 -33.666 12.166 -51.999 17.499s-37.666 9.83301 -57.999 13.5s-41.166 5.5 -62.499 5.5c-28 0 -52 -1.83301 -72 -5.5
s-36.667 -8.83398 -50 -15.501s-23.666 -14.5 -30.999 -23.5s-12.666 -18.833 -15.999 -29.5c-4 -12.667 -8.33301 -28.334 -13 -47.001l-15.5 -64.5l-18 -81c-6.33301 -29.667 -12.833 -61.834 -19.5 -96.501h284v-125h-309l-169 -856
c-16.667 -83.333 -43.834 -159.666 -81.501 -228.999s-82 -129 -133 -179s-106.5 -89 -166.5 -117s-120.667 -42 -182 -42zM1234 -15.9922c-32 0 -59.501 5.33301 -82.501 16s-42 23.834 -57 39.501s-26 32.667 -33 51s-10.5 35.166 -10.5 50.499
c0 17.333 2.5 39.166 7.5 65.499s10.833 53.833 17.5 82.5l238 1074c0.666992 2.66699 1.16699 5 1.5 7s0.5 3.66699 0.5 5c0 7.33301 -3 14 -9 20s-13 10.667 -21 14l-157 64v85h433l-265 -1193l-10 -46l-9 -43c-2.66699 -13.333 -4.66699 -25.166 -6 -35.499
s-2 -17.833 -2 -22.5c0 -10.667 2 -21.334 6 -32.001s10.5 -20.167 19.5 -28.5s20.667 -15.166 35 -20.499s32.166 -8 53.499 -8c6.66699 0 14.5 0.666992 23.5 2s18.667 3.16602 29 5.49902s21.333 5.33301 33 9s23.834 7.83398 36.501 12.501h39v-100
c-28.667 -16 -57.667 -28.833 -87 -38.5s-57.666 -17.167 -84.999 -22.5s-52.833 -8.83301 -76.5 -10.5s-44.5 -2.5 -62.5 -2.5z" />
    <glyph glyph-name="uniFB03" unicode="ffi" horiz-adv-x="2485" 
d="M-172 -501c-12 0 -24.1709 0.670898 -36.5039 2.00391s-25 3.16602 -38 5.49902s-26 4.83301 -39 7.5l-37.5 8v197h44l43 -16c14.667 -5.33301 30.334 -10.5 47.001 -15.5s34.167 -9 52.5 -12s38.5 -4.5 60.5 -4.5c28.667 0 54.667 3.33301 78 10s44 18 62 34
c6 5.33301 14 17.833 24 37.5s20.833 45.667 32.5 78s23.667 70.5 36 114.5s23.833 93.333 34.5 148l164 829h-196v125h226c26.667 98.667 57.5 181.667 92.5 249s74.333 121.666 118 162.999s91.5 71 143.5 89s108.333 27 169 27c12 0 25.333 -0.833008 40 -2.5
s29.667 -3.66699 45 -6s30.666 -5 45.999 -8s29 -5.83301 41 -8.5v-194h-43l-44.5 17.5c-16.333 6.33301 -33.666 12.166 -51.999 17.499s-37.666 9.83301 -57.999 13.5s-41.166 5.5 -62.499 5.5c-28 0 -52 -2 -72 -6s-36.667 -9.33301 -50 -16s-23.666 -14.5 -30.999 -23.5
s-12.666 -18.5 -15.999 -28.5c-4 -12.667 -8.33301 -28.334 -13 -47.001l-15.5 -64.5l-18 -81c-6.33301 -29.667 -12.833 -61.834 -19.5 -96.501h284v-125h-309l-169 -856c-16.667 -83.333 -43.834 -159.666 -81.501 -228.999s-82 -129 -133 -179s-106.5 -89 -166.5 -117
s-120.667 -42 -182 -42zM679.996 -500.996c-12 0 -24.1709 0.670898 -36.5039 2.00391s-25 3.16602 -38 5.49902s-26 4.83301 -39 7.5l-37.5 8v197h44l43 -16c14.667 -5.33301 30.334 -10.5 47.001 -15.5s34.167 -9 52.5 -12s38.5 -4.5 60.5 -4.5
c28.667 0 54.667 3.33301 78 10s44 18 62 34c6 5.33301 14 17.833 24 37.5s20.833 45.667 32.5 78s23.667 70.5 36 114.5s23.833 93.333 34.5 148l164 829h-196v125h226c26.667 98.667 57.5 181.667 92.5 249s74.333 121.666 118 162.999s91.5 71 143.5 89
s108.333 27 169 27c12 0 25.333 -0.833008 40 -2.5s29.667 -3.66699 45 -6s30.666 -5 45.999 -8s29 -5.83301 41 -8.5v-194h-43l-44.5 17.5c-16.333 6.33301 -33.666 12.166 -51.999 17.499s-37.666 9.83301 -57.999 13.5s-41.166 5.5 -62.499 5.5c-28 0 -52 -2 -72 -6
s-36.667 -9.33301 -50 -16s-23.666 -14.5 -30.999 -23.5s-12.666 -18.5 -15.999 -28.5c-4 -12.667 -8.33301 -28.334 -13 -47.001l-15.5 -64.5l-18 -81c-6.33301 -29.667 -12.833 -61.834 -19.5 -96.501h284v-125h-309l-169 -856
c-16.667 -83.333 -43.834 -159.666 -81.501 -228.999s-82 -129 -133 -179s-106.5 -89 -166.5 -117s-120.667 -42 -182 -42zM2261.99 1306.01c-19.333 0 -37.833 3.00098 -55.5 9.00098s-33.167 14.5 -46.5 25.5s-24 24.667 -32 41s-12 35.166 -12 56.499
c0 22.667 4 42.5 12 59.5s18.667 31.333 32 43s28.833 20.334 46.5 26.001s36.167 8.5 55.5 8.5c22.667 0 43.334 -2.5 62 -7.5c18.667 -5 34.667 -12.833 48 -23.5s23.666 -23.834 31 -39.501c7.33301 -15.667 11 -34.167 11 -55.5
c0 -22.667 -3.83301 -42.834 -11.5 -60.501s-18.334 -32.667 -32 -45c-13.667 -12.333 -29.834 -21.666 -48.5 -27.999c-18.667 -6.33301 -38.667 -9.5 -60 -9.5zM2086.99 -15.9912c-32 0 -59 5.33398 -81 16.001s-39.833 23.834 -53.5 39.501s-23.667 32.667 -30 51
s-9.5 35.166 -9.5 50.499c0 17.333 2.5 38.666 7.5 63.999s10.833 53.333 17.5 84l129 588c3.33301 13.333 2.16602 23.166 -3.5 29.499c-5.66699 6.33301 -13.5 11.833 -23.5 16.5l-155 70v82l442 53l-154 -703c0 -0.666992 -1 -5.66699 -3 -15l-7.5 -35.5l-9.5 -47
l-9.5 -48c-3 -15 -5.5 -28.167 -7.5 -39.5s-3 -18.666 -3 -21.999c0 -10.667 1.5 -21.334 4.5 -32.001s8.33301 -20.167 16 -28.5s18.167 -15.166 31.5 -20.499s30.666 -8 52 -8c6.66699 0 14.5 0.666992 23.5 2s18.667 3.16602 29 5.49902s21.333 5.33301 33 9
s23.834 7.83398 36.5 12.501h39v-100c-28.667 -16 -57.667 -28.833 -87 -38.5s-57.666 -17.167 -85 -22.5c-27.333 -5.33301 -52.833 -8.83301 -76.5 -10.5s-44.5 -2.5 -62.5 -2.5z" />
    <glyph glyph-name="uniFB04" unicode="ffl" horiz-adv-x="2476" 
d="M-172 -501c-12 0 -24.1709 0.670898 -36.5039 2.00391s-25 3.16602 -38 5.49902s-26 4.83301 -39 7.5l-37.5 8v197h44l43 -16c14.667 -5.33301 30.334 -10.5 47.001 -15.5s34.167 -9 52.5 -12s38.5 -4.5 60.5 -4.5c28.667 0 54.667 3.33301 78 10s44 18 62 34
c6 5.33301 14 17.833 24 37.5s20.833 45.667 32.5 78s23.667 70.5 36 114.5s23.833 93.333 34.5 148l164 829h-196v125h226c26.667 98.667 57.5 181.667 92.5 249s74.333 121.666 118 162.999s91.5 71 143.5 89s108.333 27 169 27c12 0 25.333 -0.833008 40 -2.5
s29.667 -3.66699 45 -6s30.666 -5 45.999 -8s29 -5.83301 41 -8.5v-194h-43l-44.5 17.5c-16.333 6.33301 -33.666 12.166 -51.999 17.499s-37.666 9.83301 -57.999 13.5s-41.166 5.5 -62.499 5.5c-28 0 -52 -2 -72 -6s-36.667 -9.33301 -50 -16s-23.666 -14.5 -30.999 -23.5
s-12.666 -18.5 -15.999 -28.5c-4 -12.667 -8.33301 -28.334 -13 -47.001l-15.5 -64.5l-18 -81c-6.33301 -29.667 -12.833 -61.834 -19.5 -96.501h284v-125h-309l-169 -856c-16.667 -83.333 -43.834 -159.666 -81.501 -228.999s-82 -129 -133 -179s-106.5 -89 -166.5 -117
s-120.667 -42 -182 -42zM679.996 -500.996c-12 0 -24.1709 0.670898 -36.5039 2.00391s-25 3.16602 -38 5.49902s-26 4.83301 -39 7.5l-37.5 8v197h44l43 -16c14.667 -5.33301 30.334 -10.5 47.001 -15.5s34.167 -9 52.5 -12s38.5 -4.5 60.5 -4.5
c28.667 0 54.667 3.33301 78 10s44 18 62 34c6 5.33301 14 17.833 24 37.5s20.833 45.667 32.5 78s23.667 70.5 36 114.5s23.833 93.333 34.5 148l164 829h-196v125h226c26.667 98.667 57.5 181.667 92.5 249s74.333 121.666 118 162.999s91.5 71 143.5 89
s108.333 27 169 27c12 0 25.333 -0.833008 40 -2.5s29.667 -3.66699 45 -6s30.666 -5 45.999 -8s29 -5.83301 41 -8.5v-194h-43l-44.5 17.5c-16.333 6.33301 -33.666 12.166 -51.999 17.499s-37.666 9.83301 -57.999 13.5s-41.166 5.5 -62.499 5.5c-28 0 -52 -2 -72 -6
s-36.667 -9.33301 -50 -16s-23.666 -14.5 -30.999 -23.5s-12.666 -18.5 -15.999 -28.5c-4 -12.667 -8.33301 -28.334 -13 -47.001l-15.5 -64.5l-18 -81c-6.33301 -29.667 -12.833 -61.834 -19.5 -96.501h284v-125h-309l-169 -856
c-16.667 -83.333 -43.834 -159.666 -81.501 -228.999s-82 -129 -133 -179s-106.5 -89 -166.5 -117s-120.667 -42 -182 -42zM2085.99 -15.9922c-32 0 -59.5 5.33301 -82.5 16s-42 23.834 -57 39.501s-26 32.667 -33 51s-10.5 35.166 -10.5 50.499
c0 17.333 2.5 39.166 7.5 65.499s10.833 53.833 17.5 82.5l238 1074c3.33301 14.667 1.83301 25 -4.5 31s-14.166 11 -23.5 15l-157 64v85h433l-265 -1193l-10 -46l-9 -43c-2.66699 -13.333 -4.66699 -25.166 -6 -35.499s-2 -17.833 -2 -22.5c0 -10.667 2 -21.334 6 -32.001
s10.5 -20.167 19.5 -28.5s20.667 -15.166 35 -20.499s32.166 -8 53.5 -8c6.66699 0 14.5 0.666992 23.5 2s18.667 3.16602 29 5.49902s21.333 5.33301 33 9s23.834 7.83398 36.5 12.501h39v-100c-28.667 -16 -57.667 -28.833 -87 -38.5s-57.666 -17.167 -85 -22.5
c-27.333 -5.33301 -52.833 -8.83301 -76.5 -10.5s-44.5 -2.5 -62.5 -2.5z" />
    <glyph glyph-name="f_b.liga" unicode="fb" horiz-adv-x="2224" 
d="M-172 -501c-12 0 -24.1709 0.670898 -36.5039 2.00391s-25 3.16602 -38 5.49902s-26 4.83301 -39 7.5l-37.5 8v197h44l43 -16c14.667 -5.33301 30.334 -10.5 47.001 -15.5s34.167 -9 52.5 -12s38.5 -4.5 60.5 -4.5c28.667 0 54.667 3.33301 78 10s44 18 62 34
c6 5.33301 14 17.833 24 37.5s20.833 45.667 32.5 78s23.667 70.5 36 114.5s23.833 93.333 34.5 148l164 829h-196v125h226c26.667 98.667 57.5 181.667 92.5 249s74.333 121.666 118 162.999s91.5 71 143.5 89s108.333 27 169 27c12 0 25.333 -0.833008 40 -2.5
s29.667 -3.66699 45 -6s30.666 -5 45.999 -8s29 -5.83301 41 -8.5v-194h-43l-44.5 17.5c-16.333 6.33301 -33.666 12.166 -51.999 17.499s-37.666 9.83301 -57.999 13.5s-41.166 5.5 -62.499 5.5c-28 0 -52 -2 -72 -6s-36.667 -9.33301 -50 -16s-23.666 -14.5 -30.999 -23.5
s-12.666 -18.5 -15.999 -28.5c-4 -12.667 -8.33301 -28.334 -13 -47.001l-15.5 -64.5l-18 -81c-6.33301 -29.667 -12.833 -61.834 -19.5 -96.501h284v-125h-309l-169 -856c-16.667 -83.333 -43.834 -159.666 -81.501 -228.999s-82 -129 -133 -179s-106.5 -89 -166.5 -117
s-120.667 -42 -182 -42zM1502 123.004c44 0 84.335 6.99902 121.002 20.999s69.5 33.167 98.5 57.5s54.5 53.5 76.5 87.5s40.167 70.833 54.5 110.5s25.166 81.667 32.499 126s11 89.166 11 134.499c0 46.667 -4.83301 89.834 -14.5 129.501s-25 73.834 -46 102.501
s-47.833 51.167 -80.5 67.5s-72 24.5 -118 24.5c-16.667 0 -34.5 -2.16699 -53.5 -6.5s-38.5 -11.5 -58.5 -21.5s-40.167 -22.833 -60.5 -38.5s-40.5 -34.5 -60.5 -56.5l-152 -691c14.667 -9.33301 33.334 -17 56.001 -23s46.167 -10.833 70.5 -14.5
s47.666 -6.16699 69.999 -7.5s40.166 -2 53.499 -2zM1511 -20.9971c-30.667 0 -59.335 2.99707 -86.002 8.99707s-51 14 -73 24s-41.5 21.5 -58.5 34.5s-30.833 26.5 -41.5 40.5l-54 -107h-222l40 115l40 115l252 1153c3.33301 9.33301 1.66602 18.333 -5.00098 27
s-13.667 15 -21 19l-125 64v85h399l-60.5 -277l-60.5 -277l-17 -59c38 44.667 74.5 79.667 109.5 105s67.5 44.5 97.5 57.5s57.333 21.167 82 24.5s46.334 5 65.001 5c56.667 0 106.667 -10.833 150 -32.5s79.833 -51.667 109.5 -90s52 -83.666 67 -135.999
s22.5 -109.166 22.5 -170.499c0 -63.333 -6.83301 -125.166 -20.5 -185.499s-33.167 -117.5 -58.5 -171.5s-56 -103.833 -92 -149.5s-76.667 -85 -122 -118s-94.666 -58.667 -147.999 -77s-109.666 -27.5 -168.999 -27.5z" />
    <glyph glyph-name="f_f_b.liga" unicode="ffb" horiz-adv-x="3076" 
d="M-172 -501c-12 0 -24.1709 0.670898 -36.5039 2.00391s-25 3.16602 -38 5.49902s-26 4.83301 -39 7.5l-37.5 8v197h44l43 -16c14.667 -5.33301 30.334 -10.5 47.001 -15.5s34.167 -9 52.5 -12s38.5 -4.5 60.5 -4.5c28.667 0 54.667 3.33301 78 10s44 18 62 34
c6 5.33301 14 17.833 24 37.5s20.833 45.667 32.5 78s23.667 70.5 36 114.5s23.833 93.333 34.5 148l164 829h-196v125h226c26.667 98.667 57.5 181.667 92.5 249s74.333 121.666 118 162.999s91.5 71 143.5 89s108.333 27 169 27c12 0 25.333 -0.833008 40 -2.5
s29.667 -3.66699 45 -6s30.666 -5 45.999 -8s29 -5.83301 41 -8.5v-194h-43l-44.5 17.5c-16.333 6.33301 -33.666 12.166 -51.999 17.499s-37.666 9.83301 -57.999 13.5s-41.166 5.5 -62.499 5.5c-28 0 -52 -2 -72 -6s-36.667 -9.33301 -50 -16s-23.666 -14.5 -30.999 -23.5
s-12.666 -18.5 -15.999 -28.5c-4 -12.667 -8.33301 -28.334 -13 -47.001l-15.5 -64.5l-18 -81c-6.33301 -29.667 -12.833 -61.834 -19.5 -96.501h284v-125h-309l-169 -856c-16.667 -83.333 -43.834 -159.666 -81.501 -228.999s-82 -129 -133 -179s-106.5 -89 -166.5 -117
s-120.667 -42 -182 -42zM679.996 -500.996c-12 0 -24.1709 0.670898 -36.5039 2.00391s-25 3.16602 -38 5.49902s-26 4.83301 -39 7.5l-37.5 8v197h44l43 -16c14.667 -5.33301 30.334 -10.5 47.001 -15.5s34.167 -9 52.5 -12s38.5 -4.5 60.5 -4.5
c28.667 0 54.667 3.33301 78 10s44 18 62 34c6 5.33301 14 17.833 24 37.5s20.833 45.667 32.5 78s23.667 70.5 36 114.5s23.833 93.333 34.5 148l164 829h-196v125h226c26.667 98.667 57.5 181.667 92.5 249s74.333 121.666 118 162.999s91.5 71 143.5 89
s108.333 27 169 27c12 0 25.333 -0.833008 40 -2.5s29.667 -3.66699 45 -6s30.666 -5 45.999 -8s29 -5.83301 41 -8.5v-194h-43l-44.5 17.5c-16.333 6.33301 -33.666 12.166 -51.999 17.499s-37.666 9.83301 -57.999 13.5s-41.166 5.5 -62.499 5.5c-28 0 -52 -2 -72 -6
s-36.667 -9.33301 -50 -16s-23.666 -14.5 -30.999 -23.5s-12.666 -18.5 -15.999 -28.5c-4 -12.667 -8.33301 -28.334 -13 -47.001l-15.5 -64.5l-18 -81c-6.33301 -29.667 -12.833 -61.834 -19.5 -96.501h284v-125h-309l-169 -856
c-16.667 -83.333 -43.834 -159.666 -81.501 -228.999s-82 -129 -133 -179s-106.5 -89 -166.5 -117s-120.667 -42 -182 -42zM2353.99 123.008c44 0 84.333 6.99902 121 20.999s69.5 33.167 98.5 57.5s54.5 53.5 76.5 87.5s40.167 70.833 54.5 110.5s25.166 81.667 32.5 126
c7.33301 44.333 11 89.166 11 134.499c0 46.667 -4.83301 89.834 -14.5 129.501s-25 73.834 -46 102.501s-47.833 51.167 -80.5 67.5s-72 24.5 -118 24.5c-16.667 0 -34.5 -2.16699 -53.5 -6.5s-38.5 -11.5 -58.5 -21.5s-40.167 -22.833 -60.5 -38.5
s-40.5 -34.5 -60.5 -56.5l-152 -691c14.667 -9.33301 33.334 -17 56 -23c22.667 -6 46.167 -10.833 70.5 -14.5s47.666 -6.16699 70 -7.5c22.333 -1.33301 40.166 -2 53.5 -2zM2362.99 -20.9932c-30.667 0 -59.334 2.99707 -86 8.99707c-26.667 6 -51 14 -73 24
s-41.5 21.5 -58.5 34.5s-30.833 26.5 -41.5 40.5l-54 -107h-222l40 115l40 115l252 1153c3.33301 9.33301 1.66602 18.333 -5 27c-6.66699 8.66699 -13.667 15 -21 19l-125 64v85h399l-60.5 -277l-60.5 -277l-17 -59c38 44.667 74.5 79.667 109.5 105s67.5 44.5 97.5 57.5
s57.333 21.167 82 24.5s46.334 5 65 5c56.667 0 106.667 -10.833 150 -32.5s79.833 -51.667 109.5 -90s52 -83.666 67 -135.999s22.5 -109.166 22.5 -170.499c0 -63.333 -6.83301 -125.166 -20.5 -185.499s-33.167 -117.5 -58.5 -171.5s-56 -103.833 -92 -149.5
s-76.667 -85 -122 -118s-94.666 -58.667 -148 -77c-53.333 -18.333 -109.666 -27.5 -169 -27.5z" />
    <glyph glyph-name="f_h.liga" unicode="fh" horiz-adv-x="2237" 
d="M-172 -501c-12 0 -24.1709 0.670898 -36.5039 2.00391s-25 3.16602 -38 5.49902s-26 4.83301 -39 7.5l-37.5 8v197h44l43 -16c14.667 -5.33301 30.334 -10.5 47.001 -15.5s34.167 -9 52.5 -12s38.5 -4.5 60.5 -4.5c28.667 0 54.667 3.33301 78 10s44 18 62 34
c6 5.33301 14 17.833 24 37.5s20.833 45.667 32.5 78s23.667 70.5 36 114.5s23.833 93.333 34.5 148l164 829h-196v125h226c26.667 98.667 57.5 181.667 92.5 249s74.333 121.666 118 162.999s91.5 71 143.5 89s108.333 27 169 27c12 0 25.333 -0.833008 40 -2.5
s29.667 -3.66699 45 -6s30.666 -5 45.999 -8s29 -5.83301 41 -8.5v-194h-43l-44.5 17.5c-16.333 6.33301 -33.666 12.166 -51.999 17.499s-37.666 9.83301 -57.999 13.5s-41.166 5.5 -62.499 5.5c-28 0 -52 -2 -72 -6s-36.667 -9.33301 -50 -16s-23.666 -14.5 -30.999 -23.5
s-12.666 -18.5 -15.999 -28.5c-4 -12.667 -8.33301 -28.334 -13 -47.001l-15.5 -64.5l-18 -81c-6.33301 -29.667 -12.833 -61.834 -19.5 -96.501h284v-125h-309l-169 -856c-16.667 -83.333 -43.834 -159.666 -81.501 -228.999s-82 -129 -133 -179s-106.5 -89 -166.5 -117
s-120.667 -42 -182 -42zM1874 -15.9961c-32 0 -58.834 5.32715 -80.501 15.9941s-39.334 23.834 -53.001 39.501s-23.5 32.667 -29.5 51s-9 35.166 -9 50.499c0 8.66699 0.5 18.667 1.5 30s2.5 23.333 4.5 36s4.33301 26.167 7 40.5s6 28.833 10 43.5l92 390
c6.66699 28 11.834 54.667 15.501 80s5.5 47 5.5 65c0 24.667 -3.16699 46.334 -9.5 65.001s-16.666 34.334 -30.999 47.001s-33.166 22.334 -56.499 29.001s-52 10 -86 10c-22 0 -44.833 -1.83301 -68.5 -5.5s-47.334 -9.66699 -71.001 -18s-47 -19.333 -70 -33
s-44.5 -30.5 -64.5 -50.5l-146 -658v-53.5v-52.5v-52.5v-53.5h-252l303 1363c3.33301 14.667 2 24.667 -4 30s-13.667 10.666 -23 15.999l-124 64v85h399l-121 -546l-13 -57c38.667 40 75.167 72 109.5 96s67 42.333 98 55s60.833 21 89.5 25s56.667 6 84 6
c39.333 0 75.666 -5.16699 108.999 -15.5s62.166 -26.166 86.499 -47.499s43.333 -48.166 57 -80.499s20.5 -70.5 20.5 -114.5c0 -33.333 -3.83301 -66.666 -11.5 -99.999l-22.5 -97l-79 -340c-3.33301 -14 -6.16602 -27.667 -8.49902 -41s-4.33301 -25.5 -6 -36.5
s-3 -20.833 -4 -29.5s-1.5 -15 -1.5 -19c0 -10.667 1.33301 -21.167 4 -31.5s7.83398 -19.666 15.501 -27.999s18.167 -15 31.5 -20s30.666 -7.5 51.999 -7.5c6.66699 0 13.834 0.5 21.501 1.5s16 2.5 25 4.5s18.667 4.66699 29 8s21.833 7.33301 34.5 12h40v-100
c-28.667 -16 -57 -28.667 -85 -38s-55 -16.5 -81 -21.5s-50.333 -8.16699 -73 -9.5s-43 -2 -61 -2z" />
    <glyph glyph-name="f_f_h.liga" unicode="ffh" horiz-adv-x="3089" 
d="M-172 -501c-12 0 -24.1709 0.670898 -36.5039 2.00391s-25 3.16602 -38 5.49902s-26 4.83301 -39 7.5l-37.5 8v197h44l43 -16c14.667 -5.33301 30.334 -10.5 47.001 -15.5s34.167 -9 52.5 -12s38.5 -4.5 60.5 -4.5c28.667 0 54.667 3.33301 78 10s44 18 62 34
c6 5.33301 14 17.833 24 37.5s20.833 45.667 32.5 78s23.667 70.5 36 114.5s23.833 93.333 34.5 148l164 829h-196v125h226c26.667 98.667 57.5 181.667 92.5 249s74.333 121.666 118 162.999s91.5 71 143.5 89s108.333 27 169 27c12 0 25.333 -0.833008 40 -2.5
s29.667 -3.66699 45 -6s30.666 -5 45.999 -8s29 -5.83301 41 -8.5v-194h-43l-44.5 17.5c-16.333 6.33301 -33.666 12.166 -51.999 17.499s-37.666 9.83301 -57.999 13.5s-41.166 5.5 -62.499 5.5c-28 0 -52 -2 -72 -6s-36.667 -9.33301 -50 -16s-23.666 -14.5 -30.999 -23.5
s-12.666 -18.5 -15.999 -28.5c-4 -12.667 -8.33301 -28.334 -13 -47.001l-15.5 -64.5l-18 -81c-6.33301 -29.667 -12.833 -61.834 -19.5 -96.501h284v-125h-309l-169 -856c-16.667 -83.333 -43.834 -159.666 -81.501 -228.999s-82 -129 -133 -179s-106.5 -89 -166.5 -117
s-120.667 -42 -182 -42zM679.996 -500.996c-12 0 -24.1709 0.670898 -36.5039 2.00391s-25 3.16602 -38 5.49902s-26 4.83301 -39 7.5l-37.5 8v197h44l43 -16c14.667 -5.33301 30.334 -10.5 47.001 -15.5s34.167 -9 52.5 -12s38.5 -4.5 60.5 -4.5
c28.667 0 54.667 3.33301 78 10s44 18 62 34c6 5.33301 14 17.833 24 37.5s20.833 45.667 32.5 78s23.667 70.5 36 114.5s23.833 93.333 34.5 148l164 829h-196v125h226c26.667 98.667 57.5 181.667 92.5 249s74.333 121.666 118 162.999s91.5 71 143.5 89
s108.333 27 169 27c12 0 25.333 -0.833008 40 -2.5s29.667 -3.66699 45 -6s30.666 -5 45.999 -8s29 -5.83301 41 -8.5v-194h-43l-44.5 17.5c-16.333 6.33301 -33.666 12.166 -51.999 17.499s-37.666 9.83301 -57.999 13.5s-41.166 5.5 -62.499 5.5c-28 0 -52 -2 -72 -6
s-36.667 -9.33301 -50 -16s-23.666 -14.5 -30.999 -23.5s-12.666 -18.5 -15.999 -28.5c-4 -12.667 -8.33301 -28.334 -13 -47.001l-15.5 -64.5l-18 -81c-6.33301 -29.667 -12.833 -61.834 -19.5 -96.501h284v-125h-309l-169 -856
c-16.667 -83.333 -43.834 -159.666 -81.501 -228.999s-82 -129 -133 -179s-106.5 -89 -166.5 -117s-120.667 -42 -182 -42zM2725.99 -15.9922c-32 0 -58.833 5.32715 -80.5 15.9941s-39.334 23.834 -53 39.501c-13.667 15.667 -23.5 32.667 -29.5 51s-9 35.166 -9 50.499
c0 8.66699 0.5 18.667 1.5 30s2.5 23.333 4.5 36s4.33301 26.167 7 40.5s6 28.833 10 43.5l92 390c6.66699 28 11.834 54.667 15.5 80c3.66699 25.333 5.5 47 5.5 65c0 24.667 -3.16699 46.334 -9.5 65.001s-16.666 34.334 -31 47.001
c-14.333 12.667 -33.166 22.334 -56.5 29.001c-23.333 6.66699 -52 10 -86 10c-22 0 -44.833 -1.83301 -68.5 -5.5s-47.334 -9.66699 -71 -18c-23.667 -8.33301 -47 -19.333 -70 -33s-44.5 -30.5 -64.5 -50.5l-146 -658v-53.5v-52.5v-52.5v-53.5h-252l303 1363
c3.33301 14.667 2 24.667 -4 30s-13.667 10.666 -23 15.999l-124 64v85h399l-121 -546l-13 -57c38.667 40 75.167 72 109.5 96s67 42.333 98 55s60.833 21 89.5 25s56.667 6 84 6c39.333 0 75.666 -5.16699 109 -15.5c33.333 -10.333 62.166 -26.166 86.5 -47.499
c24.333 -21.333 43.333 -48.166 57 -80.499s20.5 -70.5 20.5 -114.5c0 -33.333 -3.83301 -66.666 -11.5 -99.999l-22.5 -97l-79 -340c-3.33301 -14 -6.16602 -27.667 -8.5 -41c-2.33301 -13.333 -4.33301 -25.5 -6 -36.5s-3 -20.833 -4 -29.5s-1.5 -15 -1.5 -19
c0 -10.667 1.33301 -21.167 4 -31.5s7.83398 -19.666 15.5 -27.999c7.66699 -8.33301 18.167 -15 31.5 -20s30.666 -7.5 52 -7.5c6.66699 0 13.834 0.5 21.5 1.5c7.66699 1 16 2.5 25 4.5s18.667 4.66699 29 8s21.833 7.33301 34.5 12h40v-100
c-28.667 -16 -57 -28.667 -85 -38s-55 -16.5 -81 -21.5s-50.333 -8.16699 -73 -9.5s-43 -2 -61 -2z" />
    <glyph glyph-name="f_j.liga" unicode="fj" horiz-adv-x="1657" 
d="M-172 -501c-12 0 -24.1709 0.670898 -36.5039 2.00391s-25 3.16602 -38 5.49902s-26 4.83301 -39 7.5l-37.5 8v197h44l43 -16c14.667 -5.33301 30.334 -10.5 47.001 -15.5s34.167 -9 52.5 -12s38.5 -4.5 60.5 -4.5c28.667 0 54.667 3.33301 78 10s44 18 62 34
c6 5.33301 14 17.833 24 37.5s20.833 45.667 32.5 78s23.667 70.5 36 114.5s23.833 93.333 34.5 148l164 829h-196v125h226c26.667 98.667 57.5 181.667 92.5 249s74.333 121.666 118 162.999s91.5 71 143.5 89s108.333 27 169 27c12 0 25.333 -0.833008 40 -2.5
s29.667 -3.66699 45 -6s30.666 -5 45.999 -8s29 -5.83301 41 -8.5v-194h-43l-44.5 17.5c-16.333 6.33301 -33.666 12.166 -51.999 17.499s-37.666 9.83301 -57.999 13.5s-41.166 5.5 -62.499 5.5c-28 0 -52 -2 -72 -6s-36.667 -9.33301 -50 -16s-23.666 -14.5 -30.999 -23.5
s-12.666 -18.5 -15.999 -28.5c-4 -12.667 -8.33301 -28.334 -13 -47.001l-15.5 -64.5l-18 -81c-6.33301 -29.667 -12.833 -61.834 -19.5 -96.501h284v-125h-309l-169 -856c-16.667 -83.333 -43.834 -159.666 -81.501 -228.999s-82 -129 -133 -179s-106.5 -89 -166.5 -117
s-120.667 -42 -182 -42zM778.996 -500.996c-8 0 -18.1709 0.668945 -30.5039 2.00195s-25.666 3.16602 -39.999 5.49902s-28.833 4.83301 -43.5 7.5s-28.334 5.33398 -41.001 8.00098v198h44l43.5 -15.5c15.667 -5.66699 31.834 -10.834 48.501 -15.501
s33.667 -8.5 51 -11.5s34.333 -4.5 51 -4.5c44 0 79 5.83301 105 17.5s46 26.167 60 43.5c22.667 27.333 43 78.333 61 153s38.667 174.667 62 300l131 695c2.66699 7.33301 1.66699 15.666 -3 24.999s-13 16.333 -25 21l-185 65v82l469 53l-197 -1028
c-21.333 -109.333 -50.666 -202.166 -87.999 -278.499s-80.666 -138.333 -129.999 -186s-103.166 -82.334 -161.499 -104.001s-118.833 -32.5 -181.5 -32.5zM1464.99 1306.01c-19.333 0 -37.834 3.00098 -55.501 9.00098s-33.167 14.5 -46.5 25.5s-24 24.667 -32 41
s-12 35.166 -12 56.499c0 22.667 4 42.5 12 59.5s18.667 31.333 32 43s28.833 20.334 46.5 26.001s36.167 8.5 55.5 8.5c22.667 0 43.334 -2.5 62.001 -7.5s34.5 -12.833 47.5 -23.5s23.167 -23.834 30.5 -39.501s11 -34.167 11 -55.5
c0 -22.667 -3.83301 -42.834 -11.5 -60.501s-18.334 -32.667 -32.001 -45s-29.667 -21.666 -48 -27.999s-38.166 -9.5 -59.499 -9.5z" />
    <glyph glyph-name="f_f_j.liga" unicode="ffj" horiz-adv-x="2509" 
d="M-172 -501c-12 0 -24.1709 0.670898 -36.5039 2.00391s-25 3.16602 -38 5.49902s-26 4.83301 -39 7.5l-37.5 8v197h44l43 -16c14.667 -5.33301 30.334 -10.5 47.001 -15.5s34.167 -9 52.5 -12s38.5 -4.5 60.5 -4.5c28.667 0 54.667 3.33301 78 10s44 18 62 34
c6 5.33301 14 17.833 24 37.5s20.833 45.667 32.5 78s23.667 70.5 36 114.5s23.833 93.333 34.5 148l164 829h-196v125h226c26.667 98.667 57.5 181.667 92.5 249s74.333 121.666 118 162.999s91.5 71 143.5 89s108.333 27 169 27c12 0 25.333 -0.833008 40 -2.5
s29.667 -3.66699 45 -6s30.666 -5 45.999 -8s29 -5.83301 41 -8.5v-194h-43l-44.5 17.5c-16.333 6.33301 -33.666 12.166 -51.999 17.499s-37.666 9.83301 -57.999 13.5s-41.166 5.5 -62.499 5.5c-28 0 -52 -2 -72 -6s-36.667 -9.33301 -50 -16s-23.666 -14.5 -30.999 -23.5
s-12.666 -18.5 -15.999 -28.5c-4 -12.667 -8.33301 -28.334 -13 -47.001l-15.5 -64.5l-18 -81c-6.33301 -29.667 -12.833 -61.834 -19.5 -96.501h284v-125h-309l-169 -856c-16.667 -83.333 -43.834 -159.666 -81.501 -228.999s-82 -129 -133 -179s-106.5 -89 -166.5 -117
s-120.667 -42 -182 -42zM679.996 -500.996c-12 0 -24.1709 0.670898 -36.5039 2.00391s-25 3.16602 -38 5.49902s-26 4.83301 -39 7.5l-37.5 8v197h44l43 -16c14.667 -5.33301 30.334 -10.5 47.001 -15.5s34.167 -9 52.5 -12s38.5 -4.5 60.5 -4.5
c28.667 0 54.667 3.33301 78 10s44 18 62 34c6 5.33301 14 17.833 24 37.5s20.833 45.667 32.5 78s23.667 70.5 36 114.5s23.833 93.333 34.5 148l164 829h-196v125h226c26.667 98.667 57.5 181.667 92.5 249s74.333 121.666 118 162.999s91.5 71 143.5 89
s108.333 27 169 27c12 0 25.333 -0.833008 40 -2.5s29.667 -3.66699 45 -6s30.666 -5 45.999 -8s29 -5.83301 41 -8.5v-194h-43l-44.5 17.5c-16.333 6.33301 -33.666 12.166 -51.999 17.499s-37.666 9.83301 -57.999 13.5s-41.166 5.5 -62.499 5.5c-28 0 -52 -2 -72 -6
s-36.667 -9.33301 -50 -16s-23.666 -14.5 -30.999 -23.5s-12.666 -18.5 -15.999 -28.5c-4 -12.667 -8.33301 -28.334 -13 -47.001l-15.5 -64.5l-18 -81c-6.33301 -29.667 -12.833 -61.834 -19.5 -96.501h284v-125h-309l-169 -856
c-16.667 -83.333 -43.834 -159.666 -81.501 -228.999s-82 -129 -133 -179s-106.5 -89 -166.5 -117s-120.667 -42 -182 -42zM1630.99 -500.992c-8 0 -18.1699 0.668945 -30.5029 2.00195s-25.666 3.16602 -39.999 5.49902s-28.833 4.83301 -43.5 7.5
s-28.334 5.33398 -41.001 8.00098v198h44l43.5 -15.5c15.667 -5.66699 31.834 -10.834 48.501 -15.501s33.667 -8.5 51 -11.5s34.333 -4.5 51 -4.5c44 0 79 5.83301 105 17.5s46 26.167 60 43.5c22.667 27.333 43 78.333 61 153s38.667 174.667 62 300l131 695
c2.66699 7.33301 1.66699 15.666 -3 24.999s-13 16.333 -25 21l-185 65v82l469 53l-197 -1028c-21.333 -109.333 -50.666 -202.166 -88 -278.499c-37.333 -76.333 -80.666 -138.333 -129.999 -186s-103.166 -82.334 -161.499 -104.001s-118.833 -32.5 -181.5 -32.5z
M2316.99 1306.01c-19.333 0 -37.834 3.00098 -55.501 9.00098s-33.167 14.5 -46.5 25.5s-24 24.667 -32 41s-12 35.166 -12 56.499c0 22.667 4 42.5 12 59.5s18.667 31.333 32 43s28.833 20.334 46.5 26.001s36.167 8.5 55.5 8.5c22.667 0 43.334 -2.5 62 -7.5
c18.667 -5 34.5 -12.833 47.5 -23.5s23.167 -23.834 30.5 -39.501s11 -34.167 11 -55.5c0 -22.667 -3.83301 -42.834 -11.5 -60.501s-18.334 -32.667 -32 -45c-13.667 -12.333 -29.667 -21.666 -48 -27.999s-38.166 -9.5 -59.499 -9.5z" />
    <glyph glyph-name="f_k.liga" unicode="fk" horiz-adv-x="2156" 
d="M-172 -501c-12 0 -24.1709 0.670898 -36.5039 2.00391s-25 3.16602 -38 5.49902s-26 4.83301 -39 7.5l-37.5 8v197h44l43 -16c14.667 -5.33301 30.334 -10.5 47.001 -15.5s34.167 -9 52.5 -12s38.5 -4.5 60.5 -4.5c28.667 0 54.667 3.33301 78 10s44 18 62 34
c6 5.33301 14 17.833 24 37.5s20.833 45.667 32.5 78s23.667 70.5 36 114.5s23.833 93.333 34.5 148l164 829h-196v125h226c26.667 98.667 57.5 181.667 92.5 249s74.333 121.666 118 162.999s91.5 71 143.5 89s108.333 27 169 27c12 0 25.333 -0.833008 40 -2.5
s29.667 -3.66699 45 -6s30.666 -5 45.999 -8s29 -5.83301 41 -8.5v-194h-43l-44.5 17.5c-16.333 6.33301 -33.666 12.166 -51.999 17.499s-37.666 9.83301 -57.999 13.5s-41.166 5.5 -62.499 5.5c-28 0 -52 -2 -72 -6s-36.667 -9.33301 -50 -16s-23.666 -14.5 -30.999 -23.5
s-12.666 -18.5 -15.999 -28.5c-4 -12.667 -8.33301 -28.334 -13 -47.001l-15.5 -64.5l-18 -81c-6.33301 -29.667 -12.833 -61.834 -19.5 -96.501h284v-125h-309l-169 -856c-16.667 -83.333 -43.834 -159.666 -81.501 -228.999s-82 -129 -133 -179s-106.5 -89 -166.5 -117
s-120.667 -42 -182 -42zM1804 -15.9961c-27.333 0 -50.168 3.99805 -68.501 11.998s-34 19.167 -47 33.5s-24.333 31 -34 50s-19.167 39.5 -28.5 61.5l-173 401l-170 -106l-48 -224v-53.5v-52.5v-52.5v-53.5h-252l303 1363c2 9.33301 0.333008 18 -5 26
s-12.666 14.667 -21.999 20l-124 64v85h399l-230 -1034l154 167.5l131 140.5l106 110.5c31.333 31.667 58 57.5 80 77.5c20.667 18.667 39.334 34.667 56.001 48s33 24.333 49 33s33 15 51 19s38.667 6 62 6c12 0 21.5 -0.166992 28.5 -0.5s13.667 -0.666016 20 -0.999023
s15.166 -1.33301 26.499 -3s20.666 -3.16699 28 -4.5v-226h-43c-2 0 -9.16699 0.666992 -21.5 2l-44 5c-17 2 -34.5 3.66699 -52.5 5s-32.333 2 -43 2c-12 0 -27.833 -4.83301 -47.5 -14.5s-41.834 -24 -66.501 -43s-51.167 -42.167 -79.5 -69.5
s-56.833 -58.666 -85.5 -93.999l202 -482c4.66699 -12 10.667 -22.5 18 -31.5s15.833 -16.667 25.5 -23s21 -11 34 -14s28.167 -4.5 45.5 -4.5c6.66699 0 13.834 0.5 21.501 1.5s16.167 2.5 25.5 4.5s19.333 4.66699 30 8s22.334 7.33301 35.001 12h39v-100
c-28.667 -16 -56.334 -28.667 -83.001 -38s-52 -16.5 -76 -21.5s-46.5 -8.16699 -67.5 -9.5s-40.5 -2 -58.5 -2z" />
    <glyph glyph-name="f_f_k.liga" unicode="ffk" horiz-adv-x="3008" 
d="M-172 -501c-12 0 -24.1709 0.670898 -36.5039 2.00391s-25 3.16602 -38 5.49902s-26 4.83301 -39 7.5l-37.5 8v197h44l43 -16c14.667 -5.33301 30.334 -10.5 47.001 -15.5s34.167 -9 52.5 -12s38.5 -4.5 60.5 -4.5c28.667 0 54.667 3.33301 78 10s44 18 62 34
c6 5.33301 14 17.833 24 37.5s20.833 45.667 32.5 78s23.667 70.5 36 114.5s23.833 93.333 34.5 148l164 829h-196v125h226c26.667 98.667 57.5 181.667 92.5 249s74.333 121.666 118 162.999s91.5 71 143.5 89s108.333 27 169 27c12 0 25.333 -0.833008 40 -2.5
s29.667 -3.66699 45 -6s30.666 -5 45.999 -8s29 -5.83301 41 -8.5v-194h-43l-44.5 17.5c-16.333 6.33301 -33.666 12.166 -51.999 17.499s-37.666 9.83301 -57.999 13.5s-41.166 5.5 -62.499 5.5c-28 0 -52 -2 -72 -6s-36.667 -9.33301 -50 -16s-23.666 -14.5 -30.999 -23.5
s-12.666 -18.5 -15.999 -28.5c-4 -12.667 -8.33301 -28.334 -13 -47.001l-15.5 -64.5l-18 -81c-6.33301 -29.667 -12.833 -61.834 -19.5 -96.501h284v-125h-309l-169 -856c-16.667 -83.333 -43.834 -159.666 -81.501 -228.999s-82 -129 -133 -179s-106.5 -89 -166.5 -117
s-120.667 -42 -182 -42zM679.996 -500.996c-12 0 -24.1709 0.670898 -36.5039 2.00391s-25 3.16602 -38 5.49902s-26 4.83301 -39 7.5l-37.5 8v197h44l43 -16c14.667 -5.33301 30.334 -10.5 47.001 -15.5s34.167 -9 52.5 -12s38.5 -4.5 60.5 -4.5
c28.667 0 54.667 3.33301 78 10s44 18 62 34c6 5.33301 14 17.833 24 37.5s20.833 45.667 32.5 78s23.667 70.5 36 114.5s23.833 93.333 34.5 148l164 829h-196v125h226c26.667 98.667 57.5 181.667 92.5 249s74.333 121.666 118 162.999s91.5 71 143.5 89
s108.333 27 169 27c12 0 25.333 -0.833008 40 -2.5s29.667 -3.66699 45 -6s30.666 -5 45.999 -8s29 -5.83301 41 -8.5v-194h-43l-44.5 17.5c-16.333 6.33301 -33.666 12.166 -51.999 17.499s-37.666 9.83301 -57.999 13.5s-41.166 5.5 -62.499 5.5c-28 0 -52 -2 -72 -6
s-36.667 -9.33301 -50 -16s-23.666 -14.5 -30.999 -23.5s-12.666 -18.5 -15.999 -28.5c-4 -12.667 -8.33301 -28.334 -13 -47.001l-15.5 -64.5l-18 -81c-6.33301 -29.667 -12.833 -61.834 -19.5 -96.501h284v-125h-309l-169 -856
c-16.667 -83.333 -43.834 -159.666 -81.501 -228.999s-82 -129 -133 -179s-106.5 -89 -166.5 -117s-120.667 -42 -182 -42zM2655.99 -15.9922c-27.333 0 -50.166 3.99805 -68.5 11.998c-18.333 8 -34 19.167 -47 33.5s-24.333 31 -34 50s-19.167 39.5 -28.5 61.5l-173 401
l-170 -106l-48 -224v-53.5v-52.5v-52.5v-53.5h-252l303 1363c2 9.33301 0.333008 18 -5 26s-12.666 14.667 -22 20l-124 64v85h399l-230 -1034l154 167.5l131 140.5l106 110.5c31.333 31.667 58 57.5 80 77.5c20.667 18.667 39.334 34.667 56 48
c16.667 13.333 33 24.333 49 33s33 15 51 19s38.667 6 62 6c12 0 21.5 -0.166992 28.5 -0.5s13.667 -0.666016 20 -0.999023s15.166 -1.33301 26.5 -3c11.333 -1.66699 20.666 -3.16699 28 -4.5v-226h-43c-2 0 -9.16699 0.666992 -21.5 2l-44 5c-17 2 -34.5 3.66699 -52.5 5
s-32.333 2 -43 2c-12 0 -27.833 -4.83301 -47.5 -14.5s-41.834 -24 -66.5 -43c-24.667 -19 -51.167 -42.167 -79.5 -69.5s-56.833 -58.666 -85.5 -93.999l202 -482c4.66699 -12 10.667 -22.5 18 -31.5s15.833 -16.667 25.5 -23s21 -11 34 -14s28.167 -4.5 45.5 -4.5
c6.66699 0 13.834 0.5 21.5 1.5c7.66699 1 16.167 2.5 25.5 4.5s19.333 4.66699 30 8s22.334 7.33301 35 12h39v-100c-28.667 -16 -56.334 -28.667 -83 -38c-26.667 -9.33301 -52 -16.5 -76 -21.5s-46.5 -8.16699 -67.5 -9.5s-40.5 -2 -58.5 -2z" />
    <glyph glyph-name=".notdef" horiz-adv-x="1100" 
d="M0 1575h1100v-1575h-1100v1575zM89 86h922v1403h-922v-1403z" />
    <glyph glyph-name="space" unicode=" " horiz-adv-x="680" 
 />
    <glyph glyph-name="space" unicode="&#xa0;" horiz-adv-x="680" 
 />
    <glyph glyph-name="exclam" unicode="!" horiz-adv-x="832" 
d="M344 -25c-22 0 -42.5 3.83301 -61.5 11.5s-35.667 18.5 -50 32.5s-25.5 30.333 -33.5 49s-12 39 -12 61s4 42.667 12 62s19.167 36 33.5 50s31 25.167 50 33.5s39.5 12.5 61.5 12.5s42.667 -4.16699 62 -12.5s36 -19.5 50 -33.5s25.167 -30.667 33.5 -50
s12.5 -40 12.5 -62s-4.16699 -42.333 -12.5 -61s-19.5 -35 -33.5 -49s-30.667 -24.833 -50 -32.5s-40 -11.5 -62 -11.5zM456 476h-113l65.5 467.5l65.5 467.5l9 40h267l-9 -40z" />
    <glyph glyph-name="quotedbl" unicode="&#x22;" horiz-adv-x="1185" 
d="M453 890h-106l74 639l6 29h267l-6 -29zM935 890h-106l74 639l6 29h267l-6 -29z" />
    <glyph glyph-name="numbersign" unicode="#" horiz-adv-x="1555" 
d="M733 837l-113 -286h278l114 286h-279zM407 0h-125l164 416h-211v137h264l112 281h-308v138h360l161 406h124l-160 -406h273l160 406h124l-160 -406h211v-138h-264l-111 -281h307v-137h-360l-164 -416h-124l164 416h-274z" />
    <glyph glyph-name="dollar" unicode="$" horiz-adv-x="1333" 
d="M632 130c58 2.66699 107.667 10.667 149 24s75.166 30.833 101.499 52.5s45.833 47 58.5 76s19 61.167 19 96.5c0 22 -5.83301 41.333 -17.5 58s-27.5 31.167 -47.5 43.5s-43.167 22.833 -69.5 31.5s-54.166 16 -83.499 22zM797 1127l-6.5 0.00292969h-5.5
c-46 -0.666992 -87.5 -5.33398 -124.5 -14.001s-68.833 -22 -95.5 -40s-47.167 -40.833 -61.5 -68.5s-21.5 -60.5 -21.5 -98.5c0 -23.333 4.83301 -44 14.5 -62s23.5 -33.833 41.5 -47.5s39.833 -25.334 65.5 -35.001s54.5 -17.834 86.5 -24.501zM545 -264.997
l-97.998 0.000976562l55 250h-31c-45.333 1.33301 -87.833 5.33301 -127.5 12s-75.5 14.167 -107.5 22.5s-60 16.833 -84 25.5s-43 16 -57 22l51 219h47c12.667 -9.33301 30.5 -21.666 53.5 -36.999s49.667 -30.833 80 -46.5s63.333 -30.167 99 -43.5
s72.167 -22.333 109.5 -27l114 422c-21.333 4 -42.833 8.66699 -64.5 14s-44.167 11.333 -67.5 18c-38 11.333 -71.667 26.166 -101 44.499s-54 39.166 -74 62.499s-35.167 48.833 -45.5 76.5s-15.5 56.5 -15.5 86.5c0 51.333 14 101.333 42 150s66.667 92 116 130
s107.166 69 173.499 93s138.166 37.667 215.499 41l28 123h98l-28 -126c39.333 -3.33301 76.166 -8.83301 110.499 -16.5s65.5 -16.167 93.5 -25.5s52.667 -18.333 74 -27l53 -21l-49 -211h-47l-40.5 31c-17.667 13.333 -38.167 27.166 -61.5 41.499s-49.333 28.333 -78 42
s-58.334 24.5 -89.001 32.5l-108 -395c68.667 -12 127 -27.833 175 -47.5s87.167 -42.167 117.5 -67.5s52.333 -53.166 66 -83.499s20.5 -62.5 20.5 -96.5c0 -50.667 -14.333 -100 -43 -148s-68.167 -91.5 -118.5 -130.5s-109.666 -72.167 -177.999 -99.5
s-142.166 -45.333 -221.499 -54z" />
    <glyph glyph-name="percent" unicode="%" horiz-adv-x="2387" 
d="M462 526c-54 0 -100.831 9.33789 -140.498 28.0049s-72.334 44.667 -98.001 78s-44.834 73.166 -57.501 119.499s-19 97.166 -19 152.499s5.33301 110.5 16 165.5s26.334 107.667 47.001 158s46.167 97.166 76.5 140.499s65.5 80.833 105.5 112.5s84.667 56.5 134 74.5
s103 27 161 27c57.333 0 106.166 -10 146.499 -30s73 -47.333 98 -82s43.167 -74.834 54.5 -120.501s17 -93.834 17 -144.501c0 -101.333 -13.5 -193.666 -40.5 -276.999s-64.667 -154.833 -113 -214.5s-105.5 -105.834 -171.5 -138.501s-138 -49 -216 -49zM482.002 616.005
c26.667 0 53.6709 5.00195 81.0039 15.002s53.666 25.667 78.999 47s49.166 48.666 71.499 81.999s41.666 73.166 57.999 119.499s29.166 99.5 38.499 159.5s14 127.667 14 203c0 36.667 -2.83301 70.167 -8.5 100.5s-14.667 56.5 -27 78.5s-28.333 39 -48 51
s-43.5 18 -71.5 18s-56 -7 -84 -21s-54.667 -34 -80 -60s-49 -57.5 -71 -94.5s-41 -78.5 -57 -124.5s-28.5 -96.167 -37.5 -150.5s-13.5 -111.833 -13.5 -172.5c0 -36 2.83301 -69.333 8.5 -100s14.667 -57.167 27 -79.5s28.5 -39.833 48.5 -52.5s44 -19 72 -19z
M614.006 -99.9932h-149l1373 1658h148zM1751.01 -119.993c-54 0 -100.831 9.33789 -140.498 28.0049s-72.334 44.667 -98.001 78s-44.834 73.166 -57.501 119.499s-19 97.166 -19 152.499s5.33301 110.5 16 165.5s26.334 107.667 47.001 158s46.167 97.166 76.5 140.499
s65.5 80.833 105.5 112.5s84.667 56.5 134 74.5s103 27 161 27c57.333 0 106.166 -10 146.499 -30s73 -47.333 98 -82s43.167 -74.834 54.5 -120.501s17 -93.834 17 -144.501c0 -101.333 -13.5 -193.666 -40.5 -276.999s-64.667 -154.833 -113 -214.5
s-105.5 -105.834 -171.5 -138.501s-138 -49 -216 -49zM1771.01 -29.9883c26.667 0 53.6699 5.00195 81.0029 15.002s53.666 25.667 78.999 47s49.166 48.666 71.499 81.999s41.666 73.166 57.999 119.499s29.166 99.5 38.5 159.5c9.33301 60 14 127.667 14 203
c0 36.667 -2.83301 70.167 -8.5 100.5s-14.667 56.5 -27 78.5s-28.333 39 -48 51s-43.5 18 -71.5 18s-56 -7 -84 -21s-54.667 -34 -80 -60s-49 -57.5 -71 -94.5s-41 -78.5 -57 -124.5s-28.5 -96.167 -37.5 -150.5s-13.5 -111.833 -13.5 -172.5
c0 -36 2.83301 -69.333 8.5 -100s14.667 -57.167 27 -79.5s28.5 -39.833 48.5 -52.5s44 -19 72 -19z" />
    <glyph glyph-name="ampersand" unicode="&#x26;" horiz-adv-x="1620" 
d="M558 141c45.333 0 85.1689 3.33301 119.502 10s65.666 16.167 93.999 28.5s55 27.5 80 45.5s50.833 38.333 77.5 61l-355 425c-34.667 -17.333 -66.834 -37.166 -96.501 -59.499s-55.5 -47.833 -77.5 -76.5s-39.167 -61 -51.5 -97s-18.5 -76 -18.5 -120
c0 -33.333 6.16699 -63.333 18.5 -90s29 -49.334 50 -68.001s45.167 -33.167 72.5 -43.5s56.333 -15.5 87 -15.5zM697.003 867c45.333 20.667 83.332 43.833 113.999 69.5s55.167 52.834 73.5 81.501s31.333 58.667 39 90s11.5 63 11.5 95c0 50 -14.167 89.167 -42.5 117.5
s-67.5 42.5 -117.5 42.5c-30 0 -57.833 -5.83301 -83.5 -17.5s-48 -28 -67 -49s-33.833 -45.667 -44.5 -74s-16 -59.166 -16 -92.499c0 -22 2.33301 -43 7 -63s12.334 -40.333 23.001 -61s24.5 -42.334 41.5 -65.001s37.5 -47.334 61.5 -74.001zM484.002 -31.001
c-53.333 0 -103.166 8 -149.499 24s-86.666 38.833 -120.999 68.5s-61.333 65.667 -81 108s-29.5 89.833 -29.5 142.5c0 28 3.33301 57 10 87s16.5 59.5 29.5 88.5s28.667 57.167 47 84.5s39.166 52.666 62.499 75.999l256 143c-30 34 -54.667 65.5 -74 94.5
s-34.5 56 -45.5 81s-18.5 48.667 -22.5 71s-6 44.166 -6 65.499c0 62 13.5 116.833 40.5 164.5s61.5 87.667 103.5 120s88.5 56.666 139.5 72.999s100.833 24.5 149.5 24.5c53.333 0 101.166 -7.33301 143.499 -22s78.333 -34.5 108 -59.5s52.334 -54.333 68.001 -88
s23.5 -69.167 23.5 -106.5c0 -32 -2.66699 -61.167 -8 -87.5s-13 -51 -23 -74s-21.833 -44.167 -35.5 -63.5s-28.5 -38 -44.5 -56l-267 -138l312 -365l58.5 71c19 24 36 47 51 69s27 42.167 36 60.5s13.5 33.833 13.5 46.5c0 9.33301 -3 16.833 -9 22.5
s-12.667 9.83398 -20 12.501l-132 47l18 81h530l-18 -81l-125 -50c-14.667 -6 -29.834 -14.667 -45.501 -26s-30.167 -25.666 -43.5 -42.999c-8 -10.667 -19.833 -25.167 -35.5 -43.5l-51 -59l-57 -64.5l-53 -59.5l-39 -43.5l-15.5 -17l133 -151
c4.66699 -6 10 -12.167 16 -18.5s12.167 -12.333 18.5 -18s13 -10.834 20 -15.501s14.5 -8 22.5 -10l172 -52l-22 -83h-222c-24 0 -44.333 1.16699 -61 3.5s-31.167 6.33301 -43.5 12s-23.333 12.834 -33 21.501s-19.5 19.334 -29.5 32.001l-12.5 16l-22 27.5l-25.5 32.5
l-24.5 31l-18.5 23l-7 9c-37.333 -34.667 -75.5 -66.667 -114.5 -96s-79.5 -54.5 -121.5 -75.5s-85.667 -37.5 -131 -49.5s-93 -18 -143 -18z" />
    <glyph glyph-name="quotesingle" unicode="'" horiz-adv-x="703" 
d="M453 890h-106l73 639l6 29h267l-6 -29z" />
    <glyph glyph-name="parenleft" unicode="(" horiz-adv-x="1024" 
d="M672 -228l-28 -126.999c-71.333 8.66699 -135.333 29 -192 61s-104.667 74.5 -144 127.5s-69.5 116.333 -90.5 190s-31.5 156.5 -31.5 248.5c0 112.667 10.833 221.5 32.5 326.5s52.167 203.667 91.5 296s86.333 177.166 141 254.499s114.667 144.833 180 202.5
s135.166 104.334 209.499 140.001s150.833 57.834 229.5 66.501l-29 -128c-66 -12 -128.167 -37.667 -186.5 -77s-111.666 -88.5 -159.999 -147.5s-91.5 -126.5 -129.5 -202.5s-70.167 -156.5 -96.5 -241.5s-46.5 -173 -60.5 -264s-21 -181.167 -21 -270.5
c0 -64 5.83301 -122 17.5 -174s29.167 -97.333 52.5 -136s53 -70.334 89 -95.001s78 -41.334 126 -50.001z" />
    <glyph glyph-name="parenright" unicode=")" horiz-adv-x="1024" 
d="M-25 -355l28.999 127.999c66 12 128 37.667 186 77s111.333 88.5 160 147.5s92 126.5 130 202.5s70.167 156.5 96.5 241.5s46.5 173 60.5 264s21 181.167 21 270.5c0 64 -5.83301 122 -17.5 174s-29.167 97.333 -52.5 136s-53 70.334 -89 95.001s-78 41.334 -126 50.001
l28 127c71.333 -8.66699 135.333 -29 192 -61s104.667 -74.5 144 -127.5s69.5 -116.333 90.5 -190s31.5 -156.5 31.5 -248.5c0 -112 -10.833 -220.5 -32.5 -325.5s-52.167 -203.833 -91.5 -296.5s-86.333 -177.834 -141 -255.501s-114.667 -145.5 -180 -203.5
s-135.166 -104.667 -209.499 -140s-150.833 -57 -229.5 -65z" />
    <glyph glyph-name="asterisk" unicode="*" horiz-adv-x="1266" 
d="M703 971l-188.996 -340.004l-13 -15l-156 113c1.33301 3.33301 3 6.33301 5 9s3.66699 5.66699 5 9l268 284l-7 17l-382 74c-2.66699 1.33301 -5.33398 2.5 -8.00098 3.5s-5.33398 2.16699 -8.00098 3.5l60 183c3.33301 -1.33301 6.5 -2.16602 9.5 -2.49902
s6.16699 -1.16602 9.5 -2.49902l351 -167l19 15l-48 386v17v0h193v0v-17l-47 -386l18 -15l354 167c3.33301 0.666992 6.16602 1.33398 8.49902 2.00098s5.16602 1.33398 8.49902 2.00098l59 -180l-18 -9l-381 -74l-8 -21l264 -280l5.5 -9l5.5 -9l-156 -112
c-2 2.66699 -3.83301 5 -5.5 7s-3.5 4.33301 -5.5 7l-187 340h-24z" />
    <glyph glyph-name="plus" unicode="+" horiz-adv-x="1555" 
d="M892 52h-153v500h-500v150h500v500h153v-500h500v-150h-500v-500z" />
    <glyph glyph-name="comma" unicode="," horiz-adv-x="715" 
d="M25 -406l-58.001 88.9951c32 19.333 63.5 40.5 94.5 63.5s59.667 46.5 86 70.5s49.333 48.167 69 72.5s34.167 47.5 43.5 69.5c-23.333 14.667 -43.333 28 -60 40s-30.5 24 -41.5 36s-19 24.5 -24 37.5s-7.5 27.833 -7.5 44.5c0 17.333 3.16699 35.333 9.5 54
s16 35.834 29 51.501s29.333 28.5 49 38.5s43.167 15 70.5 15c28 0 52.167 -4.33301 72.5 -13s37 -20.5 50 -35.5s22.5 -33 28.5 -54s9 -43.5 9 -67.5c0 -43.333 -7.16699 -84.166 -21.5 -122.499s-33.166 -74.166 -56.499 -107.499s-49.833 -64.166 -79.5 -92.499
s-60.167 -54.166 -91.5 -77.499s-61.833 -44.333 -91.5 -63z" />
    <glyph glyph-name="hyphen" unicode="-" horiz-adv-x="903" 
d="M750 505h-616l42 178h616z" />
    <glyph glyph-name="hyphen" unicode="&#x2010;" horiz-adv-x="903" 
d="M750 505h-616l42 178h616z" />
    <glyph glyph-name="hyphen" unicode="&#xad;" horiz-adv-x="903" 
d="M750 505h-616l42 178h616z" />
    <glyph glyph-name="period" unicode="." horiz-adv-x="715" 
d="M285 -25c-22 0 -42.667 4 -62 12s-36.166 19 -50.499 33s-25.5 30.5 -33.5 49.5s-12 39.5 -12 61.5s4 42.667 12 62s19.167 36.166 33.5 50.499s31.166 25.666 50.499 33.999s40 12.5 62 12.5s42.833 -4.16699 62.5 -12.5s36.667 -19.666 51 -33.999
s25.666 -31.166 33.999 -50.499s12.5 -40 12.5 -62s-4.16699 -42.5 -12.5 -61.5s-19.666 -35.5 -33.999 -49.5s-31.333 -25 -51 -33s-40.5 -12 -62.5 -12z" />
    <glyph glyph-name="slash" unicode="/" horiz-adv-x="1114" 
d="M6 -434h-171l1152 1992h174z" />
    <glyph glyph-name="zero" unicode="0" horiz-adv-x="1504" 
d="M703 93c56 0 106.002 9.49805 150.002 28.498s82.667 44.333 116 76s61.5 68.5 84.5 110.5s41.667 86.167 56 132.5s24.833 93.333 31.5 141s10 92.834 10 135.501c0 54.667 -5.83301 106.667 -17.5 156s-30.334 92.5 -56.001 129.5s-59 66.333 -100 88
s-90.833 32.5 -149.5 32.5c-56 0 -106 -9.5 -150 -28.5s-82.667 -44.5 -116 -76.5s-61.666 -69 -84.999 -111s-42.333 -86.167 -57 -132.5s-25.334 -93.166 -32.001 -140.499s-10 -92 -10 -134c0 -52 5.33301 -102.5 16 -151.5s28.667 -92.5 54 -130.5
s58.666 -68.333 99.999 -91s93 -34 155 -34zM668.002 -31.002c-80.667 0 -153.17 11.832 -217.503 35.499s-119 57.834 -164 102.501s-79.5 99 -103.5 163s-36 136 -36 216c0 66.667 7.5 131.834 22.5 195.501s36.667 123.667 65 180s63.166 108.166 104.499 155.499
s88.333 88 141 122s110.834 60.5 174.501 79.5s132.167 28.5 205.5 28.5c90 0 167.833 -13.833 233.5 -41.5s119.834 -65 162.501 -112s74.334 -101.833 95.001 -164.5s31 -129.334 31 -200.001c0 -66.667 -7.5 -131.667 -22.5 -195s-36.667 -123.166 -65 -179.499
s-63.166 -108 -104.499 -155s-88.5 -87.667 -141.5 -122s-111.333 -61 -175 -80s-132.167 -28.5 -205.5 -28.5z" />
    <glyph glyph-name="one" unicode="1" horiz-adv-x="1104" 
d="M887 0h-792l18 83l131.5 31l131.5 31c12 3.33301 22.667 8.83301 32 16.5s15.666 19.167 18.999 34.5l145 655l50 151h-22l-330 -58l22 97l488 198h94l-20 -78.5l-22 -86.5l-21.5 -88.5l-19.5 -83.5l-156 -706c-3.33301 -15.333 -2.66602 -26.833 2.00098 -34.5
s12.667 -13.167 24 -16.5l244 -62z" />
    <glyph glyph-name="two" unicode="2" horiz-adv-x="1342" 
d="M1076 0l-1072 -0.00195312l30 132l250.5 141.5c79 45 152.167 89 219.5 132s128 85.5 182 127.5s100.167 85 138.5 129s67.666 89.5 87.999 136.5s30.5 96.833 30.5 149.5c0 32 -4.33301 59.5 -13 82.5s-21.5 42 -38.5 57s-38.333 26.167 -64 33.5s-55.834 11 -90.501 11
c-42 0 -86.167 -7.5 -132.5 -22.5s-91 -32.667 -134 -53s-82 -41.166 -117 -62.499l-81.5 -50h-53l49 221l73.5 29.5c29 11.667 62.167 22.834 99.5 33.501s79 19.834 125 27.501s96 11.5 150 11.5c67.333 0 129.333 -6.83301 186 -20.5s105.5 -34 146.5 -61
s72.833 -60.167 95.5 -99.5s34 -84.666 34 -135.999c0 -54.667 -9.66699 -105.334 -29 -152.001s-47 -91 -83 -133s-79.5 -82.5 -130.5 -121.5s-108 -78 -171 -117s-131.167 -78.667 -204.5 -119l-231 -127.5l-4 -20l189 23h413c14.667 0 26.834 3.16699 36.501 9.5
s17.167 16.166 22.5 29.499l56 146h116z" />
    <glyph glyph-name="three" unicode="3" horiz-adv-x="1327" 
d="M383 -359c-53.333 0 -102.499 3.5 -147.499 10.5s-85.667 15.333 -122 25s-68 19.667 -95 30l-64.5 24.5l51 225h43c16 -12 39.333 -27.167 70 -45.5s65.167 -36.333 103.5 -54s79.166 -32.834 122.499 -45.501s86 -19 128 -19c68.667 0 128 9.83301 178 29.5
s91.167 46.834 123.5 81.501s56.166 75.167 71.499 121.5s23 96.5 23 150.5c0 34 -5 65.167 -15 93.5s-26.5 52.833 -49.5 73.5s-53.333 36.834 -91 48.501s-83.834 17.5 -138.501 17.5h-143l36 155h116c58 0 109.833 7.83301 155.5 23.5s84.334 39 116.001 70
s55.834 69.167 72.501 114.5s25 97.666 25 156.999c0 25.333 -3.66699 48.333 -11 69s-19 38.334 -35 53.001s-37 26 -63 34s-58 12 -96 12c-41.333 0 -84.333 -5.66699 -129 -17s-87.5 -25 -128.5 -41s-78.667 -32.667 -113 -50s-61.833 -32 -82.5 -44h-41l48 217
c18 6 40.167 13.833 66.5 23.5s57 19.167 92 28.5s74.333 17.333 118 24s92.5 10 146.5 10c63.333 0 122.833 -6.83301 178.5 -20.5s104.167 -33.5 145.5 -59.5s74 -58 98 -96s36 -81.333 36 -130c0 -32.667 -6.33301 -69.834 -19 -111.501s-34.667 -83 -66 -124
s-73.666 -79.333 -126.999 -115s-121 -63.834 -203 -84.501l-4 -16c36.667 -5.33301 74.667 -14.166 114 -26.499s75.166 -30.333 107.499 -54s59 -54 80 -91s31.5 -82.5 31.5 -136.5c0 -56 -10.167 -108.333 -30.5 -157s-48 -93.167 -83 -133.5s-75.833 -76 -122.5 -107
s-96.5 -57.167 -149.5 -78.5s-107.5 -37.5 -163.5 -48.5s-110.667 -16.5 -164 -16.5z" />
    <glyph glyph-name="four" unicode="4" horiz-adv-x="1410" 
d="M203 278l-5 -21l135 14h458l121 545l57 166h-22zM1050 -351l-574.999 -0.000976562l18 82l151 46c13.333 4 23.833 9.33301 31.5 16s13.167 17.334 16.5 32.001l67 301h-765l31 142l1028 971h159l-215 -968h283l-32 -145h-283l-68 -301
c-3.33301 -14.667 -2.33301 -25.5 3 -32.5s13.666 -12.167 24.999 -15.5l143 -46z" />
    <glyph glyph-name="five" unicode="5" horiz-adv-x="1338" 
d="M434 -359c-53.333 0 -102.501 3.49902 -147.501 10.499s-85.667 15.5 -122 25.5s-68 20 -95 30l-65.5 24l52 225h43c16.667 -12 39.667 -27.167 69 -45.5s62.5 -36.333 99.5 -54s76.5 -32.834 118.5 -45.501s84 -19 126 -19c69.333 0 129 11.333 179 34s91 53 123 91
s55.5 82 70.5 132s22.5 102 22.5 156c0 48.667 -9.83301 90.834 -29.5 126.501s-46.834 65.167 -81.501 88.5s-75.5 40.5 -122.5 51.5s-97.833 16.5 -152.5 16.5c-30 0 -59 -2 -87 -6s-53.833 -8.66699 -77.5 -14s-44.5 -11 -62.5 -17s-32.333 -11 -43 -15l-37 4l234 770
h864l-42 -191h-750l-118 -383c38 11.333 75.833 18.833 113.5 22.5s70.834 5.5 99.501 5.5c77.333 0 147.333 -8.5 210 -25.5s116.167 -42.5 160.5 -76.5s78.5 -76.167 102.5 -126.5s36 -108.5 36 -174.5c0 -61.333 -9.66699 -119.166 -29 -173.499
s-45.666 -104.5 -78.999 -150.5s-72.5 -87.333 -117.5 -124s-93 -67.667 -144 -93s-103.833 -44.833 -158.5 -58.5s-108.667 -20.5 -162 -20.5z" />
    <glyph glyph-name="six" unicode="6" horiz-adv-x="1423" 
d="M663 89c57.333 0 109 11.001 155 33.001s85 53 117 93s56.5 87.5 73.5 142.5s25.5 115.5 25.5 181.5c0 87.333 -24.5 154.833 -73.5 202.5s-120.5 71.5 -214.5 71.5c-32 0 -63.5 -3.5 -94.5 -10.5s-61 -16.333 -90 -28s-56.5 -25 -82.5 -40s-49.667 -30.5 -71 -46.5
c-5.33301 -23.333 -10.166 -45.833 -14.499 -67.5s-8 -42.834 -11 -63.501s-5.33301 -41 -7 -61s-2.5 -40 -2.5 -60c0 -59.333 7.33301 -110.833 22 -154.5s35 -79.667 61 -108s56.667 -49.5 92 -63.5s73.666 -21 114.999 -21zM612 -32.999
c-78 0 -145.171 11.333 -201.504 34s-102.666 54.834 -138.999 96.501s-63.166 92 -80.499 151s-26 124.833 -26 197.5c0 106.667 11.833 207.334 35.5 302.001s55.5 181.834 95.5 261.501s86.5 151 139.5 214s108.833 116.167 167.5 159.5c32 24 65.333 46.167 100 66.5
s70.834 38.166 108.501 53.499s76.667 27.333 117 36s82.5 13 126.5 13c30 0 59.167 -1.5 87.5 -4.5s55 -6.83301 80 -11.5s47.667 -9.5 68 -14.5s37.5 -9.5 51.5 -13.5l-49 -208h-50c-15.333 8.66699 -33.5 18.334 -54.5 29.001s-45.333 20.667 -73 30
s-59.167 17.166 -94.5 23.499s-75.333 9.5 -120 9.5c-24 0 -46.167 -2.5 -66.5 -7.5s-39 -11.333 -56 -19s-32.667 -16.334 -47 -26.001s-27.5 -19.167 -39.5 -28.5c-13.333 -10 -30.666 -26.5 -51.999 -49.5s-43.833 -53.333 -67.5 -91s-47 -83.334 -70 -137.001
s-42.833 -116.5 -59.5 -188.5l-27 -66l10 -6c42 42.667 82.333 77.167 121 103.5s76.334 46.833 113.001 61.5s72.334 24.5 107.001 29.5s68.667 7.5 102 7.5c58 0 111.167 -9.16699 159.5 -27.5s89.833 -44.333 124.5 -78s61.667 -74.167 81 -121.5s29 -100.333 29 -159
c0 -82.667 -15.833 -161.5 -47.5 -236.5s-76.334 -141 -134.001 -198s-126.334 -102.5 -206.001 -136.5s-167.5 -51 -263.5 -51z" />
    <glyph glyph-name="seven" unicode="7" horiz-adv-x="1320" 
d="M249 -374h-200.001l1050 1393l5 22l-66 -8l-65 -8h-532c-13.333 0 -24.166 -3 -32.499 -9s-14.5 -14.667 -18.5 -26l-78 -214h-116l96 434h1058l-21 -99z" />
    <glyph glyph-name="eight" unicode="8" horiz-adv-x="1473" 
d="M676 86c62 0 117.333 9.49902 166 28.499s89.834 44.5 123.501 76.5s59.334 68.667 77.001 110s26.5 84.333 26.5 129c0 40.667 -8.83301 75.667 -26.5 105s-44.334 56 -80.001 80s-79.834 46.833 -132.501 68.5s-114 45.5 -184 71.5
c-43.333 -26 -81.833 -53.667 -115.5 -83s-62.334 -60.666 -86.001 -93.999s-41.667 -68.5 -54 -105.5s-18.5 -75.5 -18.5 -115.5c0 -41.333 6.66699 -78.833 20 -112.5s33 -62.167 59 -85.5s57.833 -41.333 95.5 -54s80.834 -19 129.501 -19zM954 823.999
c32.667 28 61.501 56.1699 86.501 84.5029s46.167 58.166 63.5 89.499s30.5 64.666 39.5 99.999s13.5 73.666 13.5 114.999c0 32.667 -5 62.834 -15 90.501s-25.333 51.5 -46 71.5s-47 35.667 -79 47s-70.333 17 -115 17c-50 0 -95.5 -8.66699 -136.5 -26
s-76.333 -40.333 -106 -69s-52.667 -62 -69 -100s-24.5 -77.333 -24.5 -118c0 -34.667 7.16699 -65.167 21.5 -91.5s37.166 -50.833 68.499 -73.5s71.5 -44.834 120.5 -66.501s108.167 -45.167 177.5 -70.5zM620.001 -34.998c-76.667 0 -144.335 8.49805 -203.002 25.498
s-107.834 40.833 -147.501 71.5s-69.667 67.167 -90 109.5s-30.5 88.833 -30.5 139.5c0 56.667 9.33301 109 28 157s46.334 91.5 83.001 130.5s82.334 73.667 137.001 104s118 56.5 190 78.5c-83.333 42 -144 88 -182 138s-57 106.333 -57 169
c0 60.667 15.167 119.5 45.5 176.5s72.5 107.667 126.5 152s117.667 79.833 191 106.5s153 40 239 40c67.333 0 127.166 -7.83301 179.499 -23.5s96.5 -37.667 132.5 -66s63.333 -62.333 82 -102s28 -83.167 28 -130.5c0 -44 -7 -87.333 -21 -130
s-35.667 -83.167 -65 -121.5s-66.833 -73.666 -112.5 -105.999s-100.167 -60.166 -163.5 -83.499c94 -38.667 163.5 -83.5 208.5 -134.5s67.5 -112.5 67.5 -184.5c0 -65.333 -15.333 -129 -46 -191s-74.667 -117 -132 -165s-127.166 -86.667 -209.499 -116
s-175.166 -44 -278.499 -44z" />
    <glyph glyph-name="nine" unicode="9" horiz-adv-x="1423" 
d="M687 391c32.667 0 64.5 3.66797 95.5 11.001s60.667 16.833 89 28.5s55.5 25.167 81.5 40.5s50 31 72 47l13.5 66c4.33301 22 8 43.5 11 64.5s5.33301 42 7 63s2.5 41.5 2.5 61.5c0 60 -7.16699 112 -21.5 156s-34.333 80.5 -60 109.5s-56 50.667 -91 65
s-73.5 21.5 -115.5 21.5c-58 0 -110 -11.333 -156 -34s-85 -54.167 -117 -94.5s-56.5 -88.333 -73.5 -144s-25.5 -116.834 -25.5 -183.501c0 -88.667 24 -157.167 72 -205.5s120 -72.5 216 -72.5zM375 -356.999c-31.333 0 -61.333 1.66309 -90 4.99609s-55.5 7.5 -80.5 12.5
s-47.833 10 -68.5 15l-53 12.5l51 207h50l55.5 -29c21 -10.667 45.5 -20.667 73.5 -30s59.833 -17.166 95.5 -23.499s76.167 -9.5 121.5 -9.5c24 0 46.333 2.33301 67 7s39.667 10.834 57 18.501s33.333 16.167 48 25.5s28 19 40 29c13.333 10.667 30.5 27.834 51.5 51.501
s43 55 66 94s46 85.833 69 140.5s43.167 118.334 60.5 191.001l27 66l-10 6c-42.667 -43.333 -83.5 -78.5 -122.5 -105.5s-76.667 -47.833 -113 -62.5s-71.666 -24.5 -105.999 -29.5s-68.5 -7.5 -102.5 -7.5c-59.333 0 -113 9.16699 -161 27.5s-89.167 44.5 -123.5 78.5
s-60.833 75 -79.5 123s-28 101.667 -28 161c0 56 7.16699 110.333 21.5 163s34.833 102.334 61.5 149.001s59.334 89.5 98.001 128.5s82.167 72.5 130.5 100.5s101.166 49.833 158.499 65.5s118.333 23.5 183 23.5c79.333 0 147.166 -11.5 203.499 -34.5
s102.333 -55.5 138 -97.5s61.834 -92.833 78.501 -152.5s25 -126.5 25 -200.5c0 -108 -11.667 -210 -35 -306s-54.833 -184.333 -94.5 -265s-85.834 -152.667 -138.501 -216s-108.667 -117 -168 -161c-33.333 -24.667 -67.5 -47.334 -102.5 -68.001
s-71.5 -38.667 -109.5 -54s-77.333 -27.333 -118 -36s-83 -13 -127 -13z" />
    <glyph glyph-name="colon" unicode=":" horiz-adv-x="857" 
d="M339 -25c-22 0 -42.667 4 -62 12s-36.166 19 -50.499 33s-25.5 30.5 -33.5 49.5s-12 39.5 -12 61.5s4 42.667 12 62s19.167 36.166 33.5 50.499s31.166 25.666 50.499 33.999s40 12.5 62 12.5s42.833 -4.16699 62.5 -12.5s36.667 -19.666 51 -33.999
s25.666 -31.166 33.999 -50.499s12.5 -40 12.5 -62s-4.16699 -42.5 -12.5 -61.5s-19.666 -35.5 -33.999 -49.5s-31.333 -25 -51 -33s-40.5 -12 -62.5 -12zM515 800c-22 0 -42.667 4 -62 12s-36.166 19 -50.499 33s-25.5 30.5 -33.5 49.5s-12 39.5 -12 61.5s4 42.667 12 62
s19.167 36.166 33.5 50.499s31.166 25.666 50.499 33.999s40 12.5 62 12.5s42.833 -4.16699 62.5 -12.5s36.667 -19.666 51 -33.999s25.666 -31.166 33.999 -50.499s12.5 -40 12.5 -62s-4.16699 -42.5 -12.5 -61.5s-19.666 -35.5 -33.999 -49.5s-31.333 -25 -51 -33
s-40.5 -12 -62.5 -12z" />
    <glyph glyph-name="semicolon" unicode=";" horiz-adv-x="857" 
d="M19 -317c32 19.333 63.499 40.4951 94.499 63.4951s59.667 46.5 86 70.5s49.333 48.167 69 72.5s34.167 47.5 43.5 69.5c-23.333 14.667 -43.333 28 -60 40s-30.5 24 -41.5 36s-19 24.5 -24 37.5s-7.5 27.833 -7.5 44.5c0 17.333 3.16699 35.333 9.5 54
s16 35.834 29 51.501s29.333 28.5 49 38.5s43.167 15 70.5 15c28 0 52.167 -4.33301 72.5 -13s37 -20.5 50 -35.5s22.5 -33 28.5 -54s9 -43.5 9 -67.5c0 -43.333 -7.16699 -84.166 -21.5 -122.499s-33.166 -74.166 -56.499 -107.499s-49.833 -64.166 -79.5 -92.499
s-60.167 -54.166 -91.5 -77.499s-61.833 -44.333 -91.5 -63l-79.5 -49zM514.999 799.995c-22 0 -42.667 4 -62 12s-36.166 19 -50.499 33s-25.5 30.5 -33.5 49.5s-12 39.5 -12 61.5s4 42.667 12 62s19.167 36.166 33.5 50.499s31.166 25.666 50.499 33.999s40 12.5 62 12.5
s42.833 -4.16699 62.5 -12.5s36.667 -19.666 51 -33.999s25.666 -31.166 33.999 -50.499s12.5 -40 12.5 -62s-4.16699 -42.5 -12.5 -61.5s-19.666 -35.5 -33.999 -49.5s-31.333 -25 -51 -33s-40.5 -12 -62.5 -12z" />
    <glyph glyph-name="less" unicode="&#x3c;" horiz-adv-x="1555" 
d="M1328 191v-172l-1032 538v139l1032 539v-173l-841 -434z" />
    <glyph glyph-name="equal" unicode="=" horiz-adv-x="1555" 
d="M1369 343h-1107v150h1107v-150zM1369 760h-1107v150h1107v-150z" />
    <glyph glyph-name="greater" unicode="&#x3e;" horiz-adv-x="1555" 
d="M1335 557l-1032 -538v172l842 437l-842 434v173l1032 -539v-139z" />
    <glyph glyph-name="question" unicode="?" horiz-adv-x="1168" 
d="M409 -25c-22 0 -42.5 3.83301 -61.5 11.5s-35.667 18.5 -50 32.5s-25.5 30.333 -33.5 49s-12 39 -12 61s4 42.667 12 62s19.167 36 33.5 50s31 25.167 50 33.5s39.5 12.5 61.5 12.5s42.667 -4.16699 62 -12.5s36 -19.5 50 -33.5s25.167 -30.667 33.5 -50
s12.5 -40 12.5 -62s-4.16699 -42.333 -12.5 -61s-19.5 -35 -33.5 -49s-30.667 -24.833 -50 -32.5s-40 -11.5 -62 -11.5zM535 428l-155.003 -0.00488281l79 354c30.667 5.33301 64.167 11.5 100.5 18.5s72.5 16.333 108.5 28s70.667 26.334 104 44.001s62.833 39.667 88.5 66
s46.167 57.833 61.5 94.5s23 80 23 130c0 30 -3.66699 56.333 -11 79s-18.5 41.834 -33.5 57.501s-34.167 27.334 -57.5 35.001s-51 11.5 -83 11.5c-35.333 0 -72.166 -6 -110.499 -18s-75.333 -26.333 -111 -43s-68.167 -33.667 -97.5 -51s-52.333 -31.333 -69 -42h-46
l47 220l57.5 24.5c23 9.66699 49.5 19.167 79.5 28.5s63.167 17.333 99.5 24s75.5 10 117.5 10c54.667 0 107.334 -8.16699 158.001 -24.5s95.334 -40.166 134.001 -71.499s69.5 -69.5 92.5 -114.5s34.5 -95.833 34.5 -152.5c0 -53.333 -7.5 -102 -22.5 -146
s-35.5 -83.833 -61.5 -119.5s-57 -67.5 -93 -95.5s-75.167 -52.667 -117.5 -74s-86.833 -39.666 -133.5 -54.999s-94 -28.333 -142 -39z" />
    <glyph glyph-name="at" unicode="@" horiz-adv-x="2293" 
d="M1103 164c28 0 59.002 8 93.002 24s66 40 96 72l150 578c-11.333 4.66699 -25.833 9.16699 -43.5 13.5s-36 8.16602 -55 11.499s-37.333 6 -55 8s-31.834 3 -42.501 3c-58.667 0 -109.5 -14.5 -152.5 -43.5s-78.5 -66.167 -106.5 -111.5s-48.833 -96.166 -62.5 -152.499
s-20.5 -111.5 -20.5 -165.5c0 -34.667 3.66699 -66.5 11 -95.5s19 -54 35 -75s36.667 -37.333 62 -49s55.666 -17.5 90.999 -17.5zM1051 -436c-80 0 -156.002 9.00488 -228.002 27.0049s-138.333 44 -199 78s-115.334 75.167 -164.001 123.5s-90 102.833 -124 163.5
s-60.167 127 -78.5 199s-27.5 148.667 -27.5 230c0 105.333 13.167 205.333 39.5 300s63.5 182.167 111.5 262.5s105.5 152.5 172.5 216.5s140.833 118.5 221.5 163.5s167 79.5 259 103.5s187.333 36 286 36c113.333 0 216.666 -16.5 309.999 -49.5
s173.5 -80.333 240.5 -142s118.833 -136.334 155.5 -224.001s55 -186.167 55 -295.5c0 -74 -9.16699 -143.667 -27.5 -209s-41.5 -124.5 -69.5 -177.5s-58.833 -99.167 -92.5 -138.5s-66.167 -70.333 -97.5 -93s-63.166 -41.334 -95.499 -56.001s-63.833 -26.5 -94.5 -35.5
s-60 -15.333 -88 -19s-53.333 -5.5 -76 -5.5c-27.333 0 -50.166 5.16699 -68.499 15.5s-33.166 23.166 -44.499 38.499s-19.5 32.333 -24.5 51s-7.5 36.334 -7.5 53.001h-7c-34 -37.333 -66 -66.5 -96 -87.5s-57.833 -36.667 -83.5 -47s-48.834 -16.666 -69.501 -18.999
s-38.667 -3.5 -54 -3.5c-47.333 0 -88.666 8.33301 -123.999 25s-65 39.834 -89 69.501s-42 65.167 -54 106.5s-18 86.666 -18 135.999c0 53.333 6 106.5 18 159.5s29.167 103.5 51.5 151.5s49.5 92.667 81.5 134s68.167 77 108.5 107s84.333 53.667 132 71
s98.5 26 152.5 26c50.667 0 93.167 -8.66699 127.5 -26s61.166 -37 80.499 -59l43 77h179l-157 -598l-6 -25c-4 -16.667 -8.16699 -35.5 -12.5 -56.5l-12.5 -59.5c-4 -18.667 -6 -30.334 -6 -35.001c0 -8 1.16699 -16.333 3.5 -25s6.66602 -16.667 12.999 -24
s15.333 -13.333 27 -18s26.5 -7 44.5 -7c52 0 99.5 16.167 142.5 48.5s80 74.666 111 126.999s55 111.666 72 177.999s25.5 133.833 25.5 202.5c0 109.333 -17.167 204 -51.5 284s-81.5 146 -141.5 198s-131 90.667 -213 116s-170.333 38 -265 38
c-68.667 0 -137 -10.333 -205 -31s-132.5 -50.167 -193.5 -88.5s-117.667 -84.666 -170 -138.999s-97.666 -115.5 -135.999 -183.5s-68.333 -142 -90 -222s-32.5 -164.333 -32.5 -253c0 -126.667 18.5 -236.834 55.5 -330.501s87 -171.334 150 -233.001
s136.333 -107.667 220 -138s172.167 -45.5 265.5 -45.5c54.667 0 112 4.66699 172 14s119.833 24 179.5 44s117.834 46 174.501 78s109.334 70.667 158.001 116l68 -106c-48 -40 -101.5 -76.167 -160.5 -108.5s-122.833 -60 -191.5 -83s-141.667 -40.667 -219 -53
s-158 -18.5 -242 -18.5z" />
    <glyph glyph-name="A" unicode="A" horiz-adv-x="1515" 
d="M870 1197l-336 -560h445l-74 425l-15 135h-20zM390 0l-478.999 0.000976562l18 83l107 52c11.333 5.33301 22.833 13.166 34.5 23.499s20.5 20.5 26.5 30.5l641 1042l170 242h136l223 -1289c2 -10.667 5.66699 -21.167 11 -31.5s12.666 -17.5 21.999 -21.5l117 -48
l-18 -83h-526l18 83l173 65l-61 352h-554l-206 -345l165 -72z" />
    <glyph glyph-name="B" unicode="B" horiz-adv-x="1490" 
d="M574 680l-120 -546h285c130.667 0 226.667 27.333 288 82s92 138 92 250c0 38.667 -6.5 71.667 -19.5 99s-33.5 49.5 -61.5 66.5s-63.667 29.333 -107 37s-95.333 11.5 -156 11.5h-201zM716 1317l-113 -509h112c84 0 153.167 7.16699 207.5 21.5s97.5 34.5 129.5 60.5
s54.333 57.5 67 94.5s19 78.167 19 123.5c0 72 -23.667 124.833 -71 158.5s-122 50.5 -224 50.5h-127zM24 0l18.9961 82.999l162 56c11.333 4 21 9.33301 29 16s13.667 17.334 17 32.001l239 1081c2.66699 13.333 1.83398 22.833 -2.49902 28.5s-11.833 10.834 -22.5 15.501
l-162 58l19 81h571c95.333 0 174.333 -7.83301 237 -23.5s112.334 -36.5 149.001 -62.5s62.334 -56 77.001 -90s22 -69.333 22 -106c0 -51.333 -9.33301 -98.5 -28 -141.5s-44.5 -81.333 -77.5 -115s-72.167 -62.334 -117.5 -86.001s-95 -41.5 -149 -53.5l-1 -10
c52 -3.33301 99.667 -12.333 143 -27s80.666 -34.834 111.999 -60.501s55.833 -56.167 73.5 -91.5s26.5 -75.333 26.5 -120c0 -60 -9 -113 -27 -159s-42.667 -86.167 -74 -120.5s-68.333 -63.333 -111 -87s-88.667 -42.667 -138 -57s-100.666 -24.666 -153.999 -30.999
s-106.666 -9.5 -159.999 -9.5h-672z" />
    <glyph glyph-name="C" unicode="C" horiz-adv-x="1452" 
d="M752 -31c-94 0 -178.494 13.334 -253.494 40.001s-138.833 65.5 -191.5 116.5s-93 114 -121 189s-42 160.5 -42 256.5c0 86 9.33301 168.167 28 246.5s45.167 151.333 79.5 219s76.166 129 125.499 184s104.833 101.833 166.5 140.5s128.667 68.667 201 90
s149.166 32 230.499 32c37.333 0 78.833 -3 124.5 -9s91.167 -13.333 136.5 -22s88.666 -17.667 129.999 -27l104 -24l-87 -380h-135l28 214c0.666992 4.66699 -0.333008 9.16699 -3 13.5s-6 8.33301 -10 12s-8.33301 7 -13 10l-12 7.5c-21.333 11.333 -43 21.5 -65 30.5
s-44.833 16.5 -68.5 22.5s-48.334 10.667 -74.001 14s-52.5 5 -80.5 5c-62.667 0 -120.334 -9 -173.001 -27s-100.167 -43.333 -142.5 -76s-79.333 -71.667 -111 -117s-58.167 -95.333 -79.5 -150s-37.333 -113 -48 -175s-16 -126 -16 -192
c0 -156.667 38.667 -275.334 116 -356.001s190.666 -121 339.999 -121c46 0 90.333 7.66699 133 23s82.334 33.5 119.001 54.5s70 42.833 100 65.5l76 56h60l-34 -148c-32 -24 -68.167 -49 -108.5 -75s-83.5 -49.5 -129.5 -70.5s-94.333 -38.333 -145 -52
s-102.334 -20.5 -155.001 -20.5z" />
    <glyph glyph-name="D" unicode="D" horiz-adv-x="1652" 
d="M716 1317l-262 -1183h314c96 0 180.667 16.833 254 50.5s134.666 80.667 183.999 141s86.5 132.833 111.5 217.5s37.5 178 37.5 280c0 76.667 -10.667 145.5 -32 206.5s-52.166 112.833 -92.499 155.5s-89.5 75.334 -147.5 98.001s-124 34 -198 34h-169zM24 -0.000976562
l18.999 83l162 56c10 3.33301 19.333 8.5 28 15.5s14.667 17.833 18 32.5l239 1081c2.66699 13.333 1.83398 22.833 -2.49902 28.5s-11.833 10.834 -22.5 15.501l-162 58l19 81h637c44 0 90.167 -3.83301 138.5 -11.5s96 -20.667 143 -39s91.833 -42.166 134.5 -71.499
s80.167 -65.833 112.5 -109.5s58 -94.834 77 -153.501s28.5 -126.334 28.5 -203.001c0 -92 -9.66699 -177.333 -29 -256s-47 -150 -83 -214s-79.5 -120.5 -130.5 -169.5s-108.333 -90 -172 -123s-132.667 -58 -207 -75s-152.833 -25.5 -235.5 -25.5h-712z" />
    <glyph glyph-name="E" unicode="E" horiz-adv-x="1488" 
d="M1242 0l-1218 -0.000976562l19 83l162 56c11.333 4 21 9.33301 29 16s13.667 17.334 17 32.001l239 1081c2.66699 13.333 1.83398 22.833 -2.49902 28.5s-11.833 10.834 -22.5 15.501l-162 58l19 81h1144l-81 -366h-137l12 192
c1.33301 12.667 -1.33398 22.167 -8.00098 28.5s-15.334 9.5 -26.001 9.5h-510l-110 -493h304c14 0 24.833 3 32.5 9s14.167 15.667 19.5 29l65 156h110l-117 -524h-110l4 155c0.666992 13.333 -1.5 23.166 -6.5 29.499s-14.5 9.5 -28.5 9.5h-303l-121 -550h608
c9.33301 0 19 3.5 29 10.5s17.333 16.5 22 28.5l79 214h136z" />
    <glyph glyph-name="F" unicode="F" horiz-adv-x="1371" 
d="M643 0l-617.995 -0.00292969l18 83l162 56c11.333 4 21 9.33301 29 16s13.667 17.334 17 32.001l239 1081c2.66699 13.333 1.66699 22.833 -3 28.5s-12.334 10.834 -23.001 15.501l-161 58l18 81h1149l-81 -366h-137l12 192
c1.33301 12.667 -1.33398 22.167 -8.00098 28.5s-15.334 9.5 -26.001 9.5h-514l-114 -511h321c13.333 0 23.666 3.16699 30.999 9.5s13.666 15.5 18.999 27.5l66 157h109l-117 -524h-109l4 155c0.666992 12.667 -1.33301 22.167 -6 28.5s-14 9.5 -28 9.5h-320l-106 -480
c-2.66699 -11.333 -2 -21.166 2 -29.499s12 -14.5 24 -18.5l169 -56z" />
    <glyph glyph-name="G" unicode="G" horiz-adv-x="1634" 
d="M742 -33c-86 0 -165.502 12.6689 -238.502 38.002s-136.167 63.166 -189.5 113.499s-95 112.833 -125 187.5s-45 161 -45 259c0 85.333 9.5 167.333 28.5 246s46.167 152 81.5 220s78.166 129.833 128.499 185.5s107 103.167 170 142.5s131.667 69.833 206 91.5
s152.833 32.5 235.5 32.5c50 0 96.5 -1.66699 139.5 -5s82.667 -7.5 119 -12.5s70 -10.833 101 -17.5s59.5 -13.334 85.5 -20.001l92 -24l-86 -380h-137l31 215c0 10 -6.33301 19.667 -19 29s-29.5 18.166 -50.5 26.499s-44.667 15.833 -71 22.5s-53.333 12.5 -81 17.5
s-54.667 8.83301 -81 11.5s-49.5 4 -69.5 4c-60 0 -116.167 -8.16699 -168.5 -24.5s-100.166 -39.833 -143.499 -70.5s-82 -68.167 -116 -112.5s-62.667 -94 -86 -149s-41.166 -115.167 -53.499 -180.5s-18.5 -134.666 -18.5 -207.999c0 -76 9.5 -145.167 28.5 -207.5
s47.333 -115.666 85 -159.999s84.167 -78.5 139.5 -102.5s119 -36 191 -36c32.667 0 62.167 2.16699 88.5 6.5s50 9.5 71 15.5s39.5 12.333 55.5 19l43 18l76 351c3.33301 13.333 2.33301 23 -3 29s-13 10.667 -23 14l-202 59l17 81h626l-17 -81l-141 -59
c-8 -3.33301 -16.667 -8 -26 -14s-15.666 -15.667 -18.999 -29l-37 -167c-7.33301 -32.667 -13.833 -62.834 -19.5 -90.501l-15 -75c-4.33301 -22.333 -7.83301 -42.5 -10.5 -60.5l-7 -46c-40 -13.333 -81.167 -26.333 -123.5 -39s-86 -23.667 -131 -33
s-91.167 -16.833 -138.5 -22.5s-96.333 -8.5 -147 -8.5z" />
    <glyph glyph-name="H" unicode="H" horiz-adv-x="1801" 
d="M634 0h-610.001l19 83l162 56c9.33301 3.33301 18.5 8.5 27.5 15.5s15.167 17.833 18.5 32.5l239 1081c2.66699 13.333 1.83398 22.833 -2.49902 28.5s-11.5 10.834 -21.5 15.501l-162 58l19 81h610l-19 -81l-161 -58c-11.333 -4.66699 -21.333 -9.83398 -30 -15.501
s-14.667 -15.167 -18 -28.5l-99 -446h717l99 446c2.66699 13.333 1.66699 22.833 -3 28.5s-12.667 10.834 -24 15.501l-160 58l19 81h611l-19 -81l-160 -58c-12 -4.66699 -22.333 -9.83398 -31 -15.501s-14.667 -15.167 -18 -28.5l-239 -1081
c-2.66699 -14 -2.16699 -24.333 1.5 -31s12.167 -12.334 25.5 -17.001l160 -56l-19 -83h-611l19 83l160 56c11.333 4 21.5 9.33301 30.5 16s15.167 17.334 18.5 32.001l110 499h-717l-110 -499c-2.66699 -11.333 -2.5 -20.833 0.5 -28.5s11.5 -14.167 25.5 -19.5l161 -56z
" />
    <glyph glyph-name="I" unicode="I" horiz-adv-x="899" 
d="M653 0l-629.999 -0.000976562l20 83l171 56c12 4 22 9.33301 30 16s13.667 17.334 17 32.001l239 1081c2.66699 13.333 1.83398 22.833 -2.49902 28.5s-11.833 10.834 -22.5 15.501l-171 58l18 81h630l-18 -81l-115 -39c-10 -3.33301 -20.5 -6.33301 -31.5 -9
s-21.333 -6.16699 -31 -10.5s-18.334 -10 -26.001 -17s-12.834 -15.833 -15.501 -26.5l-239 -1081c-2.66699 -14 -2.16699 -24.333 1.5 -31s11.5 -12.334 23.5 -17.001l172 -56z" />
    <glyph glyph-name="J" unicode="J" horiz-adv-x="893" 
d="M-99 -418c-12.667 0 -28.1621 0.833984 -46.4951 2.50098s-37.333 3.66699 -57 6s-38.834 5.16602 -57.501 8.49902s-34.334 6.66602 -47.001 9.99902l42 210h59c14 -5.33301 30.667 -11.166 50 -17.499s39.166 -12.333 59.499 -18s39.833 -10.5 58.5 -14.5
s34.667 -6 48 -6c49.333 0 87.666 5.16699 114.999 15.5s48.666 24.833 63.999 43.5c8 10 16.5 27.333 25.5 52s18.167 54.167 27.5 88.5s18.666 72.5 27.999 114.5l29 129l215 1062c2 6.66699 1.33301 14.5 -2 23.5s-11.666 15.833 -24.999 20.5l-192 58l18 81h636l-18 -81
l-159 -58c-11.333 -4 -20.666 -9 -27.999 -15s-12.333 -15.667 -15 -29l-211 -1049c-22.667 -110 -53.334 -205.167 -92.001 -285.5s-84.334 -146.5 -137.001 -198.5s-111.667 -90.5 -177 -115.5s-135.666 -37.5 -210.999 -37.5z" />
    <glyph glyph-name="K" unicode="K" horiz-adv-x="1571" 
d="M634 0h-610.002l19 83l162 56c11.333 4 21 9.33301 29 16s13.667 17.334 17 32.001l239 1081c2 10.667 1.5 19.5 -1.5 26.5s-10.833 12.833 -23.5 17.5l-162 58l19 81h610l-19 -81l-161 -58c-12 -4.66699 -22 -9.83398 -30 -15.501s-13.667 -15.167 -17 -28.5l-125 -564
l690 604l-66 62l19 81h486l-19 -81l-85.5 -28.5l-85.5 -27.5c-12.667 -4 -27 -9.66699 -43 -17s-31.667 -17.666 -47 -30.999l-523 -445l341 -631l9.5 -16c3.66699 -6 7.83398 -11.667 12.501 -17s9.5 -10.333 14.5 -15s10.167 -8 15.5 -10l146 -54l-18 -78h-473l18 78
l70 52l-302 561l-181 -82l-93 -422c-2.66699 -14 -2.16699 -24.333 1.5 -31s11.834 -12.334 24.501 -17.001l161 -56z" />
    <glyph glyph-name="L" unicode="L" horiz-adv-x="1374" 
d="M1182 0h-1158l19 83l162 56c9.33301 3.33301 18.5 8.5 27.5 15.5s15.167 17.833 18.5 32.5l239 1081c2 10.667 1.33301 19.5 -2 26.5s-11 12.833 -23 17.5l-161 58l17 81h610l-17 -81l-162 -58c-10 -4 -19.5 -9 -28.5 -15s-15.167 -15.667 -18.5 -29l-251 -1132h539
c4.66699 0 9.66699 0.833008 15 2.5s10.5 4 15.5 7s9.5 7 13.5 12s7 10.833 9 17.5l102 303h141z" />
    <glyph glyph-name="M" unicode="M" horiz-adv-x="2136" 
d="M563 0h-538.002l18 83l164 64c10 4 19.333 9 28 15s14.667 16.333 18 31l237 1075c2.66699 13.333 1.83398 22.833 -2.49902 28.5s-12.166 10.834 -23.499 15.501l-160 58l18 81h538l130 -966l11 -165h23l634 1131h531l-18 -81l-162 -58
c-10 -3.33301 -19.5 -8.33301 -28.5 -15s-15.167 -16.334 -18.5 -29.001l-240 -1081c-2.66699 -14 -2.16699 -24.333 1.5 -31s12.167 -12.334 25.5 -17.001l160 -56l-18 -83h-607l18 83l159 56c11.333 4 21.5 9.33301 30.5 16s15.167 17.334 18.5 32.001l255 1151h-24
l-77 -147l-558 -971l-140 -220h-118l-161 1191l-11 147h-23l-253 -1145c-2.66699 -11.333 -2.5 -20.5 0.5 -27.5s10.833 -13.167 23.5 -18.5l157 -64z" />
    <glyph glyph-name="N" unicode="N" horiz-adv-x="1796" 
d="M1338 -10l-120.003 -0.00195312l-531 1095l-43 125h-21l-223 -1017c-1.33301 -9.33301 -1.66602 -16.5 -0.999023 -21.5s2 -9 4 -12s4.83301 -5.33301 8.5 -7l12.5 -5.5l157 -64l-18 -83h-538l18 83l164 64c11.333 4.66699 21 9.83398 29 15.501s13.667 15.834 17 30.501
l237 1075c2.66699 13.333 1.83398 23 -2.49902 29s-12.166 11 -23.499 15l-166 58l19 81h421l489 -1011l43 -126h21l208 948c3.33301 9.33301 2 17.833 -4 25.5s-14 13.5 -24 17.5l-157 65l17 81h541l-17 -81l-164 -65c-9.33301 -4 -18.333 -8.83301 -27 -14.5
s-14.667 -15.167 -18 -28.5l-230 -1042z" />
    <glyph glyph-name="O" unicode="O" horiz-adv-x="1647" 
d="M752 -34c-99.333 0 -186.835 13.3301 -262.502 39.9971s-139 65 -190 115s-89.667 111.333 -116 184s-39.5 155 -39.5 247c0 83.333 8.83301 164.333 26.5 243s43.167 152.5 76.5 221.5s74.333 132.333 123 190s104 107 166 148s130.333 73 205 96s155 34.5 241 34.5
c106 0 197.167 -14.333 273.5 -43s139.333 -68.834 189 -120.501s86.334 -113 110.001 -184s35.5 -148.833 35.5 -233.5c0 -72 -7.5 -145.167 -22.5 -219.5s-37.667 -146.166 -68 -215.499s-68.5 -134.666 -114.5 -195.999s-100.167 -114.666 -162.5 -159.999
s-132.666 -81.166 -210.999 -107.499s-164.833 -39.5 -259.5 -39.5zM781.998 97.9971c62.667 0 120.331 10.998 172.998 32.998s100.167 52.167 142.5 90.5s79.333 83.5 111 135.5s58.167 108.167 79.5 168.5s37.333 123.333 48 189s16 131.167 16 196.5
c0 69.333 -8.16699 131.333 -24.5 186s-41.166 101 -74.499 139s-75.166 67 -125.499 87s-109.833 30 -178.5 30c-67.333 0 -128 -11.667 -182 -35s-102 -55.166 -144 -95.499s-78.167 -87.166 -108.5 -140.499s-55.5 -110 -75.5 -170s-34.667 -121.667 -44 -185
s-14 -125 -14 -185c0 -70 8.33301 -132.5 25 -187.5s41.667 -101.5 75 -139.5s75 -67 125 -87s108.667 -30 176 -30z" />
    <glyph glyph-name="P" unicode="P" horiz-adv-x="1373" 
d="M814 717c59.333 0 110.332 10.668 152.999 32.001s77.667 49.166 105 83.499s47.5 72.666 60.5 114.999s19.5 84.5 19.5 126.5c0 33.333 -5.16699 64.833 -15.5 94.5s-27.5 55.5 -51.5 77.5s-56 39.333 -96 52s-90 19 -150 19h-122l-130 -580
c10.667 -3.33301 25.5 -6.16602 44.5 -8.49902s39.167 -4.33301 60.5 -6s42.833 -3 64.5 -4s40.834 -1.5 57.501 -1.5zM641.999 0.000976562h-618.002l19 83l162 56c9.33301 3.33301 18.5 8.5 27.5 15.5s15.167 17.833 18.5 32.5l239 1081
c2.66699 13.333 1.83398 22.833 -2.49902 28.5s-11.5 10.834 -21.5 15.501l-162 58l19 81h575c68.667 0 133 -7 193 -21s112.333 -35.167 157 -63.5s79.834 -63.833 105.501 -106.5s38.5 -93 38.5 -151c0 -77.333 -14.5 -148.5 -43.5 -213.5s-69.167 -121.167 -120.5 -168.5
s-111.833 -84.333 -181.5 -111s-145.5 -40 -227.5 -40c-16.667 0 -36.667 1.83301 -60 5.5s-47 8.66699 -71 15s-46.833 13.666 -68.5 21.999s-39.167 17.166 -52.5 26.499l-101 -458c-2.66699 -13.333 -2 -23.666 2 -30.999s12 -13 24 -17l169 -56z" />
    <glyph glyph-name="Q" unicode="Q" horiz-adv-x="1655" 
d="M782 98c62.667 0 120.331 10.998 172.998 32.998s100.167 52.167 142.5 90.5s79.333 83.5 111 135.5s58.167 108.167 79.5 168.5s37.333 123.333 48 189s16 131.167 16 196.5c0 69.333 -8.16699 131.333 -24.5 186s-41.166 101 -74.499 139s-75.166 67 -125.499 87
s-109.833 30 -178.5 30c-67.333 0 -128 -11.667 -182 -35s-102 -55.166 -144 -95.499s-78.167 -87.166 -108.5 -140.499s-55.5 -110 -75.5 -170s-34.667 -121.667 -44 -185s-14 -125 -14 -185c0 -70 8.33301 -132.5 25 -187.5s41.667 -101.5 75 -139.5s75 -67 125 -87
s108.667 -30 176 -30zM1311 -502.002l-222.002 -0.00195312c-34 0 -60.667 2 -80 6s-35 11 -47 21s-22.333 23.333 -31 40l-32 63l-177 338c-94 2.66699 -177 17.834 -249 45.501s-132.333 66.667 -181 117s-85.5 111 -110.5 182s-37.5 151.5 -37.5 241.5
c0 83.333 8.83301 164.333 26.5 243s43.167 152.5 76.5 221.5s74.333 132.333 123 190s104 107 166 148s130.333 73 205 96s155 34.5 241 34.5c106 0 197.167 -14.333 273.5 -43s139.333 -68.834 189 -120.501s86.334 -113 110.001 -184s35.5 -148.833 35.5 -233.5
c0 -63.333 -5.83301 -127.666 -17.5 -192.999s-29.167 -129.166 -52.5 -191.499s-52.833 -122 -88.5 -179s-77.5 -108.833 -125.5 -155.5s-102.167 -87.167 -162.5 -121.5s-127.166 -59.833 -200.499 -76.5l155 -295c5.33301 -10 13.5 -21.833 24.5 -35.5
s23.167 -22.5 36.5 -26.5l171 -49z" />
    <glyph glyph-name="R" unicode="R" horiz-adv-x="1557" 
d="M793 759c62.667 0 117.004 9.83203 163.004 29.499s84.167 45.5 114.5 77.5s52.833 68.333 67.5 109s22 82 22 124c0 32.667 -5.33301 62.334 -16 89.001s-27.834 49.5 -51.501 68.5s-54.667 33.833 -93 44.5s-85.5 16 -141.5 16h-141l-122 -544
c7.33301 -1.33301 19.666 -2.83301 36.999 -4.5s36.166 -3.16699 56.499 -4.5s40.166 -2.5 59.499 -3.5s34.333 -1.5 45 -1.5zM634.004 -0.000976562l-610.004 -0.00195312l19 83l163 56c11.333 4 20.833 9.33301 28.5 16s13.167 17.334 16.5 32.001l239 1081
c2.66699 13.333 1.83398 22.833 -2.49902 28.5s-11.833 10.834 -22.5 15.501l-161 58l17 81h591c96.667 0 176.5 -8.83301 239.5 -26.5s112.667 -41.167 149 -70.5s61.666 -62.666 75.999 -99.999s21.5 -75.666 21.5 -114.999c0 -46.667 -6.5 -89.667 -19.5 -129
s-30.5 -75.333 -52.5 -108s-47.167 -61.667 -75.5 -87s-58.166 -47.333 -89.499 -66s-62.666 -34.334 -93.999 -47.001s-60.666 -22 -87.999 -28l256 -477c5.33301 -10.667 13.5 -22.667 24.5 -36s23.5 -22 37.5 -26l174 -52l-19 -83h-232c-31.333 0 -56 1.66699 -74 5
s-32.667 9 -44 17s-20.666 18.333 -27.999 31l-26 47l-41.5 79l-57 108l-62 117.5l-57.5 108l-42 79l-16 30.5l-202 40l-104 -475c-2.66699 -14 -2 -24.333 2 -31s12.333 -12.334 25 -17.001l160 -56z" />
    <glyph glyph-name="S" unicode="S" horiz-adv-x="1322" 
d="M543 -35c-36 0 -74.3311 2.82812 -114.998 8.49512s-82.167 13.334 -124.5 23.001s-84.5 20.667 -126.5 33s-82 25.166 -120 38.499l86 390h138l-22 -222c-0.666992 -9.33301 3.16602 -19.166 11.499 -29.499s20 -20.5 35 -30.5s32.667 -19.833 53 -29.5
s42.333 -18.167 66 -25.5s48.167 -13.166 73.5 -17.499s50.666 -6.5 75.999 -6.5c60.667 0 115 6.5 163 19.5s88.667 31.833 122 56.5s59 55 77 91s27 77 27 123s-13.333 85.833 -40 119.5s-64 62.167 -112 85.5c-28 13.333 -55.667 25.5 -83 36.5l-80.5 31.5l-78 30
c-25.667 10 -50.834 21 -75.501 33c-33.333 16 -63.833 34.5 -91.5 55.5s-51.5 44.5 -71.5 70.5s-35.667 54.5 -47 85.5s-17 64.5 -17 100.5c0 64.667 15.167 124.5 45.5 179.5s71.333 102.5 123 142.5s111.834 71.333 180.501 94s141.667 34 219 34
c42.667 0 84.5 -2.33301 125.5 -7s80.833 -10.667 119.5 -18s75.5 -15.333 110.5 -24l98.5 -25l-85 -379h-137l21 209c0.666992 6 -1.66602 13 -6.99902 21s-13.166 16.167 -23.499 24.5s-23 16.333 -38 24s-32.333 14.667 -52 21s-41.5 11.333 -65.5 15
s-49.667 5.5 -77 5.5c-57.333 0 -107.5 -6.66699 -150.5 -20s-79.167 -31.833 -108.5 -55.5s-51.333 -51.167 -66 -82.5s-22 -65 -22 -101c0 -20 3 -39.667 9 -59s15.667 -37.666 29 -54.999s30.833 -34 52.5 -50s48.5 -31 80.5 -45
c51.333 -23.333 102.666 -44.666 153.999 -63.999s101.666 -41 150.999 -65c27.333 -14 55 -30.167 83 -48.5s53.333 -40 76 -65s41.167 -53.5 55.5 -85.5s21.5 -68.667 21.5 -110c0 -58 -12.333 -115.833 -37 -173.5s-63.167 -109.167 -115.5 -154.5
s-119.333 -82.166 -201 -110.499s-179.5 -42.5 -293.5 -42.5z" />
    <glyph glyph-name="T" unicode="T" horiz-adv-x="1463" 
d="M936 0l-627.001 -0.00195312l18 83l171 56c12 4 21.833 9.33301 29.5 16s13.167 17.334 16.5 32.001l250 1130h-336c-10.667 0 -20.667 -3.33301 -30 -10s-16.333 -16 -21 -28l-78 -214h-136l86 386h1304l-86 -386h-137l18 214c1.33301 13.333 -1.66699 23 -9 29
s-15.666 9 -24.999 9h-335l-250 -1130c-2.66699 -13.333 -2 -23.666 2 -30.999s12 -13 24 -17l169 -56z" />
    <glyph glyph-name="U" unicode="U" horiz-adv-x="1732" 
d="M774 -35c-84 0 -157.671 10.333 -221.004 31s-116.166 48.167 -158.499 82.5s-74.166 73.666 -95.499 117.999s-32 90.166 -32 137.499c0 12.667 0.666992 26.167 2 40.5s3.16602 28.666 5.49902 42.999s4.83301 28.166 7.5 41.499s5.33398 25.666 8.00098 36.999
l171 772c2.66699 13.333 1.83398 22.833 -2.49902 28.5s-12.833 10.834 -25.5 15.501l-158 58l18 81h609l-18 -81l-162 -58c-9.33301 -3.33301 -18.333 -8.16602 -27 -14.499s-14.667 -16.166 -18 -29.499l-76 -343l-76 -343c-2 -8.66699 -4.16699 -19.667 -6.5 -33l-7 -42
c-2.33301 -14.667 -4.16602 -29.167 -5.49902 -43.5s-2 -27.166 -2 -38.499c0 -34.667 4.5 -69.834 13.5 -105.501s25.333 -68 49 -97s56 -52.667 97 -71s93.5 -27.5 157.5 -27.5c52 0 98.5 6.16699 139.5 18.5s77.333 29 109 50s59 44.833 82 71.5s42.5 54.334 58.5 83.001
s29 57.167 39 85.5s17.667 54.5 23 78.5l165 751c2.66699 6.66699 1.66699 14.5 -3 23.5s-12 15.5 -22 19.5l-158 65l18 81h539l-18 -81l-163 -65c-10.667 -4 -20 -8.83301 -28 -14.5s-13.667 -15.167 -17 -28.5l-181 -820c-12.667 -56.667 -31.834 -107.667 -57.501 -153
s-55.667 -85.666 -90 -120.999s-71.666 -65.833 -111.999 -91.5s-81.833 -46.667 -124.5 -63s-85 -28.5 -127 -36.5s-81.667 -12 -119 -12z" />
    <glyph glyph-name="V" unicode="V" horiz-adv-x="1521" 
d="M696 -20l-139.999 -0.000976562l-225 1290c-1.33301 9.33301 -5 18.833 -11 28.5s-14 16.834 -24 21.501l-111 50l18 81h525l-18 -81l-172 -67l156 -915l15 -131h22l625 1039l-161 74l18 81h478l-18 -81l-108 -54c-11.333 -6 -22.333 -13.167 -33 -21.5
s-19.334 -17.833 -26.001 -28.5l-643 -1046z" />
    <glyph glyph-name="W" unicode="W" horiz-adv-x="2313" 
d="M621 -14h-169.001l-115 1284c-1.33301 12 -4.66602 22.167 -9.99902 30.5s-13 14.833 -23 19.5l-106 50l18 81h518l-18 -81l-174 -67l79 -885l4 -139h23l475 875l165 267h161l106 -1003l10 -137h21l557 1015l-171 74l18 81h484l-18 -81l-103 -54
c-10.667 -5.33301 -21.667 -12.5 -33 -21.5s-19.666 -18.5 -25 -28.5l-574 -1019l-161 -261h-167l-105 1009l-3 135h-20l-480 -883z" />
    <glyph glyph-name="X" unicode="X" horiz-adv-x="1523" 
d="M420 0l-487 0.000976562l19 83l131 46c12.667 4.66699 25.167 11.834 37.5 21.501s24.166 20.167 35.499 31.5l541 546l-276 544l-9 15c-3.33301 5.33301 -7 10.166 -11 14.499s-8.33301 8.33301 -13 12s-9.66699 6.5 -15 8.5l-129 48l19 81h516l-19 -81l-124 -67
l167 -335l41 -117h11l420 447l-119 72l19 81h475l-19 -81l-121 -48l-14.5 -7.5c-5.66699 -3 -11.5 -6.83301 -17.5 -11.5l-18.5 -14.5c-6.33301 -5 -12.5 -10.5 -18.5 -16.5l-524 -535l282 -555c6.66699 -12.667 13.834 -23.834 21.501 -33.501s16.5 -16.167 26.5 -19.5
l128 -46l-19 -83h-517l19 83l126 66l-177 358l-41 104h-12l-434 -458l119 -70z" />
    <glyph glyph-name="Y" unicode="Y" horiz-adv-x="1458" 
d="M928 0l-626.999 -0.00390625l19 83l169 56c11.333 4 21.333 9.33301 30 16s14.667 17.334 18 32.001l77 345l-258 738c-3.33301 9.33301 -7.5 18.833 -12.5 28.5s-12.5 16.834 -22.5 21.501l-117 50l18 81h523l-18 -81l-163 -65l175 -495l34 -123h21l476 610l-159 73
l18 81h480l-18 -81l-113 -54c-10.667 -5.33301 -21.334 -12.666 -32.001 -21.999s-20 -18.666 -28 -27.999l-589 -729l-77 -350c-2 -12 -1.83301 -22 0.5 -30s9.83301 -14 22.5 -18l172 -56z" />
    <glyph glyph-name="Z" unicode="Z" horiz-adv-x="1369" 
d="M1149 0l-1197 -0.000976562l24 107l1069 1108l87 78l6 22h-615c-9.33301 0 -18.833 -3.16699 -28.5 -9.5s-16.834 -15.833 -21.501 -28.5l-77 -212h-137l86 386h1117l-23 -104l-1070 -1108l-88 -81l-5 -22h694c9.33301 0 19 2.83301 29 8.5s17.667 15.834 23 30.501
l84 241h136z" />
    <glyph glyph-name="bracketleft" unicode="[" horiz-adv-x="990" 
d="M609 -355h-558l426 1913h558l-27 -120h-369l-372 -1671h369z" />
    <glyph glyph-name="backslash" unicode="\" horiz-adv-x="1114" 
d="M854 -434h-156l-316 1992h159z" />
    <glyph glyph-name="bracketright" unicode="]" horiz-adv-x="990" 
d="M535 -355h-558l27 122h369l372 1671h-369l27 120h558z" />
    <glyph glyph-name="asciicircum" unicode="^" horiz-adv-x="1555" 
d="M497 686h-185l485 765h109l483 -765h-185l-351 572z" />
    <glyph glyph-name="underscore" unicode="_" horiz-adv-x="1285" 
d="M1131 -251h-1295l22 99h1295z" />
    <glyph glyph-name="grave" unicode="`" horiz-adv-x="1024" 
d="M888 1270l-63.0029 -44.9971l-307 234c-9.33301 7.33301 -18.5 15 -27.5 23s-17 16.5 -24 25.5s-12.833 18.667 -17.5 29s-7 21.5 -7 33.5c0 14 2.66699 27.167 8 39.5s12.5 23 21.5 32s19.5 16 31.5 21s25 7.5 39 7.5s26.833 -1.33301 38.5 -4
s22.834 -7.33398 33.501 -14.001s21.334 -15.834 32.001 -27.501s22.334 -26.834 35.001 -45.501z" />
    <glyph glyph-name="a" unicode="a" horiz-adv-x="1280" 
d="M466 133c22.667 0 46.999 2.32812 72.999 6.99512s52 11.834 78 21.501s51.167 21.834 75.5 36.501s46.5 32.334 66.5 53.001l69 309c-78 0 -149.667 -2.66699 -215 -8s-121.666 -17.166 -168.999 -35.499s-84.333 -44.666 -111 -78.999s-40 -80.5 -40 -138.5
c0 -30.667 5.16699 -56.5 15.5 -77.5s23.666 -38 39.999 -51s34.833 -22.5 55.5 -28.5s41.334 -9 62.001 -9zM347.999 -21.0049c-46.667 0 -87.4951 7.82812 -122.495 23.4951s-64.167 36.334 -87.5 62.001s-40.833 55.334 -52.5 89.001s-17.5 68.5 -17.5 104.5
c0 54 9.16699 101.833 27.5 143.5s42.666 78.167 72.999 109.5s65.333 57.833 105 79.5s81 39.334 124 53.001s86.167 23.5 129.5 29.5s83.666 9 120.999 9c14 0 28.167 -0.5 42.5 -1.5s29.5 -2.33301 45.5 -4l52 -5.5c18.667 -2 39.667 -4 63 -6l15 70
c1.33301 6 2.66602 13.333 3.99902 22s2.5 18.5 3.5 29.5s1.66699 21.167 2 30.5s0.5 21 0.5 35c0 26.667 -5.33301 49.667 -16 69s-25 35 -43 47s-38.833 20.833 -62.5 26.5s-48.834 8.5 -75.501 8.5c-34 0 -69 -6 -105 -18s-70.833 -26.333 -104.5 -43s-65 -34 -94 -52
s-53.5 -32.667 -73.5 -44h-46v201l106 32c26 8 52.167 15.5 78.5 22.5s53.833 13.167 82.5 18.5s59 9.5 91 12.5s66 4.5 102 4.5c44 0 87.833 -4.33301 131.5 -13s83 -23 118 -43s63.5 -46.667 85.5 -80s33 -75 33 -125c0 -12 -0.5 -25.667 -1.5 -41
s-2.5 -30.666 -4.5 -45.999s-4.16699 -30.5 -6.5 -45.5s-4.83301 -27.833 -7.5 -38.5l-63 -279l-12.5 -59c-4.33301 -21.333 -8.33301 -42 -12 -62s-6.66699 -38.167 -9 -54.5s-3.5 -27.833 -3.5 -34.5c0 -10.667 1.33301 -21.167 4 -31.5s7.66699 -19.666 15 -27.999
s17.666 -15 30.999 -20s30.666 -7.5 51.999 -7.5c6.66699 0 14 0.5 22 1.5s16.667 2.5 26 4.5s19.333 4.66699 30 8s22.334 7.33301 35.001 12h39v-100c-28.667 -16 -56.834 -28.667 -84.501 -38s-54.167 -16.5 -79.5 -21.5s-49.166 -8.16699 -71.499 -9.5
s-42.5 -2 -60.5 -2c-32 0 -58.333 5.83301 -79 17.5s-37 26.5 -49 44.5s-20.333 37.833 -25 59.5s-7 42.167 -7 61.5h-16c-37.333 -41.333 -74 -74.5 -110 -99.5s-70.833 -44 -104.5 -57s-66 -21.5 -97 -25.5s-59.833 -6 -86.5 -6z" />
    <glyph glyph-name="b" unicode="b" horiz-adv-x="1322" 
d="M600 123c44 0 84.335 6.99902 121.002 20.999s69.5 33.167 98.5 57.5s54.5 53.5 76.5 87.5s40.167 70.833 54.5 110.5s25.166 81.667 32.499 126s11 89.166 11 134.499c0 46.667 -4.83301 89.834 -14.5 129.501s-25 73.834 -46 102.501s-47.833 51.167 -80.5 67.5
s-72 24.5 -118 24.5c-16.667 0 -34.5 -2.16699 -53.5 -6.5s-38.5 -11.5 -58.5 -21.5s-40.167 -22.833 -60.5 -38.5s-40.5 -34.5 -60.5 -56.5l-152 -691c14.667 -9.33301 33.334 -17 56.001 -23s46.167 -10.833 70.5 -14.5s47.666 -6.16699 69.999 -7.5s40.166 -2 53.499 -2z
M609.002 -21.001c-30.667 0 -59.335 2.99707 -86.002 8.99707s-51 14 -73 24s-41.5 21.5 -58.5 34.5s-30.833 26.5 -41.5 40.5l-54 -107h-222l40 115l40 115l252 1153c3.33301 9.33301 1.66602 18.333 -5.00098 27s-13.667 15 -21 19l-125 64v85h399l-60.5 -277l-60.5 -277
l-17 -59c38 44.667 74.5 79.667 109.5 105s67.5 44.5 97.5 57.5s57.333 21.167 82 24.5s46.334 5 65.001 5c56.667 0 106.667 -10.833 150 -32.5s79.833 -51.667 109.5 -90s52 -83.666 67 -135.999s22.5 -109.166 22.5 -170.499c0 -63.333 -6.83301 -125.166 -20.5 -185.499
s-33.167 -117.5 -58.5 -171.5s-56 -103.833 -92 -149.5s-76.667 -85 -122 -118s-94.666 -58.667 -147.999 -77s-109.666 -27.5 -168.999 -27.5z" />
    <glyph glyph-name="c" unicode="c" horiz-adv-x="1099" 
d="M558 -22c-70 0 -132.667 11.4971 -188 34.4971s-102 55.167 -140 96.5s-67 91 -87 149s-30 121.667 -30 191c0 68.667 8.83301 133.334 26.5 194.001s42 116.5 73 167.5s67.5 96.5 109.5 136.5s87.167 74 135.5 102s98.666 49.5 150.999 64.5s104.5 22.5 156.5 22.5
c35.333 0 67.333 -3.33301 96 -10s54.334 -14.5 77.001 -23.5s42.834 -18.167 60.501 -27.5s33.167 -17 46.5 -23v-221h-49l-78.5 48.5c-29 18.333 -58.833 35.666 -89.5 51.999s-61.334 30.166 -92.001 41.499s-59.334 17 -86.001 17c-38.667 0 -73.167 -7.5 -103.5 -22.5
s-57.166 -35.5 -80.499 -61.5s-43.166 -56.167 -59.499 -90.5s-29.833 -70.666 -40.5 -108.999s-18.334 -77.666 -23.001 -117.999s-7 -79.166 -7 -116.499c0 -51.333 6.16699 -97.666 18.5 -138.999s30.833 -76.5 55.5 -105.5s55.334 -51.333 92.001 -67
s79 -23.5 127 -23.5c49.333 0 95.166 9 137.499 27s80.833 38.667 115.5 62l66 44h47v-138c-27.333 -19.333 -57.333 -38.166 -90 -56.499s-67.5 -34.833 -104.5 -49.5s-75.833 -26.334 -116.5 -35.001s-82.667 -13 -126 -13z" />
    <glyph glyph-name="d" unicode="d" horiz-adv-x="1359" 
d="M594 131c16.667 0 34.835 2.33203 54.502 6.99902s39.667 11.834 60 21.501s40.333 21.834 60 36.501s38.167 32 55.5 52l154 699c-16.667 9.33301 -36.5 17 -59.5 23s-46.333 10.667 -70 14s-46.167 5.66602 -67.5 6.99902s-38.333 2 -51 2
c-44.667 0 -85.5 -7.16699 -122.5 -21.5s-70.333 -34 -100 -59s-55.334 -54.833 -77.001 -89.5s-39.834 -72.167 -54.501 -112.5s-25.5 -82.833 -32.5 -127.5s-10.5 -89.667 -10.5 -135c0 -47.333 5 -90.333 15 -129s25.5 -72 46.5 -100s48 -49.667 81 -65
s72.5 -23 118.5 -23zM456.001 -21.001c-56 0 -105.832 10.501 -149.499 31.501s-80.167 50.167 -109.5 87.5s-51.666 81.666 -66.999 132.999s-23 107.666 -23 168.999c0 60 6.5 120 19.5 180s32 117.167 57 171.5s55.333 105 91 152s76.334 87.833 122.001 122.5
s95.667 61.834 150 81.501s112.5 29.5 174.5 29.5c31.333 0 61.333 -3 90 -9s55 -14 79 -24s45 -21.5 63 -34.5s32.333 -26.5 43 -40.5l72 334c3.33301 15.333 2.66602 25.5 -2.00098 30.5s-12.667 10.167 -24 15.5l-151 64v85h425l-248 -1133
c-4.66699 -20.667 -9.16699 -41.834 -13.5 -63.501l-12 -61.5c-3.66699 -19.333 -6.5 -36.5 -8.5 -51.5s-3 -25.833 -3 -32.5c0 -10.667 1.33301 -21.167 4 -31.5s7.66699 -19.666 15 -27.999s17.666 -15 30.999 -20s30.666 -7.5 51.999 -7.5c6.66699 0 14 0.5 22 1.5
s16.667 2.5 26 4.5s19.333 4.66699 30 8s22.334 7.33301 35.001 12h39v-100c-28.667 -16 -57 -28.667 -85 -38s-54.833 -16.5 -80.5 -21.5s-49.667 -8.16699 -72 -9.5s-42.5 -2 -60.5 -2c-32 0 -58.167 6 -78.5 18s-36.5 27 -48.5 45s-20.333 37.667 -25 59
s-7 41.666 -7 60.999h-16c-39.333 -44.667 -76.5 -79.667 -111.5 -105s-67.5 -44.166 -97.5 -56.499s-57.333 -19.833 -82 -22.5s-46.334 -4 -65.001 -4z" />
    <glyph glyph-name="e" unicode="e" horiz-adv-x="1150" 
d="M503 635c54 0 103.166 4.66895 147.499 14.002s82.166 24.166 113.499 44.499s55.5 46.666 72.5 78.999s25.5 71.166 25.5 116.499c0 21.333 -3.83301 40.166 -11.5 56.499s-18.167 30 -31.5 41s-28.666 19.333 -45.999 25s-35.666 8.5 -54.999 8.5
c-42 0 -82.333 -9.33301 -121 -28s-74 -44.667 -106 -78s-60.167 -73 -84.5 -119s-42.833 -96.333 -55.5 -151l63 -5c16.667 -1.33301 30.5 -2.16602 41.5 -2.49902s20.167 -0.666016 27.5 -0.999023s14 -0.5 20 -0.5zM531.999 -21.998
c-22.667 0 -48.835 2.83105 -78.502 8.49805s-60 15.167 -91 28.5s-61.667 31.333 -92 54s-57.333 51 -81 85s-42.834 74.167 -57.501 120.5s-22 100.166 -22 161.499c0 56 6.83301 112.167 20.5 168.5s33.5 110.5 59.5 162.5s57.5 100.5 94.5 145.5
s78.833 84.167 125.5 117.5s97.834 59.5 153.501 78.5s115.167 28.5 178.5 28.5c38.667 0 78.167 -4.5 118.5 -13.5s77 -23.5 110 -43.5s60 -46.333 81 -79s31.5 -72.334 31.5 -119.001c0 -44 -8.16699 -83.333 -24.5 -118s-38.666 -65.167 -66.999 -91.5
s-61.666 -48.666 -99.999 -66.999s-79.166 -33.333 -122.499 -45s-88.333 -20.167 -135 -25.5s-92.667 -8 -138 -8c-15.333 0 -31 0.5 -47 1.5s-31.5 2.16699 -46.5 3.5s-29.167 2.66602 -42.5 3.99902s-25 2.66602 -35 3.99902
c-0.666992 -6 -1.33398 -11.167 -2.00098 -15.5s-1.16699 -8.66602 -1.5 -12.999s-0.5 -8.66602 -0.5 -12.999v-14.5c0 -50 5.66699 -96.167 17 -138.5s29.5 -79.166 54.5 -110.499s57.167 -55.833 96.5 -73.5s87 -26.5 143 -26.5c26 0 51.5 2.66699 76.5 8
s51.333 13.833 79 25.5s57.5 26.334 89.5 44.001s68 38.834 108 63.501h45v-140c-44 -24.667 -86.167 -46.667 -126.5 -66s-80.333 -35.833 -120 -49.5s-80 -24.167 -121 -31.5s-84.5 -11 -130.5 -11z" />
    <glyph glyph-name="f" unicode="f" horiz-adv-x="842" 
d="M-172 -501c-12 0 -24.1709 0.670898 -36.5039 2.00391s-25 3.16602 -38 5.49902s-26 4.83301 -39 7.5l-37.5 8v197h44l43 -16c14.667 -5.33301 30.334 -10.5 47.001 -15.5s34.167 -9 52.5 -12s38.5 -4.5 60.5 -4.5c28.667 0 54.667 3.33301 78 10s44 18 62 34
c6 5.33301 14 17.833 24 37.5s20.833 45.667 32.5 78s23.667 70.5 36 114.5s23.833 93.333 34.5 148l164 829h-196v125h226c26.667 98.667 57.5 181.667 92.5 249s74.333 121.666 118 162.999s91.5 71 143.5 89s108.333 27 169 27c12 0 25.333 -0.833008 40 -2.5
s29.667 -3.66699 45 -6s30.666 -5 45.999 -8s29 -5.83301 41 -8.5v-194h-43l-44.5 17.5c-16.333 6.33301 -33.666 12.166 -51.999 17.499s-37.666 9.83301 -57.999 13.5s-41.166 5.5 -62.499 5.5c-28 0 -52 -2 -72 -6s-36.667 -9.33301 -50 -16s-23.666 -14.5 -30.999 -23.5
s-12.666 -18.5 -15.999 -28.5c-4 -12.667 -8.33301 -28.334 -13 -47.001l-15.5 -64.5l-18 -81c-6.33301 -29.667 -12.833 -61.834 -19.5 -96.501h284v-125h-309l-169 -856c-16.667 -83.333 -43.834 -159.666 -81.501 -228.999s-82 -129 -133 -179s-106.5 -89 -166.5 -117
s-120.667 -42 -182 -42z" />
    <glyph glyph-name="g" unicode="g" horiz-adv-x="1320" 
d="M594 153c16.667 0 35.1621 2.16895 55.4951 6.50195s41.166 11.333 62.499 21s42.833 22 64.5 37s42.167 33.5 61.5 55.5l133 673c-14.667 8.66699 -33 16 -55 22s-44.5 10.833 -67.5 14.5s-45.167 6.33398 -66.5 8.00098s-38.666 2.5 -51.999 2.5
c-45.333 0 -86.666 -7.16699 -123.999 -21.5s-70.666 -33.833 -99.999 -58.5s-54.666 -53.834 -75.999 -87.501s-39.166 -69.834 -53.499 -108.501s-24.833 -78.834 -31.5 -120.501s-10 -83.167 -10 -124.5c0 -46.667 4.83301 -89.5 14.5 -128.5s24.834 -72.667 45.501 -101
s47.5 -50.333 80.5 -66s72.5 -23.5 118.5 -23.5zM376.995 -500.998c-32.667 0 -63.0049 1.16699 -91.0049 3.5s-53.333 5 -76 8s-42.5 6.33301 -59.5 10l-40.5 8.5v215h47l51.5 -20.5c18.333 -7 37.5 -13.5 57.5 -19.5s41 -10.833 63 -14.5s45 -5.5 69 -5.5
c42.667 0 79.667 1.33301 111 4s59 7.16699 83 13.5s44.833 15 62.5 26s33.834 24.833 48.501 41.5c10 10.667 18.833 25.334 26.5 44.001s15.167 40.667 22.5 66s14.666 53.5 21.999 84.5l23 100.5l28 124l-14 -15c-36 -40 -71.167 -71.5 -105.5 -94.5
s-66.833 -40.333 -97.5 -52s-58.5 -19 -83.5 -22s-46.5 -4.5 -64.5 -4.5c-57.333 0 -107.833 10.667 -151.5 32s-80.167 51 -109.5 89s-51.666 82.833 -66.999 134.5s-23 108.167 -23 169.5c0 59.333 6.66699 118 20 176s32.333 113.333 57 166s55 101.667 91 147
s76.667 84.5 122 117.5s94.833 58.833 148.5 77.5s111.167 28 172.5 28c30.667 0 58.834 -3 84.501 -9s48.834 -14 69.501 -24s38.834 -21.5 54.501 -34.5s29.167 -26.5 40.5 -40.5l58 99h222l-20 -57.5l-20 -57.5l-20 -57.5l-20 -57.5l-160 -831
c-9.33301 -46.667 -20.833 -89.167 -34.5 -127.5s-29.667 -73.5 -48 -105.5s-38.666 -61 -60.999 -87s-46.833 -50 -73.5 -72c-31.333 -26 -63 -49.833 -95 -71.5s-65 -40.334 -99 -56.001s-69.167 -27.667 -105.5 -36s-74.833 -12.5 -115.5 -12.5z" />
    <glyph glyph-name="h" unicode="h" horiz-adv-x="1359" 
d="M996 -16c-32 0 -58.834 5.32715 -80.501 15.9941s-39.334 23.834 -53.001 39.501s-23.5 32.667 -29.5 51s-9 35.166 -9 50.499c0 8.66699 0.5 18.667 1.5 30s2.5 23.333 4.5 36s4.33301 26.167 7 40.5s6 28.833 10 43.5l92 390c6.66699 28 11.834 54.667 15.501 80
s5.5 47 5.5 65c0 24.667 -3.16699 46.334 -9.5 65.001s-16.666 34.334 -30.999 47.001s-33.166 22.334 -56.499 29.001s-52 10 -86 10c-22 0 -44.833 -1.83301 -68.5 -5.5s-47.334 -9.66699 -71.001 -18s-47 -19.333 -70 -33s-44.5 -30.5 -64.5 -50.5l-146 -658v-53.5v-52.5
v-52.5v-53.5h-252l303 1363c3.33301 14.667 2 24.667 -4 30s-13.667 10.666 -23 15.999l-124 64v85h399l-121 -546l-13 -57c38.667 40 75.167 72 109.5 96s67 42.333 98 55s60.833 21 89.5 25s56.667 6 84 6c39.333 0 75.666 -5.16699 108.999 -15.5
s62.166 -26.166 86.499 -47.499s43.333 -48.166 57 -80.499s20.5 -70.5 20.5 -114.5c0 -33.333 -3.83301 -66.666 -11.5 -99.999l-22.5 -97l-79 -340c-3.33301 -14 -6.16602 -27.667 -8.49902 -41s-4.33301 -25.5 -6 -36.5s-3 -20.833 -4 -29.5s-1.5 -15 -1.5 -19
c0 -10.667 1.33301 -21.167 4 -31.5s7.83398 -19.666 15.501 -27.999s18.167 -15 31.5 -20s30.666 -7.5 51.999 -7.5c6.66699 0 13.834 0.5 21.501 1.5s16 2.5 25 4.5s18.667 4.66699 29 8s21.833 7.33301 34.5 12h40v-100c-28.667 -16 -57 -28.667 -85 -38
s-55 -16.5 -81 -21.5s-50.333 -8.16699 -73 -9.5s-43 -2 -61 -2z" />
    <glyph glyph-name="i" unicode="i" horiz-adv-x="761" 
d="M538 1306c-19.333 0 -37.8311 3.00098 -55.498 9.00098s-33.167 14.5 -46.5 25.5s-24 24.667 -32 41s-12 35.166 -12 56.499c0 22.667 4 42.5 12 59.5s18.667 31.333 32 43s28.833 20.334 46.5 26.001s36.167 8.5 55.5 8.5c22.667 0 43.334 -2.5 62.001 -7.5
s34.667 -12.833 48 -23.5s23.666 -23.834 30.999 -39.501s11 -34.167 11 -55.5c0 -22.667 -3.83301 -42.834 -11.5 -60.501s-18.334 -32.667 -32.001 -45s-29.834 -21.666 -48.501 -27.999s-38.667 -9.5 -60 -9.5zM363.002 -15.999c-32 0 -59 5.33398 -81 16.001
s-39.833 23.834 -53.5 39.501s-23.667 32.667 -30 51s-9.5 35.166 -9.5 50.499c0 17.333 2.5 38.666 7.5 63.999s10.833 53.333 17.5 84l129 588c3.33301 13.333 2.16602 23.166 -3.50098 29.499s-13.5 11.833 -23.5 16.5l-155 70v82l442 53l-154 -703
c0 -0.666992 -1 -5.66699 -3 -15l-7.5 -35.5l-9.5 -47l-9.5 -48c-3 -15 -5.5 -28.167 -7.5 -39.5s-3 -18.666 -3 -21.999c0 -10.667 1.5 -21.334 4.5 -32.001s8.33301 -20.167 16 -28.5s18.167 -15.166 31.5 -20.499s30.666 -8 51.999 -8c6.66699 0 14.5 0.666992 23.5 2
s18.667 3.16602 29 5.49902s21.333 5.33301 33 9s23.834 7.83398 36.501 12.501h39v-100c-28.667 -16 -57.667 -28.833 -87 -38.5s-57.666 -17.167 -84.999 -22.5s-52.833 -8.83301 -76.5 -10.5s-44.5 -2.5 -62.5 -2.5z" />
    <glyph glyph-name="j" unicode="j" horiz-adv-x="789" 
d="M-89 -501c-8 0 -18.1709 0.668945 -30.5039 2.00195s-25.666 3.16602 -39.999 5.49902s-28.833 4.83301 -43.5 7.5s-28.334 5.33398 -41.001 8.00098v198h44l43.5 -15.5c15.667 -5.66699 31.834 -10.834 48.501 -15.501s33.667 -8.5 51 -11.5s34.333 -4.5 51 -4.5
c44 0 79 5.83301 105 17.5s46 26.167 60 43.5c22.667 27.333 43 78.333 61 153s38.667 174.667 62 300l131 695c2.66699 7.33301 1.66699 15.666 -3 24.999s-13 16.333 -25 21l-185 65v82l469 53l-197 -1028c-21.333 -109.333 -50.666 -202.166 -87.999 -278.499
s-80.666 -138.333 -129.999 -186s-103.166 -82.334 -161.499 -104.001s-118.833 -32.5 -181.5 -32.5zM596.996 1306c-19.333 0 -37.834 3.00098 -55.501 9.00098s-33.167 14.5 -46.5 25.5s-24 24.667 -32 41s-12 35.166 -12 56.499c0 22.667 4 42.5 12 59.5
s18.667 31.333 32 43s28.833 20.334 46.5 26.001s36.167 8.5 55.5 8.5c22.667 0 43.334 -2.5 62.001 -7.5s34.5 -12.833 47.5 -23.5s23.167 -23.834 30.5 -39.501s11 -34.167 11 -55.5c0 -22.667 -3.83301 -42.834 -11.5 -60.501s-18.334 -32.667 -32.001 -45
s-29.667 -21.666 -48 -27.999s-38.166 -9.5 -59.499 -9.5z" />
    <glyph glyph-name="k" unicode="k" horiz-adv-x="1278" 
d="M926 -16c-27.333 0 -50.167 3.99805 -68.5 11.998s-34 19.167 -47 33.5s-24.333 31 -34 50s-19.167 39.5 -28.5 61.5l-173 401l-170 -106l-48 -224v-53.5v-52.5v-52.5v-53.5h-252l303 1363c2 9.33301 0.333008 18 -5 26s-12.666 14.667 -21.999 20l-124 64v85h399
l-230 -1034l154 167.5l131 140.5l106 110.5c31.333 31.667 58 57.5 80 77.5c20.667 18.667 39.334 34.667 56.001 48s33 24.333 49 33s33 15 51 19s38.667 6 62 6c12 0 21.5 -0.166992 28.5 -0.5s13.667 -0.666016 20 -0.999023s15.166 -1.33301 26.499 -3
s20.666 -3.16699 27.999 -4.5v-226h-43c-2 0 -9.16699 0.666992 -21.5 2l-44 5c-17 2 -34.5 3.66699 -52.5 5s-32.333 2 -43 2c-12 0 -27.833 -4.83301 -47.5 -14.5s-41.834 -24 -66.501 -43s-51.167 -42.167 -79.5 -69.5s-56.833 -58.666 -85.5 -93.999l202 -482
c4.66699 -12 10.667 -22.5 18 -31.5s15.833 -16.667 25.5 -23s21 -11 34 -14s28.167 -4.5 45.5 -4.5c6.66699 0 13.834 0.5 21.501 1.5s16.167 2.5 25.5 4.5s19.333 4.66699 30 8s22.334 7.33301 35.001 12h39v-100c-28.667 -16 -56.334 -28.667 -83.001 -38
s-52 -16.5 -76 -21.5s-46.5 -8.16699 -67.5 -9.5s-40.5 -2 -58.5 -2z" />
    <glyph glyph-name="l" unicode="l" horiz-adv-x="746" 
d="M356 -16c-32 0 -59.502 5.33301 -82.502 16s-42 23.834 -57 39.501s-26 32.667 -33 51s-10.5 35.166 -10.5 50.499c0 17.333 2.5 39.166 7.5 65.499s10.833 53.833 17.5 82.5l238 1074c3.33301 14.667 1.83301 25 -4.5 31s-14.166 11 -23.499 15l-157 64v85h433
l-265 -1193l-10 -46l-9 -43c-2.66699 -13.333 -4.66699 -25.166 -6 -35.499s-2 -17.833 -2 -22.5c0 -10.667 2 -21.334 6 -32.001s10.5 -20.167 19.5 -28.5s20.667 -15.166 35 -20.499s32.166 -8 53.499 -8c6.66699 0 14.5 0.666992 23.5 2s18.667 3.16602 29 5.49902
s21.333 5.33301 33 9s23.834 7.83398 36.501 12.501h39v-100c-28.667 -16 -57.667 -28.833 -87 -38.5s-57.666 -17.167 -84.999 -22.5s-52.833 -8.83301 -76.5 -10.5s-44.5 -2.5 -62.5 -2.5z" />
    <glyph glyph-name="m" unicode="m" horiz-adv-x="2037" 
d="M1676 -16c-32 0 -59.002 5.33301 -81.002 16s-39.667 23.834 -53 39.501s-23 32.667 -29 51s-9 35.166 -9 50.499c-0.666992 17.333 1.16602 39.166 5.49902 65.499s10.166 54.5 17.499 84.5l91 389c6 26.667 11 52.5 15 77.5s6 47.833 6 68.5c0 24 -3 45.333 -9 64
s-15.833 34.5 -29.5 47.5s-31.667 22.833 -54 29.5s-49.833 10 -82.5 10c-19.333 0 -40.333 -1.83301 -63 -5.5s-45.667 -9.66699 -69 -18s-46.5 -19.5 -69.5 -33.5s-44.5 -31.333 -64.5 -52l-146 -656v-53.5v-52.5v-52.5v-53.5h-252l151 680
c5.33301 26 10.166 52.333 14.499 79s6.5 50.334 6.5 71.001c0 24 -2.83301 45.167 -8.5 63.5s-15.167 33.666 -28.5 45.999s-31 21.666 -53 27.999s-49.333 9.5 -82 9.5c-21.333 0 -43.666 -1.83301 -66.999 -5.5s-46.833 -9.66699 -70.5 -18s-46.667 -19.333 -69 -33
s-42.833 -30.5 -61.5 -50.5l-146 -658v-53.5v-52.5v-52.5v-53.5h-252l199 893c2.66699 13.333 1.5 23.166 -3.5 29.499s-12.833 11.833 -23.5 16.5l-124 54v82l386 53l-38 -173h15c38.667 40 75.334 72 110.001 96s67.5 42.333 98.5 55s60.667 21 89 25s55.5 6 81.5 6
c34 0 66.167 -3.83301 96.5 -11.5s57.166 -19.667 80.499 -36s42.833 -37.666 58.5 -63.999s25.834 -58.5 30.501 -96.5c46.667 48.667 89 86.834 127 114.501s72.667 48.5 104 62.5s60.5 22.667 87.5 26s52.833 5 77.5 5c38 0 73.5 -5 106.5 -15s61.667 -25.5 86 -46.5
s43.5 -47.5 57.5 -79.5s21 -70 21 -114c0 -17.333 -1.33301 -35.833 -4 -55.5s-6.33398 -39.167 -11.001 -58.5l-81 -342l-14 -63c-4.66699 -22 -8.66699 -42.833 -12 -62.5s-6.16602 -37 -8.49902 -52s-3.5 -25.833 -3.5 -32.5c0 -10.667 1.33301 -21.167 4 -31.5
s7.66699 -19.666 15 -27.999s17.833 -15 31.5 -20s31.167 -7.5 52.5 -7.5c6.66699 0 13.834 0.5 21.501 1.5s15.834 2.5 24.501 4.5s18.334 4.66699 29.001 8s22.334 7.33301 35.001 12h39v-100c-28.667 -16 -57 -28.667 -85 -38s-54.833 -16.5 -80.5 -21.5
s-49.834 -8.16699 -72.501 -9.5s-43 -2 -61 -2z" />
    <glyph glyph-name="n" unicode="n" horiz-adv-x="1380" 
d="M1021 -16c-32 0 -59.0039 5.33008 -81.0039 15.9971s-39.667 23.834 -53 39.501s-23 32.667 -29 51s-9 35.166 -9 50.499c0 17.333 2 39.166 6 65.499s9.66699 54.5 17 84.5l91 389l8 38.5c2.66699 13 5 25.833 7 38.5s3.66699 24.834 5 36.501s2 22.5 2 32.5
c0 24.667 -3.16699 46.334 -9.5 65.001s-16.666 34.334 -30.999 47.001s-33.166 22.334 -56.499 29.001s-52 10 -86 10c-21.333 0 -44 -1.83301 -68 -5.5s-48 -9.66699 -72 -18s-47.5 -19.333 -70.5 -33s-44.167 -30.5 -63.5 -50.5l-145 -658v-53.5v-52.5v-52.5v-53.5h-253
l198 893c2.66699 13.333 1.66699 23.166 -3 29.499s-12.334 11.833 -23.001 16.5l-124 54v82l385 53l-38 -173h15c38.667 40 75.5 72 110.5 96s68.333 42.333 100 55s62.167 21 91.5 25s57.666 6 84.999 6c38 0 73.833 -5 107.5 -15s62.834 -25.167 87.501 -45.5
s44.167 -46.333 58.5 -78s21.5 -69.167 21.5 -112.5c0 -18 -1.33301 -37.5 -4 -58.5s-6.33398 -40.833 -11.001 -59.5l-81 -342l-14 -63c-4.66699 -22 -8.66699 -42.833 -12 -62.5s-6.16602 -37 -8.49902 -52s-3.5 -25.833 -3.5 -32.5c0 -10.667 1.33301 -21.167 4 -31.5
s7.66699 -19.666 15 -27.999s17.833 -15 31.5 -20s31.167 -7.5 52.5 -7.5c6.66699 0 13.834 0.5 21.501 1.5s15.834 2.5 24.501 4.5s18.334 4.66699 29.001 8s22.334 7.33301 35.001 12h39v-100c-28.667 -16 -57 -28.667 -85 -38s-54.833 -16.5 -80.5 -21.5
s-49.834 -8.16699 -72.501 -9.5s-43 -2 -61 -2z" />
    <glyph glyph-name="o" unicode="o" horiz-adv-x="1291" 
d="M574 -29c-71.333 0 -135.501 11.002 -192.501 33.002s-105.5 53.167 -145.5 93.5s-70.667 89.166 -92 146.499s-32 121.666 -32 192.999c0 62.667 6.83301 123.5 20.5 182.5s33.167 114.5 58.5 166.5s56 99.5 92 142.5s76.5 80 121.5 111s93.833 55 146.5 72
s108.334 25.5 167.001 25.5c80 0 149 -12.5 207 -37.5s105.667 -58.833 143 -101.5s65 -92.5 83 -149.5s27 -117.5 27 -181.5c0 -62 -6.83301 -122.167 -20.5 -180.5s-33 -113.333 -58 -165s-55.5 -99 -91.5 -142s-76.5 -79.833 -121.5 -110.5s-93.667 -54.667 -146 -72
s-107.833 -26 -166.5 -26zM589.999 91.002c40.667 0 77.999 8.66895 111.999 26.002s64.5 40.666 91.5 69.999s50.5 63.666 70.5 102.999s36.667 80.833 50 124.5s23.333 88.5 30 134.5s10 90.333 10 133c0 45.333 -4.5 88.333 -13.5 129s-23.5 76.167 -43.5 106.5
s-46.167 54.333 -78.5 72s-71.833 26.5 -118.5 26.5c-43.333 0 -82.5 -9.33301 -117.5 -28s-66 -43.5 -93 -74.5s-50.167 -66.667 -69.5 -107s-35.166 -82.5 -47.499 -126.5s-21.5 -88 -27.5 -132s-9 -85.333 -9 -124c0 -43.333 4.16699 -85 12.5 -125
s22.5 -75.5 42.5 -106.5s46.167 -55.667 78.5 -74s72.5 -27.5 120.5 -27.5z" />
    <glyph glyph-name="p" unicode="p" horiz-adv-x="1354" 
d="M628 132c44 0 84.501 6.99512 121.501 20.9951s70.167 33.333 99.5 58s55 53.834 77 87.501s40.167 70.334 54.5 110.001s25.166 81.334 32.499 125.001s11 87.834 11 132.501c0 46.667 -5 89.5 -15 128.5s-25.667 72.5 -47 100.5s-48.333 49.833 -81 65.5
s-72 23.5 -118 23.5c-16.667 0 -34.667 -2.16699 -54 -6.5s-39 -11.5 -59 -21.5s-40.333 -22.833 -61 -38.5s-41 -34.5 -61 -56.5l-149 -681c13.333 -9.33301 31.333 -17.166 54 -23.499s46.167 -11.333 70.5 -15s47.833 -6.16699 70.5 -7.5s40.667 -2 54 -2z
M419.001 -501.005h-561.002l19 81l138 47c12 4 22.167 9 30.5 15s14.166 15.667 17.499 29l267 1222c3.33301 15.333 2.16602 25.833 -3.50098 31.5s-13.167 10.5 -22.5 14.5l-125 54v81l387 54l-40 -183h16c38 44 74.5 78.833 109.5 104.5s67.667 45 98 58
s58 21.167 83 24.5s46.5 5 64.5 5c56.667 0 106.834 -10.5 150.501 -31.5s80.334 -50 110.001 -87s52.167 -81.167 67.5 -132.5s23 -107.333 23 -168c0 -64.667 -6.83301 -127.5 -20.5 -188.5s-33.167 -118.5 -58.5 -172.5s-56.166 -103.5 -92.499 -148.5
s-77 -83.833 -122 -116.5s-94.167 -58 -147.5 -76s-109.666 -27 -168.999 -27c-31.333 0 -61.333 3 -90 9s-55.167 14 -79.5 24s-45.833 21.5 -64.5 34.5s-33.334 26.5 -44.001 40.5l-89 -415c-3.33301 -9.33301 -2.16602 -18.333 3.50098 -27s13.167 -15 22.5 -19l142 -52z
" />
    <glyph glyph-name="q" unicode="q" horiz-adv-x="1320" 
d="M594 132c16.667 0 34.332 2.16797 52.999 6.50098s37.667 11.5 57 21.5s39.166 22.833 59.499 38.5s40.5 34.5 60.5 56.5l153 691c-14.667 8.66699 -33.167 16 -55.5 22s-45.333 11 -69 15s-46.5 6.83301 -68.5 8.5s-39.667 2.5 -53 2.5
c-45.333 0 -86.666 -7.33301 -123.999 -22s-70.666 -34.667 -99.999 -60s-54.833 -55.333 -76.5 -90s-39.5 -71.834 -53.5 -111.501s-24.5 -81.167 -31.5 -124.5s-10.5 -86.333 -10.5 -129c0 -47.333 4.83301 -90.833 14.5 -130.5s25 -74 46 -103s47.833 -51.5 80.5 -67.5
s72 -24 118 -24zM1056 -500.999l-399.002 0.000976562l135 613l17 59c-38.667 -44 -75.167 -78.833 -109.5 -104.5s-66.166 -45 -95.499 -58s-56.166 -21.167 -80.499 -24.5s-45.833 -5 -64.5 -5c-56.667 0 -106.834 10.833 -150.501 32.5s-80.167 51.5 -109.5 89.5
s-51.666 83.167 -66.999 135.5s-23 109.166 -23 170.499c0 60 6.5 119.833 19.5 179.5s31.833 116.5 56.5 170.5s54.834 104.167 90.501 150.5s76.167 86.5 121.5 120.5s95.166 60.667 149.499 80s112.5 29 174.5 29c30.667 0 59.167 -3 85.5 -9s50.166 -14 71.499 -24
s40.333 -21.5 57 -34.5s30.667 -26.5 42 -40.5l58 99h216l-40 -115l-40 -115l-269 -1216c-3.33301 -9.33301 -2.16602 -18.333 3.50098 -27s13.167 -15 22.5 -19l128 -52v-85z" />
    <glyph glyph-name="r" unicode="r" horiz-adv-x="1044" 
d="M385 0l-249.998 -0.00195312l169 794c3.33301 16 6.16602 31.833 8.49902 47.5s4.16602 29.167 5.49902 40.5c2 18.667 0 31.667 -6 39s-14 13.333 -24 18l-123 54v85l402 50l-53 -237h13c44 48.667 83.167 88.834 117.5 120.501s65.333 56.834 93 75.501
s53 31.667 76 39s45.5 11 67.5 11c14.667 0 29.667 -0.5 45 -1.5s30.333 -3.33301 45 -7s29 -8.83398 43 -15.501s27 -15.667 39 -27v-253h-146l-28 74c-3.33301 8.66699 -8.83301 15.834 -16.5 21.501s-16 10.167 -25 13.5s-18.333 5.83301 -28 7.5s-18.167 2.5 -25.5 2.5
c-28 0 -55 -5.66699 -81 -17s-50.667 -25.5 -74 -42.5s-45.333 -35.667 -66 -56l-59 -57.5l-119 -567v-53.5v-52.5v-52.5v-53.5z" />
    <glyph glyph-name="s" unicode="s" horiz-adv-x="1121" 
d="M458 -25c-52 0 -102.498 5.49707 -151.498 16.4971s-95.5 24.167 -139.5 39.5l-84 27v253h138l29 -91c4.66699 -13.333 10.334 -24.166 17.001 -32.499s13.667 -14.833 21 -19.5c13.333 -8 27.833 -15.667 43.5 -23s32 -14 49 -20s34.667 -10.667 53 -14
s37.166 -5 56.499 -5c34.667 0 69.667 2.83301 105 8.5s67.166 15.834 95.499 30.501s51.333 34.5 69 59.5s26.5 56.5 26.5 94.5c0 16.667 -3.16699 31.667 -9.5 45s-15.666 25.666 -27.999 36.999s-28 21.666 -47 30.999s-41.167 18.333 -66.5 27l-106 36.5l-106 36.5
c-35.333 12 -66.666 27.167 -93.999 45.5s-50.333 39 -69 62s-32.667 47.5 -42 73.5s-14 52.667 -14 80c0 56 14.5 106.5 43.5 151.5s67.833 83.167 116.5 114.5s104.667 55.5 168 72.5s129.333 25.5 198 25.5c30.667 0 59 -1.83301 85 -5.5s51 -8.16699 75 -13.5
s48 -11.666 72 -18.999s49 -14.333 75 -21v-256h-136l-30 98c-4.66699 14 -13.834 26.167 -27.501 36.5s-30 19.166 -49 26.499s-39.5 12.833 -61.5 16.5s-43.333 5.5 -64 5.5c-39.333 0 -74.833 -3.33301 -106.5 -10s-58.834 -17.167 -81.501 -31.5
s-40.167 -32.666 -52.5 -54.999s-18.5 -48.833 -18.5 -79.5c0 -13.333 1.66699 -25.333 5 -36s8.5 -20.667 15.5 -30s16 -18.166 27 -26.499s24.167 -16.5 39.5 -24.5c28 -15.333 63.833 -31 107.5 -47l159.5 -58c38.667 -14 72.667 -29.167 102 -45.5
s53.666 -34.333 72.999 -54s33.833 -41 43.5 -64s14.5 -48.5 14.5 -76.5c0 -41.333 -7.5 -79.833 -22.5 -115.5s-35.5 -68 -61.5 -97s-56.333 -54.667 -91 -77s-72 -41.166 -112 -56.499s-81.5 -26.833 -124.5 -34.5s-85.5 -11.5 -127.5 -11.5z" />
    <glyph glyph-name="t" unicode="t" horiz-adv-x="933" 
d="M429 -18c-34 0 -66.1689 3.99902 -96.502 11.999s-56.666 19.667 -78.999 35s-40 34 -53 56s-19.5 46.667 -19.5 74c0 10 1.33301 23.333 4 40s5.83398 34.5 9.50098 53.5s7.66699 37.833 12 56.5l11.5 49l133 626h-175v102c36 4 67.667 8.33301 95 13s51 12.5 71 23.5
s36.833 26.5 50.5 46.5s25.167 47.667 34.5 83l41 155l189 32l-73 -330h355v-125h-383l-123 -579l-9 -41.5c-3.33301 -15 -6.5 -30.167 -9.5 -45.5s-5.5 -29.166 -7.5 -41.499s-3 -20.5 -3 -24.5c0 -20 5.83301 -37.167 17.5 -51.5s26 -26 43 -35s35.167 -15.667 54.5 -20
s36.666 -6.5 51.999 -6.5c11.333 0 25 1.33301 41 4s32.167 6 48.5 10s31.5 8.33301 45.5 13s24.667 8.66699 32 12h39v-90c-10 -6 -28.167 -14.833 -54.5 -26.5s-56.333 -23.5 -90 -35.5s-68.667 -22.333 -105 -31s-69.166 -13 -98.499 -13z" />
    <glyph glyph-name="u" unicode="u" horiz-adv-x="1381" 
d="M448 -21c-38.667 0 -74.5 4.83398 -107.5 14.501s-61.5 24.834 -85.5 45.501s-42.833 46.667 -56.5 78s-20.5 69 -20.5 113c0 17.333 1 36 3 56s5.66699 40.667 11 62l121 545c3.33301 15.333 2.66602 25.5 -2.00098 30.5s-12.667 10.167 -24 15.5l-123 54v82l406 53
l-153 -692c-6 -26 -11 -51.833 -15 -77.5s-6 -48.834 -6 -69.501c0 -24.667 2.83301 -46.334 8.5 -65.001s15.334 -34.334 29.001 -47.001s31.834 -22.167 54.501 -28.5s51 -9.5 85 -9.5c21.333 0 44 1.83301 68 5.5s48 9.5 72 17.5s47.5 18.833 70.5 32.5
s44.167 30.5 63.5 50.5l147 664v50v50v50v50h249l-151 -683c-4.66699 -20 -9.16699 -40.833 -13.5 -62.5l-12 -62c-3.66699 -19.667 -6.5 -37.167 -8.5 -52.5s-3 -26.333 -3 -33c0 -10.667 1.33301 -21.167 4 -31.5s7.66699 -19.666 15 -27.999s17.666 -15 30.999 -20
s30.666 -7.5 51.999 -7.5c6.66699 0 14 0.5 22 1.5s16.667 2.5 26 4.5s19.333 4.66699 30 8s22.334 7.33301 35.001 12h39v-100c-28.667 -16 -57 -28.667 -85 -38s-54.833 -16.5 -80.5 -21.5s-49.667 -8.16699 -72 -9.5s-42.5 -2 -60.5 -2c-32 0 -58.333 5.83301 -79 17.5
s-37 26.5 -49 44.5s-20.5 37.333 -25.5 58s-7.5 40 -7.5 58h-14c-39.333 -40.667 -76.333 -73 -111 -97s-68 -42.333 -100 -55s-62.5 -21 -91.5 -25s-57.5 -6 -85.5 -6z" />
    <glyph glyph-name="v" unicode="v" horiz-adv-x="1254" 
d="M560 -10h-132l-162 902c-1.33301 6 -3.16602 11.5 -5.49902 16.5s-5 9.33301 -8 13s-6.33301 6.66699 -10 9s-7.5 4.5 -11.5 6.5l-137 56v82l326 53l139 -723l5 -160h18l281 464c24 40 42.833 78.667 56.5 116s23.667 71.833 30 103.5s10.166 59.667 11.499 84
s2 43.833 2 58.5v38h326v-40l-55.5 -72.5l-55 -72.5l-55 -72.5l-55.5 -72.5l-353 -563z" />
    <glyph glyph-name="w" unicode="w" horiz-adv-x="1921" 
d="M539 -10h-143l-126 902c-1.33301 6 -3 11.5 -5 16.5s-4.5 9.33301 -7.5 13s-6.5 6.66699 -10.5 9s-8 4.5 -12 6.5l-137 56v82l342 53l96 -717v-166h19l326 638l143 226h133l115 -692l6 -172h19l250 465c20.667 40 36.667 78.333 48 115s19.833 70.667 25.5 102
s9 59.333 10 84s1.5 44.667 1.5 60v38h326v-40l-104.5 -144.5l-104.5 -144.5l-317 -564l-153 -226h-138l-119 702l-3 142h-15l-314 -618z" />
    <glyph glyph-name="x" unicode="x" horiz-adv-x="1270" 
d="M121 -16c-11.333 0 -22.501 0.499023 -33.501 1.49902s-24.167 3.16699 -39.5 6.5v236h40c13.333 -2 26.833 -3.83301 40.5 -5.5s25.167 -2.5 34.5 -2.5c12.667 0 27 0.666992 43 2s29 4.66602 39 9.99902c16 8.66699 35.833 22.667 59.5 42s48.667 42.833 75 70.5
s53.166 59 80.499 94s53 72.5 77 112.5l-151 341c-6 12.667 -12.167 22.667 -18.5 30s-13 13 -20 17s-14.167 7 -21.5 9s-15.333 4.66699 -24 8l-49.5 18l-49.5 19v82l294 53l154 -346l25 -107h12l42 57.5l49.5 67l51 68.5l45.5 61l33.5 44.5
c9 11.667 14.167 18.5 15.5 20.5c20 26.667 38.333 48.334 55 65.001s33.834 29.834 51.501 39.501s36.5 16.334 56.5 20.001s43.333 5.5 70 5.5c11.333 0 22.5 -0.5 33.5 -1.5s24.167 -3.16699 39.5 -6.5v-236h-40c-13.333 2 -26.833 3.83301 -40.5 5.5
s-25.167 2.5 -34.5 2.5c-6 0 -13.167 -0.333008 -21.5 -1s-16.5 -1.5 -24.5 -2.5s-15.333 -2.16699 -22 -3.5s-11.334 -3 -14.001 -5c-16 -9.33301 -35.333 -22.833 -58 -40.5s-46.667 -39.334 -72 -65.001s-51.333 -55.167 -78 -88.5s-52 -70 -76 -110l157 -356
c6 -13.333 12.167 -25.5 18.5 -36.5s13.666 -20.167 21.999 -27.5s18.166 -13 29.499 -17s25.333 -6 42 -6c6.66699 0 13.834 0.5 21.501 1.5s16 2.5 25 4.5s18.667 4.66699 29 8s21.833 7.33301 34.5 12h39v-100c-29.333 -16 -56.833 -28.667 -82.5 -38
s-49.667 -16.5 -72 -21.5s-43.5 -8.16699 -63.5 -9.5s-39 -2 -57 -2c-27.333 0 -49.666 4.16699 -66.999 12.5s-32.166 19.5 -44.499 33.5s-22.833 30.5 -31.5 49.5l-27 61.5l-89 206l-24 100h-10c-4 -6 -12.5 -17.833 -25.5 -35.5l-45.5 -61.5l-55 -74l-54 -73l-43.5 -58.5
c-12.333 -16.333 -19.833 -26.5 -22.5 -30.5c-20 -26.667 -38.5 -48.5 -55.5 -65.5s-34.167 -30.167 -51.5 -39.5s-36.166 -15.833 -56.499 -19.5s-43.5 -5.5 -69.5 -5.5z" />
    <glyph glyph-name="y" unicode="y" horiz-adv-x="1358" 
d="M406 -501c-32.667 0 -63 1.16992 -91 3.50293s-53.333 5 -76 8s-42.5 6.33301 -59.5 10l-40.5 8.5v215h47l51.5 -20.5c18.333 -7 37.5 -13.5 57.5 -19.5s41 -10.833 63 -14.5s45 -5.5 69 -5.5c42.667 0 79.834 1.33301 111.501 4s59.334 7.16699 83.001 13.5
s44.167 15 61.5 26s33.666 24.833 48.999 41.5c7.33301 8 14.166 18.5 20.499 31.5s12.5 28 18.5 45s11.833 35.667 17.5 56l17.5 64.5l20 70l14.5 50l13.5 47.5l10 35.5l4 14h-14c-39.333 -40.667 -76.666 -73 -111.999 -97s-69.333 -42.333 -102 -55
s-63.834 -21 -93.501 -25s-58.5 -6 -86.5 -6c-38.667 0 -74.667 4.83301 -108 14.5s-62.166 24.834 -86.499 45.501s-43.5 46.667 -57.5 78s-21 69 -21 113c0 18.667 1 38 3 58s5.66699 40.667 11 62l118 522c3.33301 15.333 2.66602 25.5 -2.00098 30.5
s-12.667 10.167 -24 15.5l-123 54v82l406 53l-150 -671c-6 -26 -11 -51.833 -15 -77.5s-6 -48.834 -6 -69.501c0 -24.667 3 -46.334 9 -65.001s16 -34.334 30 -47.001s32.5 -22.167 55.5 -28.5s51.5 -9.5 85.5 -9.5c21.333 0 44.666 2.16699 69.999 6.5s50.833 11 76.5 20
s50.834 20.667 75.501 35s47 31.5 67 51.5l125 624v53.5v52.5v52.5v53.5h250l-204 -1042c-18 -91.333 -46.667 -168.5 -86 -231.5s-85.333 -116.5 -138 -160.5c-31.333 -26 -63 -49.833 -95 -71.5s-65 -40.334 -99 -56.001s-69.167 -27.667 -105.5 -36
s-74.833 -12.5 -115.5 -12.5z" />
    <glyph glyph-name="z" unicode="z" horiz-adv-x="1187" 
d="M993 0h-956v94l741 795l86 75v20h-334h-83c-13.333 0 -23.166 -4.33301 -29.499 -13s-10.833 -18 -13.5 -28l-29 -114h-138v280h919v-79l-755 -810l-84 -74v-21h387h77c13.333 0 23.166 3.83301 29.499 11.5s10.833 17.167 13.5 28.5l28 136h141v-301z" />
    <glyph glyph-name="braceleft" unicode="{" horiz-adv-x="1131" 
d="M778 -234l-26.999 -121.003c-60.667 0 -115.334 5.66699 -164.001 17s-90.167 29 -124.5 53s-60.666 54.5 -78.999 91.5s-27.5 81.167 -27.5 132.5c0 18 1 36.833 3 56.5s5.66699 40.167 11 61.5l49 224c3.33301 13.333 5.66602 26.333 6.99902 39s2 25 2 37
c0 34 -6.16699 62.333 -18.5 85s-30 41.167 -53 55.5s-50.667 25.333 -83 33s-68.833 13.167 -109.5 16.5l28 129c50 4 95.333 10.833 136 20.5s76.667 24.5 108 44.5s57.666 46.167 78.999 78.5s37.666 73.166 48.999 122.499l48 215c16 72 41 133.333 75 184
s75.5 92.167 124.5 124.5s104.333 55.833 166 70.5s128.167 22 199.5 22l-27 -121c-32 -2 -64.833 -5.16699 -98.5 -9.5s-65.5 -13.666 -95.5 -27.999s-56.667 -35.666 -80 -63.999s-40.666 -67.5 -51.999 -117.5l-44 -194c-16 -72 -38 -131.333 -66 -178
s-60.667 -84.5 -98 -113.5s-78.666 -51.333 -123.999 -67s-93.333 -28.5 -144 -38.5l-7 -31c38 -8 73.667 -18 107 -30s62.166 -28 86.499 -48s43.5 -45.167 57.5 -75.5s21 -68.166 21 -113.499c0 -18.667 -1.33301 -39.167 -4 -61.5s-6.66699 -45.166 -12 -68.499l-45 -203
c-3.33301 -12.667 -5.5 -24.834 -6.5 -36.501s-1.5 -22.5 -1.5 -32.5c0 -34 7 -61 21 -81s32.333 -35.667 55 -47s47.834 -19.166 75.501 -23.499s55.167 -7.5 82.5 -9.5z" />
    <glyph glyph-name="bar" unicode="|" horiz-adv-x="1114" 
d="M671 -434h-153v1992h153v-1992z" />
    <glyph glyph-name="braceright" unicode="}" horiz-adv-x="1131" 
d="M-25 -355l27.001 121.008c32 2 64.833 5.16699 98.5 9.5s65.5 13.666 95.5 27.999s56.667 35.666 80 63.999s40.666 67.5 51.999 117.5l44 194c16 72 38 131.333 66 178s60.667 84.5 98 113.5s78.5 51.333 123.5 67s93.167 28.5 144.5 38.5l7 31
c-38 8 -73.667 18 -107 30s-62.166 28 -86.499 48s-43.5 45.167 -57.5 75.5s-21 68.166 -21 113.499c-0.666992 18.667 0.5 39.167 3.5 61.5s7.16699 45.166 12.5 68.499l45 203c3.33301 12.667 5.5 24.834 6.5 36.501s1.5 22.5 1.5 32.5c0 34 -7 61 -21 81
s-32.333 35.667 -55 47s-47.834 19.166 -75.501 23.499s-55.167 7.5 -82.5 9.5l27 121c60.667 0 115.334 -5.83301 164.001 -17.5s90.167 -29.5 124.5 -53.5s60.666 -54.5 78.999 -91.5s27.5 -80.833 27.5 -131.5c0 -18 -1.16699 -36.833 -3.5 -56.5
s-5.83301 -40.167 -10.5 -61.5l-49 -224c-3.33301 -13.333 -5.66602 -26.5 -6.99902 -39.5s-2 -25.167 -2 -36.5c0 -33.333 6.16699 -61.5 18.5 -84.5s30 -41.833 53 -56.5s50.667 -25.834 83 -33.501s68.833 -12.834 109.5 -15.501l-28 -129
c-49.333 -4 -94.5 -10.833 -135.5 -20.5s-77.333 -24.334 -109 -44.001s-58.167 -45.667 -79.5 -78s-37.333 -73.5 -48 -123.5l-48 -215c-16 -72.667 -41.167 -134.334 -75.5 -185.001s-76 -92 -125 -124s-104.333 -55.333 -166 -70s-127.834 -22 -198.501 -22z" />
    <glyph glyph-name="asciitilde" unicode="~" horiz-adv-x="1555" 
d="M322 422l-98 37.998c11.333 32 28.333 67.5 51 106.5s50.334 75.333 83.001 109s69.834 62 111.501 85s87.167 34.5 136.5 34.5c54.667 0 103.5 -8.33301 146.5 -25s83.167 -35.167 120.5 -55.5s73.5 -38.833 108.5 -55.5s71.5 -25 109.5 -25
c26.667 0 50.167 5.16699 70.5 15.5s38.833 24.833 55.5 43.5s32.334 40.334 47.001 65.001l46 81l98 -38c-11.333 -32 -28.5 -67.5 -51.5 -106.5s-50.833 -75.5 -83.5 -109.5s-69.834 -62.5 -111.501 -85.5s-86.834 -34.5 -135.501 -34.5c-36.667 0 -70.5 4 -101.5 12
s-60.167 18 -87.5 30s-53.5 24.833 -78.5 38.5l-73.5 38.5c-24 12 -47.833 22 -71.5 30s-48.167 12 -73.5 12c-26.667 0 -50.167 -5.16699 -70.5 -15.5s-38.833 -24.666 -55.5 -42.999s-32.334 -40 -47.001 -65z" />
    <glyph glyph-name="exclamdown" unicode="&#xa1;" horiz-adv-x="832" 
d="M427 -371h-267l9 40l285 935h113l-131 -935zM566 803c-22 0 -42.667 4.16699 -62 12.5s-36 19.5 -50 33.5s-25.167 30.667 -33.5 50s-12.5 40 -12.5 62s4.16699 42.333 12.5 61s19.5 35 33.5 49s30.667 24.833 50 32.5s40 11.5 62 11.5s42.5 -3.83301 61.5 -11.5
s35.667 -18.5 50 -32.5s25.5 -30.333 33.5 -49s12 -39 12 -61s-4 -42.667 -12 -62s-19.167 -36 -33.5 -50s-31 -25.167 -50 -33.5s-39.5 -12.5 -61.5 -12.5z" />
    <glyph glyph-name="cent" unicode="&#xa2;" horiz-adv-x="1330" 
d="M822 988c-20 4 -40.334 6.00293 -61.001 6.00293c-38 0 -72.333 -7.66699 -103 -23s-58 -35.833 -82 -61.5s-44.5 -55.834 -61.5 -90.501s-31 -71.334 -42 -110.001s-19.167 -78.334 -24.5 -119.001s-8 -80 -8 -118c0 -86 16.833 -156.833 50.5 -212.5
s81.834 -93.167 144.501 -112.5zM640.999 -264.997h-98.001l56 253c-60 6.66699 -113.5 22.5 -160.5 47.5s-86.5 57.5 -118.5 97.5s-56.5 86.667 -73.5 140s-25.5 112 -25.5 176c0 67.333 7.83301 131 23.5 191s37.5 115.167 65.5 165.5s61.667 95.5 101 135.5
s82.333 74.167 129 102.5s96.667 50.333 150 66s108 24.167 164 25.5l44 196h98l-45 -201c24.667 -4 48.834 -9.16699 72.501 -15.5s45.667 -13 66 -20s38.833 -14 55.5 -21l41 -17.5l-48 -209h-47l-28 21.5c-12 9 -25.667 18.667 -41 29s-32.333 21 -51 32
s-38 21.167 -58 30.5l-183 -825c4.66699 0 9 0.166992 13 0.5s8.33301 0.5 13 0.5c34 2.66699 65.667 8.5 95 17.5s56.833 19.667 82.5 32s49.667 25.833 72 40.5l63.5 42h49l-36 -153c-26 -18 -53.167 -34.5 -81.5 -49.5s-58.333 -28.167 -90 -39.5
s-65.167 -20.5 -100.5 -27.5s-73 -11.5 -113 -13.5z" />
    <glyph glyph-name="sterling" unicode="&#xa3;" horiz-adv-x="1480" 
d="M1168 0h-1047l30 132c36 16.667 66.667 37 92 61s46.666 50.333 63.999 79s31.333 58.667 42 90s19.667 63 27 95l32 132h-157l26 97h155l34 150c14 61.333 40.167 118.333 78.5 171s86.833 98.167 145.5 136.5s126.667 68.5 204 90.5s161.666 33 252.999 33
c30 0 58.167 -1.5 84.5 -4.5s50.5 -6.66699 72.5 -11s41.833 -8.83301 59.5 -13.5l45.5 -12l-45 -209h-53c-14.667 8 -32 17 -52 27s-43.167 19.5 -69.5 28.5s-56.5 16.5 -90.5 22.5s-72.333 9 -115 9c-19.333 0 -37.333 -1 -54 -3s-32.5 -5.16699 -47.5 -9.5
s-29.5 -9.83301 -43.5 -16.5s-27.667 -14.667 -41 -24c-17.333 -12 -31.666 -24.167 -42.999 -36.5s-21 -26 -29 -41s-14.833 -31.5 -20.5 -49.5s-11.167 -39 -16.5 -63l-41 -175h436l-26 -97h-434c-11.333 -51.333 -20.333 -90 -27 -116s-10.667 -42.667 -12 -50
c-4.66699 -20.667 -14 -42.5 -28 -65.5s-30.667 -45 -50 -66s-40.666 -40.333 -63.999 -58s-46.333 -31.5 -69 -41.5l-5 -20l131 13h517c14.667 0 26.167 3.5 34.5 10.5s14.5 15.167 18.5 24.5l69 172h116z" />
    <glyph glyph-name="currency" unicode="&#xa4;" horiz-adv-x="1130" 
d="M148 1190l154.001 -154c74.667 54.667 162 82 262 82c102.667 0 190.667 -27.667 264 -83l155 155l79 -79l-155 -155c56 -77.333 84 -164.666 84 -261.999c0 -96.667 -28.333 -184.334 -85 -263.001l156 -155l-79 -79l-156 156
c-78.667 -54.667 -166.334 -82 -263.001 -82c-101.333 0 -188.333 27 -261 81l-155 -155l-79 79l154 154c-56.667 74.667 -85 162.667 -85 264c0 102 28 189.667 84 263l-153 154zM256.001 694c0 -44 7.16504 -85.5 21.498 -124.5s34.666 -73.333 60.999 -103
s58.5 -53 96.5 -70s81 -25.5 129 -25.5c44 0 84.833 7.83301 122.5 23.5s70.334 37.834 98.001 66.501s49.334 62.834 65.001 102.501s23.5 83.167 23.5 130.5c0 44 -7.16699 85.667 -21.5 125s-34.833 73.666 -61.5 102.999s-59.167 52.666 -97.5 69.999
s-81.166 26 -128.499 26c-44 0 -84.833 -8 -122.5 -24s-70.167 -38.167 -97.5 -66.5s-48.833 -62.333 -64.5 -102s-23.5 -83.5 -23.5 -131.5z" />
    <glyph glyph-name="yen" unicode="&#xa5;" horiz-adv-x="1600" 
d="M986 0h-604.003l19 83l171 56c11.333 3.33301 21.333 7.83301 30 13.5s14.667 14.834 18 27.501l29 134h-428l25 96h426l17 66l-36 108h-362l25 96h300l-152 410c-3.33301 9.33301 -8 18 -14 26s-13.667 13.667 -23 17l-114 42l18 69h521l-18 -69l-167 -57l146 -404
l28 -104h21l448 503l-156 62l18 69h468l-18 -69l-115 -46c-11.333 -4.66699 -21.666 -10.5 -30.999 -17.5s-18.666 -15.167 -27.999 -24.5l-381 -407h314l-25 -96h-389l-83 -88l-21 -86h446l-25 -96h-442l-29 -134c-2.66699 -10.667 -2.66699 -19.334 0 -26.001
s10.334 -11.667 23.001 -15l169 -56z" />
    <glyph glyph-name="brokenbar" unicode="&#xa6;" horiz-adv-x="1114" 
d="M671 -434h-153v820h153v-820zM671 738h-153v820h153v-820z" />
    <glyph glyph-name="section" unicode="&#xa7;" horiz-adv-x="1393" 
d="M817 305c24 12 46.3311 25.666 66.998 40.999s38.834 32.166 54.501 50.499s28 38 37 59s13.5 43.167 13.5 66.5c0 28 -7.5 54.167 -22.5 78.5s-35.667 47.333 -62 69s-57.166 42.167 -92.499 61.5s-73.333 38 -114 56l-51 23.5l-49 24.5
c-34 -15.333 -62 -32.166 -84 -50.499s-39.5 -36.833 -52.5 -55.5s-22.167 -37.167 -27.5 -55.5s-8 -35.166 -8 -50.499c0 -36.667 9.83301 -69 29.5 -97s47 -54 82 -78s76.333 -47.333 124 -70zM450.998 -336.001c-44.667 0 -85.4961 2.16602 -122.496 6.49902
s-69.833 9.83301 -98.5 16.5s-52.834 13.667 -72.501 21s-34.5 14 -44.5 20l46 198h44c10 -7.33301 25.667 -17.5 47 -30.5s48 -25.833 80 -38.5s69.167 -23.667 111.5 -33s89.166 -14 140.499 -14c30 0 58 5.16699 84 15.5s48.667 24.666 68 42.999
s34.666 40.166 45.999 65.499s17 53.333 17 84c0 24 -7 45.5 -21 64.5s-33.167 36.667 -57.5 53s-52.666 32 -84.999 47l-103.5 46.5c-57.333 24.667 -105.833 49.834 -145.5 75.501s-71.834 51.667 -96.501 78s-42.334 52.833 -53.001 79.5s-16 53 -16 79
c0 40 8.5 78 25.5 114s41.833 71 74.5 105l195 127c-36 30 -62.333 61.833 -79 95.5s-25 67.5 -25 101.5c0 39.333 8.5 76.333 25.5 111s39.833 66.5 68.5 95.5s61.667 55.167 99 78.5s76.333 43 117 59s81.667 28.167 123 36.5s80.333 12.5 117 12.5
c45.333 0 86.5 -2 123.5 -6s69.667 -9.16699 98 -15.5s52.166 -13 71.499 -20s34 -13.5 44 -19.5l-47 -200h-44c-9.33301 7.33301 -24.5 17.5 -45.5 30.5s-47.333 25.833 -79 38.5s-68.5 23.667 -110.5 33s-88.667 14 -140 14c-31.333 0 -60 -4.66699 -86 -14
s-48.333 -22.666 -67 -39.999s-33.167 -38.166 -43.5 -62.499s-15.5 -51.833 -15.5 -82.5c0 -25.333 6.66699 -48 20 -68s31.833 -38.667 55.5 -56s51.667 -33.666 84 -48.999l104.5 -48c57.333 -25.333 105.833 -50.833 145.5 -76.5s71.667 -51.334 96 -77.001
s42 -51.667 53 -78s16.5 -53.166 16.5 -80.499c0 -23.333 -2.5 -45 -7.5 -65s-12.333 -39 -22 -57s-21.167 -35.667 -34.5 -53s-28.333 -35 -45 -53l-184 -118c36 -30 62.833 -61 80.5 -93s26.5 -65 26.5 -99c0 -42.667 -8.66699 -82 -26 -118
s-40.666 -68.833 -69.999 -98.5s-63 -55.834 -101 -78.501s-77.667 -41.5 -119 -56.5s-82.833 -26.5 -124.5 -34.5s-80.5 -12 -116.5 -12z" />
    <glyph glyph-name="dieresis" unicode="&#xa8;" horiz-adv-x="1024" 
d="M448 1294c-17.333 0 -33.834 2.66602 -49.501 7.99902s-29.334 13 -41.001 23s-21 22.333 -28 37s-10.5 31.334 -10.5 50.001c0 20.667 3.5 38.667 10.5 54s16.333 28.166 28 38.499s25.334 18.166 41.001 23.499s32.167 8 49.5 8c20 0 38.333 -2.33301 55 -7
s31 -11.667 43 -21s21.167 -21.166 27.5 -35.499s9.5 -31.166 9.5 -50.499c0 -20 -3.5 -38 -10.5 -54s-16.5 -29.5 -28.5 -40.5s-26.167 -19.333 -42.5 -25s-34.166 -8.5 -53.499 -8.5zM909.999 1294c-17.333 0 -33.834 2.66602 -49.501 7.99902s-29.334 13 -41.001 23
s-21 22.333 -28 37s-10.5 31.334 -10.5 50.001c0 20.667 3.5 38.667 10.5 54s16.333 28.166 28 38.499s25.334 18.166 41.001 23.499s32.167 8 49.5 8c20 0 38.333 -2.33301 55 -7s31 -11.667 43 -21s21.167 -21.166 27.5 -35.499s9.5 -31.166 9.5 -50.499
c0 -20 -3.5 -38 -10.5 -54s-16.5 -29.5 -28.5 -40.5s-26.167 -19.333 -42.5 -25s-34.166 -8.5 -53.499 -8.5z" />
    <glyph glyph-name="copyright" unicode="&#xa9;" horiz-adv-x="2049" 
d="M1098 111c-74.667 0 -142.496 11.0029 -203.496 33.0029s-113.333 53.833 -157 95.5s-77.334 92.834 -101.001 153.501s-35.5 129.667 -35.5 207c0 74.667 12.333 142.167 37 202.5s59.167 112 103.5 155s97 76.167 158 99.5s127.833 35 200.5 35
c26 0 54.5 -1.83301 85.5 -5.5s62 -8.33398 93 -14.001s60.833 -11.5 89.5 -17.5l75 -16v-255h-101l-23 139c-1.33301 5.33301 -5 10.166 -11 14.499s-11.333 7.5 -16 9.5c-30.667 14.667 -61.167 25.834 -91.5 33.501s-65.5 11.5 -105.5 11.5
c-48 0 -91.333 -7.5 -130 -22.5s-71.834 -37.5 -99.501 -67.5s-49 -67.667 -64 -113s-22.5 -98.333 -22.5 -159c0 -132.667 30 -232.834 90 -300.501s150 -101.5 270 -101.5c32 0 61.667 4.66699 89 14s52.333 20.5 75 33.5s43.167 26.667 61.5 41s34.833 26.5 49.5 36.5h48
v-101c-20.667 -16 -44.334 -32.333 -71.001 -49s-55.667 -31.834 -87 -45.501s-64.333 -24.834 -99 -33.501s-70.334 -13 -107.001 -13zM1065 -188.997c72.667 0 142.334 9.33301 209.001 28s128.834 45.167 186.501 79.5s110 75.5 157 123.5s87.167 101.5 120.5 160.5
s59.166 122.333 77.499 190s27.5 138.167 27.5 211.5c0 72.667 -9.16699 142.5 -27.5 209.5s-44.166 129.667 -77.499 188s-73.5 111.333 -120.5 159s-99.333 88.667 -157 123s-119.834 60.833 -186.501 79.5s-136.334 28 -209.001 28c-73.333 0 -143.5 -9.33301 -210.5 -28
s-129.5 -45.167 -187.5 -79.5s-110.667 -75.333 -158 -123s-87.666 -100.667 -120.999 -159s-59.166 -121 -77.499 -188s-27.5 -136.833 -27.5 -209.5c0 -73.333 9.16699 -143.833 27.5 -211.5s44.166 -131 77.499 -190s73.666 -112.5 120.999 -160.5
s100 -89.167 158 -123.5s120.5 -60.833 187.5 -79.5s137.167 -28 210.5 -28zM1065 -286.997c-82 0 -161 10.667 -237 32s-147 51.333 -213 90s-126.167 85.167 -180.5 139.5s-101 114.5 -140 180.5s-69.167 136.833 -90.5 212.5s-32 154.5 -32 236.5
c0 80.667 10.667 158.667 32 234s51.5 146 90.5 212s85.667 126 140 180s114.5 100.333 180.5 139s137 68.667 213 90s155 32 237 32c81.333 0 159.666 -10.667 234.999 -32s145.833 -51.333 211.5 -90s125.667 -85 180 -139s100.833 -114 139.5 -180
s68.667 -136.667 90 -212s32 -153.333 32 -234c0 -82 -10.667 -160.833 -32 -236.5s-51.333 -146.5 -90 -212.5s-85.167 -126.167 -139.5 -180.5s-114.333 -100.833 -180 -139.5s-136.167 -68.667 -211.5 -90s-153.666 -32 -234.999 -32z" />
    <glyph glyph-name="ordfeminine" unicode="&#xaa;" horiz-adv-x="1117" 
d="M498 672c17.333 0 36.167 1.66699 56.5 5s40.666 8.83301 60.999 16.5s40 17.167 59 28.5s36.167 25 51.5 41l53 239c-60 0 -115.167 -2.16699 -165.5 -6.5s-94 -13.666 -131 -27.999s-65.833 -34.833 -86.5 -61.5s-31 -62.334 -31 -107.001c0 -23.333 4 -43 12 -59
s18.333 -29 31 -39s26.834 -17.333 42.501 -22s31.5 -7 47.5 -7zM404.001 535c-38.667 0 -72.498 6.50293 -101.498 19.5029s-53.333 30.167 -73 51.5s-34.334 45.833 -44.001 73.5s-14.5 56.5 -14.5 86.5c0 43.333 7.5 82.166 22.5 116.499s34.833 64.333 59.5 90
s53.167 47.5 85.5 65.5s66.166 32.5 101.499 43.5s70.5 19 105.5 24s67.833 7.5 98.5 7.5c5.33301 0 15 -0.666992 29 -2s29 -2.66602 45 -3.99902l47 -4l35 -3l11 51c1.33301 6.66699 2.5 14.167 3.5 22.5s1.83301 16.5 2.5 24.5s1.16699 15.833 1.5 23.5
s0.5 14.5 0.5 20.5c0 20.667 -4 38.334 -12 53.001s-19 26.5 -33 35.5s-30.167 15.5 -48.5 19.5s-37.5 6 -57.5 6c-28 0 -55.333 -4.66699 -82 -14s-52.5 -20.5 -77.5 -33.5s-48.5 -26.5 -70.5 -40.5s-42 -25.667 -60 -35h-48v171l72 22.5
c26.667 8.33301 55.5 16.333 86.5 24s64 14 99 19s71.833 7.5 110.5 7.5c36 0 72 -3.5 108 -10.5s68.167 -18.833 96.5 -35.5s51.5 -38.834 69.5 -66.501s27 -61.834 27 -102.501c0 -10 -0.333008 -21.333 -1 -34s-1.83398 -25.5 -3.50098 -38.5l-5 -37.5
c-1.66699 -12 -3.5 -22.333 -5.5 -31l-51 -223c-3.33301 -14 -6.66602 -29.333 -9.99902 -46l-9.5 -49c-3 -16 -5.33301 -30.5 -7 -43.5s-2.5 -22.167 -2.5 -27.5c0 -8 1 -15.667 3 -23s5.66699 -14 11 -20s12.833 -10.833 22.5 -14.5s22.167 -5.5 37.5 -5.5
c11.333 0 24.333 1.66699 39 5s31.667 8.66602 51 15.999h39v-91c-24 -13.333 -47.5 -24 -70.5 -32s-45 -14 -66 -18s-40.5 -6.66699 -58.5 -8s-34.333 -2 -49 -2c-25.333 0 -46.5 4.66699 -63.5 14s-30.5 21 -40.5 35s-17.167 29.667 -21.5 47s-6.83301 34 -7.5 50h-7
c-30 -33.333 -59.5 -59.833 -88.5 -79.5s-57 -34.834 -84 -45.501s-52.833 -17.5 -77.5 -20.5s-47.667 -4.5 -69 -4.5z" />
    <glyph glyph-name="guillemotleft" unicode="&#xab;" horiz-adv-x="1443" 
d="M671 134h-141l-295 407l26 113l481 395h141l-426 -472zM1149 134h-141l-295 407l26 113l481 395h141l-426 -472z" />
    <glyph glyph-name="logicalnot" unicode="&#xac;" horiz-adv-x="1555" 
d="M1369 87h-158v498h-972v150h1130v-648z" />
    <glyph glyph-name="registered" unicode="&#xae;" horiz-adv-x="2049" 
d="M1051 633c36 0 67.166 4.83594 93.499 14.5029s48.333 22.667 66 39s30.834 35.166 39.501 56.499s13 43.666 13 66.999c0 62.667 -19.167 108.167 -57.5 136.5s-94.833 42.5 -169.5 42.5h-100v-349c2.66699 0 10 -0.5 22 -1.5s24.5 -1.83301 37.5 -2.5
s25 -1.33398 36 -2.00098s17.5 -1 19.5 -1zM1071 146.003l-426.999 0.00292969v61l113 36c6 2 11 4.83301 15 8.5s6 9.5 6 17.5v686c0 6.66699 -2.16699 11.834 -6.5 15.501s-9.16602 6.16699 -14.499 7.5l-113 37v60h419c77.333 0 140 -7 188 -21s85.5 -32.333 112.5 -55
s45.167 -48.334 54.5 -77.001s14 -57.334 14 -86.001c0 -37.333 -6.66699 -70.5 -20 -99.5s-30.5 -54.167 -51.5 -75.5s-44.333 -38.833 -70 -52.5s-50.834 -23.5 -75.501 -29.5l243 -301c4.66699 -5.33301 11.334 -12.333 20.001 -21s17.667 -14.334 27 -17.001l118 -33
v-61h-176c-24 0 -42.833 1.16699 -56.5 3.5s-25.334 6.66602 -35.001 12.999s-18.667 14.833 -27 25.5l-32.5 42l-236 303l-124 25v-289c0 -8 2.16699 -14 6.5 -18s9.16602 -6.66699 14.499 -8l114 -36v-61zM1065 -188.994c72.667 0 142.334 9.33301 209.001 28
s128.834 45.167 186.501 79.5s110 75.5 157 123.5s87.167 101.5 120.5 160.5s59.166 122.333 77.499 190s27.5 138.167 27.5 211.5c0 72.667 -9.16699 142.5 -27.5 209.5s-44.166 129.667 -77.499 188s-73.5 111.333 -120.5 159s-99.333 88.667 -157 123
s-119.834 60.833 -186.501 79.5s-136.334 28 -209.001 28c-73.333 0 -143.5 -9.33301 -210.5 -28s-129.5 -45.167 -187.5 -79.5s-110.667 -75.333 -158 -123s-87.666 -100.667 -120.999 -159s-59.166 -121 -77.499 -188s-27.5 -136.833 -27.5 -209.5
c0 -73.333 9.16699 -143.833 27.5 -211.5s44.166 -131 77.499 -190s73.666 -112.5 120.999 -160.5s100 -89.167 158 -123.5s120.5 -60.833 187.5 -79.5s137.167 -28 210.5 -28zM1065 -286.994c-82 0 -161 10.667 -237 32s-147 51.333 -213 90s-126.167 85.167 -180.5 139.5
s-101 114.5 -140 180.5s-69.167 136.833 -90.5 212.5s-32 154.5 -32 236.5c0 80.667 10.667 158.667 32 234s51.5 146 90.5 212s85.667 126 140 180s114.5 100.333 180.5 139s137 68.667 213 90s155 32 237 32c81.333 0 159.666 -10.667 234.999 -32
s145.833 -51.333 211.5 -90s125.667 -85 180 -139s100.833 -114 139.5 -180s68.667 -136.667 90 -212s32 -153.333 32 -234c0 -82 -10.667 -160.833 -32 -236.5s-51.333 -146.5 -90 -212.5s-85.167 -126.167 -139.5 -180.5s-114.333 -100.833 -180 -139.5
s-136.167 -68.667 -211.5 -90s-153.666 -32 -234.999 -32z" />
    <glyph glyph-name="macron" unicode="&#xaf;" horiz-adv-x="1024" 
d="M1023 1354h-715l32 142h715z" />
    <glyph glyph-name="macron" unicode="&#x2c9;" horiz-adv-x="1024" 
d="M1023 1354h-715l32 142h715z" />
    <glyph glyph-name="degree" unicode="&#xb0;" horiz-adv-x="1060" 
d="M604 811c-53.333 0 -100.999 7.50488 -142.999 22.5049s-77.667 36 -107 63s-51.833 59.667 -67.5 98s-23.5 81.166 -23.5 128.499c0 64 11.333 123.667 34 179s53.667 103.166 93 143.499s86 72 140 95s112.333 34.5 175 34.5c52 0 99.167 -7.33301 141.5 -22
s78.5 -35.334 108.5 -62.001s53.167 -58.667 69.5 -96s24.5 -79 24.5 -125c0 -62.667 -10.667 -121.834 -32 -177.501s-51.5 -104.334 -90.5 -146.001s-85.833 -74.667 -140.5 -99s-115.334 -36.5 -182.001 -36.5zM613.001 919.005c33.333 0 64.999 8.50098 94.999 25.501
s56.333 41.167 79 72.5s40.667 68.666 54 111.999s20 91.666 20 144.999c0 64.667 -15.167 113 -45.5 145s-70.5 48 -120.5 48c-36 0 -69.167 -9.66699 -99.5 -29s-56.166 -45.166 -77.499 -77.499s-38 -70 -50 -113s-18 -88.167 -18 -135.5c0 -62 14 -109.667 42 -143
s68.333 -50 121 -50z" />
    <glyph glyph-name="plusminus" unicode="&#xb1;" horiz-adv-x="1555" 
d="M1384 2h-1137v150h492v440h-492v150h492v498h153v-498h492v-150h-492v-440h492v-150z" />
    <glyph glyph-name="uni00B2" unicode="&#xb2;" horiz-adv-x="922" 
d="M187 961l259.5 177.501c79 55.667 147 110.5 204 164.5s101.5 108.667 133.5 164s48 114.333 48 177c0 20.667 -2.33301 38.667 -7 54s-11.834 28.166 -21.501 38.499s-22.167 18 -37.5 23s-34 7.5 -56 7.5c-29.333 0 -58.833 -4.5 -88.5 -13.5s-58 -19.667 -85 -32
s-51.333 -24.833 -73 -37.5l-52.5 -31h-47l33 156c12 4 28 10 48 18s43.333 16 70 24s56.5 14.833 89.5 20.5s68.5 8.5 106.5 8.5c44 0 84.5 -5.5 121.5 -16.5s69.167 -27 96.5 -48s48.666 -46.5 63.999 -76.5s23 -63.667 23 -101c0 -42 -7.5 -81.333 -22.5 -118
s-36.167 -72.167 -63.5 -106.5s-60.166 -67.833 -98.499 -100.5s-80.666 -65.667 -126.999 -99l-149 -103l-164.5 -112l-4 -15l92 12h289c10.667 0 20.5 2.33301 29.5 7s14.833 10.667 17.5 18l48 120h91l-63 -295h-728z" />
    <glyph glyph-name="uni00B3" unicode="&#xb3;" horiz-adv-x="927" 
d="M197 1043l45 0.000976562c10 -7.33301 24.333 -17.166 43 -29.499s39.834 -24.166 63.501 -35.499s49 -21.166 76 -29.499s54.167 -12.5 81.5 -12.5c54.667 0 98.667 7 132 21s59 32.333 77 55s30 48.5 36 77.5s9 58.167 9 87.5c0 20.667 -3 39.667 -9 57
s-16 32.333 -30 45s-32.5 22.5 -55.5 29.5s-51.5 10.5 -85.5 10.5h-95l26 122h82c44.667 0 82 5.66699 112 17s54 27.166 72 47.499s30.833 44.333 38.5 72s11.5 58.167 11.5 91.5c0 15.333 -2 29.5 -6 42.5s-10.667 24.167 -20 33.5s-21.666 16.5 -36.999 21.5
s-34.333 7.5 -57 7.5c-27.333 0 -54.833 -3.83301 -82.5 -11.5s-54.167 -16.834 -79.5 -27.501s-48.5 -21.667 -69.5 -33l-51.5 -28h-46l33 154l44.5 15c17.667 6 38.167 11.667 61.5 17s49.833 10 79.5 14s62.5 6 98.5 6c42 0 82.167 -4.16699 120.5 -12.5
s72.166 -20.833 101.499 -37.5s52.666 -37.667 69.999 -63s26 -55.333 26 -90c0 -24 -4.33301 -49.5 -13 -76.5s-23.667 -53.167 -45 -78.5s-50.666 -49 -87.999 -71s-84.333 -40 -141 -54l-2 -11c22.667 -3.33301 47 -8.83301 73 -16.5s49.667 -19.167 71 -34.5
s39.166 -35.5 53.499 -60.5s21.5 -55.833 21.5 -92.5c0 -41.333 -7.33301 -78.833 -22 -112.5s-34.667 -63.834 -60 -90.501s-54.666 -49.667 -87.999 -69s-68.333 -35.333 -105 -48s-74.334 -22.167 -113.001 -28.5s-75.667 -9.5 -111 -9.5c-36 0 -69 2.16699 -99 6.5
s-56.833 9.66602 -80.5 15.999s-44 12.833 -61 19.5l-40.5 16z" />
    <glyph glyph-name="acute" unicode="&#xb4;" horiz-adv-x="1024" 
d="M533 1225l-56.9971 45l103 138l77.5 104.5c22.333 29.667 42.166 54.5 59.499 74.5s33.666 36.167 48.999 48.5s30.666 21.166 45.999 26.499s32.333 8 51 8c14 0 26.667 -2.33301 38 -7s21 -11 29 -19s14 -16.833 18 -26.5s6 -19.5 6 -29.5
c0 -15.333 -1.83301 -28.666 -5.5 -39.999s-9 -21.833 -16 -31.5s-15.833 -19 -26.5 -28s-23 -18.833 -37 -29.5z" />
    <glyph glyph-name="uni00B5" unicode="&#xb5;" horiz-adv-x="1397" 
d="M-17 -462l181 689.001l146 682v50.5v48.5v49v52h251l-144 -668c-6 -28 -10.833 -53.667 -14.5 -77s-5.5 -45 -5.5 -65c0 -24 3.16699 -45.667 9.5 -65s16.833 -35.833 31.5 -49.5s34 -24.167 58 -31.5s54 -11 90 -11c20 0 41.667 1.66699 65 5s47.333 8.83301 72 16.5
s49 18.167 73 31.5s46.333 30 67 50l147 664v53v49v48v50h250l-152 -683l-15 -71.5c-4.66699 -22.333 -8.66699 -42.5 -12 -60.5s-5.83301 -33.833 -7.5 -47.5s-2.5 -23.834 -2.5 -30.501c0 -10.667 1.33301 -21.167 4 -31.5s7.66699 -19.666 15 -27.999
s17.666 -15 30.999 -20s30.666 -7.5 51.999 -7.5c6.66699 0 14 0.5 22 1.5s16.667 2.5 26 4.5s19.333 4.66699 30 8s22.334 7.33301 35.001 12h39v-100c-28.667 -16 -57 -28.667 -85 -38s-54.833 -16.5 -80.5 -21.5s-49.667 -8.16699 -72 -9.5s-42.5 -2 -60.5 -2
c-32 0 -58.333 5.83301 -79 17.5s-37 26.5 -49 44.5s-20.5 37.333 -25.5 58s-7.5 40 -7.5 58h-14c-36.667 -42 -71.667 -75 -105 -99s-65.166 -42.333 -95.499 -55s-59.666 -20.667 -87.999 -24s-55.833 -5 -82.5 -5c-16 0 -32.833 1.33301 -50.5 4
s-34.834 6.66699 -51.501 12s-32.167 11.666 -46.5 18.999s-26.5 16 -36.5 26h-15l-56 -341v-52v-47.5v-48v-52.5h-242v39z" />
    <glyph glyph-name="uni00B5" unicode="&#x3bc;" horiz-adv-x="1397" 
d="M-17 -462l181 689.001l146 682v50.5v48.5v49v52h251l-144 -668c-6 -28 -10.833 -53.667 -14.5 -77s-5.5 -45 -5.5 -65c0 -24 3.16699 -45.667 9.5 -65s16.833 -35.833 31.5 -49.5s34 -24.167 58 -31.5s54 -11 90 -11c20 0 41.667 1.66699 65 5s47.333 8.83301 72 16.5
s49 18.167 73 31.5s46.333 30 67 50l147 664v53v49v48v50h250l-152 -683l-15 -71.5c-4.66699 -22.333 -8.66699 -42.5 -12 -60.5s-5.83301 -33.833 -7.5 -47.5s-2.5 -23.834 -2.5 -30.501c0 -10.667 1.33301 -21.167 4 -31.5s7.66699 -19.666 15 -27.999
s17.666 -15 30.999 -20s30.666 -7.5 51.999 -7.5c6.66699 0 14 0.5 22 1.5s16.667 2.5 26 4.5s19.333 4.66699 30 8s22.334 7.33301 35.001 12h39v-100c-28.667 -16 -57 -28.667 -85 -38s-54.833 -16.5 -80.5 -21.5s-49.667 -8.16699 -72 -9.5s-42.5 -2 -60.5 -2
c-32 0 -58.333 5.83301 -79 17.5s-37 26.5 -49 44.5s-20.5 37.333 -25.5 58s-7.5 40 -7.5 58h-14c-36.667 -42 -71.667 -75 -105 -99s-65.166 -42.333 -95.499 -55s-59.666 -20.667 -87.999 -24s-55.833 -5 -82.5 -5c-16 0 -32.833 1.33301 -50.5 4
s-34.834 6.66699 -51.501 12s-32.167 11.666 -46.5 18.999s-26.5 16 -36.5 26h-15l-56 -341v-52v-47.5v-48v-52.5h-242v39z" />
    <glyph glyph-name="paragraph" unicode="&#xb6;" horiz-adv-x="1411" 
d="M583 -336h-113.003l222 1002h-42c-80 0 -146.833 9.33301 -200.5 28s-96.667 43.167 -129 73.5s-55.166 64.833 -68.499 103.5s-20 78.334 -20 119.001c0 31.333 4.16699 64.666 12.5 99.999s20.833 70 37.5 104s37.834 66.5 63.501 97.5s55.834 58.333 90.501 82
s74 42.5 118 56.5s93 21 147 21h788l-17 -81l-175 -58c-11.333 -4 -21 -9.16699 -29 -15.5s-13.667 -15.833 -17 -28.5l-356 -1604h-113l374 1686h-199z" />
    <glyph glyph-name="periodcentered" unicode="&#xb7;" horiz-adv-x="735" 
d="M407 431c-22 0 -42.667 4 -62 12s-36.166 19 -50.499 33s-25.5 30.5 -33.5 49.5s-12 39.5 -12 61.5s4 42.667 12 62s19.167 36.166 33.5 50.499s31.166 25.666 50.499 33.999s40 12.5 62 12.5s42.833 -4.16699 62.5 -12.5s36.667 -19.666 51 -33.999
s25.666 -31.166 33.999 -50.499s12.5 -40 12.5 -62s-4.16699 -42.5 -12.5 -61.5s-19.666 -35.5 -33.999 -49.5s-31.333 -25 -51 -33s-40.5 -12 -62.5 -12z" />
    <glyph glyph-name="periodcentered" unicode="&#x2219;" horiz-adv-x="735" 
d="M407 431c-22 0 -42.667 4 -62 12s-36.166 19 -50.499 33s-25.5 30.5 -33.5 49.5s-12 39.5 -12 61.5s4 42.667 12 62s19.167 36.166 33.5 50.499s31.166 25.666 50.499 33.999s40 12.5 62 12.5s42.833 -4.16699 62.5 -12.5s36.667 -19.666 51 -33.999
s25.666 -31.166 33.999 -50.499s12.5 -40 12.5 -62s-4.16699 -42.5 -12.5 -61.5s-19.666 -35.5 -33.999 -49.5s-31.333 -25 -51 -33s-40.5 -12 -62.5 -12z" />
    <glyph glyph-name="cedilla" unicode="&#xb8;" horiz-adv-x="1024" 
d="M488 -501c-48 0 -88.832 5.66895 -122.499 17.002s-62.834 23.333 -87.501 36l19 99h28c17.333 -12.667 40.833 -25.167 70.5 -37.5s62.834 -18.5 99.501 -18.5c22.667 0 43 2.5 61 7.5s33 12.167 45 21.5s21.167 20.5 27.5 33.5s9.5 27.5 9.5 43.5
c0 30 -12.833 51.167 -38.5 63.5s-67.5 18.5 -125.5 18.5l47 234h94l-28 -126c26 0 51.5 -2.83301 76.5 -8.5s47.167 -14.5 66.5 -26.5s34.833 -27.333 46.5 -46s17.5 -41.334 17.5 -68.001c0 -39.333 -7.83301 -74 -23.5 -104s-37.334 -55.333 -65.001 -76
s-60.167 -36.334 -97.5 -47.001s-77.333 -16 -120 -16z" />
    <glyph glyph-name="uni00B9" unicode="&#xb9;" horiz-adv-x="762" 
d="M228 927l175 41.002c8.66699 1.33301 15.834 4.66602 21.501 9.99902s9.5 13 11.5 23l124 582l32 100h-15l-210 -29l17 83l322 130h89l-13 -51.5l-14 -57l-13.5 -58.5l-12.5 -55l-137 -644c-2 -10 -1.33301 -17.333 2 -22s8.66602 -8.33398 15.999 -11.001l150 -41
l-17 -81h-545z" />
    <glyph glyph-name="ordmasculine" unicode="&#xba;" horiz-adv-x="1107" 
d="M589 639c32 0 61.334 6.83301 88.001 20.5s50.667 32.334 72 56.001s40 51 56 82s29.167 63.667 39.5 98s18.166 69.666 23.499 105.999s8 71.166 8 104.499c0 35.333 -3.5 68.833 -10.5 100.5s-18.333 59.334 -34 83.001s-36.167 42.334 -61.5 56.001
s-56.333 20.5 -93 20.5c-34 0 -64.833 -7.33301 -92.5 -22s-52 -34.167 -73 -58.5s-39.167 -52.5 -54.5 -84.5s-28 -65.333 -38 -100s-17.333 -69.334 -22 -104.001s-7 -67 -7 -97c0 -34 3.33301 -66.667 10 -98s17.834 -59 33.501 -83s36.167 -43.333 61.5 -58
s56.666 -22 93.999 -22zM576.001 529c-58 0 -110.333 8.99805 -157 26.998s-86.5 43.667 -119.5 77s-58.333 73.333 -76 120s-26.5 99 -26.5 157c0 76.667 12.333 149.334 37 218.001s59 128.834 103 180.501s96.167 92.667 156.5 123s126.166 45.5 197.499 45.5
c64.667 0 120.834 -10.167 168.501 -30.5s87 -47.833 118 -82.5s54 -75.167 69 -121.5s22.5 -95.833 22.5 -148.5c0 -75.333 -12.333 -147.166 -37 -215.499s-58.834 -128.333 -102.501 -180s-95.667 -92.834 -156 -123.501s-126.166 -46 -197.499 -46z" />
    <glyph glyph-name="guillemotright" unicode="&#xbb;" horiz-adv-x="1443" 
d="M242 134h-141l426 473l-214 442h141l295 -405l-26 -113zM720 134h-141l426 473l-214 442h141l295 -405l-26 -113z" />
    <glyph glyph-name="onequarter" unicode="&#xbc;" horiz-adv-x="2016" 
d="M114 629l175 41.002c8.66699 1.33301 15.834 4.66602 21.501 9.99902s9.5 13 11.5 23l124 582l32 100h-15l-210 -29l17 83l322 130h89l-13 -51.5l-14 -57l-13.5 -58.5l-12.5 -55l-137 -644c-2 -10 -1.33301 -17.333 2 -22s8.66602 -8.33398 15.999 -11.001l150 -41
l-17 -81h-545zM493 -99.998h-149l1373 1658h148zM1115 296.002l676.001 648.001h121l-133 -643h170l-25 -118h-170l-30 -139c-2 -9.33301 -1 -16.333 3 -21s9.66699 -8 17 -10l97 -31l-17 -80h-430l17 80l114 31c7.33301 2.66699 13.666 6.16699 18.999 10.5
s9 11.166 11 20.499l30 139h-494zM1324 301.003h286l69 326l36 103h-15l-463 -427l-3 -17z" />
    <glyph glyph-name="onehalf" unicode="&#xbd;" horiz-adv-x="2221" 
d="M114 629l175 41.002c8.66699 1.33301 15.834 4.66602 21.501 9.99902s9.5 13 11.5 23l124 582l32 100h-15l-210 -29l17 83l322 130h89l-13 -51.5l-14 -57l-13.5 -58.5l-12.5 -55l-137 -644c-2 -10 -1.33301 -17.333 2 -22s8.66602 -8.33398 15.999 -11.001l150 -41
l-17 -81h-545zM493 -99.998h-149l1373 1658h148zM1303 17.002l259.499 177.501c79 55.667 147 110.5 204 164.5s101.5 108.667 133.5 164s48 114.333 48 177c0 20.667 -2.33301 38.667 -7 54s-11.834 28.166 -21.501 38.499s-22.167 18 -37.5 23s-34 7.5 -56 7.5
c-29.333 0 -58.833 -4.5 -88.5 -13.5s-58 -19.667 -85 -32s-51.333 -24.833 -73 -37.5l-52.5 -31h-47l33 156c12 4 28 10 48 18s43.333 16 70 24s56.5 14.833 89.5 20.5s68.5 8.5 106.5 8.5c44 0 84.5 -5.5 121.5 -16.5s69.167 -27 96.5 -48s48.666 -46.5 64 -76.5
c15.333 -30 23 -63.667 23 -101c0 -42 -7.5 -81.333 -22.5 -118s-36.167 -72.167 -63.5 -106.5s-60.166 -67.833 -98.499 -100.5s-80.666 -65.667 -126.999 -99l-149 -103l-164.5 -112l-4 -15l92 12h289c10.667 0 20.5 2.33301 29.5 7s14.833 10.667 17.5 18l48 120h91
l-63 -295h-728z" />
    <glyph glyph-name="threequarters" unicode="&#xbe;" horiz-adv-x="2095" 
d="M83 745l45 0.000976562c10 -7.33301 24.333 -17.166 43 -29.499s39.834 -24.166 63.501 -35.499s49 -21.166 76 -29.499s54.167 -12.5 81.5 -12.5c54.667 0 98.667 7 132 21s59 32.333 77 55s30 48.5 36 77.5s9 58.167 9 87.5c0 20.667 -3 39.667 -9 57
s-16 32.333 -30 45s-32.5 22.5 -55.5 29.5s-51.5 10.5 -85.5 10.5h-95l26 122h82c44.667 0 82 5.66699 112 17s54 27.166 72 47.499s30.833 44.333 38.5 72s11.5 58.167 11.5 91.5c0 15.333 -2 29.5 -6 42.5s-10.667 24.167 -20 33.5s-21.666 16.5 -36.999 21.5
s-34.333 7.5 -57 7.5c-27.333 0 -54.833 -3.83301 -82.5 -11.5s-54.167 -16.834 -79.5 -27.501s-48.5 -21.667 -69.5 -33l-51.5 -28h-46l33 154l44.5 15c17.667 6 38.167 11.667 61.5 17s49.833 10 79.5 14s62.5 6 98.5 6c42 0 82.167 -4.16699 120.5 -12.5
s72.166 -20.833 101.499 -37.5s52.666 -37.667 69.999 -63s26 -55.333 26 -90c0 -24 -4.33301 -49.5 -13 -76.5s-23.667 -53.167 -45 -78.5s-50.666 -49 -87.999 -71s-84.333 -40 -141 -54l-2 -11c22.667 -3.33301 47 -8.83301 73 -16.5s49.667 -19.167 71 -34.5
s39.166 -35.5 53.499 -60.5s21.5 -55.833 21.5 -92.5c0 -41.333 -7.33301 -78.833 -22 -112.5s-34.667 -63.834 -60 -90.501s-54.666 -49.667 -87.999 -69s-68.333 -35.333 -105 -48s-74.334 -22.167 -113.001 -28.5s-75.667 -9.5 -111 -9.5c-36 0 -69 2.16699 -99 6.5
s-56.833 9.66602 -80.5 15.999s-44 12.833 -61 19.5l-40.5 16zM572 -99.999h-149l1373 1658h148zM1194 296.001l676.001 648.001h121l-133 -643h170l-25 -118h-170l-30 -139c-2 -9.33301 -1 -16.333 3 -21s9.66699 -8 17 -10l97 -31l-17 -80h-430l17 80l114 31
c7.33301 2.66699 13.666 6.16699 18.999 10.5s9 11.166 11 20.499l30 139h-494zM1403 301.002h286l69 326l36 103h-15l-463 -427l-3 -17z" />
    <glyph glyph-name="questiondown" unicode="&#xbf;" horiz-adv-x="1168" 
d="M542 -400c-55.333 0 -108.166 8.17188 -158.499 24.5049s-94.833 40.166 -133.5 71.499s-69.5 69.333 -92.5 114s-34.5 95.667 -34.5 153c0 53.333 7.5 102 22.5 146s35.5 83.833 61.5 119.5s57 67.5 93 95.5s75.167 52.667 117.5 74s86.833 39.666 133.5 54.999
s94 28.333 142 39l41 179h155l-79 -354c-31.333 -5.33301 -65 -11.5 -101 -18.5s-72 -16.333 -108 -28s-70.667 -26.334 -104 -44.001s-62.833 -39.834 -88.5 -66.501s-46.167 -58.334 -61.5 -95.001s-23 -79.667 -23 -129c0 -30 3.66699 -56.333 11 -79
s18.5 -41.834 33.5 -57.501s34.167 -27.334 57.5 -35.001s51 -11.5 83 -11.5c35.333 0 72.166 6 110.499 18s75.166 26.333 110.499 43s67.666 33.667 96.999 51l70 42h46l-47 -220l-57 -23c-17.333 -7.33301 -36.666 -14.666 -57.999 -21.999s-44.5 -14.166 -69.5 -20.499
s-51.667 -11.5 -80 -15.5s-58.166 -6 -89.499 -6zM860 803.005c-22 0 -42.667 4.16699 -62 12.5s-36 19.5 -50 33.5s-25.167 30.667 -33.5 50s-12.5 40 -12.5 62s4.16699 42.333 12.5 61s19.5 35 33.5 49s30.667 24.833 50 32.5s40 11.5 62 11.5s42.5 -3.83301 61.5 -11.5
s35.667 -18.5 50 -32.5s25.5 -30.333 33.5 -49s12 -39 12 -61s-4 -42.667 -12 -62s-19.167 -36 -33.5 -50s-31 -25.167 -50 -33.5s-39.5 -12.5 -61.5 -12.5z" />
    <glyph glyph-name="Agrave" unicode="&#xc0;" horiz-adv-x="1515" 
d="M870 1197l-336 -560h445l-74 425l-15 135h-20zM390 0l-478.999 0.000976562l18 83l107 52c11.333 5.33301 22.833 13.166 34.5 23.499s20.5 20.5 26.5 30.5l641 1042l170 242h136l223 -1289c2 -10.667 5.66699 -21.167 11 -31.5s12.666 -17.5 21.999 -21.5l117 -48
l-18 -83h-526l18 83l173 65l-61 352h-554l-206 -345l165 -72zM1163 1618l-63.001 -44.999l-307 234c-6.66699 5.33301 -12.834 10.5 -18.501 15.5l-16 14.5c-5 4.66699 -9.5 9.33398 -13.5 14.001s-7.66699 9.33398 -11 14.001c-6.66699 9.33301 -11.334 19 -14.001 29
s-3.33398 22 -2.00098 36c0.666992 11.333 3.66699 22.333 9 33s12.333 20 21 28s18.834 14.5 30.501 19.5s24.5 7.5 38.5 7.5s26.833 -1.33301 38.5 -4s22.834 -7.33398 33.501 -14.001s21.334 -15.834 32.001 -27.501s22.334 -26.834 35.001 -45.501z" />
    <glyph glyph-name="Aacute" unicode="&#xc1;" horiz-adv-x="1515" 
d="M870 1197l-336 -560h445l-74 425l-15 135h-20zM390 0l-478.999 0.000976562l18 83l107 52c11.333 5.33301 22.833 13.166 34.5 23.499s20.5 20.5 26.5 30.5l641 1042l170 242h136l223 -1289c2 -10.667 5.66699 -21.167 11 -31.5s12.666 -17.5 21.999 -21.5l117 -48
l-18 -83h-526l18 83l173 65l-61 352h-554l-206 -345l165 -72zM801.001 1573l-49.9971 45.002l103 138l77.5 104.5c22.333 29.667 42.166 54.5 59.499 74.5s33.666 36.167 48.999 48.5s30.666 21.166 45.999 26.499s32.333 8 51 8c28.667 0 51 -8.33301 67 -25
s24 -36.334 24 -59.001c0 -14.667 -1.83301 -27.5 -5.5 -38.5s-9 -21.333 -16 -31s-15.833 -19 -26.5 -28s-23 -18.833 -37 -29.5z" />
    <glyph glyph-name="Acircumflex" unicode="&#xc2;" horiz-adv-x="1515" 
d="M870 1197l-336 -560h445l-74 425l-15 135h-20zM390 0l-478.999 0.000976562l18 83l107 52c11.333 5.33301 22.833 13.166 34.5 23.499s20.5 20.5 26.5 30.5l641 1042l170 242h136l223 -1289c2 -10.667 5.66699 -21.167 11 -31.5s12.666 -17.5 21.999 -21.5l117 -48
l-18 -83h-526l18 83l173 65l-61 352h-554l-206 -345l165 -72zM999.001 1829l-335.999 -241l-53 30l275 307l34.5 37c11 11.333 22.167 21 33.5 29s23.166 14.167 35.499 18.5s25.833 6.5 40.5 6.5c29.333 0 52.333 -8.5 69 -25.5s32 -38.5 46 -64.5l164 -308l-67 -30z" />
    <glyph glyph-name="Atilde" unicode="&#xc3;" horiz-adv-x="1515" 
d="M870 1197l-336 -560h445l-74 425l-15 135h-20zM390 0l-478.999 0.000976562l18 83l107 52c11.333 5.33301 22.833 13.166 34.5 23.499s20.5 20.5 26.5 30.5l641 1042l170 242h136l223 -1289c2 -10.667 5.66699 -21.167 11 -31.5s12.666 -17.5 21.999 -21.5l117 -48
l-18 -83h-526l18 83l173 65l-61 352h-554l-206 -345l165 -72zM703.001 1624l-98.001 -0.00488281c7.33301 36.667 19.5 71.334 36.5 104.001s37.333 61.334 61 86.001s49.834 44.334 78.501 59.001s58.667 22 90 22c26.667 0 52 -5.16699 76 -15.5
s47.333 -21.666 70 -33.999s45.167 -23.666 67.5 -33.999s45.166 -15.5 68.499 -15.5c14.667 0 27.834 3 39.501 9s21.834 14.167 30.501 24.5s16.167 22.333 22.5 36s11.5 28.5 15.5 44.5h99c-7.33301 -36 -19 -70.333 -35 -103s-35.5 -61.334 -58.5 -86.001
s-48.667 -44.334 -77 -59.001s-58.5 -22 -90.5 -22c-27.333 0 -52.5 5.33301 -75.5 16s-45.5 22.334 -67.5 35.001s-44 24.334 -66 35.001s-45.333 16 -70 16c-30 0 -54.833 -11.667 -74.5 -35s-33.834 -51 -42.501 -83z" />
    <glyph glyph-name="Adieresis" unicode="&#xc4;" horiz-adv-x="1515" 
d="M870 1197l-336 -560h445l-74 425l-15 135h-20zM390 0l-478.999 0.000976562l18 83l107 52c11.333 5.33301 22.833 13.166 34.5 23.499s20.5 20.5 26.5 30.5l641 1042l170 242h136l223 -1289c2 -10.667 5.66699 -21.167 11 -31.5s12.666 -17.5 21.999 -21.5l117 -48
l-18 -83h-526l18 83l173 65l-61 352h-554l-206 -345l165 -72zM740.001 1642c-17.333 0 -33.834 2.66602 -49.501 7.99902s-29.334 13 -41.001 23s-21 22.333 -28 37s-10.5 31.334 -10.5 50.001c0 20.667 3.5 38.667 10.5 54s16.333 28.166 28 38.499
s25.334 18.166 41.001 23.499s32.167 8 49.5 8c20 0 38.333 -2.33301 55 -7s31 -11.667 43 -21s21.167 -21.166 27.5 -35.499s9.5 -31.166 9.5 -50.499c0 -20 -3.5 -38 -10.5 -54s-16.5 -29.5 -28.5 -40.5s-26.167 -19.333 -42.5 -25s-34.166 -8.5 -53.499 -8.5zM1202 1642
c-17.333 0 -33.834 2.66602 -49.501 7.99902s-29.334 13 -41.001 23s-21 22.333 -28 37s-10.5 31.334 -10.5 50.001c0 20.667 3.5 38.667 10.5 54s16.333 28.166 28 38.499s25.334 18.166 41.001 23.499s32.167 8 49.5 8c20 0 38.333 -2.33301 55 -7s31 -11.667 43 -21
s21.167 -21.166 27.5 -35.499s9.5 -31.166 9.5 -50.499c0 -20 -3.5 -38 -10.5 -54s-16.5 -29.5 -28.5 -40.5s-26.167 -19.333 -42.5 -25s-34.166 -8.5 -53.499 -8.5z" />
    <glyph glyph-name="Aring" unicode="&#xc5;" horiz-adv-x="1515" 
d="M870 1197l-336 -560h445l-74 425l-15 135h-20zM390 0l-478.999 0.000976562l18 83l107 52c11.333 5.33301 22.833 13.166 34.5 23.499s20.5 20.5 26.5 30.5l641 1042l170 242h136l223 -1289c2 -10.667 5.66699 -21.167 11 -31.5s12.666 -17.5 21.999 -21.5l117 -48
l-18 -83h-526l18 83l173 65l-61 352h-554l-206 -345l165 -72zM1030 1659c22 0 42.334 5 61.001 15s34.667 24 48 42s23.666 39 30.999 63s11 50 11 78c0 40 -9.33301 72.167 -28 96.5s-45 36.5 -79 36.5c-26 0 -48.833 -5.5 -68.5 -16.5s-36.167 -25.5 -49.5 -43.5
s-23.333 -39 -30 -63s-10 -49 -10 -75c0 -40.667 10.5 -73 31.5 -97s48.5 -36 82.5 -36zM1002 1577c-34 0 -65.001 4.33496 -93.001 13.002s-52.167 21.5 -72.5 38.5s-36 37.667 -47 62s-16.5 52.5 -16.5 84.5c0 42.667 8 82.167 24 118.5s38.333 67.666 67 93.999
s63 47 103 62s83.667 22.5 131 22.5c34 0 64.833 -4.33301 92.5 -13s51.334 -21.334 71.001 -38.001s35 -37 46 -61s16.5 -51.333 16.5 -82c0 -43.333 -8 -83.5 -24 -120.5s-38.333 -68.833 -67 -95.5s-62.667 -47.5 -102 -62.5s-82.333 -22.5 -129 -22.5z" />
    <glyph glyph-name="AE" unicode="&#xc6;" horiz-adv-x="2246" 
d="M1171 1323l-437 -550h405l122 550h-90zM390 0h-500.001l18 83l115 52c12 5.33301 24.5 13.166 37.5 23.499s23.5 20.5 31.5 30.5l813 1009c4 4.66699 8.5 10.5 13.5 17.5s10 14.5 15 22.5s9.16699 15.833 12.5 23.5s5 14.834 5 21.501c0 7.33301 -2.5 13.333 -7.5 18
s-11.167 8.33398 -18.5 11.001l-161 58l18 81h1442l-81 -366h-137l12 192c0.666992 6 0.166992 11.5 -1.5 16.5s-4 9 -7 12s-6.66699 5.33301 -11 7s-9.16602 2.5 -14.499 2.5h-510l-121 -543h304c6.66699 0 12.667 0.666992 18 2s10 3.5 14 6.5s7.66699 7 11 12
s6.33301 10.833 9 17.5l64 156h110l-111 -504h-110l1 145c0 13.333 -2.33301 23.166 -7 29.499s-14 9.5 -28 9.5h-303l-112 -510h608c9.33301 0 19 3.5 29 10.5s17.333 16.5 22 28.5l79 214h136l-87 -389h-1217l18 83l163 56c12.667 4.66699 22.5 10.167 29.5 16.5
s12.167 16.833 15.5 31.5l102 460h-481l-385 -492l163 -72z" />
    <glyph glyph-name="Ccedilla" unicode="&#xc7;" horiz-adv-x="1452" 
d="M660 -501c-48 0 -88.8242 5.66504 -122.491 16.998s-62.834 23.333 -87.501 36l19 99h28c17.333 -12.667 40.833 -25.167 70.5 -37.5s62.834 -18.5 99.501 -18.5c22.667 0 43 2.5 61 7.5s33 12.167 45 21.5s21.167 20.5 27.5 33.5s9.5 27.5 9.5 43.5
c0 30 -12.833 51.167 -38.5 63.5s-67.5 18.5 -125.5 18.5l38 188c-84 6.66699 -159.333 24.834 -226 54.501s-123.334 69.834 -170.001 120.501s-82.334 111.667 -107.001 183s-37 152 -37 242c0 86 9.33301 168.167 28 246.5s45.167 151.333 79.5 219
s76.166 129 125.499 184s104.833 101.833 166.5 140.5s128.667 68.667 201 90s149.166 32 230.499 32c37.333 0 78.833 -3 124.5 -9s91.167 -13.333 136.5 -22s88.666 -17.667 129.999 -27l104 -24l-87 -380h-135l28 214c0.666992 4.66699 -0.333008 9.16699 -3 13.5
s-6 8.33301 -10 12s-8.33301 7 -13 10l-12 7.5c-21.333 11.333 -43 21.5 -65 30.5s-44.833 16.5 -68.5 22.5s-48.334 10.667 -74.001 14s-52.5 5 -80.5 5c-62.667 0 -120.334 -9 -173.001 -27s-100.167 -43.333 -142.5 -76s-79.333 -71.667 -111 -117
s-58.167 -95.333 -79.5 -150s-37.333 -113 -48 -175s-16 -126 -16 -192c0 -156.667 38.667 -275.334 116 -356.001s190.666 -121 339.999 -121c46 0 90.333 7.66699 133 23s82.334 33.5 119.001 54.5s70 42.833 100 65.5l76 56h60l-34 -148
c-30.667 -22.667 -64.5 -46.167 -101.5 -70.5s-76.833 -46.666 -119.5 -66.999s-87.334 -37.666 -134.001 -51.999s-94.667 -23.166 -144 -26.499c-2.66699 -0.666992 -5.16699 -1 -7.5 -1h-7.5l-17 -79c26 0 51.5 -2.83301 76.5 -8.5s47.167 -14.5 66.5 -26.5
s34.833 -27.333 46.5 -46s17.5 -41.334 17.5 -68.001c0 -39.333 -7.83301 -74 -23.5 -104s-37.334 -55.333 -65.001 -76s-60.167 -36.334 -97.5 -47.001s-77.333 -16 -120 -16z" />
    <glyph glyph-name="Egrave" unicode="&#xc8;" horiz-adv-x="1488" 
d="M1242 0l-1218 -0.000976562l19 83l162 56c11.333 4 21 9.33301 29 16s13.667 17.334 17 32.001l239 1081c2.66699 13.333 1.83398 22.833 -2.49902 28.5s-11.833 10.834 -22.5 15.501l-162 58l19 81h1144l-81 -366h-137l12 192
c1.33301 12.667 -1.33398 22.167 -8.00098 28.5s-15.334 9.5 -26.001 9.5h-510l-110 -493h304c14 0 24.833 3 32.5 9s14.167 15.667 19.5 29l65 156h110l-117 -524h-110l4 155c0.666992 13.333 -1.5 23.166 -6.5 29.499s-14.5 9.5 -28.5 9.5h-303l-121 -550h608
c9.33301 0 19 3.5 29 10.5s17.333 16.5 22 28.5l79 214h136zM1133 1618l-63.001 -44.999l-307 234c-6.66699 5.33301 -12.834 10.5 -18.501 15.5l-16 14.5c-5 4.66699 -9.5 9.33398 -13.5 14.001s-7.66699 9.33398 -11 14.001c-6.66699 9.33301 -11.334 19 -14.001 29
s-3.33398 22 -2.00098 36c0.666992 11.333 3.66699 22.333 9 33s12.333 20 21 28s18.834 14.5 30.501 19.5s24.5 7.5 38.5 7.5s26.833 -1.33301 38.5 -4s22.834 -7.33398 33.501 -14.001s21.334 -15.834 32.001 -27.501s22.334 -26.834 35.001 -45.501z" />
    <glyph glyph-name="Eacute" unicode="&#xc9;" horiz-adv-x="1488" 
d="M1242 0l-1218 -0.000976562l19 83l162 56c11.333 4 21 9.33301 29 16s13.667 17.334 17 32.001l239 1081c2.66699 13.333 1.83398 22.833 -2.49902 28.5s-11.833 10.834 -22.5 15.501l-162 58l19 81h1144l-81 -366h-137l12 192
c1.33301 12.667 -1.33398 22.167 -8.00098 28.5s-15.334 9.5 -26.001 9.5h-510l-110 -493h304c14 0 24.833 3 32.5 9s14.167 15.667 19.5 29l65 156h110l-117 -524h-110l4 155c0.666992 13.333 -1.5 23.166 -6.5 29.499s-14.5 9.5 -28.5 9.5h-303l-121 -550h608
c9.33301 0 19 3.5 29 10.5s17.333 16.5 22 28.5l79 214h136zM843.001 1573l-49.9971 45.002l103 138l77.5 104.5c22.333 29.667 42.166 54.5 59.499 74.5s33.666 36.167 48.999 48.5s30.666 21.166 45.999 26.499s32.333 8 51 8c28.667 0 51 -8.33301 67 -25
s24 -36.334 24 -59.001c0 -14.667 -1.83301 -27.5 -5.5 -38.5s-9 -21.333 -16 -31s-15.833 -19 -26.5 -28s-23 -18.833 -37 -29.5z" />
    <glyph glyph-name="Ecircumflex" unicode="&#xca;" horiz-adv-x="1488" 
d="M1242 0l-1218 -0.000976562l19 83l162 56c11.333 4 21 9.33301 29 16s13.667 17.334 17 32.001l239 1081c2.66699 13.333 1.83398 22.833 -2.49902 28.5s-11.833 10.834 -22.5 15.501l-162 58l19 81h1144l-81 -366h-137l12 192
c1.33301 12.667 -1.33398 22.167 -8.00098 28.5s-15.334 9.5 -26.001 9.5h-510l-110 -493h304c14 0 24.833 3 32.5 9s14.167 15.667 19.5 29l65 156h110l-117 -524h-110l4 155c0.666992 13.333 -1.5 23.166 -6.5 29.499s-14.5 9.5 -28.5 9.5h-303l-121 -550h608
c9.33301 0 19 3.5 29 10.5s17.333 16.5 22 28.5l79 214h136zM976.001 1829l-335.999 -241l-53 30l275 307l34.5 37c11 11.333 22.167 21 33.5 29s23.166 14.167 35.499 18.5s25.833 6.5 40.5 6.5c29.333 0 52.333 -8.5 69 -25.5s32 -38.5 46 -64.5l164 -308l-67 -30z" />
    <glyph glyph-name="Edieresis" unicode="&#xcb;" horiz-adv-x="1488" 
d="M1242 0l-1218 -0.000976562l19 83l162 56c11.333 4 21 9.33301 29 16s13.667 17.334 17 32.001l239 1081c2.66699 13.333 1.83398 22.833 -2.49902 28.5s-11.833 10.834 -22.5 15.501l-162 58l19 81h1144l-81 -366h-137l12 192
c1.33301 12.667 -1.33398 22.167 -8.00098 28.5s-15.334 9.5 -26.001 9.5h-510l-110 -493h304c14 0 24.833 3 32.5 9s14.167 15.667 19.5 29l65 156h110l-117 -524h-110l4 155c0.666992 13.333 -1.5 23.166 -6.5 29.499s-14.5 9.5 -28.5 9.5h-303l-121 -550h608
c9.33301 0 19 3.5 29 10.5s17.333 16.5 22 28.5l79 214h136zM720.001 1642c-17.333 0 -33.834 2.66602 -49.501 7.99902s-29.334 13 -41.001 23s-21 22.333 -28 37s-10.5 31.334 -10.5 50.001c0 20.667 3.5 38.667 10.5 54s16.333 28.166 28 38.499
s25.334 18.166 41.001 23.499s32.167 8 49.5 8c20 0 38.333 -2.33301 55 -7s31 -11.667 43 -21s21.167 -21.166 27.5 -35.499s9.5 -31.166 9.5 -50.499c0 -20 -3.5 -38 -10.5 -54s-16.5 -29.5 -28.5 -40.5s-26.167 -19.333 -42.5 -25s-34.166 -8.5 -53.499 -8.5zM1182 1642
c-17.333 0 -33.834 2.66602 -49.501 7.99902s-29.334 13 -41.001 23s-21 22.333 -28 37s-10.5 31.334 -10.5 50.001c0 20.667 3.5 38.667 10.5 54s16.333 28.166 28 38.499s25.334 18.166 41.001 23.499s32.167 8 49.5 8c20 0 38.333 -2.33301 55 -7s31 -11.667 43 -21
s21.167 -21.166 27.5 -35.499s9.5 -31.166 9.5 -50.499c0 -20 -3.5 -38 -10.5 -54s-16.5 -29.5 -28.5 -40.5s-26.167 -19.333 -42.5 -25s-34.166 -8.5 -53.499 -8.5z" />
    <glyph glyph-name="Igrave" unicode="&#xcc;" horiz-adv-x="899" 
d="M653 0l-629.999 -0.000976562l20 83l171 56c12 4 22 9.33301 30 16s13.667 17.334 17 32.001l239 1081c2.66699 13.333 1.83398 22.833 -2.49902 28.5s-11.833 10.834 -22.5 15.501l-171 58l18 81h630l-18 -81l-115 -39c-10 -3.33301 -20.5 -6.33301 -31.5 -9
s-21.333 -6.16699 -31 -10.5s-18.334 -10 -26.001 -17s-12.834 -15.833 -15.501 -26.5l-239 -1081c-2.66699 -14 -2.16699 -24.333 1.5 -31s11.5 -12.334 23.5 -17.001l172 -56zM864.001 1618l-63.001 -44.999l-307 234c-6.66699 5.33301 -12.834 10.5 -18.501 15.5
l-16 14.5c-5 4.66699 -9.5 9.33398 -13.5 14.001s-7.66699 9.33398 -11 14.001c-6.66699 9.33301 -11.334 19 -14.001 29s-3.33398 22 -2.00098 36c0.666992 11.333 3.66699 22.333 9 33s12.333 20 21 28s18.834 14.5 30.501 19.5s24.5 7.5 38.5 7.5
s26.833 -1.33301 38.5 -4s22.834 -7.33398 33.501 -14.001s21.334 -15.834 32.001 -27.501s22.334 -26.834 35.001 -45.501z" />
    <glyph glyph-name="Iacute" unicode="&#xcd;" horiz-adv-x="899" 
d="M653 0l-629.999 -0.000976562l20 83l171 56c12 4 22 9.33301 30 16s13.667 17.334 17 32.001l239 1081c2.66699 13.333 1.83398 22.833 -2.49902 28.5s-11.833 10.834 -22.5 15.501l-171 58l18 81h630l-18 -81l-115 -39c-10 -3.33301 -20.5 -6.33301 -31.5 -9
s-21.333 -6.16699 -31 -10.5s-18.334 -10 -26.001 -17s-12.834 -15.833 -15.501 -26.5l-239 -1081c-2.66699 -14 -2.16699 -24.333 1.5 -31s11.5 -12.334 23.5 -17.001l172 -56zM504.001 1573l-49.9971 45.002l103 138l77.5 104.5c22.333 29.667 42.166 54.5 59.499 74.5
s33.666 36.167 48.999 48.5s30.666 21.166 45.999 26.499s32.333 8 51 8c28.667 0 51 -8.33301 67 -25s24 -36.334 24 -59.001c0 -14.667 -1.83301 -27.5 -5.5 -38.5s-9 -21.333 -16 -31s-15.833 -19 -26.5 -28s-23 -18.833 -37 -29.5z" />
    <glyph glyph-name="Icircumflex" unicode="&#xce;" horiz-adv-x="899" 
d="M653 0l-629.999 -0.000976562l20 83l171 56c12 4 22 9.33301 30 16s13.667 17.334 17 32.001l239 1081c2.66699 13.333 1.83398 22.833 -2.49902 28.5s-11.833 10.834 -22.5 15.501l-171 58l18 81h630l-18 -81l-115 -39c-10 -3.33301 -20.5 -6.33301 -31.5 -9
s-21.333 -6.16699 -31 -10.5s-18.334 -10 -26.001 -17s-12.834 -15.833 -15.501 -26.5l-239 -1081c-2.66699 -14 -2.16699 -24.333 1.5 -31s11.5 -12.334 23.5 -17.001l172 -56zM686.001 1829l-335.999 -241l-53 30l275 307l34.5 37c11 11.333 22.167 21 33.5 29
s23.166 14.167 35.499 18.5s25.833 6.5 40.5 6.5c29.333 0 52.333 -8.5 69 -25.5s32 -38.5 46 -64.5l164 -308l-67 -30z" />
    <glyph glyph-name="Idieresis" unicode="&#xcf;" horiz-adv-x="899" 
d="M653 0l-629.999 -0.000976562l20 83l171 56c12 4 22 9.33301 30 16s13.667 17.334 17 32.001l239 1081c2.66699 13.333 1.83398 22.833 -2.49902 28.5s-11.833 10.834 -22.5 15.501l-171 58l18 81h630l-18 -81l-115 -39c-10 -3.33301 -20.5 -6.33301 -31.5 -9
s-21.333 -6.16699 -31 -10.5s-18.334 -10 -26.001 -17s-12.834 -15.833 -15.501 -26.5l-239 -1081c-2.66699 -14 -2.16699 -24.333 1.5 -31s11.5 -12.334 23.5 -17.001l172 -56zM443.001 1642c-17.333 0 -33.834 2.66602 -49.501 7.99902s-29.334 13 -41.001 23
s-21 22.333 -28 37s-10.5 31.334 -10.5 50.001c0 20.667 3.5 38.667 10.5 54s16.333 28.166 28 38.499s25.334 18.166 41.001 23.499s32.167 8 49.5 8c20 0 38.333 -2.33301 55 -7s31 -11.667 43 -21s21.167 -21.166 27.5 -35.499s9.5 -31.166 9.5 -50.499
c0 -20 -3.5 -38 -10.5 -54s-16.5 -29.5 -28.5 -40.5s-26.167 -19.333 -42.5 -25s-34.166 -8.5 -53.499 -8.5zM905 1642c-17.333 0 -33.834 2.66602 -49.501 7.99902s-29.334 13 -41.001 23s-21 22.333 -28 37s-10.5 31.334 -10.5 50.001c0 20.667 3.5 38.667 10.5 54
s16.333 28.166 28 38.499s25.334 18.166 41.001 23.499s32.167 8 49.5 8c20 0 38.333 -2.33301 55 -7s31 -11.667 43 -21s21.167 -21.166 27.5 -35.499s9.5 -31.166 9.5 -50.499c0 -20 -3.5 -38 -10.5 -54s-16.5 -29.5 -28.5 -40.5s-26.167 -19.333 -42.5 -25
s-34.166 -8.5 -53.499 -8.5z" />
    <glyph glyph-name="Eth" unicode="&#xd0;" horiz-adv-x="1652" 
d="M24 0l18.999 83l162 56c10 3.33301 19.333 8.5 28 15.5s14.667 17.833 18 32.5l111 503h-193l27 128h194l100 450c2.66699 13.333 1.83398 22.833 -2.49902 28.5s-11.833 10.834 -22.5 15.501l-162 58l19 81h637c44 0 90.167 -3.83301 138.5 -11.5s96 -20.667 143 -39
s91.833 -42.166 134.5 -71.499s80.167 -65.833 112.5 -109.5s58 -94.834 77 -153.501s28.5 -126.334 28.5 -203.001c0 -92 -9.66699 -177.333 -29 -256s-47 -150 -83 -214s-79.5 -120.5 -130.5 -169.5s-108.333 -90 -172 -123s-132.667 -58 -207 -75
s-152.833 -25.5 -235.5 -25.5h-712zM715.999 1317l-111 -499.001h334l-27 -128h-335l-123 -556h314c96 0 180.667 16.833 254 50.5s134.666 80.667 183.999 141s86.5 132.833 111.5 217.5s37.5 178 37.5 280c0 76.667 -10.667 145.5 -32 206.5
s-52.166 112.833 -92.499 155.5s-89.5 75.334 -147.5 98.001s-124 34 -198 34h-169z" />
    <glyph glyph-name="Ntilde" unicode="&#xd1;" horiz-adv-x="1796" 
d="M1338 -10l-120.003 -0.00195312l-531 1095l-43 125h-21l-223 -1017c-1.33301 -9.33301 -1.66602 -16.5 -0.999023 -21.5s2 -9 4 -12s4.83301 -5.33301 8.5 -7l12.5 -5.5l157 -64l-18 -83h-538l18 83l164 64c11.333 4.66699 21 9.83398 29 15.501s13.667 15.834 17 30.501
l237 1075c2.66699 13.333 1.83398 23 -2.49902 29s-12.166 11 -23.499 15l-166 58l19 81h421l489 -1011l43 -126h21l208 948c3.33301 9.33301 2 17.833 -4 25.5s-14 13.5 -24 17.5l-157 65l17 81h541l-17 -81l-164 -65c-9.33301 -4 -18.333 -8.83301 -27 -14.5
s-14.667 -15.167 -18 -28.5l-230 -1042zM881.997 1624l-98.001 -0.00488281c7.33301 36.667 19.5 71.334 36.5 104.001s37.333 61.334 61 86.001s49.834 44.334 78.501 59.001s58.667 22 90 22c26.667 0 52 -5.16699 76 -15.5s47.333 -21.666 70 -33.999
s45.167 -23.666 67.5 -33.999s45.166 -15.5 68.499 -15.5c14.667 0 27.834 3 39.501 9s21.834 14.167 30.501 24.5s16.167 22.333 22.5 36s11.5 28.5 15.5 44.5h99c-7.33301 -36 -19 -70.333 -35 -103s-35.5 -61.334 -58.5 -86.001s-48.667 -44.334 -77 -59.001
s-58.5 -22 -90.5 -22c-27.333 0 -52.5 5.33301 -75.5 16s-45.5 22.334 -67.5 35.001s-44 24.334 -66 35.001s-45.333 16 -70 16c-30 0 -54.833 -11.667 -74.5 -35s-33.834 -51 -42.501 -83z" />
    <glyph glyph-name="Ograve" unicode="&#xd2;" horiz-adv-x="1647" 
d="M752 -34c-99.333 0 -186.835 13.3301 -262.502 39.9971s-139 65 -190 115s-89.667 111.333 -116 184s-39.5 155 -39.5 247c0 83.333 8.83301 164.333 26.5 243s43.167 152.5 76.5 221.5s74.333 132.333 123 190s104 107 166 148s130.333 73 205 96s155 34.5 241 34.5
c106 0 197.167 -14.333 273.5 -43s139.333 -68.834 189 -120.501s86.334 -113 110.001 -184s35.5 -148.833 35.5 -233.5c0 -72 -7.5 -145.167 -22.5 -219.5s-37.667 -146.166 -68 -215.499s-68.5 -134.666 -114.5 -195.999s-100.167 -114.666 -162.5 -159.999
s-132.666 -81.166 -210.999 -107.499s-164.833 -39.5 -259.5 -39.5zM781.998 97.9971c62.667 0 120.331 10.998 172.998 32.998s100.167 52.167 142.5 90.5s79.333 83.5 111 135.5s58.167 108.167 79.5 168.5s37.333 123.333 48 189s16 131.167 16 196.5
c0 69.333 -8.16699 131.333 -24.5 186s-41.166 101 -74.499 139s-75.166 67 -125.499 87s-109.833 30 -178.5 30c-67.333 0 -128 -11.667 -182 -35s-102 -55.166 -144 -95.499s-78.167 -87.166 -108.5 -140.499s-55.5 -110 -75.5 -170s-34.667 -121.667 -44 -185
s-14 -125 -14 -185c0 -70 8.33301 -132.5 25 -187.5s41.667 -101.5 75 -139.5s75 -67 125 -87s108.667 -30 176 -30zM1217 1618l-63.001 -44.999l-307 234c-6.66699 5.33301 -12.834 10.5 -18.501 15.5l-16 14.5c-5 4.66699 -9.5 9.33398 -13.5 14.001
s-7.66699 9.33398 -11 14.001c-6.66699 9.33301 -11.334 19 -14.001 29s-3.33398 22 -2.00098 36c0.666992 11.333 3.66699 22.333 9 33s12.333 20 21 28s18.834 14.5 30.501 19.5s24.5 7.5 38.5 7.5s26.833 -1.33301 38.5 -4s22.834 -7.33398 33.501 -14.001
s21.334 -15.834 32.001 -27.501s22.334 -26.834 35.001 -45.501z" />
    <glyph glyph-name="Oacute" unicode="&#xd3;" horiz-adv-x="1647" 
d="M752 -34c-99.333 0 -186.835 13.3301 -262.502 39.9971s-139 65 -190 115s-89.667 111.333 -116 184s-39.5 155 -39.5 247c0 83.333 8.83301 164.333 26.5 243s43.167 152.5 76.5 221.5s74.333 132.333 123 190s104 107 166 148s130.333 73 205 96s155 34.5 241 34.5
c106 0 197.167 -14.333 273.5 -43s139.333 -68.834 189 -120.501s86.334 -113 110.001 -184s35.5 -148.833 35.5 -233.5c0 -72 -7.5 -145.167 -22.5 -219.5s-37.667 -146.166 -68 -215.499s-68.5 -134.666 -114.5 -195.999s-100.167 -114.666 -162.5 -159.999
s-132.666 -81.166 -210.999 -107.499s-164.833 -39.5 -259.5 -39.5zM781.998 97.9971c62.667 0 120.331 10.998 172.998 32.998s100.167 52.167 142.5 90.5s79.333 83.5 111 135.5s58.167 108.167 79.5 168.5s37.333 123.333 48 189s16 131.167 16 196.5
c0 69.333 -8.16699 131.333 -24.5 186s-41.166 101 -74.499 139s-75.166 67 -125.499 87s-109.833 30 -178.5 30c-67.333 0 -128 -11.667 -182 -35s-102 -55.166 -144 -95.499s-78.167 -87.166 -108.5 -140.499s-55.5 -110 -75.5 -170s-34.667 -121.667 -44 -185
s-14 -125 -14 -185c0 -70 8.33301 -132.5 25 -187.5s41.667 -101.5 75 -139.5s75 -67 125 -87s108.667 -30 176 -30zM836.995 1573l-49.9971 45.002l103 138l77.5 104.5c22.333 29.667 42.166 54.5 59.499 74.5s33.666 36.167 48.999 48.5s30.666 21.166 45.999 26.499
s32.333 8 51 8c28.667 0 51 -8.33301 67 -25s24 -36.334 24 -59.001c0 -14.667 -1.83301 -27.5 -5.5 -38.5s-9 -21.333 -16 -31s-15.833 -19 -26.5 -28s-23 -18.833 -37 -29.5z" />
    <glyph glyph-name="Ocircumflex" unicode="&#xd4;" horiz-adv-x="1647" 
d="M752 -34c-99.333 0 -186.835 13.3301 -262.502 39.9971s-139 65 -190 115s-89.667 111.333 -116 184s-39.5 155 -39.5 247c0 83.333 8.83301 164.333 26.5 243s43.167 152.5 76.5 221.5s74.333 132.333 123 190s104 107 166 148s130.333 73 205 96s155 34.5 241 34.5
c106 0 197.167 -14.333 273.5 -43s139.333 -68.834 189 -120.501s86.334 -113 110.001 -184s35.5 -148.833 35.5 -233.5c0 -72 -7.5 -145.167 -22.5 -219.5s-37.667 -146.166 -68 -215.499s-68.5 -134.666 -114.5 -195.999s-100.167 -114.666 -162.5 -159.999
s-132.666 -81.166 -210.999 -107.499s-164.833 -39.5 -259.5 -39.5zM781.998 97.9971c62.667 0 120.331 10.998 172.998 32.998s100.167 52.167 142.5 90.5s79.333 83.5 111 135.5s58.167 108.167 79.5 168.5s37.333 123.333 48 189s16 131.167 16 196.5
c0 69.333 -8.16699 131.333 -24.5 186s-41.166 101 -74.499 139s-75.166 67 -125.499 87s-109.833 30 -178.5 30c-67.333 0 -128 -11.667 -182 -35s-102 -55.166 -144 -95.499s-78.167 -87.166 -108.5 -140.499s-55.5 -110 -75.5 -170s-34.667 -121.667 -44 -185
s-14 -125 -14 -185c0 -70 8.33301 -132.5 25 -187.5s41.667 -101.5 75 -139.5s75 -67 125 -87s108.667 -30 176 -30zM1025 1829l-335.999 -241l-53 30l275 307l34.5 37c11 11.333 22.167 21 33.5 29s23.166 14.167 35.499 18.5s25.833 6.5 40.5 6.5
c29.333 0 52.333 -8.5 69 -25.5s32 -38.5 46 -64.5l164 -308l-67 -30z" />
    <glyph glyph-name="Otilde" unicode="&#xd5;" horiz-adv-x="1647" 
d="M752 -34c-99.333 0 -186.835 13.3301 -262.502 39.9971s-139 65 -190 115s-89.667 111.333 -116 184s-39.5 155 -39.5 247c0 83.333 8.83301 164.333 26.5 243s43.167 152.5 76.5 221.5s74.333 132.333 123 190s104 107 166 148s130.333 73 205 96s155 34.5 241 34.5
c106 0 197.167 -14.333 273.5 -43s139.333 -68.834 189 -120.501s86.334 -113 110.001 -184s35.5 -148.833 35.5 -233.5c0 -72 -7.5 -145.167 -22.5 -219.5s-37.667 -146.166 -68 -215.499s-68.5 -134.666 -114.5 -195.999s-100.167 -114.666 -162.5 -159.999
s-132.666 -81.166 -210.999 -107.499s-164.833 -39.5 -259.5 -39.5zM781.998 97.9971c62.667 0 120.331 10.998 172.998 32.998s100.167 52.167 142.5 90.5s79.333 83.5 111 135.5s58.167 108.167 79.5 168.5s37.333 123.333 48 189s16 131.167 16 196.5
c0 69.333 -8.16699 131.333 -24.5 186s-41.166 101 -74.499 139s-75.166 67 -125.499 87s-109.833 30 -178.5 30c-67.333 0 -128 -11.667 -182 -35s-102 -55.166 -144 -95.499s-78.167 -87.166 -108.5 -140.499s-55.5 -110 -75.5 -170s-34.667 -121.667 -44 -185
s-14 -125 -14 -185c0 -70 8.33301 -132.5 25 -187.5s41.667 -101.5 75 -139.5s75 -67 125 -87s108.667 -30 176 -30zM749.995 1624l-98.001 -0.00488281c7.33301 36.667 19.5 71.334 36.5 104.001s37.333 61.334 61 86.001s49.834 44.334 78.501 59.001s58.667 22 90 22
c26.667 0 52 -5.16699 76 -15.5s47.333 -21.666 70 -33.999s45.167 -23.666 67.5 -33.999s45.166 -15.5 68.499 -15.5c14.667 0 27.834 3 39.501 9s21.834 14.167 30.501 24.5s16.167 22.333 22.5 36s11.5 28.5 15.5 44.5h99c-7.33301 -36 -19 -70.333 -35 -103
s-35.5 -61.334 -58.5 -86.001s-48.667 -44.334 -77 -59.001s-58.5 -22 -90.5 -22c-27.333 0 -52.5 5.33301 -75.5 16s-45.5 22.334 -67.5 35.001s-44 24.334 -66 35.001s-45.333 16 -70 16c-30 0 -54.833 -11.667 -74.5 -35s-33.834 -51 -42.501 -83z" />
    <glyph glyph-name="Odieresis" unicode="&#xd6;" horiz-adv-x="1647" 
d="M752 -34c-99.333 0 -186.835 13.3301 -262.502 39.9971s-139 65 -190 115s-89.667 111.333 -116 184s-39.5 155 -39.5 247c0 83.333 8.83301 164.333 26.5 243s43.167 152.5 76.5 221.5s74.333 132.333 123 190s104 107 166 148s130.333 73 205 96s155 34.5 241 34.5
c106 0 197.167 -14.333 273.5 -43s139.333 -68.834 189 -120.501s86.334 -113 110.001 -184s35.5 -148.833 35.5 -233.5c0 -72 -7.5 -145.167 -22.5 -219.5s-37.667 -146.166 -68 -215.499s-68.5 -134.666 -114.5 -195.999s-100.167 -114.666 -162.5 -159.999
s-132.666 -81.166 -210.999 -107.499s-164.833 -39.5 -259.5 -39.5zM781.998 97.9971c62.667 0 120.331 10.998 172.998 32.998s100.167 52.167 142.5 90.5s79.333 83.5 111 135.5s58.167 108.167 79.5 168.5s37.333 123.333 48 189s16 131.167 16 196.5
c0 69.333 -8.16699 131.333 -24.5 186s-41.166 101 -74.499 139s-75.166 67 -125.499 87s-109.833 30 -178.5 30c-67.333 0 -128 -11.667 -182 -35s-102 -55.166 -144 -95.499s-78.167 -87.166 -108.5 -140.499s-55.5 -110 -75.5 -170s-34.667 -121.667 -44 -185
s-14 -125 -14 -185c0 -70 8.33301 -132.5 25 -187.5s41.667 -101.5 75 -139.5s75 -67 125 -87s108.667 -30 176 -30zM779.995 1642c-17.333 0 -33.834 2.66602 -49.501 7.99902s-29.334 13 -41.001 23s-21 22.333 -28 37s-10.5 31.334 -10.5 50.001
c0 20.667 3.5 38.667 10.5 54s16.333 28.166 28 38.499s25.334 18.166 41.001 23.499s32.167 8 49.5 8c20 0 38.333 -2.33301 55 -7s31 -11.667 43 -21s21.167 -21.166 27.5 -35.499s9.5 -31.166 9.5 -50.499c0 -20 -3.5 -38 -10.5 -54s-16.5 -29.5 -28.5 -40.5
s-26.167 -19.333 -42.5 -25s-34.166 -8.5 -53.499 -8.5zM1241.99 1641.99c-17.333 0 -33.834 2.66602 -49.501 7.99902s-29.334 13 -41.001 23s-21 22.333 -28 37s-10.5 31.334 -10.5 50.001c0 20.667 3.5 38.667 10.5 54s16.333 28.166 28 38.499
s25.334 18.166 41.001 23.499s32.167 8 49.5 8c20 0 38.333 -2.33301 55 -7s31 -11.667 43 -21s21.167 -21.166 27.5 -35.499s9.5 -31.166 9.5 -50.499c0 -20 -3.5 -38 -10.5 -54s-16.5 -29.5 -28.5 -40.5s-26.167 -19.333 -42.5 -25s-34.166 -8.5 -53.499 -8.5z" />
    <glyph glyph-name="multiply" unicode="&#xd7;" horiz-adv-x="1555" 
d="M815 522l-400 -403l-107 108l403 400l-403 400l107 108l401 -403l399 402l107 -107l-403 -400l402 -400l-107 -107z" />
    <glyph glyph-name="Oslash" unicode="&#xd8;" horiz-adv-x="1647" 
d="M782 98c63.333 0 121.331 10.499 173.998 31.499s100.334 50.333 143.001 88s80 82 112 133s58.667 106.667 80 167s37.5 123.833 48.5 190.5s16.5 134.334 16.5 203.001c0 52.667 -4.16699 101.5 -12.5 146.5s-21.833 85.5 -40.5 121.5l-818 -973
c34 -36 75.333 -63 124 -81s106.334 -27 173.001 -27zM1246 1247c-34 34.667 -74.999 61.002 -122.999 79.002s-106 27 -174 27c-66.667 0 -127.167 -11.333 -181.5 -34s-102.833 -53.5 -145.5 -92.5s-79.334 -84.833 -110.001 -137.5s-56 -109 -76 -169
s-34.833 -122.333 -44.5 -187s-14.5 -128.334 -14.5 -191.001c0 -52.667 4.16699 -101.334 12.5 -146.001s21.5 -85 39.5 -121zM216.999 -113.999l-122.001 -0.00390625l205 241c-52 52 -91 113.667 -117 185s-39 151.333 -39 240c0 83.333 8.83301 164.333 26.5 243
s43.167 152.5 76.5 221.5s74.333 132.333 123 190s104 107 166 148s130.333 73 205 96s155 34.5 241 34.5c80.667 0 151.834 -9 213.501 -27s116.5 -43 164.5 -75l126 151h122l-176 -206c54 -54 93.833 -117 119.5 -189s38.5 -150.333 38.5 -235
c0 -72 -7.5 -145.167 -22.5 -219.5s-37.667 -146.166 -68 -215.499s-68.5 -134.666 -114.5 -195.999s-100.167 -114.666 -162.5 -159.999s-132.666 -81.166 -210.999 -107.499s-164.833 -39.5 -259.5 -39.5c-78.667 0 -149.334 9.16699 -212.001 27.5s-119 44.5 -169 78.5z
" />
    <glyph glyph-name="Ugrave" unicode="&#xd9;" horiz-adv-x="1732" 
d="M774 -35c-84 0 -157.671 10.333 -221.004 31s-116.166 48.167 -158.499 82.5s-74.166 73.666 -95.499 117.999s-32 90.166 -32 137.499c0 12.667 0.666992 26.167 2 40.5s3.16602 28.666 5.49902 42.999s4.83301 28.166 7.5 41.499s5.33398 25.666 8.00098 36.999
l171 772c2.66699 13.333 1.83398 22.833 -2.49902 28.5s-12.833 10.834 -25.5 15.501l-158 58l18 81h609l-18 -81l-162 -58c-9.33301 -3.33301 -18.333 -8.16602 -27 -14.499s-14.667 -16.166 -18 -29.499l-76 -343l-76 -343c-2 -8.66699 -4.16699 -19.667 -6.5 -33l-7 -42
c-2.33301 -14.667 -4.16602 -29.167 -5.49902 -43.5s-2 -27.166 -2 -38.499c0 -34.667 4.5 -69.834 13.5 -105.501s25.333 -68 49 -97s56 -52.667 97 -71s93.5 -27.5 157.5 -27.5c52 0 98.5 6.16699 139.5 18.5s77.333 29 109 50s59 44.833 82 71.5s42.5 54.334 58.5 83.001
s29 57.167 39 85.5s17.667 54.5 23 78.5l165 751c2.66699 6.66699 1.66699 14.5 -3 23.5s-12 15.5 -22 19.5l-158 65l18 81h539l-18 -81l-163 -65c-10.667 -4 -20 -8.83301 -28 -14.5s-13.667 -15.167 -17 -28.5l-181 -820c-12.667 -56.667 -31.834 -107.667 -57.501 -153
s-55.667 -85.666 -90 -120.999s-71.666 -65.833 -111.999 -91.5s-81.833 -46.667 -124.5 -63s-85 -28.5 -127 -36.5s-81.667 -12 -119 -12zM1229 1618l-63.001 -44.999l-307 234c-6.66699 5.33301 -12.834 10.5 -18.501 15.5l-16 14.5c-5 4.66699 -9.5 9.33398 -13.5 14.001
s-7.66699 9.33398 -11 14.001c-6.66699 9.33301 -11.334 19 -14.001 29s-3.33398 22 -2.00098 36c0.666992 11.333 3.66699 22.333 9 33s12.333 20 21 28s18.834 14.5 30.501 19.5s24.5 7.5 38.5 7.5s26.833 -1.33301 38.5 -4s22.834 -7.33398 33.501 -14.001
s21.334 -15.834 32.001 -27.501s22.334 -26.834 35.001 -45.501z" />
    <glyph glyph-name="Uacute" unicode="&#xda;" horiz-adv-x="1732" 
d="M774 -35c-84 0 -157.671 10.333 -221.004 31s-116.166 48.167 -158.499 82.5s-74.166 73.666 -95.499 117.999s-32 90.166 -32 137.499c0 12.667 0.666992 26.167 2 40.5s3.16602 28.666 5.49902 42.999s4.83301 28.166 7.5 41.499s5.33398 25.666 8.00098 36.999
l171 772c2.66699 13.333 1.83398 22.833 -2.49902 28.5s-12.833 10.834 -25.5 15.501l-158 58l18 81h609l-18 -81l-162 -58c-9.33301 -3.33301 -18.333 -8.16602 -27 -14.499s-14.667 -16.166 -18 -29.499l-76 -343l-76 -343c-2 -8.66699 -4.16699 -19.667 -6.5 -33l-7 -42
c-2.33301 -14.667 -4.16602 -29.167 -5.49902 -43.5s-2 -27.166 -2 -38.499c0 -34.667 4.5 -69.834 13.5 -105.501s25.333 -68 49 -97s56 -52.667 97 -71s93.5 -27.5 157.5 -27.5c52 0 98.5 6.16699 139.5 18.5s77.333 29 109 50s59 44.833 82 71.5s42.5 54.334 58.5 83.001
s29 57.167 39 85.5s17.667 54.5 23 78.5l165 751c2.66699 6.66699 1.66699 14.5 -3 23.5s-12 15.5 -22 19.5l-158 65l18 81h539l-18 -81l-163 -65c-10.667 -4 -20 -8.83301 -28 -14.5s-13.667 -15.167 -17 -28.5l-181 -820c-12.667 -56.667 -31.834 -107.667 -57.501 -153
s-55.667 -85.666 -90 -120.999s-71.666 -65.833 -111.999 -91.5s-81.833 -46.667 -124.5 -63s-85 -28.5 -127 -36.5s-81.667 -12 -119 -12zM927.996 1573l-49.9971 45.002l103 138l77.5 104.5c22.333 29.667 42.166 54.5 59.499 74.5s33.666 36.167 48.999 48.5
s30.666 21.166 45.999 26.499s32.333 8 51 8c28.667 0 51 -8.33301 67 -25s24 -36.334 24 -59.001c0 -14.667 -1.83301 -27.5 -5.5 -38.5s-9 -21.333 -16 -31s-15.833 -19 -26.5 -28s-23 -18.833 -37 -29.5z" />
    <glyph glyph-name="Ucircumflex" unicode="&#xdb;" horiz-adv-x="1732" 
d="M774 -35c-84 0 -157.671 10.333 -221.004 31s-116.166 48.167 -158.499 82.5s-74.166 73.666 -95.499 117.999s-32 90.166 -32 137.499c0 12.667 0.666992 26.167 2 40.5s3.16602 28.666 5.49902 42.999s4.83301 28.166 7.5 41.499s5.33398 25.666 8.00098 36.999
l171 772c2.66699 13.333 1.83398 22.833 -2.49902 28.5s-12.833 10.834 -25.5 15.501l-158 58l18 81h609l-18 -81l-162 -58c-9.33301 -3.33301 -18.333 -8.16602 -27 -14.499s-14.667 -16.166 -18 -29.499l-76 -343l-76 -343c-2 -8.66699 -4.16699 -19.667 -6.5 -33l-7 -42
c-2.33301 -14.667 -4.16602 -29.167 -5.49902 -43.5s-2 -27.166 -2 -38.499c0 -34.667 4.5 -69.834 13.5 -105.501s25.333 -68 49 -97s56 -52.667 97 -71s93.5 -27.5 157.5 -27.5c52 0 98.5 6.16699 139.5 18.5s77.333 29 109 50s59 44.833 82 71.5s42.5 54.334 58.5 83.001
s29 57.167 39 85.5s17.667 54.5 23 78.5l165 751c2.66699 6.66699 1.66699 14.5 -3 23.5s-12 15.5 -22 19.5l-158 65l18 81h539l-18 -81l-163 -65c-10.667 -4 -20 -8.83301 -28 -14.5s-13.667 -15.167 -17 -28.5l-181 -820c-12.667 -56.667 -31.834 -107.667 -57.501 -153
s-55.667 -85.666 -90 -120.999s-71.666 -65.833 -111.999 -91.5s-81.833 -46.667 -124.5 -63s-85 -28.5 -127 -36.5s-81.667 -12 -119 -12zM1101 1829l-335.999 -241l-53 30l275 307l34.5 37c11 11.333 22.167 21 33.5 29s23.166 14.167 35.499 18.5s25.833 6.5 40.5 6.5
c29.333 0 52.333 -8.5 69 -25.5s32 -38.5 46 -64.5l164 -308l-67 -30z" />
    <glyph glyph-name="Udieresis" unicode="&#xdc;" horiz-adv-x="1732" 
d="M774 -35c-84 0 -157.671 10.333 -221.004 31s-116.166 48.167 -158.499 82.5s-74.166 73.666 -95.499 117.999s-32 90.166 -32 137.499c0 12.667 0.666992 26.167 2 40.5s3.16602 28.666 5.49902 42.999s4.83301 28.166 7.5 41.499s5.33398 25.666 8.00098 36.999
l171 772c2.66699 13.333 1.83398 22.833 -2.49902 28.5s-12.833 10.834 -25.5 15.501l-158 58l18 81h609l-18 -81l-162 -58c-9.33301 -3.33301 -18.333 -8.16602 -27 -14.499s-14.667 -16.166 -18 -29.499l-76 -343l-76 -343c-2 -8.66699 -4.16699 -19.667 -6.5 -33l-7 -42
c-2.33301 -14.667 -4.16602 -29.167 -5.49902 -43.5s-2 -27.166 -2 -38.499c0 -34.667 4.5 -69.834 13.5 -105.501s25.333 -68 49 -97s56 -52.667 97 -71s93.5 -27.5 157.5 -27.5c52 0 98.5 6.16699 139.5 18.5s77.333 29 109 50s59 44.833 82 71.5s42.5 54.334 58.5 83.001
s29 57.167 39 85.5s17.667 54.5 23 78.5l165 751c2.66699 6.66699 1.66699 14.5 -3 23.5s-12 15.5 -22 19.5l-158 65l18 81h539l-18 -81l-163 -65c-10.667 -4 -20 -8.83301 -28 -14.5s-13.667 -15.167 -17 -28.5l-181 -820c-12.667 -56.667 -31.834 -107.667 -57.501 -153
s-55.667 -85.666 -90 -120.999s-71.666 -65.833 -111.999 -91.5s-81.833 -46.667 -124.5 -63s-85 -28.5 -127 -36.5s-81.667 -12 -119 -12zM857.996 1642c-17.333 0 -33.834 2.66602 -49.501 7.99902s-29.334 13 -41.001 23s-21 22.333 -28 37s-10.5 31.334 -10.5 50.001
c0 20.667 3.5 38.667 10.5 54s16.333 28.166 28 38.499s25.334 18.166 41.001 23.499s32.167 8 49.5 8c20 0 38.333 -2.33301 55 -7s31 -11.667 43 -21s21.167 -21.166 27.5 -35.499s9.5 -31.166 9.5 -50.499c0 -20 -3.5 -38 -10.5 -54s-16.5 -29.5 -28.5 -40.5
s-26.167 -19.333 -42.5 -25s-34.166 -8.5 -53.499 -8.5zM1320 1642c-17.333 0 -33.834 2.66602 -49.501 7.99902s-29.334 13 -41.001 23s-21 22.333 -28 37s-10.5 31.334 -10.5 50.001c0 20.667 3.5 38.667 10.5 54s16.333 28.166 28 38.499s25.334 18.166 41.001 23.499
s32.167 8 49.5 8c20 0 38.333 -2.33301 55 -7s31 -11.667 43 -21s21.167 -21.166 27.5 -35.499s9.5 -31.166 9.5 -50.499c0 -20 -3.5 -38 -10.5 -54s-16.5 -29.5 -28.5 -40.5s-26.167 -19.333 -42.5 -25s-34.166 -8.5 -53.499 -8.5z" />
    <glyph glyph-name="Yacute" unicode="&#xdd;" horiz-adv-x="1458" 
d="M928 0l-626.999 -0.00390625l19 83l169 56c11.333 4 21.333 9.33301 30 16s14.667 17.334 18 32.001l77 345l-258 738c-3.33301 9.33301 -7.5 18.833 -12.5 28.5s-12.5 16.834 -22.5 21.501l-117 50l18 81h523l-18 -81l-163 -65l175 -495l34 -123h21l476 610l-159 73
l18 81h480l-18 -81l-113 -54c-10.667 -5.33301 -21.334 -12.666 -32.001 -21.999s-20 -18.666 -28 -27.999l-589 -729l-77 -350c-2 -12 -1.83301 -22 0.5 -30s9.83301 -14 22.5 -18l172 -56zM818.001 1573l-49.9971 45.002l103 138l77.5 104.5
c22.333 29.667 42.166 54.5 59.499 74.5s33.666 36.167 48.999 48.5s30.666 21.166 45.999 26.499s32.333 8 51 8c28.667 0 51 -8.33301 67 -25s24 -36.334 24 -59.001c0 -14.667 -1.83301 -27.5 -5.5 -38.5s-9 -21.333 -16 -31s-15.833 -19 -26.5 -28
s-23 -18.833 -37 -29.5z" />
    <glyph glyph-name="Thorn" unicode="&#xde;" horiz-adv-x="1373" 
d="M756 439c59.333 0 110.332 10.668 152.999 32.001s77.667 49.166 105 83.499s47.5 72.666 60.5 114.999s19.5 84.5 19.5 126.5c0 33.333 -5.16699 64.833 -15.5 94.5s-27.5 55.5 -51.5 77.5s-56 39.333 -96 52s-90 19 -150 19h-126l-129 -580
c10.667 -3.33301 25.667 -6.16602 45 -8.49902s40 -4.33301 62 -6s43.833 -3 65.5 -4s40.834 -1.5 57.501 -1.5zM641.999 0.000976562l-617.999 0.00390625l19 83l81 28l81 28c9.33301 3.33301 18.5 8.5 27.5 15.5s15.167 17.833 18.5 32.5l239 1081
c3.33301 13.333 2.16602 23.166 -3.50098 29.499s-12.5 11.166 -20.5 14.499l-162 58l19 81h609l-19 -83l-162 -56c-10 -3.33301 -19.333 -8.5 -28 -15.5s-14.667 -17.833 -18 -32.5l-20 -91h155c68.667 0 133 -7 193 -21s112.333 -35.167 157 -63.5
s79.834 -63.833 105.501 -106.5s38.5 -93 38.5 -151c0 -77.333 -14.5 -148.5 -43.5 -213.5s-69.167 -121.167 -120.5 -168.5s-111.833 -84.333 -181.5 -111s-145.5 -40 -227.5 -40c-16.667 0 -36.834 1.83301 -60.501 5.5s-47.667 8.66699 -72 15s-47.5 13.666 -69.5 21.999
s-39.667 17.166 -53 26.499l-40 -180c-3.33301 -14.667 -2.33301 -25.5 3 -32.5s13 -12.167 23 -15.5l169 -56z" />
    <glyph glyph-name="germandbls" unicode="&#xdf;" horiz-adv-x="1474" 
d="M-224 -501c-12 0 -24.1641 0.676758 -36.4971 2.00977s-25 3.16602 -38 5.49902s-26 4.83301 -39 7.5l-37.5 8v193h44l42 -15c14.667 -5.33301 30.167 -10.333 46.5 -15s34 -8.5 53 -11.5s39.5 -4.5 61.5 -4.5c28.667 0 54.667 3.66699 78 11s44 19 62 35
c6 5.33301 13.833 18 23.5 38s20.167 46.333 31.5 79s23 71 35 115s23.667 92.667 35 146l194 954c12.667 62.667 32.834 119.167 60.501 169.5s60.5 95.166 98.5 134.499s79.667 73 125 101s91.666 51.167 138.999 69.5s94.833 31.833 142.5 40.5s92.5 13 134.5 13
c44 0 85.5 -6.66699 124.5 -20s73 -31.5 102 -54.5s52 -50 69 -81s25.5 -64.5 25.5 -100.5c0 -22 -2.5 -44.5 -7.5 -67.5s-11.5 -45.167 -19.5 -66.5s-16.667 -41.166 -26 -59.499s-18.333 -33.833 -27 -46.5l-107 -49.5c-38 -17.667 -73.167 -36.834 -105.5 -57.501
s-59.166 -43.167 -80.499 -67.5s-32 -50.833 -32 -79.5c0 -11.333 1.5 -21.833 4.5 -31.5s7 -18.5 12 -26.5s11 -15.333 18 -22s14.833 -13.334 23.5 -20.001l23 -15l55.5 -37l68 -45.5l61.5 -39.5c46.667 -30 82.667 -62.167 108 -96.5s38 -75.166 38 -122.499
c0 -39.333 -7 -76.333 -21 -111s-32.833 -66.5 -56.5 -95.5s-51.334 -55.167 -83.001 -78.5s-65.334 -43 -101.001 -59s-72.167 -28.333 -109.5 -37s-73.666 -13 -108.999 -13c-33.333 0 -64.333 1.83301 -93 5.5s-55.667 8.66699 -81 15s-49.333 13.666 -72 21.999
l-67 25.5v257h134l32 -101c6 -18.667 15.5 -33.834 28.5 -45.501s27.833 -20.834 44.5 -27.501s34.667 -11.334 54 -14.001s38.666 -4 57.999 -4c22.667 0 47.5 3.5 74.5 10.5s52 18.667 75 35s42.167 37.666 57.5 63.999s23 59.166 23 98.499
c0 17.333 -2.66699 32.833 -8 46.5s-13.5 26.667 -24.5 39s-25 24.666 -42 36.999s-37.167 26.166 -60.5 41.499c-26 17.333 -54.333 33.333 -85 48s-57.667 29.667 -81 45c-13.333 8.66699 -27.166 19.167 -41.499 31.5s-27.333 26.166 -39 41.499
s-21.334 32.666 -29.001 51.999s-11.5 40.333 -11.5 63c0 38 8.16699 72.5 24.5 103.5s36.833 58.5 61.5 82.5s51 45 79 63s53.667 33.333 77 46l11 6l28.5 15.5l38.5 21.5l40.5 24c13 8 24.667 15.5 35 22.5s17.833 12.833 22.5 17.5c6 28 9 53.333 9 76
c0 36.667 -7.33301 66.667 -22 90s-34.5 41.833 -59.5 55.5s-54.5 23 -88.5 28s-70.333 7.5 -109 7.5c-18 0 -36.5 -2 -55.5 -6s-36.833 -8.83301 -53.5 -14.5s-31.334 -11.667 -44.001 -18s-21.667 -11.833 -27 -16.5c-12.667 -11.333 -27 -28.666 -43 -51.999
s-32.333 -53.333 -49 -90s-33 -80 -49 -130s-30.333 -107 -43 -171l-169 -856c-16 -82.667 -43 -158.667 -81 -228s-82.5 -129.166 -133.5 -179.499s-106.833 -89.5 -167.5 -117.5s-121.334 -42 -182.001 -42z" />
    <glyph glyph-name="agrave" unicode="&#xe0;" horiz-adv-x="1280" 
d="M466 133c22.667 0 46.999 2.32812 72.999 6.99512s52 11.834 78 21.501s51.167 21.834 75.5 36.501s46.5 32.334 66.5 53.001l69 309c-78 0 -149.667 -2.66699 -215 -8s-121.666 -17.166 -168.999 -35.499s-84.333 -44.666 -111 -78.999s-40 -80.5 -40 -138.5
c0 -30.667 5.16699 -56.5 15.5 -77.5s23.666 -38 39.999 -51s34.833 -22.5 55.5 -28.5s41.334 -9 62.001 -9zM347.999 -21.0049c-46.667 0 -87.4951 7.82812 -122.495 23.4951s-64.167 36.334 -87.5 62.001s-40.833 55.334 -52.5 89.001s-17.5 68.5 -17.5 104.5
c0 54 9.16699 101.833 27.5 143.5s42.666 78.167 72.999 109.5s65.333 57.833 105 79.5s81 39.334 124 53.001s86.167 23.5 129.5 29.5s83.666 9 120.999 9c14 0 28.167 -0.5 42.5 -1.5s29.5 -2.33301 45.5 -4l52 -5.5c18.667 -2 39.667 -4 63 -6l15 70
c1.33301 6 2.66602 13.333 3.99902 22s2.5 18.5 3.5 29.5s1.66699 21.167 2 30.5s0.5 21 0.5 35c0 26.667 -5.33301 49.667 -16 69s-25 35 -43 47s-38.833 20.833 -62.5 26.5s-48.834 8.5 -75.501 8.5c-34 0 -69 -6 -105 -18s-70.833 -26.333 -104.5 -43s-65 -34 -94 -52
s-53.5 -32.667 -73.5 -44h-46v201l106 32c26 8 52.167 15.5 78.5 22.5s53.833 13.167 82.5 18.5s59 9.5 91 12.5s66 4.5 102 4.5c44 0 87.833 -4.33301 131.5 -13s83 -23 118 -43s63.5 -46.667 85.5 -80s33 -75 33 -125c0 -12 -0.5 -25.667 -1.5 -41
s-2.5 -30.666 -4.5 -45.999s-4.16699 -30.5 -6.5 -45.5s-4.83301 -27.833 -7.5 -38.5l-63 -279l-12.5 -59c-4.33301 -21.333 -8.33301 -42 -12 -62s-6.66699 -38.167 -9 -54.5s-3.5 -27.833 -3.5 -34.5c0 -10.667 1.33301 -21.167 4 -31.5s7.66699 -19.666 15 -27.999
s17.666 -15 30.999 -20s30.666 -7.5 51.999 -7.5c6.66699 0 14 0.5 22 1.5s16.667 2.5 26 4.5s19.333 4.66699 30 8s22.334 7.33301 35.001 12h39v-100c-28.667 -16 -56.834 -28.667 -84.501 -38s-54.167 -16.5 -79.5 -21.5s-49.166 -8.16699 -71.499 -9.5
s-42.5 -2 -60.5 -2c-32 0 -58.333 5.83301 -79 17.5s-37 26.5 -49 44.5s-20.333 37.833 -25 59.5s-7 42.167 -7 61.5h-16c-37.333 -41.333 -74 -74.5 -110 -99.5s-70.833 -44 -104.5 -57s-66 -21.5 -97 -25.5s-59.833 -6 -86.5 -6zM906.004 1269.99l-63.0029 -44.9971
l-307 234c-9.33301 7.33301 -18.5 15 -27.5 23s-17 16.5 -24 25.5s-12.833 18.667 -17.5 29s-7 21.5 -7 33.5c0 14 2.66699 27.167 8 39.5s12.5 23 21.5 32s19.5 16 31.5 21s25 7.5 39 7.5s26.833 -1.33301 38.5 -4s22.834 -7.33398 33.501 -14.001
s21.334 -15.834 32.001 -27.501s22.334 -26.834 35.001 -45.501z" />
    <glyph glyph-name="aacute" unicode="&#xe1;" horiz-adv-x="1280" 
d="M466 133c22.667 0 46.999 2.32812 72.999 6.99512s52 11.834 78 21.501s51.167 21.834 75.5 36.501s46.5 32.334 66.5 53.001l69 309c-78 0 -149.667 -2.66699 -215 -8s-121.666 -17.166 -168.999 -35.499s-84.333 -44.666 -111 -78.999s-40 -80.5 -40 -138.5
c0 -30.667 5.16699 -56.5 15.5 -77.5s23.666 -38 39.999 -51s34.833 -22.5 55.5 -28.5s41.334 -9 62.001 -9zM347.999 -21.0049c-46.667 0 -87.4951 7.82812 -122.495 23.4951s-64.167 36.334 -87.5 62.001s-40.833 55.334 -52.5 89.001s-17.5 68.5 -17.5 104.5
c0 54 9.16699 101.833 27.5 143.5s42.666 78.167 72.999 109.5s65.333 57.833 105 79.5s81 39.334 124 53.001s86.167 23.5 129.5 29.5s83.666 9 120.999 9c14 0 28.167 -0.5 42.5 -1.5s29.5 -2.33301 45.5 -4l52 -5.5c18.667 -2 39.667 -4 63 -6l15 70
c1.33301 6 2.66602 13.333 3.99902 22s2.5 18.5 3.5 29.5s1.66699 21.167 2 30.5s0.5 21 0.5 35c0 26.667 -5.33301 49.667 -16 69s-25 35 -43 47s-38.833 20.833 -62.5 26.5s-48.834 8.5 -75.501 8.5c-34 0 -69 -6 -105 -18s-70.833 -26.333 -104.5 -43s-65 -34 -94 -52
s-53.5 -32.667 -73.5 -44h-46v201l106 32c26 8 52.167 15.5 78.5 22.5s53.833 13.167 82.5 18.5s59 9.5 91 12.5s66 4.5 102 4.5c44 0 87.833 -4.33301 131.5 -13s83 -23 118 -43s63.5 -46.667 85.5 -80s33 -75 33 -125c0 -12 -0.5 -25.667 -1.5 -41
s-2.5 -30.666 -4.5 -45.999s-4.16699 -30.5 -6.5 -45.5s-4.83301 -27.833 -7.5 -38.5l-63 -279l-12.5 -59c-4.33301 -21.333 -8.33301 -42 -12 -62s-6.66699 -38.167 -9 -54.5s-3.5 -27.833 -3.5 -34.5c0 -10.667 1.33301 -21.167 4 -31.5s7.66699 -19.666 15 -27.999
s17.666 -15 30.999 -20s30.666 -7.5 51.999 -7.5c6.66699 0 14 0.5 22 1.5s16.667 2.5 26 4.5s19.333 4.66699 30 8s22.334 7.33301 35.001 12h39v-100c-28.667 -16 -56.834 -28.667 -84.501 -38s-54.167 -16.5 -79.5 -21.5s-49.166 -8.16699 -71.499 -9.5
s-42.5 -2 -60.5 -2c-32 0 -58.333 5.83301 -79 17.5s-37 26.5 -49 44.5s-20.333 37.833 -25 59.5s-7 42.167 -7 61.5h-16c-37.333 -41.333 -74 -74.5 -110 -99.5s-70.833 -44 -104.5 -57s-66 -21.5 -97 -25.5s-59.833 -6 -86.5 -6zM599.004 1224.99l-56.9971 45l103 138
l77.5 104.5c22.333 29.667 42.166 54.5 59.499 74.5s33.666 36.167 48.999 48.5s30.666 21.166 45.999 26.499s32.333 8 51 8c14 0 26.667 -2.33301 38 -7s21 -11 29 -19s14 -16.833 18 -26.5s6 -19.5 6 -29.5c0 -15.333 -1.83301 -28.666 -5.5 -39.999
s-9 -21.833 -16 -31.5s-15.833 -19 -26.5 -28s-23 -18.833 -37 -29.5z" />
    <glyph glyph-name="acircumflex" unicode="&#xe2;" horiz-adv-x="1280" 
d="M466 133c22.667 0 46.999 2.32812 72.999 6.99512s52 11.834 78 21.501s51.167 21.834 75.5 36.501s46.5 32.334 66.5 53.001l69 309c-78 0 -149.667 -2.66699 -215 -8s-121.666 -17.166 -168.999 -35.499s-84.333 -44.666 -111 -78.999s-40 -80.5 -40 -138.5
c0 -30.667 5.16699 -56.5 15.5 -77.5s23.666 -38 39.999 -51s34.833 -22.5 55.5 -28.5s41.334 -9 62.001 -9zM347.999 -21.0049c-46.667 0 -87.4951 7.82812 -122.495 23.4951s-64.167 36.334 -87.5 62.001s-40.833 55.334 -52.5 89.001s-17.5 68.5 -17.5 104.5
c0 54 9.16699 101.833 27.5 143.5s42.666 78.167 72.999 109.5s65.333 57.833 105 79.5s81 39.334 124 53.001s86.167 23.5 129.5 29.5s83.666 9 120.999 9c14 0 28.167 -0.5 42.5 -1.5s29.5 -2.33301 45.5 -4l52 -5.5c18.667 -2 39.667 -4 63 -6l15 70
c1.33301 6 2.66602 13.333 3.99902 22s2.5 18.5 3.5 29.5s1.66699 21.167 2 30.5s0.5 21 0.5 35c0 26.667 -5.33301 49.667 -16 69s-25 35 -43 47s-38.833 20.833 -62.5 26.5s-48.834 8.5 -75.501 8.5c-34 0 -69 -6 -105 -18s-70.833 -26.333 -104.5 -43s-65 -34 -94 -52
s-53.5 -32.667 -73.5 -44h-46v201l106 32c26 8 52.167 15.5 78.5 22.5s53.833 13.167 82.5 18.5s59 9.5 91 12.5s66 4.5 102 4.5c44 0 87.833 -4.33301 131.5 -13s83 -23 118 -43s63.5 -46.667 85.5 -80s33 -75 33 -125c0 -12 -0.5 -25.667 -1.5 -41
s-2.5 -30.666 -4.5 -45.999s-4.16699 -30.5 -6.5 -45.5s-4.83301 -27.833 -7.5 -38.5l-63 -279l-12.5 -59c-4.33301 -21.333 -8.33301 -42 -12 -62s-6.66699 -38.167 -9 -54.5s-3.5 -27.833 -3.5 -34.5c0 -10.667 1.33301 -21.167 4 -31.5s7.66699 -19.666 15 -27.999
s17.666 -15 30.999 -20s30.666 -7.5 51.999 -7.5c6.66699 0 14 0.5 22 1.5s16.667 2.5 26 4.5s19.333 4.66699 30 8s22.334 7.33301 35.001 12h39v-100c-28.667 -16 -56.834 -28.667 -84.501 -38s-54.167 -16.5 -79.5 -21.5s-49.166 -8.16699 -71.499 -9.5
s-42.5 -2 -60.5 -2c-32 0 -58.333 5.83301 -79 17.5s-37 26.5 -49 44.5s-20.333 37.833 -25 59.5s-7 42.167 -7 61.5h-16c-37.333 -41.333 -74 -74.5 -110 -99.5s-70.833 -44 -104.5 -57s-66 -21.5 -97 -25.5s-59.833 -6 -86.5 -6zM733.004 1480.99l-335.999 -256l-53 45
l275 307l34.5 37c11 11.333 22.167 21 33.5 29s23.166 14.167 35.499 18.5s25.833 6.5 40.5 6.5c29.333 0 52.333 -8.5 69 -25.5s32 -38.5 46 -64.5l164 -308l-67 -45z" />
    <glyph glyph-name="atilde" unicode="&#xe3;" horiz-adv-x="1280" 
d="M466 133c22.667 0 46.999 2.32812 72.999 6.99512s52 11.834 78 21.501s51.167 21.834 75.5 36.501s46.5 32.334 66.5 53.001l69 309c-78 0 -149.667 -2.66699 -215 -8s-121.666 -17.166 -168.999 -35.499s-84.333 -44.666 -111 -78.999s-40 -80.5 -40 -138.5
c0 -30.667 5.16699 -56.5 15.5 -77.5s23.666 -38 39.999 -51s34.833 -22.5 55.5 -28.5s41.334 -9 62.001 -9zM347.999 -21.0049c-46.667 0 -87.4951 7.82812 -122.495 23.4951s-64.167 36.334 -87.5 62.001s-40.833 55.334 -52.5 89.001s-17.5 68.5 -17.5 104.5
c0 54 9.16699 101.833 27.5 143.5s42.666 78.167 72.999 109.5s65.333 57.833 105 79.5s81 39.334 124 53.001s86.167 23.5 129.5 29.5s83.666 9 120.999 9c14 0 28.167 -0.5 42.5 -1.5s29.5 -2.33301 45.5 -4l52 -5.5c18.667 -2 39.667 -4 63 -6l15 70
c1.33301 6 2.66602 13.333 3.99902 22s2.5 18.5 3.5 29.5s1.66699 21.167 2 30.5s0.5 21 0.5 35c0 26.667 -5.33301 49.667 -16 69s-25 35 -43 47s-38.833 20.833 -62.5 26.5s-48.834 8.5 -75.501 8.5c-34 0 -69 -6 -105 -18s-70.833 -26.333 -104.5 -43s-65 -34 -94 -52
s-53.5 -32.667 -73.5 -44h-46v201l106 32c26 8 52.167 15.5 78.5 22.5s53.833 13.167 82.5 18.5s59 9.5 91 12.5s66 4.5 102 4.5c44 0 87.833 -4.33301 131.5 -13s83 -23 118 -43s63.5 -46.667 85.5 -80s33 -75 33 -125c0 -12 -0.5 -25.667 -1.5 -41
s-2.5 -30.666 -4.5 -45.999s-4.16699 -30.5 -6.5 -45.5s-4.83301 -27.833 -7.5 -38.5l-63 -279l-12.5 -59c-4.33301 -21.333 -8.33301 -42 -12 -62s-6.66699 -38.167 -9 -54.5s-3.5 -27.833 -3.5 -34.5c0 -10.667 1.33301 -21.167 4 -31.5s7.66699 -19.666 15 -27.999
s17.666 -15 30.999 -20s30.666 -7.5 51.999 -7.5c6.66699 0 14 0.5 22 1.5s16.667 2.5 26 4.5s19.333 4.66699 30 8s22.334 7.33301 35.001 12h39v-100c-28.667 -16 -56.834 -28.667 -84.501 -38s-54.167 -16.5 -79.5 -21.5s-49.166 -8.16699 -71.499 -9.5
s-42.5 -2 -60.5 -2c-32 0 -58.333 5.83301 -79 17.5s-37 26.5 -49 44.5s-20.333 37.833 -25 59.5s-7 42.167 -7 61.5h-16c-37.333 -41.333 -74 -74.5 -110 -99.5s-70.833 -44 -104.5 -57s-66 -21.5 -97 -25.5s-59.833 -6 -86.5 -6zM446.004 1275.99l-98.0039 -0.00292969
c7.33301 36.667 19.5 71.334 36.5 104.001s37.333 61.334 61 86.001s49.834 44.334 78.501 59.001s58.667 22 90 22c28.667 0 55.5 -5.16699 80.5 -15.5s49 -21.666 72 -33.999s45.333 -23.666 67 -33.999s43.834 -15.5 66.501 -15.5c10.667 0 21.167 2.33301 31.5 7
s20 11.667 29 21s17.167 21.166 24.5 35.499s13.666 31.166 18.999 50.499h99c-7.33301 -36 -19 -70.333 -35 -103s-35.5 -61.334 -58.5 -86.001s-48.667 -44.334 -77 -59.001s-58.5 -22 -90.5 -22c-29.333 0 -56 5.33301 -80 16s-47.167 22.334 -69.5 35.001
s-44.166 24.334 -65.499 35.001s-43.666 16 -66.999 16c-10 0 -20.667 -2.33301 -32 -7s-22.166 -11.667 -32.499 -21s-19.833 -21.5 -28.5 -36.5s-15.667 -32.833 -21 -53.5z" />
    <glyph glyph-name="adieresis" unicode="&#xe4;" horiz-adv-x="1280" 
d="M466 133c22.667 0 46.999 2.32812 72.999 6.99512s52 11.834 78 21.501s51.167 21.834 75.5 36.501s46.5 32.334 66.5 53.001l69 309c-78 0 -149.667 -2.66699 -215 -8s-121.666 -17.166 -168.999 -35.499s-84.333 -44.666 -111 -78.999s-40 -80.5 -40 -138.5
c0 -30.667 5.16699 -56.5 15.5 -77.5s23.666 -38 39.999 -51s34.833 -22.5 55.5 -28.5s41.334 -9 62.001 -9zM347.999 -21.0049c-46.667 0 -87.4951 7.82812 -122.495 23.4951s-64.167 36.334 -87.5 62.001s-40.833 55.334 -52.5 89.001s-17.5 68.5 -17.5 104.5
c0 54 9.16699 101.833 27.5 143.5s42.666 78.167 72.999 109.5s65.333 57.833 105 79.5s81 39.334 124 53.001s86.167 23.5 129.5 29.5s83.666 9 120.999 9c14 0 28.167 -0.5 42.5 -1.5s29.5 -2.33301 45.5 -4l52 -5.5c18.667 -2 39.667 -4 63 -6l15 70
c1.33301 6 2.66602 13.333 3.99902 22s2.5 18.5 3.5 29.5s1.66699 21.167 2 30.5s0.5 21 0.5 35c0 26.667 -5.33301 49.667 -16 69s-25 35 -43 47s-38.833 20.833 -62.5 26.5s-48.834 8.5 -75.501 8.5c-34 0 -69 -6 -105 -18s-70.833 -26.333 -104.5 -43s-65 -34 -94 -52
s-53.5 -32.667 -73.5 -44h-46v201l106 32c26 8 52.167 15.5 78.5 22.5s53.833 13.167 82.5 18.5s59 9.5 91 12.5s66 4.5 102 4.5c44 0 87.833 -4.33301 131.5 -13s83 -23 118 -43s63.5 -46.667 85.5 -80s33 -75 33 -125c0 -12 -0.5 -25.667 -1.5 -41
s-2.5 -30.666 -4.5 -45.999s-4.16699 -30.5 -6.5 -45.5s-4.83301 -27.833 -7.5 -38.5l-63 -279l-12.5 -59c-4.33301 -21.333 -8.33301 -42 -12 -62s-6.66699 -38.167 -9 -54.5s-3.5 -27.833 -3.5 -34.5c0 -10.667 1.33301 -21.167 4 -31.5s7.66699 -19.666 15 -27.999
s17.666 -15 30.999 -20s30.666 -7.5 51.999 -7.5c6.66699 0 14 0.5 22 1.5s16.667 2.5 26 4.5s19.333 4.66699 30 8s22.334 7.33301 35.001 12h39v-100c-28.667 -16 -56.834 -28.667 -84.501 -38s-54.167 -16.5 -79.5 -21.5s-49.166 -8.16699 -71.499 -9.5
s-42.5 -2 -60.5 -2c-32 0 -58.333 5.83301 -79 17.5s-37 26.5 -49 44.5s-20.333 37.833 -25 59.5s-7 42.167 -7 61.5h-16c-37.333 -41.333 -74 -74.5 -110 -99.5s-70.833 -44 -104.5 -57s-66 -21.5 -97 -25.5s-59.833 -6 -86.5 -6zM486.004 1293.99
c-17.333 0 -33.834 2.66602 -49.501 7.99902s-29.334 13 -41.001 23s-21 22.333 -28 37s-10.5 31.334 -10.5 50.001c0 20.667 3.5 38.667 10.5 54s16.333 28.166 28 38.499s25.334 18.166 41.001 23.499s32.167 8 49.5 8c20 0 38.333 -2.33301 55 -7s31 -11.667 43 -21
s21.167 -21.166 27.5 -35.499s9.5 -31.166 9.5 -50.499c0 -20 -3.5 -38 -10.5 -54s-16.5 -29.5 -28.5 -40.5s-26.167 -19.333 -42.5 -25s-34.166 -8.5 -53.499 -8.5zM948.003 1293.99c-17.333 0 -33.834 2.66602 -49.501 7.99902s-29.334 13 -41.001 23s-21 22.333 -28 37
s-10.5 31.334 -10.5 50.001c0 20.667 3.5 38.667 10.5 54s16.333 28.166 28 38.499s25.334 18.166 41.001 23.499s32.167 8 49.5 8c20 0 38.333 -2.33301 55 -7s31 -11.667 43 -21s21.167 -21.166 27.5 -35.499s9.5 -31.166 9.5 -50.499c0 -20 -3.5 -38 -10.5 -54
s-16.5 -29.5 -28.5 -40.5s-26.167 -19.333 -42.5 -25s-34.166 -8.5 -53.499 -8.5z" />
    <glyph glyph-name="aring" unicode="&#xe5;" horiz-adv-x="1280" 
d="M466 133c22.667 0 46.999 2.32812 72.999 6.99512s52 11.834 78 21.501s51.167 21.834 75.5 36.501s46.5 32.334 66.5 53.001l69 309c-78 0 -149.667 -2.66699 -215 -8s-121.666 -17.166 -168.999 -35.499s-84.333 -44.666 -111 -78.999s-40 -80.5 -40 -138.5
c0 -30.667 5.16699 -56.5 15.5 -77.5s23.666 -38 39.999 -51s34.833 -22.5 55.5 -28.5s41.334 -9 62.001 -9zM347.999 -21.0049c-46.667 0 -87.4951 7.82812 -122.495 23.4951s-64.167 36.334 -87.5 62.001s-40.833 55.334 -52.5 89.001s-17.5 68.5 -17.5 104.5
c0 54 9.16699 101.833 27.5 143.5s42.666 78.167 72.999 109.5s65.333 57.833 105 79.5s81 39.334 124 53.001s86.167 23.5 129.5 29.5s83.666 9 120.999 9c14 0 28.167 -0.5 42.5 -1.5s29.5 -2.33301 45.5 -4l52 -5.5c18.667 -2 39.667 -4 63 -6l15 70
c1.33301 6 2.66602 13.333 3.99902 22s2.5 18.5 3.5 29.5s1.66699 21.167 2 30.5s0.5 21 0.5 35c0 26.667 -5.33301 49.667 -16 69s-25 35 -43 47s-38.833 20.833 -62.5 26.5s-48.834 8.5 -75.501 8.5c-34 0 -69 -6 -105 -18s-70.833 -26.333 -104.5 -43s-65 -34 -94 -52
s-53.5 -32.667 -73.5 -44h-46v201l106 32c26 8 52.167 15.5 78.5 22.5s53.833 13.167 82.5 18.5s59 9.5 91 12.5s66 4.5 102 4.5c44 0 87.833 -4.33301 131.5 -13s83 -23 118 -43s63.5 -46.667 85.5 -80s33 -75 33 -125c0 -12 -0.5 -25.667 -1.5 -41
s-2.5 -30.666 -4.5 -45.999s-4.16699 -30.5 -6.5 -45.5s-4.83301 -27.833 -7.5 -38.5l-63 -279l-12.5 -59c-4.33301 -21.333 -8.33301 -42 -12 -62s-6.66699 -38.167 -9 -54.5s-3.5 -27.833 -3.5 -34.5c0 -10.667 1.33301 -21.167 4 -31.5s7.66699 -19.666 15 -27.999
s17.666 -15 30.999 -20s30.666 -7.5 51.999 -7.5c6.66699 0 14 0.5 22 1.5s16.667 2.5 26 4.5s19.333 4.66699 30 8s22.334 7.33301 35.001 12h39v-100c-28.667 -16 -56.834 -28.667 -84.501 -38s-54.167 -16.5 -79.5 -21.5s-49.166 -8.16699 -71.499 -9.5
s-42.5 -2 -60.5 -2c-32 0 -58.333 5.83301 -79 17.5s-37 26.5 -49 44.5s-20.333 37.833 -25 59.5s-7 42.167 -7 61.5h-16c-37.333 -41.333 -74 -74.5 -110 -99.5s-70.833 -44 -104.5 -57s-66 -21.5 -97 -25.5s-59.833 -6 -86.5 -6zM718.004 1310.99c22 0 42.334 5 61.001 15
s34.667 24 48 42s23.666 39 30.999 63s11 50 11 78c0 40 -9.33301 72.167 -28 96.5s-45 36.5 -79 36.5c-26 0 -48.833 -5.5 -68.5 -16.5s-36.167 -25.5 -49.5 -43.5s-23.333 -39 -30 -63s-10 -49 -10 -75c0 -40.667 10.5 -73 31.5 -97s48.5 -36 82.5 -36zM690.005 1228.99
c-34 0 -65.001 4.33496 -93.001 13.002s-52.167 21.5 -72.5 38.5s-36 37.667 -47 62s-16.5 52.5 -16.5 84.5c0 42.667 8 82.167 24 118.5s38.333 67.666 67 93.999s63 47 103 62s83.667 22.5 131 22.5c34 0 64.833 -4.33301 92.5 -13s51.334 -21.334 71.001 -38.001
s35 -37 46 -61s16.5 -51.333 16.5 -82c0 -43.333 -8 -83.5 -24 -120.5s-38.333 -68.833 -67 -95.5s-62.667 -47.5 -102 -62.5s-82.333 -22.5 -129 -22.5z" />
    </font>
</defs>
</svg>
